<svg width="29" height="29" viewBox="0 0 29 29" fill="none" xmlns="http://www.w3.org/2000/svg">
<g clip-path="url(#clip0_49_23237)">
<path d="M6.93301 10.7531C6.93301 10.6479 6.89124 10.547 6.81688 10.4727C6.74252 10.3983 6.64168 10.3566 6.53652 10.3566C5.36811 10.3582 4.24803 10.8231 3.42195 11.6494C2.59586 12.4757 2.1312 13.5959 2.12988 14.7643C2.12988 14.8164 2.14014 14.868 2.16006 14.9161C2.17999 14.9642 2.20919 15.0079 2.24601 15.0447C2.28283 15.0815 2.32654 15.1107 2.37464 15.1306C2.42274 15.1506 2.4743 15.1608 2.52637 15.1608C2.57843 15.1608 2.62999 15.1506 2.6781 15.1306C2.7262 15.1107 2.76991 15.0815 2.80672 15.0447C2.84354 15.0079 2.87275 14.9642 2.89267 14.9161C2.9126 14.868 2.92285 14.8164 2.92285 14.7643C2.92393 13.8061 3.305 12.8874 3.98247 12.2098C4.65995 11.5322 5.57853 11.1509 6.53675 11.1495C6.64186 11.1495 6.74265 11.1077 6.81696 11.0333C6.89127 10.959 6.93301 10.8582 6.93301 10.7531Z" fill="white"/>
<path d="M10.3791 2.28198C9.76906 2.2827 9.18422 2.52536 8.75286 2.95672C8.3215 3.38807 8.07884 3.97292 8.07812 4.58295C8.07813 4.68811 8.1199 4.78895 8.19425 4.86331C8.26861 4.93766 8.36946 4.97944 8.47461 4.97944C8.57976 4.97944 8.68061 4.93766 8.75497 4.86331C8.82932 4.78895 8.87109 4.68811 8.87109 4.58295C8.87109 4.18298 9.02998 3.79938 9.31281 3.51655C9.59564 3.23373 9.97923 3.07484 10.3792 3.07484C10.7792 3.07484 11.1628 3.23373 11.4456 3.51655C11.7284 3.79938 11.8873 4.18298 11.8873 4.58295C11.8873 4.68811 11.9291 4.78895 12.0034 4.86331C12.0778 4.93766 12.1787 4.97944 12.2838 4.97944C12.389 4.97944 12.4898 4.93766 12.5642 4.86331C12.6385 4.78895 12.6803 4.68811 12.6803 4.58295C12.6796 3.97288 12.4369 3.388 12.0055 2.95664C11.5741 2.52527 10.9892 2.28264 10.3791 2.28198Z" fill="white"/>
<path d="M8.12842 8.07837H8.29834C8.81547 8.07891 9.31127 8.28458 9.67694 8.65025C10.0426 9.01592 10.2483 9.51171 10.2488 10.0288V11.3105C10.2483 11.8276 10.0426 12.3234 9.67694 12.6891C9.31127 13.0548 8.81547 13.2604 8.29834 13.261C8.19319 13.261 8.09234 13.3028 8.01798 13.3771C7.94363 13.4515 7.90186 13.5523 7.90186 13.6575C7.90186 13.7626 7.94363 13.8635 8.01798 13.9378C8.09234 14.0122 8.19319 14.054 8.29834 14.054C9.02569 14.0531 9.72301 13.7638 10.2373 13.2495C10.7516 12.7352 11.0409 12.0379 11.0418 11.3105V10.0288C11.0409 9.3015 10.7516 8.60418 10.2373 8.08986C9.72301 7.57555 9.02569 7.28624 8.29834 7.2854H8.12842C8.02326 7.2854 7.92242 7.32717 7.84806 7.40153C7.77371 7.47588 7.73193 7.57673 7.73193 7.68188C7.73193 7.78704 7.77371 7.88789 7.84806 7.96224C7.92242 8.0366 8.02326 8.07837 8.12842 8.07837Z" fill="white"/>
<path d="M10.6484 18.0471C10.7536 18.0471 10.8544 18.0053 10.9288 17.931C11.0031 17.8566 11.0449 17.7558 11.0449 17.6506C11.0449 17.5455 11.0031 17.4446 10.9288 17.3703C10.8544 17.2959 10.7536 17.2542 10.6484 17.2542H8.38281C7.77462 17.2535 7.19153 17.0116 6.76148 16.5815C6.33142 16.1515 6.08953 15.5684 6.08887 14.9602C6.08887 14.8551 6.04709 14.7542 5.97274 14.6798C5.89838 14.6055 5.79754 14.5637 5.69238 14.5637C5.58723 14.5637 5.48638 14.6055 5.41203 14.6798C5.33767 14.7542 5.2959 14.8551 5.2959 14.9602C5.29686 15.7786 5.62239 16.5632 6.20109 17.1419C6.7798 17.7206 7.56441 18.0462 8.38281 18.0471H10.6484Z" fill="white"/>
<path d="M12.0928 22.7483C11.3419 22.7475 10.6221 22.4488 10.0912 21.9179C9.56022 21.387 9.26158 20.6671 9.26074 19.9163C9.26074 19.8111 9.21897 19.7103 9.14461 19.6359C9.07026 19.5615 8.96941 19.5198 8.86426 19.5198C8.7591 19.5198 8.65826 19.5615 8.5839 19.6359C8.50955 19.7103 8.46777 19.8111 8.46777 19.9163C8.46885 20.8773 8.85112 21.7987 9.5307 22.4783C10.2103 23.1579 11.1317 23.5402 12.0928 23.5413C12.1979 23.5413 12.2988 23.4995 12.3731 23.4251C12.4475 23.3508 12.4893 23.2499 12.4893 23.1448C12.4893 23.0396 12.4475 22.9388 12.3731 22.8644C12.2988 22.7901 12.1979 22.7483 12.0928 22.7483Z" fill="white"/>
<path d="M6.46704 21.9228C6.14926 21.8749 5.86347 21.7029 5.67234 21.4445C5.48121 21.1862 5.40036 20.8626 5.44751 20.5447C5.45598 20.4928 5.45407 20.4399 5.44189 20.3888C5.42972 20.3377 5.40752 20.2896 5.37659 20.2471C5.34566 20.2047 5.30661 20.1688 5.2617 20.1416C5.2168 20.1144 5.16694 20.0964 5.11501 20.0886C5.06309 20.0808 5.01013 20.0834 4.95922 20.0963C4.90831 20.1091 4.86046 20.1319 4.81844 20.1634C4.77643 20.1949 4.74108 20.2344 4.71446 20.2797C4.68784 20.325 4.67048 20.3751 4.66337 20.4271C4.58531 20.953 4.719 21.4883 5.03512 21.9158C5.35125 22.3432 5.82399 22.6278 6.34968 22.7072C6.36926 22.71 6.38902 22.7115 6.40881 22.7115C6.50891 22.7115 6.60529 22.6736 6.67862 22.6055C6.75196 22.5374 6.79681 22.444 6.80418 22.3442C6.81155 22.2444 6.78089 22.1455 6.71836 22.0673C6.65583 21.9892 6.56605 21.9376 6.46704 21.9228Z" fill="white"/>
<path d="M10.4785 26.11C10.028 26.1095 9.59608 25.9303 9.27752 25.6118C8.95896 25.2932 8.77978 24.8613 8.7793 24.4108C8.7793 24.3056 8.73752 24.2048 8.66317 24.1304C8.58881 24.0561 8.48797 24.0143 8.38281 24.0143C8.27766 24.0143 8.17681 24.0561 8.10246 24.1304C8.0281 24.2048 7.98633 24.3056 7.98633 24.4108C7.98705 25.0715 8.24985 25.705 8.71707 26.1722C9.18429 26.6394 9.81777 26.9022 10.4785 26.903C10.5837 26.903 10.6845 26.8612 10.7589 26.7868C10.8332 26.7125 10.875 26.6116 10.875 26.5065C10.875 26.4013 10.8332 26.3005 10.7589 26.2261C10.6845 26.1518 10.5837 26.11 10.4785 26.11Z" fill="white"/>
<path d="M27.428 15.9513C27.1489 15.9516 26.8751 16.0267 26.635 16.1688L21.492 11.0259C21.4177 10.9515 21.3169 10.9097 21.2118 10.9096H14.8963V8.45597H25.9089C26.0053 8.82589 26.2332 9.14799 26.55 9.36199C26.8667 9.57599 27.2506 9.66722 27.6298 9.61862C28.009 9.57001 28.3574 9.3849 28.61 9.09792C28.8625 8.81094 29.0018 8.44176 29.0018 8.05949C29.0018 7.67721 28.8625 7.30804 28.61 7.02106C28.3574 6.73408 28.009 6.54896 27.6298 6.50035C27.2506 6.45175 26.8667 6.54298 26.55 6.75699C26.2332 6.97099 26.0053 7.29309 25.9089 7.663H14.8963V5.88834H21.2118C21.3169 5.88829 21.4177 5.84648 21.492 5.77211L23.1912 4.07289C23.531 4.24974 23.9235 4.2967 24.2954 4.205C24.6673 4.1133 24.993 3.88921 25.2116 3.57469C25.4302 3.26016 25.5266 2.87676 25.4829 2.49624C25.4392 2.11573 25.2583 1.76418 24.9741 1.50742C24.6899 1.25065 24.3219 1.10626 23.9389 1.10127C23.5559 1.09628 23.1842 1.23104 22.8934 1.48031C22.6026 1.72959 22.4126 2.0763 22.359 2.45555C22.3054 2.8348 22.3919 3.22059 22.6022 3.5407L21.0475 5.09537H14.8963V4.49588C14.8955 3.32872 14.4429 2.20718 13.6334 1.36632C12.824 0.525462 11.7205 0.0305576 10.5542 -0.0146704C9.38788 -0.0598984 8.24935 0.348061 7.3772 1.12371C6.50505 1.89935 5.96697 2.98248 5.87574 4.14607C4.94739 4.28249 4.09905 4.74821 3.48558 5.45821C2.87211 6.16822 2.53443 7.07517 2.53417 8.01349C2.53374 8.49005 2.62162 8.96255 2.79336 9.40708C1.94344 10.0008 1.24692 10.7881 0.76133 11.7041C0.275736 12.6201 0.0149921 13.6384 0.000627541 14.675C-0.013737 15.7117 0.21869 16.7369 0.678717 17.6659C1.13874 18.595 1.81318 19.4014 2.64632 20.0184C2.5169 20.547 2.49937 21.0968 2.59484 21.6326C2.69032 22.1684 2.8967 22.6783 3.20075 23.1296C3.5048 23.581 3.89981 23.9638 4.36047 24.2536C4.82112 24.5434 5.33724 24.7337 5.87574 24.8124C5.96698 25.9761 6.50508 27.0592 7.37729 27.8349C8.24949 28.6105 9.38807 29.0184 10.5544 28.9732C11.7207 28.9279 12.8242 28.4329 13.6337 27.5919C14.4431 26.751 14.8956 25.6294 14.8963 24.4622V24.3915H19.235L20.9247 26.5388C20.7013 26.8513 20.5994 27.2345 20.6381 27.6166C20.6769 27.9988 20.8536 28.3537 21.1353 28.6149C21.4169 28.8762 21.7841 29.0258 22.1681 29.0357C22.5521 29.0457 22.9265 28.9153 23.2213 28.669C23.5161 28.4227 23.711 28.0774 23.7695 27.6977C23.828 27.3181 23.7461 26.9301 23.5391 26.6065C23.3321 26.283 23.0142 26.0459 22.6451 25.9398C22.2759 25.8337 21.8807 25.8659 21.5335 26.0302L19.7391 23.7498C19.702 23.7027 19.6547 23.6646 19.6007 23.6384C19.5468 23.6121 19.4876 23.5985 19.4276 23.5985H14.8963V21.2196H19.0837C19.1801 21.5895 19.408 21.9116 19.7248 22.1256C20.0415 22.3396 20.4254 22.4308 20.8046 22.3822C21.1838 22.3336 21.5322 22.1485 21.7848 21.8615C22.0373 21.5746 22.1766 21.2054 22.1766 20.8231C22.1766 20.4408 22.0373 20.0717 21.7848 19.7847C21.5322 19.4977 21.1838 19.3126 20.8046 19.264C20.4254 19.2154 20.0415 19.3066 19.7248 19.5206C19.408 19.7346 19.1801 20.0567 19.0837 20.4266H14.8963V18.0477H21.5756C21.672 18.4176 21.9 18.7397 22.2167 18.9537C22.5335 19.1677 22.9174 19.259 23.2965 19.2104C23.6757 19.1618 24.0242 18.9766 24.2767 18.6897C24.5293 18.4027 24.6686 18.0335 24.6686 17.6512C24.6686 17.269 24.5293 16.8998 24.2767 16.6128C24.0242 16.3258 23.6757 16.1407 23.2965 16.0921C22.9174 16.0435 22.5335 16.1347 22.2167 16.3487C21.9 16.5627 21.672 16.8848 21.5756 17.2548H14.8963V14.8758H17.2795C17.385 15.2433 17.6209 15.5598 17.9428 15.7659C18.2648 15.9721 18.6509 16.0539 19.0288 15.996C19.4067 15.938 19.7505 15.7444 19.996 15.4513C20.2414 15.1581 20.3716 14.7856 20.3622 14.4034C20.3529 14.0212 20.2045 13.6555 19.945 13.3747C19.6854 13.094 19.3325 12.9175 18.9522 12.8782C18.5719 12.8389 18.1903 12.9396 17.8788 13.1613C17.5674 13.383 17.3474 13.7107 17.2601 14.0829H14.8963V11.704H21.0475L26.0738 16.73C25.8992 17.0288 25.8282 17.377 25.8718 17.7203C25.9154 18.0636 26.0713 18.3829 26.3151 18.6286C26.5589 18.8742 26.877 19.0324 27.22 19.0786C27.563 19.1248 27.9116 19.0563 28.2117 18.884C28.5118 18.7116 28.7466 18.4449 28.8795 18.1253C29.0124 17.8057 29.036 17.4512 28.9466 17.1169C28.8573 16.7825 28.66 16.4871 28.3854 16.2764C28.1108 16.0657 27.7743 15.9517 27.4282 15.952L27.428 15.9513ZM27.428 7.28056C27.582 7.28052 27.7326 7.32616 27.8608 7.41173C27.9889 7.49729 28.0888 7.61892 28.1477 7.76125C28.2067 7.90357 28.2222 8.0602 28.1922 8.21131C28.1621 8.36242 28.088 8.50123 27.979 8.61019C27.8701 8.71914 27.7313 8.79335 27.5802 8.82343C27.4291 8.8535 27.2725 8.83809 27.1302 8.77914C26.9878 8.72019 26.8661 8.62035 26.7805 8.49226C26.6949 8.36416 26.6493 8.21355 26.6493 8.05949C26.6494 7.853 26.7315 7.65501 26.8775 7.50898C27.0235 7.36295 27.2215 7.2808 27.428 7.28056ZM23.9162 1.89948C24.0702 1.89948 24.2208 1.94515 24.3489 2.03071C24.4769 2.11628 24.5767 2.23789 24.6357 2.38018C24.6946 2.52247 24.71 2.67904 24.68 2.83009C24.6499 2.98114 24.5758 3.11989 24.4669 3.22879C24.358 3.3377 24.2192 3.41186 24.0682 3.44191C23.9171 3.47195 23.7605 3.45653 23.6182 3.39759C23.476 3.33866 23.3543 3.23885 23.2688 3.11079C23.1832 2.98274 23.1375 2.83219 23.1375 2.67817C23.1378 2.47172 23.2199 2.2738 23.3659 2.12782C23.5119 1.98184 23.7098 1.89972 23.9162 1.89948ZM22.9817 27.4494C22.9817 27.6034 22.936 27.7539 22.8504 27.882C22.7649 28.0101 22.6433 28.1099 22.501 28.1688C22.3587 28.2277 22.2021 28.2432 22.0511 28.2131C21.9 28.1831 21.7613 28.1089 21.6523 28C21.5434 27.8911 21.4693 27.7524 21.4392 27.6013C21.4092 27.4502 21.4246 27.2937 21.4835 27.1514C21.5425 27.0091 21.6423 26.8875 21.7703 26.8019C21.8984 26.7164 22.049 26.6707 22.203 26.6707C22.4094 26.6709 22.6073 26.753 22.7533 26.899C22.8993 27.045 22.9814 27.2429 22.9817 27.4494ZM20.6028 20.0437C20.7568 20.0437 20.9075 20.0893 21.0356 20.1749C21.1637 20.2605 21.2636 20.3821 21.3226 20.5245C21.3816 20.6668 21.397 20.8234 21.367 20.9746C21.3369 21.1257 21.2627 21.2645 21.1538 21.3734C21.0448 21.4824 20.906 21.5566 20.7549 21.5866C20.6038 21.6167 20.4471 21.6012 20.3048 21.5422C20.1625 21.4833 20.0408 21.3834 19.9552 21.2553C19.8697 21.1271 19.824 20.9765 19.8241 20.8224C19.8243 20.616 19.9064 20.4181 20.0524 20.2721C20.1984 20.1261 20.3963 20.044 20.6028 20.0437ZM23.0949 16.8719C23.249 16.8718 23.3997 16.9175 23.5278 17.003C23.6559 17.0886 23.7558 17.2103 23.8148 17.3526C23.8737 17.4949 23.8892 17.6516 23.8591 17.8027C23.8291 17.9538 23.7549 18.0926 23.646 18.2016C23.537 18.3105 23.3982 18.3847 23.2471 18.4147C23.096 18.4448 22.9393 18.4294 22.797 18.3704C22.6546 18.3114 22.533 18.2115 22.4474 18.0834C22.3619 17.9553 22.3162 17.8046 22.3163 17.6506C22.3165 17.4441 22.3986 17.2462 22.5446 17.1002C22.6906 16.9542 22.8885 16.8721 23.0949 16.8719ZM18.7889 13.6617C18.943 13.6617 19.0936 13.7073 19.2217 13.7929C19.3498 13.8784 19.4497 14.0001 19.5087 14.1424C19.5677 14.2847 19.5831 14.4413 19.5531 14.5924C19.5231 14.7435 19.4489 14.8824 19.34 14.9913C19.2311 15.1003 19.0923 15.1745 18.9412 15.2046C18.7901 15.2346 18.6334 15.2192 18.4911 15.1603C18.3488 15.1013 18.2271 15.0015 18.1415 14.8734C18.0559 14.7453 18.0102 14.5947 18.0102 14.4406C18.0104 14.2341 18.0925 14.0361 18.2385 13.8901C18.3845 13.7441 18.5824 13.6619 18.7889 13.6617ZM14.1034 24.4617C14.097 25.4444 13.7024 26.3848 13.0056 27.0779C12.3088 27.7709 11.3664 28.1605 10.3836 28.1616C9.40087 28.1628 8.45749 27.7755 7.75908 27.0841C7.06068 26.3927 6.66386 25.4533 6.65512 24.4705C6.65512 24.4642 6.65512 24.4574 6.65512 24.4522C6.65515 24.3507 6.61623 24.253 6.54638 24.1793C6.47654 24.1056 6.38109 24.0616 6.27971 24.0562C5.80196 24.0315 5.33632 23.8971 4.91891 23.6634C4.50151 23.4297 4.14356 23.1029 3.87286 22.7085C3.60215 22.3141 3.42596 21.8626 3.35796 21.389C3.28996 20.9155 3.33198 20.4327 3.48075 19.978C3.50744 19.8962 3.50672 19.8078 3.47872 19.7264C3.45072 19.645 3.39695 19.5749 3.32556 19.5267C2.53105 18.9912 1.88313 18.2655 1.4408 17.4155C0.998479 16.5656 0.775802 15.6185 0.793052 14.6606C0.810302 13.7026 1.06693 12.7642 1.53957 11.9307C2.0122 11.0973 2.68583 10.3953 3.4991 9.88875C3.58231 9.83684 3.64333 9.75593 3.67036 9.66165C3.69739 9.56737 3.68852 9.46642 3.64546 9.37831C3.41862 8.91606 3.31008 8.40473 3.32956 7.89019C3.34905 7.37564 3.49595 6.87399 3.7571 6.43022C4.01825 5.98645 4.38548 5.61444 4.82584 5.34758C5.2662 5.08072 5.76591 4.92734 6.28016 4.90121C6.38154 4.89581 6.47699 4.85173 6.54683 4.77805C6.61668 4.70437 6.6556 4.6067 6.65557 4.50517C6.65557 4.50019 6.65557 4.49362 6.65557 4.48705C6.66429 3.50434 7.06108 2.5649 7.75946 1.87348C8.45785 1.18206 9.40121 0.794712 10.384 0.795848C11.3667 0.796984 12.3092 1.18651 13.006 1.87955C13.7028 2.57258 14.0974 3.51293 14.1038 4.49566L14.1034 24.4617ZM27.428 18.3021C27.2739 18.3021 27.1233 18.2565 26.9952 18.1709C26.8671 18.0853 26.7673 17.9636 26.7083 17.8213C26.6494 17.6789 26.6339 17.5223 26.664 17.3712C26.6941 17.2201 26.7683 17.0813 26.8773 16.9724C26.9862 16.8634 27.125 16.7893 27.2761 16.7592C27.4272 16.7292 27.5839 16.7447 27.7262 16.8037C27.8685 16.8627 27.9902 16.9625 28.0757 17.0906C28.1613 17.2188 28.2069 17.3694 28.2069 17.5235C28.2066 17.7299 28.1244 17.9278 27.9784 18.0737C27.8324 18.2197 27.6344 18.302 27.428 18.3021Z" fill="white"/>
<path d="M26.2528 10.2307C25.9419 10.2307 25.638 10.3228 25.3794 10.4955C25.1209 10.6682 24.9194 10.9137 24.8004 11.2009C24.6814 11.4881 24.6502 11.8042 24.7108 12.1091C24.7715 12.4141 24.9212 12.6942 25.141 12.914C25.3608 13.1339 25.6409 13.2836 25.9458 13.3443C26.2507 13.4049 26.5668 13.3738 26.854 13.2549C27.1413 13.1359 27.3868 12.9344 27.5595 12.6759C27.7323 12.4174 27.8244 12.1135 27.8244 11.8026C27.824 11.3859 27.6582 10.9864 27.3636 10.6917C27.069 10.397 26.6695 10.2313 26.2528 10.2307ZM26.2528 12.5813C26.0987 12.5813 25.9481 12.5357 25.82 12.4501C25.6918 12.3646 25.592 12.2429 25.533 12.1006C25.474 11.9582 25.4585 11.8016 25.4886 11.6505C25.5186 11.4994 25.5928 11.3605 25.7018 11.2516C25.8107 11.1426 25.9495 11.0685 26.1007 11.0384C26.2518 11.0084 26.4084 11.0238 26.5507 11.0828C26.6931 11.1418 26.8147 11.2416 26.9003 11.3698C26.9859 11.4979 27.0315 11.6485 27.0315 11.8026C27.0312 12.0091 26.9491 12.207 26.8031 12.353C26.6572 12.4989 26.4592 12.5811 26.2528 12.5813Z" fill="white"/>
<path d="M26.2528 21.0039C25.9419 21.0039 25.638 21.096 25.3794 21.2687C25.1209 21.4414 24.9194 21.6869 24.8004 21.9741C24.6814 22.2613 24.6502 22.5774 24.7108 22.8823C24.7715 23.1873 24.9212 23.4674 25.141 23.6872C25.3608 23.9071 25.6409 24.0568 25.9458 24.1175C26.2507 24.1781 26.5668 24.147 26.854 24.0281C27.1413 23.9091 27.3868 23.7076 27.5595 23.4491C27.7323 23.1906 27.8244 22.8867 27.8244 22.5758C27.824 22.1591 27.6582 21.7596 27.3636 21.4649C27.069 21.1702 26.6695 21.0044 26.2528 21.0039ZM26.2528 23.3545C26.0987 23.3545 25.9481 23.3089 25.82 23.2233C25.6919 23.1378 25.592 23.0161 25.533 22.8738C25.474 22.7315 25.4585 22.5749 25.4886 22.4237C25.5186 22.2726 25.5928 22.1338 25.7017 22.0249C25.8106 21.9159 25.9494 21.8417 26.1005 21.8116C26.2516 21.7816 26.4082 21.797 26.5506 21.8559C26.6929 21.9149 26.8146 22.0147 26.9002 22.1428C26.9858 22.2709 27.0315 22.4215 27.0315 22.5756C27.0313 22.7821 26.9492 22.98 26.8032 23.1261C26.6572 23.2721 26.4593 23.3543 26.2528 23.3545Z" fill="white"/>
</g>
<defs>
<clipPath id="clip0_49_23237">
<rect width="29" height="29" fill="white"/>
</clipPath>
</defs>
</svg>
