<svg width="92" height="46" viewBox="0 0 92 46" fill="none" xmlns="http://www.w3.org/2000/svg">
<path d="M28.4624 28.3422V18.0778H29.7828L36.0581 26.3435V18.0778H37.3132V28.3422H35.9929L29.7099 19.9953V28.3422H28.4548H28.4624ZM47.5367 27.9348C46.681 28.251 45.7756 28.4111 44.8634 28.4075C41.1467 28.4075 39.2876 26.6304 39.2876 23.0602C39.2876 19.6857 41.0807 17.9898 44.6752 17.9898C45.7026 17.9898 46.6633 18.1362 47.5435 18.4147V19.556C46.6633 19.2145 45.7504 19.0506 44.8209 19.0506C42.0171 19.0506 40.6148 20.3876 40.6148 23.0283C40.6148 25.8814 42.0004 27.3004 44.7556 27.3004C45.1957 27.3004 45.6852 27.2351 46.2232 27.1213V23.6816H47.5435V27.9363L47.5367 27.9348ZM49.656 24.3805V18.0717H50.9764V24.3805C50.9764 26.3534 51.9628 27.3398 53.9357 27.3398C55.8919 27.3398 56.8951 26.3534 56.8951 24.3805V18.0717H58.2154V24.3805C58.2154 27.0705 56.7964 28.4234 53.9433 28.4234C51.0902 28.4234 49.6712 27.0705 49.6712 24.3805H49.656ZM61.8835 18.0778V27.2799H67.2711V28.3559H60.5708V18.0778H61.8911H61.8835ZM69.1711 28.3483H67.7855L72.8863 16.7324L77.9893 28.3559H76.5217L75.2014 25.1279H71.8095L72.1684 24.0519H74.7605L72.8369 19.4057L69.1681 28.3559L69.1711 28.3483ZM79.409 28.3483V18.0778H83.7949C85.7512 18.0778 86.7293 18.8928 86.7293 20.5394C86.7293 21.8764 85.7671 22.8704 83.861 23.4987L87.3818 28.34H85.6366L82.376 23.7264V22.8788C84.3322 22.5692 85.3353 21.8195 85.3353 20.613C85.3353 19.6675 84.8042 19.194 83.7054 19.194H80.7711V28.3422H79.4181L79.409 28.3483Z" fill="#B52E31"/>
<path d="M3.91064 15.3384L14.4255 11.5898L25.2181 15.2739L23.4728 29.1798L14.4255 34.1842L5.52464 29.2519L3.91064 15.3384Z" fill="#E23237"/>
<path d="M25.2186 15.2739L14.426 11.5898V34.185L23.4741 29.1798L25.2186 15.2739Z" fill="#B52E31"/>
<path d="M14.4433 14.2302L7.88867 28.7971L10.3343 28.7486L11.6547 25.4553H17.5074L18.9491 28.7812L21.2802 28.8298L14.4494 14.2227L14.4433 14.2302ZM14.4585 18.9091L16.6757 23.5393H12.5174L14.4585 18.9106V18.9091Z" fill="white"/>
</svg>
