<svg width="18" height="18" viewBox="0 0 18 18" fill="none" xmlns="http://www.w3.org/2000/svg">
<path d="M14.3126 4.04167V11.125C14.3126 11.3205 14.1539 11.4792 13.9584 11.4792C13.7629 11.4792 13.6043 11.3205 13.6043 11.125V4.89665L5.00085 13.5001C4.93143 13.5695 4.84077 13.6035 4.7501 13.6035C4.65943 13.6035 4.56876 13.5688 4.49935 13.5001C4.36122 13.3619 4.36122 13.1374 4.49935 12.9992L13.1028 4.39583H6.8751C6.6796 4.39583 6.52093 4.23717 6.52093 4.04167C6.52093 3.84617 6.6796 3.6875 6.8751 3.6875H13.9584C14.0045 3.6875 14.0505 3.69675 14.0937 3.71517C14.1808 3.75129 14.2495 3.82 14.2856 3.90712C14.3033 3.94962 14.3126 3.99562 14.3126 4.04167Z" fill="#1E1D28"/>
</svg>
