<svg width="15" height="15" viewBox="0 0 15 15" fill="none" xmlns="http://www.w3.org/2000/svg">
<path d="M7.67283 9.8855C7.61419 9.88556 7.55612 9.87403 7.50195 9.85158C7.44779 9.82913 7.39859 9.7962 7.35718 9.75468L2.89256 5.29006C2.7181 5.11561 2.7181 4.83311 2.89256 4.65876C3.06702 4.48442 3.34951 4.48431 3.52386 4.65876L7.67283 8.80774L11.8218 4.65876C11.9963 4.48431 12.2788 4.48431 12.4531 4.65876C12.6274 4.83322 12.6276 5.11572 12.4531 5.29006L7.98848 9.75468C7.94708 9.7962 7.89787 9.82913 7.84371 9.85158C7.78954 9.87403 7.73147 9.88556 7.67283 9.8855Z" fill="#667085"/>
</svg>
