<svg width="22" height="21" viewBox="0 0 22 21" fill="none" xmlns="http://www.w3.org/2000/svg">
<g clip-path="url(#clip0_107_5753)">
<path d="M15.1448 7.6433L7.44775 15.3404C7.19017 15.598 6.76731 15.5993 6.51143 15.3435C6.25554 15.0876 6.25693 14.6647 6.51451 14.4071L14.2116 6.71006L10.7985 6.72131C10.4361 6.7225 10.1351 6.42146 10.1362 6.05901C10.1374 5.69656 10.4405 5.39353 10.8029 5.39233L15.847 5.37571C16.2094 5.37452 16.5105 5.67556 16.5093 6.03801L16.4927 11.0821C16.4915 11.4445 16.1884 11.7475 15.826 11.7487C15.4635 11.7499 15.1625 11.4489 15.1637 11.0864L15.1448 7.6433Z" fill="#B7C2C8"/>
</g>
<defs>
<clipPath id="clip0_107_5753">
<rect width="21.4278" height="8.12778" fill="white" transform="translate(0.955566 15.1516) rotate(-45)"/>
</clipPath>
</defs>
</svg>
