<svg width="25" height="25" viewBox="0 0 25 25" fill="none" xmlns="http://www.w3.org/2000/svg">
<path d="M20.0916 5.5V15.5C20.0916 15.776 19.8676 16 19.5916 16C19.3156 16 19.0916 15.776 19.0916 15.5V6.70703L6.94557 18.853C6.84757 18.951 6.71956 18.999 6.59156 18.999C6.46356 18.999 6.33556 18.95 6.23756 18.853C6.04256 18.658 6.04256 18.341 6.23756 18.146L18.3836 6H9.59156C9.31556 6 9.09156 5.776 9.09156 5.5C9.09156 5.224 9.31556 5 9.59156 5H19.5916C19.6566 5 19.7215 5.01306 19.7825 5.03906C19.9055 5.09006 20.0025 5.18706 20.0535 5.31006C20.0785 5.37006 20.0916 5.435 20.0916 5.5Z" fill="white"/>
</svg>
