<svg width="18" height="18" viewBox="0 0 18 18" fill="none" xmlns="http://www.w3.org/2000/svg">
<g clip-path="url(#clip0_65_3333)">
<path d="M2.77388 0.532593C1.34743 0.532593 0.175815 1.71268 0.175815 3.13913V5.73724C0.175815 7.16376 1.3474 8.34208 2.77392 8.34208H5.37202C6.79851 8.34208 7.97856 7.16372 7.97856 5.73724V3.13913C7.97853 1.71268 6.79847 0.532593 5.37199 0.532593H2.77388ZM12.3109 0.532593C10.8845 0.532593 9.71284 1.71268 9.71284 3.13913V5.73724C9.71284 7.16376 10.8844 8.34208 12.3109 8.34208H14.9175C16.344 8.34208 17.5156 7.16372 17.5156 5.73724V3.13913C17.5156 1.71265 16.344 0.532593 14.9175 0.532593H12.3109ZM2.77388 10.0781C1.3474 10.0781 0.175781 11.2497 0.175781 12.6762V15.276C0.175781 16.7025 1.34736 17.8808 2.77388 17.8808H5.37199C6.79847 17.8808 7.97853 16.7024 7.97853 15.276V12.6762C7.97853 11.2497 6.79847 10.0781 5.37199 10.0781H2.77388ZM12.3109 10.0781C10.8845 10.0781 9.71284 11.2497 9.71284 12.6762V15.276C9.71284 16.7025 10.8844 17.8808 12.3109 17.8808H14.9175C16.344 17.8808 17.5156 16.7024 17.5156 15.276V12.6762C17.5156 11.2497 16.344 10.0781 14.9175 10.0781H12.3109Z" fill="#475467"/>
</g>
<defs>
<clipPath id="clip0_65_3333">
<rect width="17.3482" height="17.3482" fill="white" transform="translate(0.171875 0.532593)"/>
</clipPath>
</defs>
</svg>
