<svg width="35" height="35" viewBox="0 0 35 35" fill="none" xmlns="http://www.w3.org/2000/svg">
<g clip-path="url(#clip0_49_23217)">
<path d="M14.3437 10.8888H16.301C16.5841 10.8888 16.8137 10.6592 16.8137 10.3761C16.8137 10.0929 16.5841 9.8634 16.301 9.8634H14.3437C14.0606 9.8634 13.8311 10.0929 13.8311 10.3761C13.8311 10.6592 14.0606 10.8888 14.3437 10.8888Z" fill="white"/>
<path d="M25.6456 22.0606H30.515C32.9881 22.0606 35 20.0487 35 17.5756C35 15.1025 32.9881 13.0905 30.515 13.0905C30.3298 13.0905 30.1367 13.1032 29.941 13.1282C29.6601 13.1641 29.4615 13.4209 29.4975 13.7018C29.5334 13.9827 29.7898 14.1809 30.0711 14.1453C30.226 14.1255 30.3712 14.1159 30.515 14.1159C32.4228 14.1159 33.9747 15.6679 33.9747 17.5756C33.9747 19.4832 32.4228 21.0353 30.515 21.0353H4.48618C2.57846 21.0353 1.02648 19.4833 1.02648 17.5756C1.00556 15.5918 2.81457 13.8962 4.85736 14.1361C6.03782 14.2652 7.09325 15.0028 7.61092 16.0883C7.73287 16.3439 8.03877 16.4524 8.29436 16.3304C8.54995 16.2085 8.65829 15.9025 8.53641 15.6469C7.94314 14.403 6.80485 13.5122 5.49151 13.2067C5.38569 12.6873 5.33141 12.1563 5.33141 11.6238C5.33141 7.27248 8.87157 3.73232 13.2229 3.73232C16.0987 3.69746 18.961 5.43168 20.2567 8.04423H12.8655C12.2194 8.04423 11.6938 8.56983 11.6938 9.21587V11.5363C11.6938 11.7806 11.7692 12.0074 11.8975 12.1953C11.7692 12.3832 11.6938 12.6101 11.6938 12.8543V15.1747C11.6938 15.4189 11.7692 15.6458 11.8975 15.8337C11.7692 16.0216 11.6938 16.2485 11.6938 16.4926V18.8131C11.6938 19.4591 12.2194 19.9847 12.8655 19.9847H22.1357C22.7817 19.9847 23.3073 19.4591 23.3073 18.8131V16.4926C23.3073 16.2484 23.232 16.0216 23.1037 15.8337C23.232 15.6458 23.3073 15.419 23.3073 15.1747V12.8543C23.3073 12.61 23.232 12.3832 23.1037 12.1953C23.232 12.0074 23.3073 11.7805 23.3073 11.5363V9.21587C23.3073 8.77811 23.0655 8.3962 22.7089 8.19509C23.2809 7.97266 23.8925 7.8572 24.5252 7.8572C26.7392 7.8572 28.6669 9.27651 29.3219 11.389C29.4058 11.6594 29.6929 11.8105 29.9635 11.7268C30.2339 11.643 30.3851 11.3557 30.3013 11.0853C29.9271 9.8788 29.1614 8.79541 28.1452 8.03487C26.2314 6.55787 23.3456 6.42635 21.2721 7.7827C19.8724 4.76964 16.6081 2.6652 13.2229 2.70703C8.30612 2.70703 4.30606 6.70716 4.30606 11.6239C4.30606 12.1159 4.34652 12.6071 4.42677 13.0909C2.11965 13.0863 -0.0565714 15.1185 0.00112207 17.5756C0.00112207 20.0487 2.01308 22.0606 4.48618 22.0606H8.78181V26.3777H6.30612C6.0949 25.7866 5.52958 25.3623 4.86679 25.3623C4.02422 25.3623 3.33873 26.0478 3.33873 26.8904C3.33873 27.733 4.02422 28.4184 4.86679 28.4184C5.52958 28.4184 6.0949 27.9942 6.30612 27.4031H9.29449C9.57763 27.4031 9.80717 27.1735 9.80717 26.8904V22.0606H11.9774V24.0268C11.9774 24.31 12.207 24.5395 12.4901 24.5395C12.7733 24.5395 13.0028 24.31 13.0028 24.0268V22.0606H15.1731V29.3262C14.582 29.5374 14.1577 30.1027 14.1577 30.7655C14.1577 31.6081 14.8432 32.2936 15.6858 32.2936C16.5283 32.2936 17.2138 31.6081 17.2138 30.7655C17.2138 30.1027 16.7895 29.5373 16.1984 29.3262V22.0606H18.2291V25.4511C17.638 25.6622 17.2137 26.2276 17.2137 26.8904C17.2137 27.733 17.8992 28.4184 18.7418 28.4184C19.5844 28.4184 20.2699 27.733 20.2699 26.8904C20.2699 26.2276 19.8456 25.6623 19.2545 25.4511V22.0606H21.4248V29.3262C20.8337 29.5374 20.4094 30.1027 20.4094 30.7655C20.4094 31.6081 21.0949 32.2936 21.9374 32.2936C22.78 32.2936 23.4655 31.6081 23.4655 30.7655C23.4655 30.1027 23.0412 29.5373 22.4501 29.3262V22.0606H24.6204V26.8904C24.6204 27.1735 24.8499 27.4031 25.1331 27.4031H28.1214C28.3327 27.9942 28.898 28.4184 29.5608 28.4184C30.4033 28.4184 31.0888 27.733 31.0888 26.8904C31.0888 26.0478 30.4033 25.3623 29.5608 25.3623C28.898 25.3623 28.3326 25.7866 28.1214 26.3777H25.6456V22.0606ZM12.7192 9.21587C12.7192 9.13521 12.7848 9.06959 12.8655 9.06959H22.1357C22.2163 9.06959 22.282 9.13521 22.282 9.21587V11.5363C22.282 11.617 22.2163 11.6826 22.1357 11.6826H12.8655C12.7848 11.6826 12.7192 11.617 12.7192 11.5363V9.21587ZM22.282 12.8543V15.1747C22.282 15.2554 22.2164 15.321 22.1357 15.321H12.8655C12.7848 15.321 12.7192 15.2554 12.7192 15.1747V12.8543C12.7192 12.7736 12.7848 12.708 12.8655 12.708H22.1357C22.2164 12.708 22.282 12.7736 22.282 12.8543ZM22.282 18.8131C22.282 18.8938 22.2164 18.9594 22.1357 18.9594H12.8655C12.7848 18.9594 12.7192 18.8938 12.7192 18.8131V16.4926C12.7192 16.412 12.7848 16.3464 12.8655 16.3464H22.1357C22.2163 16.3464 22.282 16.412 22.282 16.4926L22.282 18.8131ZM4.86686 27.3931C4.58967 27.3931 4.36416 27.1676 4.36416 26.8904C4.36416 26.6132 4.58967 26.3877 4.86686 26.3877C5.14405 26.3877 5.36956 26.6132 5.36956 26.8904C5.36956 27.1676 5.14405 27.3931 4.86686 27.3931ZM15.6857 31.2682C15.4085 31.2682 15.183 31.0427 15.183 30.7655C15.183 30.4883 15.4085 30.2628 15.6857 30.2628C15.9629 30.2628 16.1884 30.4883 16.1884 30.7655C16.1884 31.0427 15.9629 31.2682 15.6857 31.2682ZM18.7417 27.3931C18.4646 27.3931 18.239 27.1676 18.239 26.8904C18.239 26.6132 18.4646 26.3877 18.7417 26.3877C19.0189 26.3877 19.2444 26.6132 19.2444 26.8904C19.2444 27.1676 19.0189 27.3931 18.7417 27.3931ZM21.9374 31.2682C21.6602 31.2682 21.4347 31.0427 21.4347 30.7655C21.4347 30.4883 21.6602 30.2628 21.9374 30.2628C22.2146 30.2628 22.4401 30.4883 22.4401 30.7655C22.4401 31.0427 22.2146 31.2682 21.9374 31.2682ZM29.5606 26.3876C29.8378 26.3876 30.0633 26.6131 30.0633 26.8903C30.0633 27.1675 29.8378 27.393 29.5606 27.393C29.2835 27.393 29.0579 27.1675 29.0579 26.8903C29.0579 26.6131 29.2835 26.3876 29.5606 26.3876Z" fill="white"/>
<path d="M12.4901 25.9141C12.207 25.9141 11.9774 26.1436 11.9774 26.4267V30.2528H10.0431C9.83185 29.6617 9.26653 29.2375 8.60374 29.2375C7.76117 29.2375 7.07568 29.9229 7.07568 30.7655C7.07568 31.6081 7.76117 32.2936 8.60374 32.2936C9.26653 32.2936 9.83192 31.8693 10.0431 31.2782H12.4901C12.7732 31.2782 13.0027 31.0486 13.0027 30.7655V26.4267C13.0028 26.1436 12.7733 25.9141 12.4901 25.9141ZM8.60374 31.2682C8.32655 31.2682 8.10104 31.0427 8.10104 30.7655C8.10104 30.4883 8.32655 30.2628 8.60374 30.2628C8.88093 30.2628 9.10644 30.4883 9.10644 30.7655C9.10644 31.0427 8.88093 31.2682 8.60374 31.2682Z" fill="white"/>
<path d="M14.3437 14.5273C14.6269 14.5273 14.8564 14.2978 14.8564 14.0146C14.8564 13.7315 14.6269 13.502 14.3437 13.502C14.0606 13.502 13.8311 13.7315 13.8311 14.0146C13.8311 14.2978 14.0606 14.5273 14.3437 14.5273Z" fill="white"/>
<path d="M14.3437 18.1654C14.6269 18.1654 14.8564 17.9358 14.8564 17.6527C14.8564 17.3696 14.6269 17.14 14.3437 17.14C14.0606 17.14 13.8311 17.3696 13.8311 17.6527C13.8311 17.9358 14.0606 18.1654 14.3437 18.1654Z" fill="white"/>
</g>
<defs>
<clipPath id="clip0_49_23217">
<rect width="35" height="35" fill="white"/>
</clipPath>
</defs>
</svg>
