<svg width="76" height="47" viewBox="0 0 76 47" fill="none" xmlns="http://www.w3.org/2000/svg">
<g clip-path="url(#clip0_107_5531)">
<path d="M4.69449 23.8388C4.50526 23.6378 4.27465 23.4781 4.02038 23.3658C3.76611 23.2534 3.4941 23.2002 3.21618 23.2002C2.93826 23.1943 2.66625 23.2534 2.41198 23.3599C2.15771 23.4722 1.92709 23.6319 1.73787 23.8329C1.54273 24.0281 1.38899 24.2587 1.28847 24.513C1.18794 24.7731 1.13472 25.0451 1.13472 25.3172C1.12881 25.5951 1.18203 25.8671 1.28847 26.1214C1.3949 26.3756 1.54865 26.6062 1.74378 26.8014C1.93306 27.0025 2.16243 27.1617 2.41707 27.2686C2.67172 27.3756 2.94596 27.4279 3.22209 27.4223C3.49763 27.4238 3.77063 27.3696 4.02468 27.2629C4.27873 27.1562 4.50858 26.9992 4.7004 26.8014C4.90145 26.6122 5.05519 26.3815 5.16163 26.1273C5.26807 25.873 5.32129 25.601 5.32129 25.3231C5.32129 25.0451 5.26807 24.7731 5.16163 24.5189C5.04928 24.2587 4.89554 24.0281 4.69449 23.8388ZM29.4414 19.0373C29.4118 20.3619 29.4768 21.6923 29.6306 23.011H29.5596C29.3941 22.6858 29.0274 22.0826 28.4657 21.2015L14.9835 0.0380859H10.8916V27.0556H14.0374V7.52424C14.0729 6.28837 14.0197 5.05251 13.8896 3.81664H14.0078C14.2325 4.40796 14.5223 4.97563 14.8652 5.50783L28.714 27.0556H32.5872V0.0380859H29.4414V19.0373ZM53.9162 24.0872H42.7994V14.7266H52.5266V11.8764H42.7994V2.90009H53.2362V0.0380859H39.5766V27.0556H53.8985L53.9162 24.0872ZM56.3229 0.0380859V2.90009H64.0692V27.0556H67.2151V2.90009H75.0501V0.0380859H56.3229ZM25.4913 33.7731C24.7056 34.0866 23.9959 34.5644 23.4099 35.1745C22.8067 35.819 22.3337 36.5759 22.0262 37.4097C21.7187 38.2435 21.5827 39.1245 21.6182 40.0056C21.559 41.6377 22.1267 43.2342 23.2147 44.4524C23.7587 45.026 24.421 45.4694 25.1543 45.7651C25.8875 46.0608 26.674 46.1909 27.4604 46.1554C28.6431 46.1968 29.8198 45.9484 30.8901 45.4281L30.9019 44.0503C29.9203 44.6239 28.8027 44.9077 27.6674 44.8781C27.0583 44.9018 26.4493 44.7953 25.8875 44.5647C25.3258 44.3341 24.8172 43.9793 24.4033 43.5299C23.5377 42.5245 23.0929 41.2241 23.1615 39.8992C23.0906 38.4977 23.5695 37.1259 24.492 36.0733C24.9296 35.5884 25.4677 35.21 26.0649 34.9498C26.6644 34.6948 27.3118 34.5718 27.9631 34.5891C28.9979 34.5714 30.0149 34.8256 30.9197 35.3283V33.844C29.9814 33.4657 28.9741 33.2884 27.9631 33.3237C27.1175 33.3118 26.2719 33.4597 25.4913 33.7731ZM40.233 38.0069C39.8378 37.5913 39.3572 37.2661 38.8244 37.0538C38.2916 36.8415 37.7191 36.7471 37.1463 36.777C36.5372 36.7474 35.9341 36.848 35.3664 37.0667C34.7988 37.2855 34.2843 37.6167 33.8467 38.0365C33.421 38.5096 33.0957 39.0595 32.8829 39.6627C32.67 40.2658 32.5813 40.8985 32.6227 41.5371C32.5635 42.7494 32.9834 43.9379 33.7876 44.8426C34.1897 45.2743 34.6746 45.6173 35.2186 45.8479C35.7626 46.0726 36.348 46.1849 36.9334 46.1613C37.5307 46.179 38.1279 46.0667 38.6837 45.8361C39.2396 45.6054 39.7363 45.2566 40.1443 44.8131C40.9736 43.8782 41.4025 42.6551 41.3388 41.4071C41.4097 40.1653 41.0136 38.9531 40.233 38.0069ZM39.1509 44.0798C38.8907 44.3802 38.5651 44.6169 38.1992 44.7716C37.8332 44.9264 37.4366 44.9952 37.0399 44.9727C36.6319 44.9905 36.2298 44.9136 35.8572 44.7599C35.4847 44.6002 35.1535 44.3637 34.8815 44.0562C34.3148 43.3547 34.0302 42.467 34.0833 41.5667C34.03 40.6383 34.3139 39.7218 34.8815 38.9885C35.1476 38.6811 35.4788 38.4386 35.8513 38.273C36.2238 38.1134 36.6319 38.0365 37.034 38.0543C37.4361 38.0306 37.8322 38.1075 38.1989 38.2671C38.5655 38.4268 38.8907 38.6692 39.1509 38.9767C39.6883 39.7201 39.9497 40.6277 39.89 41.5431C39.9492 42.4419 39.689 43.3466 39.1509 44.0798ZM46.0043 37.4275C45.5608 37.8236 45.2356 38.3381 45.0759 38.9117V37.0549H43.5976V45.9484H45.0759V41.413C45.0286 40.591 45.2415 39.7691 45.6791 39.0713C45.8388 38.8171 46.0516 38.6042 46.3118 38.4564C46.572 38.3085 46.8617 38.2198 47.1574 38.2139C47.5359 38.1843 47.9143 38.2849 48.2336 38.4977V37.0313C47.9616 36.9426 47.6778 36.9012 47.3939 36.913C46.8854 36.9071 46.3946 37.0904 46.0043 37.4275ZM56.8847 41.0996C56.9556 39.9701 56.6186 38.8585 55.9386 37.9596C55.6015 37.5812 55.1876 37.2796 54.7204 37.0845C54.2533 36.8893 53.7507 36.8007 53.248 36.8302C52.6922 36.8125 52.1363 36.9248 51.6219 37.1495C51.1134 37.3742 50.658 37.7113 50.2914 38.137C49.4885 39.0738 49.0721 40.2809 49.1265 41.5135C49.0496 42.7434 49.434 43.9616 50.2027 44.9195C50.5753 45.3275 51.0365 45.6468 51.545 45.8597C52.0536 46.0726 52.6094 46.1613 53.1593 46.1376C54.2533 46.1909 55.3354 45.8952 56.246 45.292V43.9557C55.468 44.5878 54.4988 44.938 53.4964 44.9491C53.112 44.9727 52.7218 44.9136 52.361 44.7717C52.0003 44.6298 51.6692 44.4228 51.3972 44.1449C50.8689 43.5055 50.6008 42.6906 50.6462 41.8624H56.8965L56.8847 41.0996ZM50.6344 40.6856C50.7113 39.982 51.0187 39.3197 51.5036 38.8052C51.7209 38.5717 51.9847 38.3864 52.2781 38.2611C52.5714 38.1358 52.8877 38.0734 53.2066 38.0779C53.5141 38.0602 53.8157 38.1134 54.0995 38.2316C54.3834 38.3499 54.6317 38.5273 54.8328 38.7579C55.2467 39.3079 55.4537 39.982 55.4241 40.6679L50.6344 40.6856Z" fill="#621EE5"/>
</g>
<defs>
<clipPath id="clip0_107_5531">
<rect width="74.1949" height="46.7428" fill="white" transform="translate(0.92627 0.0385742)"/>
</clipPath>
</defs>
</svg>
