<svg width="12" height="12" viewBox="0 0 12 12" fill="none" xmlns="http://www.w3.org/2000/svg">
<g clip-path="url(#clip0_201_649)">
<path d="M11.1766 5.79717C11.1766 2.85544 8.80636 0.470703 5.8825 0.470703C2.95863 0.470703 0.588379 2.85544 0.588379 5.79717C0.588379 8.45573 2.52435 10.6593 5.05529 11.0589V7.33686H3.71108V5.79717H5.05529V4.62369C5.05529 3.28874 5.84569 2.55136 7.05496 2.55136C7.634 2.55136 8.24003 2.65539 8.24003 2.65539V3.9662H7.57248C6.91485 3.9662 6.7097 4.37682 6.7097 4.79846V5.79717H8.17799L7.94327 7.33686H6.7097V11.0589C9.24064 10.6593 11.1766 8.45573 11.1766 5.79717Z" fill="#45484F"/>
</g>
<defs>
<clipPath id="clip0_201_649">
<rect width="10.5882" height="10.5882" fill="white" transform="translate(0.588379 0.470703)"/>
</clipPath>
</defs>
</svg>
