<svg width="92" height="47" viewBox="0 0 92 47" fill="none" xmlns="http://www.w3.org/2000/svg">
<path d="M9.7561 31.9505L9.90142 31.747L16.7738 18.7069L16.7883 18.5689L13.7589 12.8784C13.5049 12.4017 12.7904 12.5222 12.7071 13.0558L9.7561 31.9505Z" fill="#FFC24A"/>
<path d="M9.84204 31.7951L9.9519 31.5808L16.7516 18.6774L13.7304 12.9638C13.4792 12.492 12.8415 12.6123 12.7585 13.1404L9.84204 31.7951Z" fill="#FFA712"/>
<path d="M9.84204 31.7951L9.9519 31.5808L16.7516 18.6774L13.7304 12.9638C13.4792 12.492 12.8415 12.6123 12.7585 13.1404L9.84204 31.7951Z" fill="#FCCA3F"/>
<path d="M18.9965 22.8734L21.2521 20.5633L18.9958 16.2559C18.7816 15.8482 18.1836 15.847 17.9717 16.2559L16.7661 18.5558V18.7515L18.9965 22.8734Z" fill="#F4BD62"/>
<path d="M18.9556 22.7773L21.1485 20.5314L18.9556 16.3556C18.7474 15.9586 18.2415 15.9177 18.0355 16.3146L16.8236 18.6486L16.7874 18.768L18.9556 22.7773Z" fill="#FFA50E"/>
<path d="M18.9556 22.7773L21.1485 20.5314L18.9556 16.3556C18.7474 15.9586 18.2415 15.9177 18.0355 16.3146L16.8236 18.6486L16.7874 18.768L18.9556 22.7773Z" fill="#FCCA3F"/>
<path d="M16.7731 18.542L9.75635 31.9503L9.82219 31.884L10.0615 31.7868L18.8554 23.0256L18.9667 22.7224L16.7731 18.542Z" fill="#F6820C"/>
<path d="M19.2787 36.3686L27.2374 31.9299L24.9653 17.9324C24.8941 17.4945 24.3569 17.3213 24.0435 17.6353L9.75635 31.9502L17.6694 36.3683C17.9153 36.5056 18.1923 36.5777 18.474 36.5778C18.7557 36.5778 19.0327 36.5059 19.2788 36.3687" fill="#FDE068"/>
<path d="M27.1658 31.8924L24.9103 18.0016C24.8398 17.5669 24.3928 17.3871 24.0818 17.6988L9.84497 31.9225L17.6711 36.2962C18.1673 36.5733 18.7717 36.5735 19.2682 36.2967L27.1658 31.8924Z" fill="#FCCA3F"/>
<path d="M19.2787 36.2378C18.779 36.5168 18.1694 36.5167 17.6693 36.2374L9.82 31.8829L9.75635 31.9502L17.6694 36.3683C18.1694 36.6476 18.7785 36.6476 19.2788 36.3686L27.2375 31.93L27.2179 31.8101L19.2787 36.2378Z" fill="#EEAB37"/>
<path d="M33.2639 29.8938H31.9094V19.3524H38.0558V20.6477H33.2639V24.1079H37.5929V25.3751H33.2639V29.8938ZM40.4369 20.8685C40.2503 21.0552 40.0249 21.1493 39.7601 21.1493C39.634 21.1514 39.5089 21.1276 39.3924 21.0793C39.276 21.031 39.1707 20.9593 39.0832 20.8685C38.9928 20.7807 38.9213 20.6754 38.873 20.559C38.8247 20.4426 38.8007 20.3176 38.8025 20.1916C38.8003 20.0656 38.8241 19.9404 38.8724 19.824C38.9207 19.7075 38.9925 19.6023 39.0832 19.5148C39.171 19.4244 39.2763 19.3529 39.3927 19.3046C39.5091 19.2563 39.6341 19.2323 39.7601 19.234C39.8861 19.2318 40.0113 19.2557 40.1277 19.304C40.2442 19.3523 40.3494 19.424 40.4369 19.5148C40.5273 19.6026 40.5989 19.7079 40.6471 19.8243C40.6954 19.9406 40.7194 20.0657 40.7177 20.1916C40.7199 20.3177 40.6961 20.4428 40.6478 20.5593C40.5995 20.6757 40.5277 20.781 40.4369 20.8685ZM40.4369 29.8938H39.0825V22.6798H40.4369V29.8938ZM43.3606 29.8938H42.0054V22.6798H43.3007V23.8575H43.3591C43.4957 23.4652 43.7787 23.1411 44.206 22.8862C44.6332 22.6312 45.0407 22.503 45.4504 22.503C45.8602 22.503 46.1918 22.5622 46.4672 22.6798L45.9512 23.947C45.7744 23.8711 45.5339 23.8438 45.2304 23.8438C44.7394 23.8438 44.3046 24.0373 43.9275 24.4251C43.5503 24.8128 43.3606 25.3204 43.3606 25.9487V29.8938ZM50.0291 30.1214C48.9394 30.1214 48.0539 29.7587 47.3717 29.0318C46.6896 28.3049 46.3473 27.3882 46.3473 26.2788C46.3473 25.2286 46.6782 24.3256 47.3338 23.5699C47.9894 22.8141 48.8514 22.4362 49.8735 22.4362C50.9359 22.4362 51.7994 22.7853 52.4429 23.4819C53.0863 24.1784 53.4065 25.111 53.4065 26.2796L53.3914 26.53H47.7003C47.7397 27.2562 47.9826 27.8306 48.4287 28.2525C48.6358 28.4559 48.8809 28.6165 49.15 28.725C49.4191 28.8336 49.707 28.8881 49.9972 28.8853C50.9685 28.8853 51.6264 28.4733 51.9701 27.6485L53.1842 28.1493C52.9566 28.7085 52.5605 29.1775 52.021 29.5554C51.4814 29.9333 50.8182 30.1222 50.0329 30.1222L50.0291 30.1214ZM51.9716 25.4168C51.9413 25.0048 51.7531 24.6125 51.4048 24.2391C51.0565 23.8658 50.5382 23.6799 49.8515 23.6799C49.3507 23.6799 48.9167 23.837 48.5486 24.1504C48.1806 24.4638 47.9279 24.8864 47.7898 25.4176H51.9633L51.9716 25.4168ZM58.3176 30.1214C57.7674 30.1214 57.2742 30.0038 56.8379 29.7678C56.4016 29.5319 56.0745 29.2382 55.8514 28.8846H55.8006V29.8862H54.5053V19.3524H55.8598V22.6798L55.8006 23.6814H55.8598C56.076 23.3278 56.4023 23.0334 56.8462 22.7982C57.2901 22.5629 57.7765 22.4446 58.3259 22.4446C59.2593 22.4446 60.0712 22.8126 60.7405 23.5486C61.4097 24.2847 61.7573 25.1975 61.7573 26.2803C61.7573 27.3632 61.4188 28.2836 60.7405 29.0121C60.0621 29.7405 59.2585 30.1161 58.3259 30.1161L58.3176 30.1214ZM58.0899 28.8846C58.7182 28.8846 59.2585 28.6463 59.7092 28.1713C60.16 27.6963 60.3861 27.065 60.3861 26.2796C60.3861 25.4942 60.16 24.8636 59.7092 24.3879C59.2585 23.9121 58.7175 23.6746 58.0899 23.6746C57.784 23.6686 57.4804 23.7285 57.1996 23.8503C56.9189 23.972 56.6677 24.1528 56.463 24.3803C56.0169 24.8583 55.793 25.4844 55.793 26.2796C55.793 27.0748 56.0161 27.7077 56.463 28.1789C56.91 28.6501 57.4518 28.8861 58.0899 28.8861V28.8846ZM65.3085 30.1214C64.5497 30.1214 63.9024 29.8938 63.3872 29.459C62.872 29.0242 62.6132 28.4331 62.6132 27.7137C62.6132 26.9284 62.9167 26.313 63.5261 25.866C64.1354 25.4191 64.8858 25.196 65.7797 25.196C66.575 25.196 67.2275 25.3432 67.7375 25.6376V25.4312C67.7375 24.9001 67.5553 24.4767 67.1926 24.158C66.8299 23.8393 66.383 23.6799 65.8526 23.6799C65.4595 23.6799 65.1036 23.7732 64.7849 23.9607C64.4817 24.1288 64.2492 24.4006 64.1301 24.7263L62.8932 24.1967C63.0601 23.7641 63.3887 23.365 63.8797 22.9977C64.3706 22.6305 65.0179 22.4453 65.8222 22.4453C66.7449 22.4453 67.5106 22.7155 68.1191 23.255C68.7277 23.7945 69.032 24.5556 69.032 25.5367V29.8946H67.7443V28.8929H67.6851C67.1448 29.717 66.3549 30.1298 65.3146 30.1298L65.3085 30.1214ZM65.5361 28.8846C66.0954 28.8846 66.6038 28.6759 67.0598 28.2586C67.5159 27.8412 67.7443 27.348 67.7443 26.7789C67.3618 26.4647 66.7882 26.3084 66.0218 26.3084C65.3639 26.3084 64.8684 26.4511 64.5345 26.7356C64.2006 27.0202 64.0337 27.3541 64.0337 27.7373C64.0337 28.0909 64.1855 28.3701 64.4905 28.5765C64.7955 28.7829 65.1431 28.8861 65.5361 28.8861V28.8846ZM72.9725 30.1214C72.1682 30.1214 71.5027 29.9242 70.9768 29.5326C70.4645 29.1565 70.0649 28.6475 69.8212 28.0605L71.0353 27.5597C71.4177 28.4703 72.071 28.9142 72.993 28.9142C73.4149 28.9142 73.7609 28.8208 74.031 28.6334C74.3012 28.446 74.4362 28.2009 74.4362 27.8974C74.4362 27.4269 74.1077 27.1082 73.4498 26.9413L71.9929 26.5877C71.5315 26.47 71.0944 26.2462 70.6824 25.9176C70.2704 25.5891 70.0663 25.1611 70.0663 24.5935C70.0663 23.9561 70.3485 23.4378 70.9131 23.0402C71.4776 22.6426 72.1477 22.4438 72.9239 22.4438C73.5613 22.4438 74.138 22.5956 74.6313 22.8778C75.1245 23.1601 75.4902 23.582 75.7065 24.1223L74.5288 24.6079C74.2632 23.9705 73.7139 23.6518 72.8799 23.6518C72.4778 23.6518 72.1386 23.7277 71.8631 23.9022C71.5877 24.0768 71.4511 24.2945 71.4511 24.5791C71.4511 24.9911 71.7698 25.2711 72.4072 25.4183L73.8353 25.7568C74.5121 25.9138 75.0129 26.184 75.3377 26.5664C75.6625 26.9489 75.8234 27.3814 75.8234 27.8617C75.8234 28.5097 75.5578 29.0492 75.0281 29.481C74.4985 29.9128 73.8155 30.129 72.9816 30.129L72.9725 30.1214ZM80.1865 30.1214C79.0969 30.1214 78.2106 29.7587 77.5292 29.0318C76.8477 28.3049 76.5048 27.3882 76.5048 26.2788C76.5048 25.2286 76.8356 24.3256 77.4912 23.5699C78.1468 22.8141 79.0088 22.4362 80.031 22.4362C81.0933 22.4362 81.9568 22.7853 82.6003 23.4819C83.2438 24.1784 83.564 25.111 83.564 26.2796V26.53H77.8729C77.9108 27.2562 78.1552 27.8306 78.6014 28.2525C78.8083 28.4558 79.0533 28.6163 79.3223 28.7249C79.5912 28.8335 79.879 28.888 80.1691 28.8853C81.1403 28.8853 81.7982 28.4733 82.142 27.6485L83.3561 28.1493C83.1284 28.7085 82.7323 29.1775 82.1928 29.5554C81.6533 29.9333 80.9901 30.1222 80.2047 30.1222L80.1865 30.1214ZM82.1291 25.4168C82.0987 25.0048 81.9105 24.6125 81.5622 24.2391C81.2139 23.8658 80.6957 23.6799 80.009 23.6799C79.5315 23.6715 79.0677 23.8392 78.7061 24.1511C78.3381 24.4653 78.0854 24.8872 77.9473 25.4183H82.1207L82.1291 25.4168Z" fill="#63666A"/>
</svg>
