<svg width="18" height="18" viewBox="0 0 18 18" fill="none" xmlns="http://www.w3.org/2000/svg">
<g clip-path="url(#clip0_107_6339)">
<path d="M13.1654 8.75496L5.32053 0.910057C5.18408 0.780456 4.9692 0.783845 4.8396 0.916868C4.77883 0.980832 4.74494 1.06569 4.74494 1.15393C4.74494 1.24216 4.77883 1.32702 4.8396 1.39098L12.4423 8.99373L4.8396 16.5999C4.70316 16.7295 4.69977 16.9478 4.83279 17.0808C4.96239 17.2173 5.18069 17.2207 5.31372 17.0876L5.32053 17.0808L13.1654 9.23592C13.1971 9.20437 13.2221 9.16689 13.2393 9.12562C13.2564 9.08436 13.2652 9.04012 13.2652 8.99544C13.2652 8.95077 13.2564 8.90653 13.2393 8.86527C13.2221 8.824 13.1971 8.78652 13.1654 8.75496Z" fill="black"/>
</g>
<defs>
<clipPath id="clip0_107_6339">
<rect width="16.3704" height="16.3704" fill="white" transform="translate(0.814697 0.814941)"/>
</clipPath>
</defs>
</svg>
