<svg width="16" height="16" viewBox="0 0 16 16" fill="none" xmlns="http://www.w3.org/2000/svg">
<g clip-path="url(#clip0_71_6938)">
<path d="M7.99075 0.000915528C7.70395 0.000915528 7.41736 0.0163333 7.13219 0.0470687C6.87083 0.0737661 6.61266 0.11755 6.35797 0.170678C6.30868 0.18099 6.25936 0.191869 6.21007 0.203249C4.70944 0.544909 3.33919 1.31216 2.26365 2.41299C2.16364 2.51551 2.06572 2.62107 1.96998 2.72963C-0.935366 6.06507 -0.586698 11.1242 2.74878 14.0296C5.94206 16.8111 10.7488 16.626 13.7187 13.6072C13.8189 13.5047 13.9168 13.3992 14.0124 13.2906C15.2946 11.8304 16.0011 9.95332 16 8.01011C16 3.58671 12.4141 0.000882156 7.99075 0.000915528ZM2.61953 2.81346C2.66171 2.76967 2.7055 2.72776 2.74848 2.68531C2.79814 2.63645 2.84753 2.58733 2.89825 2.54007C2.94284 2.49843 2.98875 2.45838 3.03441 2.4178C3.08593 2.37215 3.13719 2.32649 3.19005 2.28244C3.23651 2.2432 3.2843 2.20556 3.33182 2.16765C3.38521 2.12493 3.43861 2.08221 3.4936 2.0411C3.54219 2.00452 3.59158 1.96902 3.64124 1.93431C3.6965 1.8948 3.75203 1.85422 3.80837 1.81738C3.85882 1.7832 3.90982 1.7501 3.96108 1.71726C4.01821 1.68068 4.07561 1.64464 4.13354 1.61047C4.1857 1.57933 4.23819 1.5487 4.29106 1.51863C4.35016 1.48499 4.40949 1.45215 4.46913 1.42012C4.52252 1.39165 4.57592 1.36379 4.62931 1.33655C4.69018 1.30585 4.75159 1.27622 4.81326 1.24712C4.86665 1.22176 4.92218 1.19639 4.97718 1.17237C5.03992 1.14567 5.10346 1.11897 5.167 1.09227C5.22226 1.06958 5.27726 1.04742 5.33306 1.02606C5.39766 1.0015 5.46307 0.978542 5.52848 0.955582C5.58428 0.936093 5.64008 0.916604 5.69667 0.898183C5.76315 0.876825 5.83016 0.857069 5.89744 0.83758C5.95377 0.821294 6.00957 0.804475 6.06617 0.789257C6.08779 0.783651 6.10942 0.779112 6.13104 0.773506C5.3408 1.54082 4.75436 2.49312 4.42481 3.54416C3.79115 3.37704 3.17771 3.14097 2.5955 2.84015C2.60431 2.83081 2.61179 2.82147 2.61953 2.81346ZM2.23562 3.24328C2.87693 3.59075 3.55698 3.8614 4.26169 4.04955C3.91622 5.2508 3.73488 6.49326 3.72267 7.74314H0.521646C0.579813 6.09494 1.18254 4.51251 2.23562 3.24328ZM2.23562 12.7769C1.18261 11.5077 0.57988 9.92525 0.521646 8.27708H3.72267C3.73488 9.52696 3.91619 10.7694 4.26169 11.9707C3.55701 12.1589 2.87696 12.4295 2.23562 12.7769ZM6.06457 15.232C6.01064 15.2184 5.95484 15.2008 5.89931 15.1845C5.83176 15.1648 5.76395 15.145 5.69721 15.1234C5.64088 15.1052 5.58535 15.0857 5.52982 15.0662C5.46414 15.0435 5.39846 15.0203 5.33359 14.9955C5.27806 14.9744 5.22333 14.9522 5.16833 14.9298C5.10453 14.9031 5.04072 14.8764 4.97745 14.8497C4.92298 14.8257 4.86879 14.801 4.81486 14.7755C4.75265 14.7461 4.69072 14.7162 4.62798 14.6853C4.57458 14.6586 4.52119 14.6319 4.46779 14.6028C4.40746 14.5705 4.34765 14.5374 4.28785 14.5032C4.23446 14.4736 4.18373 14.4431 4.13221 14.4122C4.07347 14.3769 4.0158 14.3406 3.95814 14.3035C3.90741 14.2712 3.85669 14.2384 3.80676 14.2047C3.7499 14.1663 3.69357 14.1262 3.63777 14.0862C3.58891 14.0512 3.54006 14.0162 3.492 13.9794C3.43674 13.9377 3.38254 13.8948 3.32861 13.8515C3.28136 13.8139 3.23437 13.7765 3.18818 13.7378C3.13479 13.6935 3.08326 13.6473 3.03147 13.6014C2.98609 13.561 2.94043 13.5213 2.89611 13.4801C2.84512 13.4326 2.79573 13.3832 2.74608 13.3344C2.70309 13.2919 2.65931 13.25 2.61713 13.2065C2.60938 13.1982 2.60191 13.1897 2.59417 13.1817C3.17634 12.8807 3.78978 12.6446 4.42347 12.4774C4.75309 13.5284 5.3395 14.4807 6.12971 15.248C6.10808 15.2424 6.08619 15.2379 6.06457 15.232ZM7.72381 15.4643C6.58143 15.302 5.58001 14.1097 4.94995 12.349C5.86086 12.145 6.79043 12.0356 7.72381 12.0225V15.4643ZM7.72381 11.4885C6.73367 11.5015 5.7477 11.6191 4.78229 11.8393C4.44707 10.6811 4.27023 9.48277 4.25662 8.27708H7.72381V11.4885ZM7.72381 7.74314H4.25662C4.2702 6.53745 4.44703 5.33913 4.78229 4.1809C5.7477 4.40105 6.7337 4.51865 7.72381 4.5317V7.74314ZM7.72381 3.99775C6.7904 3.98474 5.86086 3.87531 4.94995 3.67124C5.58001 1.91055 6.58143 0.718242 7.72381 0.555922V3.99775ZM13.7459 3.24328C14.799 4.51255 15.4017 6.09497 15.4599 7.74314H12.2589C12.2467 6.49326 12.0654 5.2508 11.7199 4.04955C12.4246 3.8613 13.1046 3.59068 13.7459 3.24328ZM9.91487 0.787922C9.97093 0.801805 10.0267 0.819425 10.0823 0.835711C10.1498 0.855467 10.2176 0.875223 10.2844 0.896848C10.3407 0.915002 10.3962 0.934491 10.4518 0.95398C10.5174 0.976673 10.5831 0.9999 10.648 1.02473C10.7035 1.04582 10.7582 1.06798 10.8132 1.0904C10.877 1.1171 10.9409 1.1438 11.0041 1.1705C11.0586 1.19452 11.1128 1.21925 11.1667 1.24472C11.2289 1.27408 11.2909 1.30398 11.3536 1.33495C11.407 1.36165 11.4604 1.38835 11.5138 1.41745C11.5741 1.44975 11.6339 1.48286 11.6937 1.51703C11.7471 1.54666 11.7978 1.5771 11.8494 1.60807C11.9081 1.64331 11.9658 1.67962 12.0234 1.71673C12.0742 1.74903 12.1249 1.78187 12.1748 1.81551C12.2317 1.85395 12.2877 1.89373 12.3435 1.93378C12.3927 1.96875 12.4415 2.00399 12.4898 2.04057C12.5448 2.08195 12.5988 2.12493 12.653 2.16818C12.6999 2.20556 12.7472 2.24293 12.7934 2.28191C12.8468 2.32623 12.8983 2.37241 12.9501 2.41833C12.9955 2.45865 13.0411 2.49843 13.0855 2.53954C13.1364 2.58706 13.1858 2.63645 13.2355 2.68531C13.2785 2.72776 13.3223 2.76967 13.3644 2.81319C13.3722 2.82147 13.3797 2.83001 13.3874 2.83802C12.8052 3.13896 12.1918 3.37514 11.5581 3.5423C11.2278 2.49115 10.6407 1.53895 9.84973 0.771904C9.87135 0.77751 9.89324 0.782049 9.91487 0.787922ZM8.25776 0.555922C9.40014 0.718242 10.4016 1.91055 11.0316 3.67124C10.1207 3.87521 9.19113 3.98464 8.25776 3.99775V0.555922ZM8.25776 4.5317C9.2479 4.51869 10.2339 4.40109 11.1993 4.1809C11.5345 5.33913 11.7113 6.53745 11.725 7.74314H8.25776V4.5317ZM8.25776 8.27708H11.725C11.7114 9.48277 11.5345 10.6811 11.1993 11.8393C10.2339 11.6192 9.2479 11.5016 8.25776 11.4885V8.27708ZM8.25776 15.4643V12.0225C9.19117 12.0355 10.1207 12.1449 11.0316 12.349C10.4016 14.1097 9.40014 15.302 8.25776 15.4643ZM13.362 13.2068C13.3199 13.2503 13.2763 13.2922 13.2334 13.3346C13.1837 13.3835 13.134 13.4329 13.0831 13.4804C13.0387 13.5218 12.9931 13.5605 12.9477 13.6019C12.8959 13.6478 12.8444 13.6937 12.7915 13.738C12.7448 13.777 12.6973 13.8147 12.6498 13.8526C12.5964 13.8953 12.543 13.938 12.488 13.9791C12.4394 14.0157 12.39 14.0512 12.3403 14.0859C12.2851 14.1254 12.2295 14.166 12.1732 14.2028C12.1227 14.237 12.0718 14.2701 12.0205 14.3027C11.9634 14.3395 11.9058 14.3751 11.8478 14.4095C11.7944 14.4407 11.7434 14.4712 11.6908 14.5013C11.6317 14.535 11.5722 14.5678 11.5124 14.5998C11.459 14.6283 11.4057 14.6562 11.3523 14.6834C11.2914 14.7141 11.23 14.7437 11.1683 14.7728C11.1149 14.7982 11.0594 14.8236 11.0044 14.8476C10.9417 14.8743 10.8781 14.901 10.8146 14.9277C10.7593 14.9501 10.7043 14.9725 10.6488 14.9936C10.5836 15.0185 10.5182 15.0417 10.4526 15.0644C10.397 15.0839 10.3415 15.1033 10.2852 15.1215C10.2184 15.1431 10.1517 15.1629 10.0836 15.1824C10.0278 15.1989 9.97173 15.2155 9.9154 15.2307C9.89378 15.2363 9.87215 15.2408 9.85053 15.2464C10.6408 14.4791 11.2272 13.5268 11.5568 12.4758C12.1904 12.6429 12.8039 12.879 13.3861 13.1798C13.3773 13.1894 13.3698 13.1988 13.362 13.2068ZM13.7459 12.7769C13.1046 12.4295 12.4246 12.1588 11.7199 11.9707C12.0653 10.7694 12.2467 9.52696 12.2589 8.27708H15.4599C15.4018 9.92525 14.799 11.5077 13.7459 12.7769Z" fill="black"/>
</g>
<defs>
<clipPath id="clip0_71_6938">
<rect width="16" height="16" fill="white"/>
</clipPath>
</defs>
</svg>
