<svg width="18" height="18" viewBox="0 0 18 18" fill="none" xmlns="http://www.w3.org/2000/svg">
<g clip-path="url(#clip0_65_3324)">
<path d="M9.29856 0.532593C7.57387 0.534888 5.92049 1.22103 4.70095 2.44057C3.48141 3.66011 2.79526 5.3135 2.79297 7.03818C2.79297 11.7087 8.85401 17.5583 9.11152 17.8049C9.16161 17.8536 9.22871 17.8809 9.29856 17.8809C9.36841 17.8809 9.43551 17.8536 9.4856 17.8049C9.74311 17.5583 15.8042 11.7087 15.8042 7.03818C15.8019 5.3135 15.1157 3.66011 13.8962 2.44057C12.6766 1.22103 11.0232 0.534888 9.29856 0.532593ZM9.29856 10.0199C8.70883 10.0199 8.13234 9.84504 7.642 9.5174C7.15166 9.18976 6.76948 8.72408 6.5438 8.17924C6.31812 7.6344 6.25907 7.03488 6.37412 6.45648C6.48917 5.87808 6.77316 5.34679 7.19016 4.92978C7.60716 4.51278 8.13845 4.2288 8.71685 4.11375C9.29525 3.9987 9.89478 4.05775 10.4396 4.28343C10.9845 4.50911 11.4501 4.89128 11.7778 5.38162C12.1054 5.87197 12.2803 6.44845 12.2803 7.03818C12.2798 7.82883 11.9655 8.58696 11.4064 9.14603C10.8473 9.7051 10.0892 10.0194 9.29856 10.0199Z" fill="#475467"/>
</g>
<defs>
<clipPath id="clip0_65_3324">
<rect width="17.3482" height="17.3482" fill="white" transform="translate(0.625 0.532593)"/>
</clipPath>
</defs>
</svg>
