<svg width="32" height="32" viewBox="0 0 32 32" fill="none" xmlns="http://www.w3.org/2000/svg">
<path d="M30.0114 7.06318C30.2737 7.06318 30.4862 6.85062 30.4862 6.58837V5.21987C30.4862 3.98449 29.4812 2.97949 28.2458 2.97949H16.0189C15.8289 2.31624 15.4728 1.70743 14.9769 1.21149C13.9881 0.222555 12.5318 -0.205633 11.1764 0.094055C10.8632 0.163305 10.6126 0.398055 10.5225 0.706742C10.4319 1.01712 10.5175 1.35168 10.7458 1.58005L12.1452 2.97949H9.75116L9.54866 2.77699C9.12985 2.35818 8.42722 2.46324 8.14779 2.97949H3.75454C2.51916 2.97949 1.51416 3.98449 1.51416 5.21987V23.5524C1.51416 24.7877 2.51922 25.7927 3.75454 25.7927H13.101L12.495 28.1273H11.4478C9.9111 28.1273 8.66097 29.3774 8.66097 30.9141C8.66097 31.5128 9.1481 32 9.74685 32H22.2535C22.8523 32 23.3394 31.5128 23.3394 30.9141C23.3394 29.3774 22.0893 28.1273 20.5526 28.1273H19.5053L18.8993 25.7927H28.2458C29.4812 25.7927 30.4862 24.7877 30.4862 23.5524V8.82024C30.4862 8.55799 30.2736 8.34543 30.0113 8.34543C29.7491 8.34543 29.5365 8.55799 29.5365 8.82024V21.5047H15.0108L15.948 20.5676C16.4095 20.6769 16.9172 20.5546 17.2818 20.19C17.7464 19.7254 17.821 19.0164 17.5059 18.4731L18.2992 17.6798C18.417 17.5621 18.5543 17.4689 18.7073 17.4031C20.3171 16.7102 20.1669 16.7755 20.1847 16.7667C20.4862 16.6186 20.7768 16.4522 21.0554 16.2686L21.7695 16.9828C22.6488 17.8621 24.072 17.8622 24.9513 16.9827C25.8306 16.1036 25.8307 14.6802 24.9513 13.8009L24.051 12.9005C24.0508 12.4823 23.881 12.0829 23.5591 11.7899C23.3888 11.635 23.1857 11.5241 22.967 11.4626C23.1281 10.9498 22.9998 10.3884 22.6157 10.0032C22.3565 9.74337 22.0355 9.58599 21.703 9.54099C21.7355 9.13081 21.6025 8.7148 21.3104 8.40249C21.1063 8.18424 20.8517 8.03762 20.5792 7.96874C20.6975 7.49493 20.586 6.9793 20.239 6.59799C19.6512 5.95224 18.6603 5.95156 18.0645 6.54749L17.8811 6.73062L17.1783 6.0278C16.6191 5.46855 16.2638 4.7333 16.178 3.9573C16.177 3.94743 16.1759 3.93799 16.175 3.92912H28.2458C28.9575 3.92912 29.5366 4.50818 29.5366 5.21987V6.58837C29.5366 6.85062 29.7492 7.06318 30.0114 7.06318ZM12.748 3.92912C12.749 4.14724 12.6665 4.36568 12.5005 4.53174C12.169 4.86324 11.6337 4.86193 11.3035 4.53174L10.7008 3.92912H12.748ZM20.5526 29.0769C21.5656 29.0769 22.3898 29.9011 22.3898 30.9141C22.3898 30.9892 22.3287 31.0504 22.2535 31.0504H9.74679C9.67166 31.0504 9.61047 30.9892 9.61047 30.9141C9.61047 29.9011 10.4347 29.0769 11.4477 29.0769H20.5526ZM13.476 28.1273L14.082 25.7927H17.9183L18.5243 28.1273H13.476ZM29.5366 22.4543V23.5524C29.5366 24.2641 28.9575 24.8431 28.2458 24.8431C27.8587 24.8431 3.86497 24.8431 3.75447 24.8431C3.04272 24.8431 2.46366 24.2641 2.46366 23.5524V22.4543H29.5366ZM13.6678 21.5047H5.22322L7.56329 19.1646C7.74872 18.9791 7.74872 18.6786 7.56329 18.4931C7.37785 18.3077 7.07722 18.3077 6.89185 18.4931L3.88022 21.5047H2.46372V5.21987C2.46372 4.50818 3.04279 3.92912 3.75454 3.92912H7.97135C7.93116 5.06087 8.36529 6.19324 9.18029 7.00824C9.89379 7.72174 10.8412 8.14574 11.8481 8.20218C12.3611 8.23093 13.0341 8.45405 13.591 8.86187C13.0952 9.54793 12.8677 10.3541 12.9605 11.135L13.0666 12.0269C13.1143 12.4277 12.9779 12.8214 12.6924 13.1068L12.4413 13.358C11.8888 12.9314 11.086 12.9655 10.5718 13.4797C10.1261 13.9253 10.0478 14.5784 10.2923 15.0928L8.46416 16.921C8.27872 17.1065 8.27872 17.4071 8.46416 17.5925C8.64966 17.7779 8.95022 17.7779 9.1356 17.5925L10.906 15.8221L15.1283 20.0443L13.6678 21.5047ZM16.6103 19.5185C16.4262 19.7026 16.1287 19.7018 15.9453 19.5184L11.2431 14.8162C11.0593 14.6325 11.0593 14.3349 11.243 14.1512C11.2431 14.1512 11.2431 14.1512 11.2431 14.1511C11.427 13.9673 11.7243 13.9673 11.9081 14.1512C12.3827 14.6257 16.2718 18.5151 16.6103 18.8534C16.7937 19.0368 16.7937 19.3351 16.6103 19.5185ZM23.6881 13.8804L24.28 14.4723C24.787 14.9792 24.787 15.8042 24.28 16.3112C23.773 16.8181 22.9481 16.8181 22.441 16.3112L21.8232 15.6934C22.1887 15.3832 23.6482 13.927 23.6881 13.8804ZM18.7358 7.21918C18.955 6.99999 19.3203 6.99918 19.5369 7.23724C19.7321 7.45162 19.7142 7.80268 19.4972 8.01974L19.3957 8.12118C18.984 8.52818 19.4335 9.19331 19.9737 8.92999C20.1912 8.82343 20.4497 8.87218 20.617 9.05118C20.7942 9.24049 20.8072 9.53956 20.648 9.76256C20.3294 10.2094 20.785 10.7598 21.2855 10.5259C21.4973 10.4275 21.7555 10.4854 21.9435 10.6738C22.0948 10.8255 22.128 11.0612 22.0268 11.2619C22.022 11.2696 22.0001 11.3029 21.943 11.3733C21.5989 11.7973 21.9553 12.4226 22.493 12.36C22.6542 12.3412 22.8058 12.3882 22.92 12.4922C23.1618 12.7123 23.1547 13.0769 22.9424 13.2893C21.668 14.5236 21.0992 15.2562 19.7765 15.9092L18.3322 16.5306C18.0681 16.6442 17.8312 16.8049 17.6278 17.0082L16.868 17.768L13.121 14.021L13.3638 13.7782C13.8564 13.2856 14.0918 12.6064 14.0095 11.9146L13.9035 11.0227C13.843 10.5138 13.9843 9.98168 14.2966 9.51037L14.5583 9.77118C14.9991 10.2122 15.6933 10.2474 16.161 9.78343C16.2355 9.72099 16.0995 9.84906 18.7358 7.21918ZM16.5069 6.69924L17.2092 7.40149C14.0543 10.5395 16.401 8.20537 15.4937 9.10781C15.4079 9.19368 15.311 9.18118 15.2293 9.09937L14.5922 8.46424C14.5865 8.45862 14.5807 8.45306 14.5748 8.44774C13.8086 7.72468 12.7838 7.30312 11.9009 7.25399C11.1277 7.21068 10.3999 6.88493 9.85166 6.33668C9.12141 5.60643 8.78779 4.54662 8.96422 3.54243C8.9646 3.54049 8.96497 3.53849 8.96529 3.53655C9.56041 4.13168 9.99035 4.56168 10.6319 5.20324C11.3338 5.90518 12.4699 5.90524 13.1719 5.20324C13.5112 4.86399 13.698 4.41293 13.698 3.93324C13.698 3.45349 13.5112 3.00243 13.1719 2.66318L11.5053 0.996555C12.5112 0.817617 13.5738 1.1513 14.3054 1.88299C15.1043 2.68187 15.1721 3.50149 15.2342 4.0618C15.3437 5.0513 15.7957 5.98793 16.5069 6.69924Z" fill="white"/>
</svg>
