<svg width="92" height="47" viewBox="0 0 92 47" fill="none" xmlns="http://www.w3.org/2000/svg">
<path d="M12.7899 4.7334L13.617 6.28896C13.797 6.56956 14.0066 6.83006 14.2422 7.06598C14.935 7.75878 15.5944 8.48496 16.1848 9.26274C17.5871 11.1044 18.5333 13.1494 19.2094 15.3636C19.6146 16.7158 19.8347 18.1014 19.8514 19.5037C19.9197 23.6946 18.4825 27.2936 15.5762 30.2849C15.1053 30.759 14.5968 31.1942 14.0556 31.5862C13.7672 31.5862 13.6329 31.3586 13.5145 31.1636C13.2869 30.7842 13.1594 30.3691 13.0919 29.9472C12.9902 29.4403 12.9227 28.9334 12.9568 28.4091V28.1723C12.9401 28.1215 12.6867 4.85253 12.7876 4.73416L12.7899 4.7334Z" fill="#599636"/>
<path d="M12.7897 4.683C12.7555 4.61471 12.7214 4.66631 12.688 4.69969C12.7047 5.03737 12.5863 5.34165 12.3997 5.62924C12.1971 5.91759 11.9262 6.13612 11.656 6.37287C10.1521 7.67423 8.96983 9.24573 8.02284 11.0031C6.77232 13.3691 6.11367 15.9035 5.92852 18.5738C5.84505 19.5375 6.23204 22.9339 6.53708 23.9136C7.36419 26.5163 8.85146 28.6956 10.7864 30.5881C11.2599 31.0433 11.7668 31.4668 12.2904 31.872C12.4422 31.872 12.4596 31.7369 12.493 31.6352C12.5596 31.4194 12.6103 31.199 12.6448 30.9758C12.7965 30.1313 12.8815 29.2859 12.9824 28.4414L12.7965 4.683H12.7897Z" fill="#6CAC48"/>
<path d="M13.6187 32.6163C13.6528 32.2277 13.8463 31.9068 14.0413 31.5858C13.8387 31.5023 13.6862 31.3323 13.5678 31.1457C13.4662 30.9765 13.3819 30.7663 13.3144 30.588C13.0777 29.8785 13.0261 29.1348 12.9593 28.4079V27.9678C12.8758 28.0361 12.8576 28.6097 12.8576 28.6947C12.8068 29.4717 12.7058 30.2328 12.5541 30.9757C12.5032 31.2792 12.4706 31.5843 12.2839 31.8544C12.2839 31.8886 12.2839 31.9227 12.3006 31.9728C12.6042 32.8682 12.6891 33.781 12.7407 34.7106V35.0482C12.7407 35.4534 12.724 35.3692 13.0617 35.5035C13.1968 35.5544 13.3501 35.5718 13.4844 35.6727C13.5861 35.6727 13.6027 35.5893 13.6027 35.521L13.5519 34.9633V33.4077C13.5352 33.1376 13.5861 32.8667 13.6202 32.6132L13.6187 32.6163Z" fill="#C2BFBF"/>
<path d="M26.4512 25.5485V27.1578C26.4494 27.2215 26.4531 27.2853 26.4621 27.3484C26.483 27.539 26.6 27.6552 26.772 27.7087C26.9325 27.751 27.0956 27.7828 27.2602 27.804C27.3555 27.8149 27.3872 27.8567 27.3981 27.959C27.4089 28.3193 27.3772 28.3619 27.0277 28.3402C26.2126 28.2976 25.3967 28.2875 24.5816 28.3402H24.5041C24.2499 28.3511 24.229 28.3294 24.229 28.0752C24.229 28.0326 24.2398 27.9799 24.2398 27.9373C24.2398 27.8598 24.2925 27.8211 24.3669 27.8211C24.5374 27.8001 24.6955 27.7575 24.8551 27.7258C25.0774 27.6731 25.2037 27.5351 25.2254 27.3128C25.2564 27.0695 25.2564 26.8153 25.2564 26.5712L25.2673 23.7338C25.2708 23.6515 25.2508 23.5699 25.2096 23.4985C25.1684 23.4272 25.1078 23.369 25.0348 23.3309C24.8432 23.2244 24.6406 23.1392 24.4305 23.0767C24.3669 23.0558 24.3034 23.0457 24.2507 23.0132C24.0957 22.9388 24.0919 22.8016 24.2398 22.7164C24.2925 22.6854 24.3561 22.6637 24.4196 22.6529C25.0622 22.558 25.6936 22.3984 26.304 22.1763C26.4311 22.1337 26.4629 22.1454 26.4745 22.2717C26.4853 22.3491 26.4745 22.4421 26.4636 22.515C26.4427 22.6529 26.4427 22.79 26.4427 22.9179C26.4427 22.9706 26.4536 23.024 26.5063 23.0558C26.5589 23.0876 26.6124 23.0558 26.6612 23.0248C26.8836 22.8543 27.106 22.6963 27.3493 22.5599C27.698 22.3693 28.0699 22.1996 28.4728 22.1469C28.961 22.0834 29.3832 22.2104 29.7544 22.5281C29.9078 22.6655 30.043 22.822 30.1565 22.9938C30.2627 23.1488 30.2728 23.1526 30.4107 23.0465C30.8136 22.7497 31.2367 22.4855 31.6923 22.2949C32.1688 22.0934 32.6562 22.0624 33.1428 22.2314C33.6402 22.4111 33.9796 22.7606 34.1811 23.2371C34.3515 23.6183 34.4244 24.0119 34.4244 24.4226V27.2601C34.4244 27.4507 34.5018 27.57 34.6893 27.663C34.8908 27.7405 35.1132 27.7792 35.3247 27.8218C35.4626 27.8528 35.4626 27.8528 35.4626 27.9923C35.4417 28.341 35.4099 28.3627 35.0706 28.341C34.2207 28.2933 33.3689 28.2933 32.519 28.341C32.3486 28.3518 32.3486 28.3518 32.3393 28.1821V28.1294C32.3284 27.8428 32.3284 27.8428 32.6043 27.7808L32.8793 27.7064C32.9725 27.6845 33.0556 27.6318 33.1152 27.5569C33.1748 27.4819 33.2074 27.3891 33.2079 27.2934L33.2388 26.4992L33.2179 24.4242C33.2098 24.2389 33.1705 24.0563 33.1017 23.8841C32.8367 23.2379 32.2548 23.0054 31.693 23.069C31.2692 23.1116 30.8988 23.2805 30.5494 23.5246C30.475 23.5773 30.4223 23.6408 30.4331 23.747C30.5285 24.4249 30.4641 25.1029 30.4758 25.7801V27.2523C30.4758 27.5173 30.5819 27.6444 30.8361 27.7079L31.3242 27.8141C31.3986 27.8249 31.4404 27.8567 31.4404 27.9412V28.0186C31.4296 28.3154 31.4094 28.3286 31.1119 28.3255C30.265 28.2829 29.4173 28.2945 28.5813 28.3255C28.2946 28.3363 28.2713 28.3046 28.2845 28.0155C28.2954 27.8451 28.3155 27.8358 28.4751 27.804L28.8238 27.7405C29.1337 27.6769 29.2476 27.5607 29.2686 27.2322L29.2996 26.5224L29.2786 24.3939C29.2577 24.1289 29.2011 23.8748 29.0563 23.6315C28.8447 23.2394 28.5139 23.0387 28.0606 23.017C27.605 22.9861 27.2028 23.155 26.8208 23.3657C26.5558 23.5207 26.4396 23.7043 26.4605 24.0119V25.5578L26.4512 25.5485ZM46.4011 25.6128V27.1059C46.4028 27.2121 46.4097 27.3181 46.422 27.4236C46.4265 27.4939 46.4537 27.5608 46.4996 27.6143C46.5454 27.6678 46.6074 27.705 46.6761 27.7203C46.8588 27.7736 47.0471 27.8056 47.2371 27.8156C47.3433 27.8265 47.3642 27.8683 47.375 27.9536V28.0279C47.3642 28.3983 47.3223 28.4409 46.962 28.42C46.1562 28.3673 45.3527 28.3774 44.5476 28.42L44.2377 28.4309C44.1742 28.4309 44.1602 28.3999 44.1424 28.3565C44.1115 28.2098 44.1115 28.0584 44.1424 27.9117C44.1532 27.8482 44.1951 27.8342 44.2586 27.8164C44.4136 27.7955 44.5453 27.7637 44.6925 27.7389C44.9575 27.6754 45.0528 27.5685 45.0629 27.2942L45.0939 26.4047V23.7996C45.0939 23.609 45.0195 23.4928 44.8506 23.4076C44.66 23.3014 44.4585 23.2278 44.2462 23.1534C44.1827 23.1325 44.1192 23.1108 44.0665 23.079C43.9285 22.9837 43.9115 22.8466 44.0455 22.7404C44.1057 22.691 44.1795 22.6613 44.2571 22.6552C44.9351 22.549 45.5914 22.4011 46.2267 22.1469C46.3011 22.1159 46.3329 22.1361 46.3646 22.1996C46.3964 22.2631 46.4073 22.3375 46.3956 22.4111L46.3646 22.9086C46.3646 22.9721 46.3337 23.0635 46.3856 23.0883C46.4491 23.131 46.4917 23.0356 46.5444 23.0109C46.8571 22.7486 47.2024 22.528 47.5718 22.3546C47.9004 22.1996 48.2382 22.1004 48.6202 22.1221C49.33 22.1647 49.8383 22.525 50.166 23.1495C50.3365 23.4781 50.4093 23.8376 50.4411 24.2088L50.4721 24.9836L50.4829 27.3236C50.4938 27.5034 50.5573 27.6204 50.7371 27.6839C50.9234 27.746 51.1147 27.7922 51.3089 27.8218C51.4794 27.8428 51.4887 27.8745 51.4995 28.0334V28.0861C51.4786 28.4464 51.4569 28.4564 51.0966 28.4347C50.3066 28.3924 49.5148 28.3924 48.7248 28.4347C48.6187 28.4456 48.5133 28.4347 48.4149 28.4456C48.3513 28.4456 48.3087 28.4347 48.2986 28.3712C48.2777 28.2333 48.256 28.0961 48.2878 27.9474C48.2986 27.8838 48.3304 27.8521 48.404 27.8412L48.8922 27.7637C49.0626 27.7211 49.1572 27.6088 49.1789 27.4538L49.1998 27.157L49.1889 24.9441C49.1889 24.6899 49.1781 24.4358 49.1254 24.1816C48.9983 23.6392 48.5853 23.2518 48.0251 23.1976C47.537 23.1449 47.0953 23.272 46.6909 23.5362C46.4894 23.6633 46.4042 23.843 46.4042 24.0654V25.6647C46.4042 25.6337 46.4042 25.6337 46.415 25.6337L46.4011 25.6128Z" fill="#47474A"/>
<path d="M77.4147 22.616C77.2985 21.8427 77.0118 21.1547 76.5144 20.5511C76.0809 20.0178 75.5199 19.6026 74.8833 19.3439C74.217 19.0688 73.5064 18.9836 72.7866 18.9626C72.4899 18.9518 68.4452 19.0153 68.1484 18.9626C68.074 18.9518 68.0213 18.9735 67.978 19.037C67.9253 19.1145 67.8718 19.1959 67.84 19.2803C67.713 19.567 67.713 19.5453 68.0198 19.5872C68.2739 19.6298 68.5172 19.6507 68.7613 19.7251C68.9837 19.7995 69.1425 19.9265 69.1952 20.1698C69.2162 20.2861 69.2378 24.013 69.2378 25.7502L69.1952 26.99C69.1844 27.0853 69.1743 27.1806 69.1425 27.265C69.0999 27.3921 69.0263 27.4975 68.8992 27.5517C68.7594 27.6175 68.6086 27.6569 68.4545 27.668C68.1678 27.699 68.126 27.7106 68.0306 28.0283L67.9997 28.1445C67.9787 28.2824 67.9888 28.3033 68.1267 28.3033L71.2927 28.3343L72.5325 28.3134L73.3902 28.2073C74.3642 28.0275 75.2328 27.6246 75.9735 26.9791C76.3967 26.6054 76.7421 26.152 76.9901 25.6449C77.2869 25.0521 77.414 24.4051 77.4457 23.7496C77.4984 23.3792 77.4767 22.998 77.4147 22.6168V22.616ZM75.879 24.1192C75.8364 24.7972 75.6992 25.4535 75.3498 26.0462C74.905 26.8195 74.2697 27.3596 73.391 27.5494C73.0098 27.6269 72.6286 27.6656 72.2287 27.6129C71.942 27.582 71.6678 27.5494 71.4028 27.4541C70.9262 27.2836 70.7565 26.9892 70.7465 26.5243L70.7356 20.1396C70.7356 19.7584 70.9061 19.6747 71.1804 19.6631C71.5934 19.6321 72.0172 19.6422 72.4302 19.684C72.8698 19.7265 73.3013 19.8309 73.7118 19.9939C74.0167 20.1211 74.2993 20.2963 74.5486 20.5131C75.1204 21.0012 75.5017 21.6134 75.7109 22.334C75.8813 22.9166 75.9123 23.5094 75.8813 24.1021L75.879 24.1192ZM86.2154 25.1575C86.2154 25.0939 86.2154 25.0413 86.2045 24.9777C86.1092 24.395 85.8016 23.9503 85.3259 23.6117C85.019 23.3893 84.6696 23.2413 84.3093 23.1351C84.2457 23.1142 84.193 23.0925 84.1295 23.0825C84.1404 23.0298 84.1721 23.0189 84.2039 23.0081C84.4154 22.9019 84.6169 22.7857 84.7966 22.6269C85.1252 22.3518 85.339 22.0124 85.4529 21.5994C85.5165 21.377 85.5165 21.1547 85.4956 20.9214C85.4783 20.6486 85.3998 20.3832 85.2659 20.1448C85.1321 19.9064 84.9462 19.7013 84.7223 19.5445C84.2341 19.1842 83.6631 19.0362 83.0703 19.0254C81.9266 19.0045 80.7729 19.0254 79.63 19.0254C79.3015 19.0254 78.9737 19.0463 78.6343 18.9944C78.5708 18.9836 78.4794 18.9634 78.4329 19.037C78.3554 19.1749 78.2624 19.3121 78.2314 19.4709C78.2206 19.5453 78.2423 19.5872 78.3267 19.598L79.0574 19.7042C79.3441 19.7468 79.5456 19.9056 79.5657 20.1598C79.5865 20.3354 79.5968 20.5121 79.5967 20.689L79.5758 22.6687L79.5649 26.5863C79.5649 26.8187 79.5339 27.0419 79.4905 27.2743C79.4801 27.3481 79.4486 27.4174 79.3998 27.4737C79.351 27.5301 79.287 27.5711 79.2155 27.592C79.0039 27.6556 78.8025 27.7191 78.5801 27.7191C78.5207 27.7135 78.4611 27.7282 78.4111 27.7608C78.3611 27.7935 78.3237 27.8422 78.305 27.8989C78.2624 27.9942 78.2275 28.1003 78.2097 28.1956C78.1888 28.3227 78.2206 28.3661 78.3477 28.3506C78.443 28.3397 81.9375 28.425 82.5938 28.3614C82.9858 28.3188 83.3686 28.2661 83.7584 28.1499C84.4247 27.9384 85.0399 27.6308 85.5265 27.1116C85.9295 26.6878 86.1619 26.1795 86.1828 25.5867C86.2138 25.4488 86.2138 25.3117 86.2138 25.1629L86.2154 25.1575ZM81.0797 20.8184L81.1107 19.9715C81.1107 19.8126 81.1743 19.739 81.3331 19.7065C81.5873 19.6538 81.8414 19.6755 82.0956 19.6856C82.3497 19.7065 82.593 19.7382 82.8471 19.8126C83.3121 19.9506 83.6731 20.2155 83.8854 20.6595C83.9818 20.8614 84.0323 21.0821 84.0334 21.3057C84.0443 21.6025 84.0226 21.8884 83.9064 22.1736C83.7266 22.5656 83.4415 22.8198 83.0277 22.8942C82.6139 22.9686 81.4393 22.9368 81.2595 22.9368C81.1007 22.9368 81.089 22.9159 81.089 22.757V21.7598C81.0641 21.4497 81.0605 21.1383 81.0782 20.8277L81.0797 20.8184ZM84.52 26.515C84.3403 26.9915 84.0117 27.3208 83.5461 27.499C83.2919 27.5944 83.0378 27.654 82.7712 27.637C82.4427 27.6261 82.1149 27.637 81.7872 27.5734C81.3424 27.4781 81.141 27.0543 81.1092 26.7475C81.0565 26.2074 81.0883 25.6565 81.0782 25.2543V23.8565C81.0782 23.6861 81.0991 23.6341 81.2796 23.6341L82.2753 23.645L82.9533 23.7225C83.4298 23.8286 83.8637 24.0092 84.2031 24.3788C84.4782 24.6755 84.627 25.0351 84.6587 25.4271C84.6897 25.7975 84.6696 26.1578 84.5317 26.5073L84.52 26.515Z" fill="#C2BFBF"/>
<path d="M57.6148 23.3253L57.8899 23.3679C58.1866 23.3787 58.5361 23.2726 58.6414 22.8596C58.6996 22.6623 58.6996 22.4525 58.6414 22.2552C58.5779 22.2552 58.5461 22.3079 58.5144 22.3296C58.3555 22.4567 58.1758 22.5311 57.9852 22.552C57.6039 22.5946 57.2227 22.5729 56.8523 22.4358L56.3332 22.256C55.9711 22.1374 55.5901 22.0875 55.2097 22.1088C54.6696 22.1514 54.1613 22.3312 53.6848 22.5853C53.1765 22.8604 52.817 23.2734 52.6465 23.8351C52.5512 24.1637 52.5404 24.5015 52.583 24.8409C52.6891 25.6142 53.0913 26.1542 53.8111 26.4401C53.8537 26.451 53.8855 26.4711 53.9273 26.4828C54.0226 26.5354 54.0335 26.5889 53.9482 26.6625L53.6832 26.8423L53.0479 27.2344C52.889 27.3297 52.8681 27.4048 52.9208 27.573C52.9838 27.7708 53.1011 27.9469 53.2594 28.0813C53.4047 28.2059 53.5693 28.3062 53.7468 28.378C53.863 28.4307 53.863 28.4555 53.7576 28.5485L53.1533 28.9824C52.9518 29.1374 52.7503 29.2923 52.5814 29.4907C52.4639 29.6164 52.3793 29.7691 52.335 29.9354C52.2906 30.1016 52.288 30.2762 52.3273 30.4437C52.406 30.8113 52.5985 31.1448 52.8774 31.3968C53.1528 31.6518 53.4876 31.8337 53.8514 31.926C54.4441 32.0965 55.0586 32.1058 55.6622 31.9896C56.53 31.8307 57.2894 31.4472 57.886 30.7932C58.299 30.3593 58.5423 29.851 58.564 29.2435C58.5871 28.8922 58.4848 28.5441 58.2754 28.261C58.066 27.978 57.763 27.7784 57.4203 27.6977L56.8485 27.5916L55.1012 27.4366C54.9106 27.4257 54.72 27.394 54.5611 27.2987C54.3597 27.1716 54.307 26.9283 54.4341 26.7694C54.5294 26.6532 54.6456 26.5788 54.7944 26.568L55.133 26.537C55.8026 26.4689 56.4313 26.1825 56.9221 25.7219C57.1842 25.4793 57.3715 25.1669 57.4621 24.8215C57.5892 24.3659 57.5892 23.8917 57.4831 23.4268C57.4521 23.3106 57.4621 23.2997 57.6101 23.3206L57.6148 23.3253ZM55.0191 28.5996C55.0826 28.6105 55.1461 28.5996 55.2097 28.5996C55.6544 28.6205 56.11 28.6523 56.544 28.7701C56.6856 28.812 56.8237 28.8651 56.9569 28.9289C57.3808 29.1614 57.5396 29.5643 57.4862 29.9982C57.4226 30.4747 57.1576 30.8133 56.7446 31.0365C56.4696 31.1915 56.162 31.2589 55.8443 31.2906C55.728 31.3015 55.6219 31.2906 55.5057 31.2906C55.1353 31.3015 54.775 31.2596 54.4255 31.1109C54.1822 31.0156 53.9808 30.8784 53.801 30.687C53.4306 30.3167 53.2586 29.6387 53.8119 29.0878C54.1505 28.7778 54.5325 28.5586 55.0191 28.5996ZM56.2263 25.2957C56.0039 25.8567 55.5165 26.0264 55.0299 25.952C54.5852 25.8885 54.2566 25.6452 54.0459 25.2422C53.7708 24.7022 53.6972 24.142 53.8553 23.5585C53.9715 23.1246 54.2365 22.7961 54.7022 22.7217C55.2949 22.6155 55.8644 22.8278 56.1635 23.4206C56.3185 23.7073 56.3859 24.056 56.3859 24.5534C56.375 24.7549 56.3332 25.0299 56.227 25.2949L56.2263 25.2957ZM42.8851 24.5751C42.7898 24.0033 42.5782 23.4841 42.1862 23.0502C41.6035 22.404 40.8627 22.1204 40.0259 22.1181C39.2952 22.1072 38.6079 22.3195 37.9927 22.7008C37.3879 23.0627 36.9446 23.6424 36.7538 24.321C36.574 24.9354 36.5833 25.5607 36.7228 26.1844C37.0931 27.8581 38.3856 28.5772 39.9306 28.4718C40.3862 28.4408 40.8201 28.292 41.2323 28.0906C41.8468 27.8039 42.2915 27.349 42.5984 26.7454C42.8417 26.248 42.9471 25.718 42.937 25.1144L42.8843 24.5743L42.8851 24.5751ZM41.3819 26.926C41.3061 27.1642 41.1626 27.3752 40.9689 27.5332C40.7751 27.6912 40.5395 27.7893 40.2909 27.8155C39.826 27.879 39.3905 27.7628 38.9992 27.487C38.7168 27.2792 38.488 27.0069 38.3321 26.6927C37.8982 25.8032 37.8238 24.8719 38.0454 23.9188C38.1168 23.6239 38.2711 23.3555 38.4902 23.1455C38.8822 22.7852 39.3371 22.7008 39.8461 22.8069C40.3343 22.9131 40.7039 23.1773 41.0084 23.5802C41.3129 23.9831 41.4532 24.448 41.5376 24.9362C41.5802 25.1795 41.5802 25.4336 41.5903 25.5925C41.5903 26.1008 41.5477 26.5223 41.3889 26.9267L41.3819 26.926ZM66.0218 24.6603C65.9443 24.0459 65.715 23.4849 65.2803 23.0192C64.7084 22.3947 63.9669 22.1297 63.1417 22.1189C62.432 22.108 61.7757 22.3095 61.1721 22.6589C60.4941 23.0618 60.0284 23.6329 59.8486 24.4062C59.634 25.2498 59.724 26.1422 60.1028 26.926C60.4515 27.6675 61.045 28.144 61.8291 28.3555C62.697 28.588 63.5237 28.4826 64.328 28.0906C65.0269 27.7519 65.5244 27.2227 65.8103 26.5021C65.9807 26.0783 66.0427 25.6235 66.0536 25.0935C66.0644 24.9982 66.0427 24.8285 66.0226 24.6596L66.0218 24.6603ZM64.5605 26.7888C64.39 27.3607 64.0312 27.731 63.4276 27.8163C62.9829 27.8798 62.5598 27.7736 62.1778 27.5195C61.8493 27.2971 61.6168 27.0004 61.4471 26.6517C61.2565 26.2813 61.1504 25.8892 61.1085 25.4871C61.045 24.9896 61.045 24.503 61.1612 24.0048C61.1834 23.9066 61.2153 23.8108 61.2565 23.7189C61.5533 22.9774 62.2096 22.6388 62.9829 22.8085C63.502 22.9247 63.8933 23.2114 64.1901 23.6453C64.4768 24.0691 64.6139 24.5348 64.6782 25.04C64.7092 25.2415 64.7208 25.453 64.7092 25.6328C64.7092 26.0457 64.6782 26.427 64.5543 26.7973L64.5605 26.7888Z" fill="#47474A"/>
</svg>
