<svg width="81" height="31" viewBox="0 0 81 31" fill="none" xmlns="http://www.w3.org/2000/svg">
<path d="M69.9799 12.9263C69.8088 12.9263 69.6425 12.9616 69.4953 13.0449L64.8374 15.7348C64.536 15.9084 64.3528 16.2365 64.3528 16.5853V21.9554C64.3528 22.3041 64.536 22.6317 64.8374 22.8058L66.0539 23.5068C66.6449 23.7982 66.8629 23.7935 67.1319 23.7935C68.0069 23.7935 68.5064 23.2626 68.5064 22.3397V17.0418C68.5064 16.9669 68.4415 16.9133 68.3679 16.9133H67.7845C67.7097 16.9133 67.6461 16.9682 67.6461 17.0418V22.3425C67.6461 22.7515 67.22 23.1631 66.5286 22.8172L65.2641 22.0756C65.2194 22.0512 65.1849 22.0068 65.1849 21.9569V16.5868C65.1849 16.536 65.219 16.484 65.2641 16.4583L69.9122 13.778C69.9558 13.753 70.0076 13.753 70.0506 13.778L74.6987 16.4583C74.743 16.4848 74.7779 16.5343 74.7779 16.5868V21.9569C74.7779 22.0082 74.7522 22.0607 74.7086 22.0855L70.0507 24.7657C70.0095 24.7895 69.9545 24.7895 69.9123 24.7657L68.7157 24.0537C68.68 24.0328 68.6314 24.0345 68.5971 24.0537C68.2668 24.2409 68.2047 24.2627 67.895 24.3701C67.8187 24.3967 67.7026 24.438 67.9346 24.5681L69.4971 25.489C69.6458 25.575 69.8116 25.6175 69.9817 25.6175C70.1542 25.6175 70.3175 25.5763 70.4664 25.489L75.1243 22.8087C75.4257 22.6333 75.6089 22.307 75.6089 21.9583V16.5882C75.6089 16.2393 75.4257 15.9119 75.1243 15.7377L70.4664 13.0478C70.3204 12.9645 70.153 12.9292 69.9817 12.9292L69.9799 12.9263ZM71.2261 16.7636C69.8997 16.7636 69.1098 17.3281 69.1098 18.2667C69.1098 19.2838 69.8938 19.5648 71.1668 19.6907C72.6898 19.8398 72.8085 20.0634 72.8085 20.3632C72.8085 20.8832 72.394 21.1049 71.4141 21.1049C70.1831 21.1049 69.9125 20.7976 69.8219 20.184C69.8112 20.1183 69.7606 20.0654 69.6934 20.0654H69.0886C69.0521 20.0662 69.0174 20.081 68.9916 20.1068C68.9658 20.1326 68.951 20.1673 68.9502 20.2038C68.9502 20.9877 69.3765 21.9146 71.4127 21.9146C72.8866 21.9146 73.7367 21.3373 73.7367 20.3224C73.7367 19.319 73.05 19.0478 71.6204 18.8586C70.1772 18.6661 70.0381 18.5741 70.0381 18.2355C70.0381 17.9562 70.1549 17.5826 71.2248 17.5826C72.1805 17.5826 72.5338 17.7888 72.6786 18.4332C72.6913 18.4936 72.7446 18.5431 72.8071 18.5431H73.4119C73.449 18.5431 73.485 18.5203 73.5109 18.4936C73.5362 18.4652 73.554 18.4332 73.5505 18.3947C73.457 17.2849 72.717 16.7629 71.2265 16.7629L71.2261 16.7636Z" fill="#83CD29"/>
<path d="M42.5957 5.88592C42.5436 5.88602 42.4925 5.89966 42.4473 5.92551C42.4024 5.9518 42.3651 5.98934 42.3391 6.03443C42.3131 6.07953 42.2993 6.13062 42.299 6.18267V13.7481C42.299 13.8224 42.2644 13.8889 42.2001 13.9261C42.1686 13.9445 42.1327 13.9542 42.0962 13.9542C42.0597 13.9542 42.0239 13.9445 41.9924 13.9261L40.7562 13.2142C40.666 13.162 40.5637 13.1345 40.4595 13.1345C40.3553 13.1345 40.253 13.162 40.1628 13.2142L35.2281 16.0622C35.0437 16.1686 34.9312 16.3734 34.9312 16.5863V22.2826C34.9311 22.3869 34.9584 22.4893 35.0105 22.5796C35.0626 22.6699 35.1376 22.7448 35.228 22.7968L40.1628 25.645C40.2529 25.6974 40.3553 25.7249 40.4595 25.7249C40.5637 25.7249 40.666 25.6974 40.7562 25.645L45.691 22.7968C45.7813 22.7448 45.8563 22.6699 45.9084 22.5796C45.9605 22.4893 45.9879 22.3869 45.9878 22.2826V8.0814C45.9878 7.86533 45.8698 7.66259 45.6813 7.5573L42.7441 5.91547C42.6979 5.88977 42.6468 5.88537 42.5957 5.88592ZM10.8504 12.9964C10.7563 13.0003 10.6679 13.0166 10.5834 13.0657L5.64867 15.9138C5.55827 15.9657 5.48322 16.0406 5.43112 16.131C5.37903 16.2213 5.35175 16.3237 5.35205 16.428L5.36209 24.0728C5.36209 24.1792 5.41707 24.2778 5.51053 24.3298C5.60221 24.3848 5.71588 24.3848 5.80715 24.3298L8.7344 22.6485C8.91996 22.5386 9.04091 22.3467 9.04091 22.1345V18.5642C9.04091 18.3512 9.15293 18.156 9.3378 18.0502L10.5839 17.3283C10.674 17.2759 10.7764 17.2486 10.8805 17.2491C10.9847 17.2485 11.0872 17.2758 11.1773 17.3283L12.4228 18.0498C12.6074 18.1556 12.7195 18.351 12.7195 18.5638V22.1339C12.7195 22.3464 12.8432 22.5394 13.026 22.648L15.9532 24.3292C16.0453 24.3842 16.1587 24.3842 16.2498 24.3292C16.3406 24.277 16.3983 24.1785 16.3983 24.0722L16.4082 16.4277C16.4088 16.3234 16.3816 16.2208 16.3295 16.1305C16.2774 16.0401 16.2022 15.9652 16.1116 15.9135L11.1769 13.0656C11.0934 13.0166 11.0046 13.0001 10.9098 12.9963H10.8507L10.8504 12.9964ZM55.1948 13.0657C55.0906 13.0654 54.9882 13.0927 54.898 13.1449L49.9632 15.9931C49.779 16.0996 49.6663 16.2944 49.6663 16.5072V22.2035C49.6663 22.4176 49.787 22.6117 49.9728 22.7175L54.8681 25.5077C55.0488 25.6108 55.2694 25.6187 55.4515 25.5174L58.4184 23.8658C58.5125 23.8135 58.5762 23.716 58.5764 23.6087C58.5767 23.5015 58.521 23.405 58.428 23.3517L53.4633 20.5035C53.3704 20.4504 53.3053 20.3431 53.3053 20.2364V18.4552C53.3053 18.3488 53.3712 18.2513 53.4633 18.1982L55.0061 17.3081C55.0979 17.255 55.2106 17.255 55.303 17.3081L56.8464 18.1982C56.8916 18.2242 56.9291 18.2616 56.9551 18.3067C56.9812 18.3519 56.9948 18.4031 56.9947 18.4552V19.8595C56.9945 19.9117 57.0082 19.9629 57.0342 20.008C57.0603 20.0532 57.0978 20.0906 57.143 20.1166C57.2355 20.1699 57.3475 20.1702 57.4399 20.1166L60.3967 18.3961C60.5802 18.2895 60.6936 18.0941 60.6936 17.8821V16.5076C60.6936 16.4034 60.6662 16.301 60.6141 16.2107C60.562 16.1205 60.4871 16.0455 60.3968 15.9934L55.4917 13.1452C55.4015 13.093 55.2991 13.0656 55.1949 13.066L55.1948 13.0657ZM40.4396 17.3184C40.4672 17.3183 40.4945 17.325 40.5188 17.338L42.2098 18.3171C42.2557 18.3436 42.289 18.3927 42.289 18.4456V20.4037C42.289 20.4569 42.256 20.5058 42.2098 20.5322L40.5188 21.5113C40.4728 21.5374 40.4165 21.5374 40.3704 21.5113L38.6793 20.5322C38.6333 20.5057 38.6002 20.4566 38.6002 20.4037V18.4453C38.6002 18.3923 38.6334 18.3436 38.6793 18.3168L40.3704 17.3379C40.3935 17.3246 40.4138 17.3184 40.4396 17.3184Z" fill="#404137"/>
<path d="M25.6748 13.0358C25.5706 13.0356 25.4682 13.0629 25.3779 13.115L20.4431 15.9533C20.2586 16.0597 20.1465 16.2646 20.1465 16.4774V22.1737C20.1462 22.2779 20.1735 22.3804 20.2256 22.4706C20.2777 22.5609 20.3527 22.6358 20.4431 22.6877L25.3779 25.536C25.4681 25.5883 25.5704 25.6158 25.6746 25.6158C25.7788 25.6158 25.8812 25.5883 25.9713 25.536L30.9061 22.6877C30.9965 22.6357 31.0715 22.5608 31.1236 22.4705C31.1757 22.3802 31.203 22.2778 31.2029 22.1735V16.4772C31.2029 16.2642 31.0907 16.0594 30.906 15.9531L25.9712 13.1148C25.881 13.0625 25.7785 13.0352 25.6743 13.0356L25.6748 13.0358ZM55.1851 18.1191C55.1655 18.1191 55.1436 18.1191 55.1258 18.1287L54.1764 18.6826C54.1587 18.6924 54.1439 18.7067 54.1335 18.7241C54.1231 18.7414 54.1174 18.7612 54.117 18.7814V19.8693C54.117 19.9103 54.1408 19.9477 54.1764 19.9683L55.1258 20.5122C55.1421 20.5223 55.1609 20.5276 55.18 20.5276C55.1992 20.5276 55.218 20.5223 55.2343 20.5122L56.1837 19.9683C56.2189 19.9481 56.2431 19.9103 56.2431 19.8693V18.7814C56.2431 18.7405 56.219 18.7031 56.1837 18.6825L55.2343 18.1286C55.2167 18.1181 55.2047 18.1189 55.1849 18.1189L55.1851 18.1191Z" fill="#83CD29"/>
</svg>
