<svg width="44" height="44" viewBox="0 0 44 44" fill="none" xmlns="http://www.w3.org/2000/svg">
<path d="M1.80469 17.8888C1.52023 17.8888 1.28906 17.6576 1.28906 17.3732C1.28906 17.0887 1.52023 16.8575 1.80469 16.8575H9.5932C9.87766 16.8575 10.1088 17.0887 10.1088 17.3732C10.1088 17.6576 9.87766 17.8888 9.5932 17.8888H1.80469ZM7.95867 24.6332C7.95867 24.3487 7.7275 24.1175 7.44305 24.1175H1.97828C1.69383 24.1175 1.46266 24.3487 1.46266 24.6332C1.46266 24.9176 1.69383 25.1488 1.97828 25.1488H7.44305C7.72836 25.1488 7.95867 24.9185 7.95867 24.6332ZM9.98078 32.8926C9.98078 32.6082 9.74961 32.377 9.46516 32.377H5.23875C4.9543 32.377 4.72312 32.6082 4.72312 32.8926C4.72312 33.1771 4.9543 33.4082 5.23875 33.4082H9.46516C9.74961 33.4082 9.98078 33.1771 9.98078 32.8926ZM42.7109 25.4891C42.7109 34.2238 35.6048 41.3291 26.8709 41.3291C22.9445 41.3291 19.348 39.8922 16.5773 37.5186C16.5318 37.5315 16.4845 37.5392 16.4355 37.5392H10.2205C9.93609 37.5392 9.70492 37.3081 9.70492 37.0236C9.70492 36.7392 9.93609 36.508 10.2205 36.508H15.5031C13.579 34.5237 12.1696 32.0392 11.4881 29.2712H5.04367C4.75922 29.2712 4.52805 29.04 4.52805 28.7556C4.52805 28.4711 4.75922 28.2399 5.04367 28.2399H11.2698C11.1126 27.3462 11.0301 26.4275 11.0301 25.4891C11.0301 23.9465 11.2527 22.4546 11.666 21.0435H7.96727C7.68281 21.0435 7.45164 20.8124 7.45164 20.5279C7.45164 20.2435 7.68281 20.0123 7.96727 20.0123H12.0063C12.5099 18.6502 13.1957 17.3757 14.0345 16.2182L12.6672 14.8509L12.4231 15.0949C12.1352 15.3837 11.7502 15.5418 11.3403 15.5418C10.9304 15.5418 10.5463 15.3828 10.2575 15.0949L8.70719 13.5446C8.10992 12.9474 8.10992 11.9763 8.70719 11.3799L12.742 7.34511C13.0307 7.05635 13.4148 6.89823 13.8248 6.89823C14.2347 6.89823 14.6188 7.05721 14.9076 7.34511L16.457 8.89456C16.7458 9.18331 16.9039 9.56745 16.9039 9.97737C16.9039 10.3873 16.7449 10.7714 16.457 11.0602L16.2319 11.2853L17.5991 12.6526C19.5602 11.2321 21.8582 10.2498 24.3487 9.84932V7.92432H24.0032C23.1593 7.92432 22.4718 7.23768 22.4718 6.39292V4.20151C22.4718 3.3576 23.1584 2.6701 24.0032 2.6701H29.7095C30.5534 2.6701 31.2409 3.35675 31.2409 4.20151V6.39378C31.2409 7.23768 30.5542 7.92518 29.7095 7.92518H29.3906V9.85104C36.9316 11.0619 42.7109 17.6129 42.7109 25.4891ZM29.7103 6.89307C29.9862 6.89307 30.2105 6.66878 30.2105 6.39292V4.20151C30.2105 3.92565 29.9862 3.70135 29.7103 3.70135H24.0041C23.7282 3.70135 23.5039 3.92565 23.5039 4.20151V6.39378C23.5039 6.66964 23.7282 6.89393 24.0041 6.89393H29.7103V6.89307ZM25.3808 7.92432V9.71956C25.8715 9.67315 26.3682 9.64909 26.8701 9.64909C27.372 9.64909 27.8695 9.67401 28.3594 9.71956V7.92432H25.3808ZM15.7291 10.3314C15.8228 10.2378 15.8744 10.1123 15.8744 9.97823C15.8744 9.84417 15.8228 9.7187 15.7291 9.62503L14.1797 8.07471C14.086 7.98104 13.9605 7.92948 13.8265 7.92948C13.6924 7.92948 13.567 7.98104 13.4733 8.07471L9.43852 12.1095C9.24344 12.3046 9.24344 12.6217 9.43852 12.8167L10.988 14.3662C11.0816 14.4599 11.2071 14.5114 11.3412 14.5114C11.4752 14.5114 11.6007 14.4599 11.6944 14.3662L15.7291 10.3314ZM14.6713 15.3966C15.3063 14.63 16.0119 13.9245 16.7784 13.2894L15.504 12.0149L13.3968 14.1221L14.6713 15.3966ZM41.6797 25.4891C41.6797 17.3233 35.0367 10.6803 26.8709 10.6803C18.7052 10.6803 12.0613 17.3233 12.0613 25.4891C12.0613 33.6549 18.7043 40.2978 26.8709 40.2978C35.0367 40.2987 41.6797 33.6549 41.6797 25.4891ZM39.105 25.4891C39.105 32.2352 33.617 37.7232 26.8709 37.7232C20.1248 37.7232 14.636 32.2352 14.636 25.4891C14.636 18.743 20.124 13.255 26.8701 13.255C33.6162 13.255 39.105 18.743 39.105 25.4891ZM38.0609 26.0047H35.9064C35.622 26.0047 35.3908 25.7735 35.3908 25.4891C35.3908 25.2046 35.622 24.9735 35.9064 24.9735H38.0609C37.938 22.2724 36.8543 19.8181 35.1441 17.9446L33.6239 19.4649C33.5234 19.5654 33.391 19.6161 33.2595 19.6161C33.128 19.6161 32.9957 19.5654 32.8952 19.4649C32.6941 19.2638 32.6941 18.9372 32.8952 18.7353L34.4154 17.215C32.542 15.5049 30.0867 14.4212 27.3866 14.2983V16.4528C27.3866 16.7372 27.1554 16.9684 26.8709 16.9684C26.5865 16.9684 26.3553 16.7372 26.3553 16.4528V14.2983C23.6543 14.4212 21.1999 15.5049 19.3265 17.215L20.8467 18.7353C21.0478 18.9364 21.0478 19.2629 20.8467 19.4649C20.7462 19.5654 20.6138 19.6161 20.4823 19.6161C20.3509 19.6161 20.2185 19.5654 20.118 19.4649L18.5977 17.9446C16.8876 19.8181 15.8039 22.2733 15.681 24.9735H17.8355C18.1199 24.9735 18.3511 25.2046 18.3511 25.4891C18.3511 25.7735 18.1199 26.0047 17.8355 26.0047H15.681C15.8039 28.7057 16.8876 31.1601 18.5977 33.0335L20.118 31.5133C20.3191 31.3122 20.6456 31.3122 20.8467 31.5133C21.0478 31.7144 21.0478 32.041 20.8467 32.2429L19.3265 33.7632C21.1999 35.4733 23.6552 36.557 26.3553 36.6799V34.5254C26.3553 34.241 26.5865 34.0098 26.8709 34.0098C27.1554 34.0098 27.3866 34.241 27.3866 34.5254V36.6799C30.0876 36.557 32.542 35.4733 34.4154 33.7632L32.8952 32.2438C32.6941 32.0427 32.6941 31.7161 32.8952 31.5142C33.0963 31.3131 33.4228 31.3131 33.6239 31.5142L35.1441 33.0344C36.8543 31.1601 37.938 28.7057 38.0609 26.0047ZM30.7166 23.3896C30.8009 23.5727 30.7708 23.7875 30.6402 23.9405L23.9516 31.7677C23.8502 31.8863 23.7059 31.9482 23.5598 31.9482C23.4678 31.9482 23.375 31.9232 23.2916 31.8725C23.0759 31.741 22.9874 31.4712 23.0828 31.2374L25.1247 26.2488H23.4927C23.314 26.2488 23.1481 26.156 23.0545 26.0047C22.9608 25.8526 22.9522 25.6627 23.0312 25.5037L26.1155 19.3179C26.2032 19.1426 26.382 19.0326 26.577 19.0326H26.5822L29.9776 19.0678C30.1641 19.0696 30.3359 19.1727 30.4253 19.3368C30.5147 19.501 30.5087 19.7003 30.409 19.8585L28.3731 23.0914H30.2491C30.4502 23.0897 30.6324 23.2066 30.7166 23.3896ZM29.1294 24.121H27.4381C27.2508 24.121 27.0772 24.0187 26.987 23.8546C26.8959 23.6904 26.9019 23.4893 27.0024 23.3303L29.0452 20.0879L26.895 20.0656L24.3263 25.2167H25.893C26.0648 25.2167 26.2255 25.3026 26.3209 25.4453C26.4163 25.5879 26.4352 25.7692 26.3699 25.9282L25.2527 28.6585L29.1294 24.121Z" fill="black"/>
</svg>
