<svg width="19" height="15" viewBox="0 0 19 15" fill="none" xmlns="http://www.w3.org/2000/svg">
<path d="M18.8125 13.5166C12.8438 9.9063 6.87494 17.1258 0.90625 13.5166C0.90625 9.50589 0.90625 5.49504 0.90625 1.48444C6.87494 5.09424 12.8438 -2.12536 18.8125 1.48444V13.5166Z" fill="#CCCBCA"/>
<path d="M6.92656 14.1613C4.96968 14.5627 3.01229 14.5829 1.05542 13.4576C1.05542 9.54503 1.05542 5.63225 1.05542 1.71973C3.01229 2.84447 4.96968 2.82475 6.92656 2.42337V14.1613Z" fill="url(#paint0_linear_107_6241)"/>
<path d="M6.92578 2.42258V14.1611C10.8391 13.3582 14.753 11.0309 18.6667 13.2825C18.6667 9.36987 18.6667 5.45754 18.6667 1.5445C14.753 -0.706976 10.8392 1.62041 6.92578 2.42258Z" fill="url(#paint1_linear_107_6241)"/>
<path d="M15.723 7.66647C15.716 7.66035 15.7068 7.66035 15.7007 7.66647C15.6491 7.71499 15.6047 7.75236 15.5622 7.78877C15.0525 8.20529 14.3962 8.47219 13.7156 8.5662C12.9207 8.67233 12.1622 8.51967 11.6344 8.06675C11.1418 7.64321 10.8931 7.00548 10.9376 6.24977C10.9811 5.49708 11.3107 4.71759 11.8659 4.08019C11.9094 4.03064 11.9559 3.9796 12.0147 3.91942C12.0217 3.91285 12.0237 3.90273 12.0197 3.89616C12.0156 3.88907 12.0065 3.88759 11.9985 3.89261C10.7202 4.63112 9.86157 6.09254 9.86157 7.42754C9.86157 9.13943 11.2389 10.0311 12.9338 9.67927C14.1332 9.43061 15.2315 8.72594 15.7301 7.68857C15.7331 7.68168 15.7311 7.6715 15.723 7.66647Z" fill="white"/>
<path d="M13.2434 5.44337C13.4801 5.45451 13.7167 5.47165 13.9534 5.49646C13.9766 5.73507 14.0009 5.97368 14.0242 6.21222C14.0253 6.21983 14.0313 6.22537 14.0384 6.2264C14.0394 6.22692 14.0414 6.2264 14.0425 6.2264C14.0486 6.22588 14.0546 6.22183 14.0576 6.21628C14.1799 5.99488 14.3033 5.77547 14.4257 5.55813C14.6624 5.59402 14.898 5.639 15.1347 5.69364C15.1367 5.69415 15.1377 5.69415 15.1387 5.69415H15.1398C15.1499 5.69415 15.158 5.68655 15.158 5.6765C15.158 5.67044 15.1539 5.66438 15.1499 5.66084C14.9901 5.47881 14.8303 5.3009 14.6695 5.1275C14.7919 4.91363 14.9152 4.70235 15.0376 4.49409C15.0417 4.487 15.0407 4.47894 15.0356 4.47282C15.0295 4.46677 15.0215 4.46522 15.0144 4.46825C14.7929 4.56529 14.5705 4.67148 14.3489 4.78521C14.1882 4.61639 14.0264 4.45156 13.8656 4.28982C13.8606 4.28473 13.8524 4.2837 13.8454 4.28725C13.8383 4.29131 13.8332 4.29988 13.8343 4.30696C13.8585 4.54499 13.8818 4.78315 13.906 5.02118C13.6836 5.14451 13.4621 5.2739 13.2395 5.40941C13.2325 5.4145 13.2284 5.42204 13.2294 5.43016C13.2302 5.43783 13.2353 5.44337 13.2434 5.44337Z" fill="white"/>
<defs>
<linearGradient id="paint0_linear_107_6241" x1="6.91263" y1="9.38705" x2="1.04891" y2="9.35483" gradientUnits="userSpaceOnUse">
<stop stop-color="white"/>
<stop offset="1" stop-color="#DFDFDF"/>
</linearGradient>
<linearGradient id="paint1_linear_107_6241" x1="6.91238" y1="2.45982" x2="16.9645" y2="13.0274" gradientUnits="userSpaceOnUse">
<stop stop-color="#1E771E"/>
<stop offset="1" stop-color="#005300"/>
</linearGradient>
</defs>
</svg>
