<svg width="54" height="54" viewBox="0 0 54 54" fill="none" xmlns="http://www.w3.org/2000/svg">
<g clip-path="url(#clip0_107_5623)">
<path d="M51.9087 37.2598C51.9245 37.2276 51.9386 37.1947 51.9497 37.1609C55.1491 29.7767 54.5774 20.724 50.4221 13.8048C52.6404 11.1528 49.7589 7.35507 46.6077 8.8245C46.054 8.25861 45.4726 7.71625 44.8701 7.20344C46.0527 3.98854 42.1057 1.35125 39.6476 3.75324C32.5029 0.145501 23.6166 0.19119 16.5114 3.87532C13.9838 1.19677 9.73896 4.06874 11.2693 7.42946C10.3928 8.19583 9.56327 9.02372 8.79838 9.89919C8.13795 10.6551 9.33441 11.6912 9.9903 10.9405C10.7019 10.1262 11.4729 9.35578 12.2873 8.64185C13.8621 9.77774 16.1456 9.19909 17.0096 7.46523C19.8608 8.28594 22.5836 9.46383 25.1207 10.9756C24.9083 11.7415 24.9951 12.597 25.3595 13.304C23.2713 15.1078 21.3908 17.1483 19.7578 19.3846C18.2503 18.929 16.5886 19.6915 15.933 21.1192C12.6085 21.137 9.27363 21.4946 5.99943 22.1867C5.71031 21.6479 5.272 21.2015 4.74061 20.9024C5.35578 18.5035 6.33012 16.2215 7.64254 14.1114C8.16549 13.2705 6.84547 12.3963 6.29857 13.2754C4.90321 15.5187 3.86682 17.9447 3.21135 20.4948C-0.579882 20.5592 -1.21636 25.804 2.39285 26.813C2.33967 34.2775 5.56702 41.5347 11.1634 46.4784C9.996 49.632 13.7861 52.2332 16.2873 50.0089C23.5867 53.8904 32.812 53.8909 40.1119 50.0102C42.6558 52.5261 46.7302 49.7154 45.2973 46.4263C48.1816 43.863 50.4223 40.7277 51.9087 37.2598ZM50.9116 35.4899C48.7209 33.3135 46.3236 31.3391 43.764 29.606C44.1275 28.4674 43.8116 27.1863 42.9627 26.3457C45.1151 22.7671 46.8047 18.9299 47.9941 14.9214C48.3904 14.9228 48.7715 14.8496 49.1225 14.7173C52.767 20.8725 53.4335 28.8084 50.9116 35.4899ZM14.4948 44.436C13.8288 37.9124 14.9975 31.4042 17.8901 25.5228C19.687 26.0835 21.6293 24.9018 21.9782 23.0573C27.435 23.73 32.6905 25.332 37.6226 27.827C37.3854 28.749 37.5818 29.7657 38.1468 30.5327C32.5874 37.5758 25.249 42.8756 16.8503 45.9132C16.3414 45.1073 15.4855 44.5435 14.4948 44.436ZM39.1043 28.6289C39.1043 27.7321 39.8286 27.0026 40.7188 27.0026C42.8606 27.0917 42.86 30.1664 40.7188 30.2553C39.8286 30.2553 39.1043 29.5257 39.1043 28.6289ZM49.6156 11.7124C49.6156 12.6092 48.8913 13.3387 48.0011 13.3387C45.8592 13.2496 45.8597 10.1749 48.0011 10.0861C48.8913 10.0861 49.6156 10.8156 49.6156 11.7124ZM45.3984 9.85192C44.3046 11.3888 44.8122 13.6104 46.4613 14.5239C45.3091 18.3905 43.6757 22.0918 41.5978 25.5442C41.1633 25.4193 40.6811 25.3883 40.2345 25.4566C38.0625 20.8186 34.9022 16.6411 31.0415 13.3042C31.4063 12.5967 31.4932 11.7428 31.2805 10.9758C33.7242 9.51986 36.3417 8.37246 39.079 7.55682C39.9887 9.31326 42.4292 9.80919 43.9444 8.49434C44.4465 8.92632 44.9326 9.38015 45.3984 9.85192ZM26.586 11.8349C26.586 10.9381 27.3103 10.2086 28.2006 10.2086C30.3425 10.2977 30.3418 13.3723 28.2006 13.4611C27.3103 13.4611 26.586 12.7316 26.586 11.8349ZM41.8932 4.40871C42.7836 4.40871 43.5078 5.13826 43.5078 6.03505C43.419 8.19256 40.3672 8.19203 40.2787 6.03505C40.2787 5.13826 41.003 4.40871 41.8932 4.40871ZM14.1485 7.66128C13.2583 7.66128 12.534 6.93173 12.534 6.03494C12.6228 3.87733 15.6746 3.87807 15.7631 6.03494C15.7631 6.93173 15.0388 7.66128 14.1485 7.66128ZM17.3428 5.9136C17.3346 5.69391 17.3044 5.48003 17.2542 5.27364C23.8789 1.84781 32.1549 1.78809 38.8307 5.11431C38.7449 5.40121 38.6979 5.70457 38.6964 6.01869C35.8172 6.87043 33.0642 8.07353 30.494 9.60216C29.2586 8.32424 27.1431 8.32382 25.9073 9.60206C23.2289 8.00896 20.3539 6.77061 17.3428 5.9136ZM26.4073 14.4902C27.4775 15.2206 28.9234 15.2207 29.9936 14.4904C33.6795 17.6729 36.699 21.6567 38.7789 26.0805C38.6379 26.1888 38.5062 26.3088 38.3851 26.4387C33.1853 23.8013 27.6364 22.1244 21.8726 21.4497C21.717 20.9787 21.4557 20.5558 21.1166 20.2096C22.6634 18.1082 24.4387 16.189 26.4073 14.4902ZM18.8377 20.8313C19.728 20.8313 20.4522 21.5608 20.4522 22.4576C20.3634 24.6153 17.3116 24.6146 17.2231 22.4576C17.2232 21.5608 17.9475 20.8313 18.8377 20.8313ZM1.56792 23.7033C1.56792 22.8065 2.29219 22.0769 3.18244 22.0769C5.32423 22.1661 5.32359 25.2407 3.18244 25.3295C2.2923 25.3296 1.56792 24.6001 1.56792 23.7033ZM3.97551 26.8123C3.97551 26.8123 6.37929 26.2881 6.37929 23.7242C6.37929 23.7242 12.5474 22.7382 15.6508 22.7036C15.709 23.4703 16.0364 24.1622 16.5386 24.6843C13.4545 30.8888 12.2106 37.7677 12.9266 44.6609C12.6183 44.7894 12.3345 44.9651 12.0836 45.1786C6.92049 40.5534 3.97551 32.8038 3.97551 26.8123ZM14.1485 49.2521C13.2583 49.2521 12.534 48.5226 12.534 47.6258C12.534 46.729 13.2583 45.9995 14.1485 45.9995C15.0268 45.9995 15.7631 46.7602 15.7631 47.6258C15.7631 48.5226 15.0388 49.2521 14.1485 49.2521ZM28.2006 51.3495C24.3596 51.3495 20.5614 50.4296 17.1667 48.6832C17.3045 48.2882 17.3653 47.8383 17.3385 47.4192C26.0266 44.2876 33.6187 38.8147 39.37 31.5375C39.8425 31.7591 40.3668 31.8608 40.8877 31.8335C41.2393 33.1384 41.5171 34.4697 41.714 35.8009C41.8648 36.82 43.431 36.5923 43.2798 35.5694C43.0708 34.1559 42.7748 32.7422 42.3991 31.3576C42.5883 31.2398 42.764 31.1026 42.9242 30.949C45.5651 32.7419 48.0272 34.8 50.2578 37.0778C48.8744 40.1358 46.8611 42.9046 44.303 45.1926C44.0501 45.0026 43.768 44.8499 43.4653 44.7412C43.6208 43.27 43.6886 41.7845 43.6658 40.3153C43.6498 39.2814 42.0671 39.3057 42.0832 40.3397C42.1052 41.752 42.0398 43.1799 41.8895 44.5942C40.023 44.891 38.8023 46.8264 39.3166 48.6402C35.9006 50.4144 32.0729 51.3495 28.2006 51.3495ZM42.3916 49.3897C41.5013 49.3897 40.7771 48.6602 40.7771 47.7634C40.8659 45.6058 43.9177 45.6065 44.0062 47.7634C44.0062 48.6602 43.2819 49.3897 42.3916 49.3897Z" fill="white"/>
</g>
<defs>
<clipPath id="clip0_107_5623">
<rect width="54" height="54" fill="white"/>
</clipPath>
</defs>
</svg>
