<svg width="92" height="46" viewBox="0 0 92 46" fill="none" xmlns="http://www.w3.org/2000/svg">
<path d="M36.7292 22.2427C36.7292 19.6324 35.9851 18.293 34.4966 18.2194C33.9043 18.1916 33.3262 18.2836 32.7635 18.504C32.3146 18.6644 32.0147 18.8236 31.8534 18.9843V25.2141C32.8055 25.8115 33.651 26.0913 34.3883 26.0457C35.9502 25.9426 36.729 24.6764 36.729 22.2424L36.7292 22.2427ZM38.5654 22.3509C38.5654 23.6768 38.2545 24.7772 37.6289 25.6527C36.9318 26.6433 35.9658 27.1534 34.7306 27.1814C33.7995 27.2114 32.8403 26.9193 31.8534 26.3078V31.9698L30.2566 31.4002V18.8328C30.5187 18.5115 30.8557 18.2355 31.2622 18.0012C32.2126 17.4475 33.3675 17.1625 34.7283 17.1486L34.751 17.1712C35.993 17.1556 36.9504 17.6633 37.6229 18.6997C38.2498 19.6484 38.5643 20.8643 38.5643 22.3509H38.5654ZM48.3218 26.0667C48.3218 27.8451 48.1436 29.0771 47.7869 29.7617C47.4288 30.4464 46.7475 30.9933 45.7415 31.4006C44.9257 31.722 44.0433 31.897 43.0966 31.9266L42.8328 30.9203C43.7956 30.7894 44.4732 30.6582 44.8662 30.5273C45.6401 30.2652 46.1713 29.8634 46.463 29.3253C46.697 28.8867 46.8123 28.0501 46.8123 26.8113V26.3956C45.7351 26.888 44.5639 27.1413 43.3794 27.138C42.5933 27.138 41.8997 26.8919 41.3023 26.3956C40.6316 25.8557 40.2961 25.1709 40.2961 24.3411V17.6956L41.8928 17.1488V23.8379C41.8928 24.5525 42.1235 25.1028 42.5846 25.4888C43.0456 25.8748 43.6432 26.0601 44.3754 26.0462C45.1071 26.0305 45.8917 25.7475 46.7251 25.1935V17.3897H48.3218V26.0667ZM54.5572 27.0941L54.0312 27.1168C53.1284 27.1168 52.424 26.902 51.921 26.4707C51.4197 26.0391 51.1679 25.4437 51.1679 24.6835V18.3921H50.0767V17.3876H51.1679V14.7219L52.7629 14.154V17.3895H54.5572V18.394H52.7629V24.6415C52.7629 25.2406 52.9234 25.6653 53.2452 25.9133C53.5233 26.1176 53.9598 26.2347 54.5572 26.2642V27.0958V27.0941ZM64.2252 26.9632H62.6285V20.7997C62.6285 20.1728 62.4817 19.6328 62.1899 19.1822C61.8527 18.6721 61.3845 18.4171 60.7835 18.4171C60.0518 18.4171 59.136 18.8031 58.0372 19.5753V26.9632H56.4404V12.2308L58.0372 11.7275V18.4377C59.0573 17.6952 60.172 17.3251 61.3826 17.3251C62.2281 17.3251 62.913 17.6096 63.437 18.1777C63.9629 18.7455 64.2248 19.4529 64.2248 20.2984V26.9653L64.2252 26.9632ZM72.712 21.9913C72.712 20.9884 72.5195 20.1604 72.1425 19.5051C71.6917 18.707 70.9914 18.2855 70.0444 18.2421C68.2943 18.3435 67.4204 19.5977 67.4204 22.0013C67.4204 23.1036 67.6023 24.0243 67.969 24.7614C68.4372 25.7028 69.1394 26.1677 70.0759 26.1521C71.8333 26.1382 72.7118 24.7511 72.7118 21.9889L72.712 21.9913ZM74.4607 22.002C74.4607 23.429 74.0955 24.6171 73.3695 25.5658C72.5676 26.6279 71.46 27.1609 70.0468 27.1609C68.6458 27.1609 67.5537 26.626 66.766 25.5658C66.0513 24.6171 65.6951 23.4293 65.6951 22.002C65.6951 20.6604 66.0813 19.5316 66.8532 18.6129C67.6691 17.6381 68.7419 17.149 70.0677 17.149C71.3936 17.149 72.4733 17.6381 73.3049 18.6129C74.0751 19.5318 74.4631 20.6604 74.4631 22.002H74.4607ZM83.6148 26.9632H82.0181V20.4503C82.0181 19.7357 81.8033 19.1786 81.3734 18.7768C80.9455 18.3767 80.3706 18.1828 79.6562 18.1984C78.8979 18.2124 78.1765 18.4605 77.4916 18.9409V26.9632H75.8948V18.7436C76.8138 18.0746 77.6594 17.6375 78.4315 17.4333C79.16 17.2408 79.8008 17.1488 80.3567 17.1488C80.7358 17.1488 81.0923 17.1851 81.4276 17.2587C82.0545 17.4038 82.5647 17.6728 82.958 18.0675C83.3966 18.504 83.6148 19.0303 83.6148 19.6416V26.9632Z" fill="#646464"/>
<path d="M14.4859 12.2904C13.6643 12.2943 12.8797 12.3642 12.1895 12.4864C10.1559 12.8459 9.78678 13.5977 9.78678 14.9843V16.8158H14.5923V17.4262H7.98099C6.58428 17.4262 5.3613 18.2658 4.97918 19.8626C4.538 21.693 4.51831 22.8353 4.97918 24.7466C5.32086 26.1694 6.13668 27.1829 7.53318 27.1829H9.18556V24.9875C9.18556 23.4012 10.5579 22.0021 12.1874 22.0021H16.9875C18.3237 22.0021 19.3902 20.902 19.3902 19.56V14.9841C19.3902 13.6818 18.2916 12.7034 16.9875 12.4862C16.1621 12.3488 15.3054 12.2864 14.4838 12.2902L14.4859 12.2904ZM11.8848 13.7631C12.3812 13.7631 12.7867 14.1752 12.7867 14.6816C12.7867 15.1865 12.3812 15.5946 11.8848 15.5946C11.3868 15.5946 10.983 15.1863 10.983 14.6816C10.983 14.175 11.3865 13.7631 11.8848 13.7631Z" fill="url(#paint0_linear_107_5569)"/>
<path d="M19.994 17.4263V19.5603C19.994 21.2148 18.5913 22.607 16.9922 22.607H12.192C10.8773 22.607 9.78931 23.7324 9.78931 25.0491V29.6252C9.78931 30.9276 10.9218 31.6935 12.192 32.0673C13.7111 32.5145 15.172 32.5954 16.9922 32.0673C18.2021 31.7171 19.3949 31.0121 19.3949 29.6252V27.7938H14.5948V27.1833H21.7976C23.1943 27.1833 23.7147 26.2092 24.2004 24.747C24.7021 23.2416 24.6807 21.794 24.2004 19.863C23.8552 18.4727 23.196 17.4267 21.7976 17.4267H19.994V17.4263ZM17.2943 29.0148C17.7924 29.0148 18.1961 29.423 18.1961 29.9278C18.1961 30.4344 17.7926 30.8463 17.2943 30.8463C16.7979 30.8463 16.3924 30.4342 16.3924 29.9278C16.3924 29.4228 16.7979 29.0148 17.2943 29.0148Z" fill="url(#paint1_linear_107_5569)"/>
<path d="M86.7243 15.966H87.0042V14.2104H87.6674V14.0012H86.061V14.2104H86.7243V15.966ZM87.9156 15.966H88.1548V14.3626L88.6741 15.966H88.9405L89.4813 14.3677V15.966H89.7424V14.001H89.3973L88.8061 15.6844L88.302 14.001H87.916V15.966" fill="#646464"/>
<path opacity="0.444" d="M21.0866 35.1775C21.0866 35.8671 18.2034 36.4263 14.6467 36.4263C11.0901 36.4263 8.20679 35.8673 8.20679 35.1775C8.20679 34.4878 11.0901 33.9287 14.6467 33.9287C18.2034 33.9287 21.0866 34.4878 21.0866 35.1775Z" fill="url(#paint2_radial_107_5569)"/>
<defs>
<linearGradient id="paint0_linear_107_5569" x1="4.64262" y1="12.29" x2="15.6342" y2="21.838" gradientUnits="userSpaceOnUse">
<stop stop-color="#5A9FD4"/>
<stop offset="1" stop-color="#306998"/>
</linearGradient>
<linearGradient id="paint1_linear_107_5569" x1="17.1766" y1="29.7737" x2="13.2516" y2="24.1668" gradientUnits="userSpaceOnUse">
<stop stop-color="#FFD43B"/>
<stop offset="1" stop-color="#FFE873"/>
</linearGradient>
<radialGradient id="paint2_radial_107_5569" cx="0" cy="0" r="1" gradientUnits="userSpaceOnUse" gradientTransform="translate(14.6467 35.1775) rotate(-90) scale(1.24877 5.48886)">
<stop stop-color="#B8B8B8" stop-opacity="0.498"/>
<stop offset="1" stop-color="#7F7F7F" stop-opacity="0"/>
</radialGradient>
</defs>
</svg>
