<svg width="243" height="243" viewBox="0 0 243 243" fill="none" xmlns="http://www.w3.org/2000/svg">
<path d="M43.4787 210.604L41.8049 202.082L34.6723 202.206L36.1761 212.062C34.048 218.307 33.6934 221.927 38.6401 221.968C40.8979 221.986 44.2412 222.014 45.5973 220.585C46.8752 219.239 44.9956 213.04 43.4787 210.604Z" fill="white"/>
<path fill-rule="evenodd" clip-rule="evenodd" d="M34.3981 201.975L35.9339 212.042C35.4095 213.584 34.9917 214.973 34.7365 216.191C34.479 217.42 34.3835 218.492 34.5217 219.378C34.6612 220.272 35.0407 220.987 35.7332 221.475C36.4174 221.956 37.3776 222.194 38.6385 222.204L38.6456 222.205C39.7704 222.214 41.1841 222.225 42.488 222.054C43.7831 221.884 45.0309 221.526 45.7691 220.749C45.969 220.538 46.0932 220.249 46.1664 219.922C46.24 219.594 46.2658 219.211 46.2554 218.795C46.2346 217.963 46.068 216.968 45.8159 215.947C45.3174 213.93 44.4723 211.769 43.7027 210.517L41.9991 201.843L34.3981 201.975ZM43.3914 210.917C44.1037 212.136 44.8859 214.155 45.3568 216.061C45.6045 217.063 45.763 218.022 45.7826 218.807C45.7924 219.199 45.7673 219.541 45.7049 219.819C45.6422 220.099 45.5457 220.297 45.4261 220.423C44.8081 221.074 43.7063 221.417 42.4263 221.585C41.1578 221.752 39.7741 221.741 38.6424 221.732C37.4299 221.722 36.5794 221.492 36.0053 221.088C35.4396 220.69 35.1132 220.102 34.989 219.305C34.8636 218.501 34.9466 217.494 35.1994 216.288C35.4441 215.12 35.8442 213.781 36.3523 212.28C36.6356 212.226 36.9331 212.067 37.2171 211.882C37.5331 211.677 37.8701 211.414 38.2007 211.156C38.2358 211.129 38.2708 211.102 38.3057 211.075C38.675 210.787 39.0336 210.513 39.3663 210.315C39.7068 210.113 39.9782 210.017 40.1798 210.031L40.19 210.031L40.2003 210.031C40.4134 210.028 40.683 210.094 40.994 210.204C41.2378 210.29 41.4894 210.397 41.7424 210.505C41.8099 210.533 41.8774 210.562 41.9449 210.591C42.2578 210.722 42.575 210.848 42.8499 210.909C43.0203 210.946 43.2156 210.967 43.3914 210.917ZM36.3736 211.788L34.9472 202.439L41.6114 202.322L43.2119 210.471C43.155 210.477 43.0719 210.473 42.951 210.447C42.7244 210.397 42.445 210.288 42.1281 210.154C42.0648 210.128 42.0002 210.1 41.9346 210.073C41.68 209.964 41.4109 209.85 41.1521 209.758C40.8326 209.645 40.5008 209.555 40.202 209.558C39.8505 209.538 39.4757 209.7 39.1247 209.909C38.7625 210.124 38.3814 210.416 38.0152 210.701C37.9806 210.728 37.9462 210.755 37.9119 210.782C37.5775 211.043 37.2571 211.293 36.9594 211.486C36.7303 211.635 36.5349 211.736 36.3736 211.788ZM43.3617 219.387C44.0982 219.169 44.7316 218.87 45.1 218.467L44.7506 218.148C44.472 218.453 43.9426 218.722 43.2278 218.933C42.5217 219.142 41.6683 219.284 40.7786 219.36C38.9916 219.513 37.1057 219.392 36.0147 219.029L35.8652 219.477C37.0442 219.87 39.004 219.986 40.8188 219.832C41.7299 219.754 42.6164 219.607 43.3617 219.387Z" fill="black"/>
<path d="M68.9178 210.604L70.5916 202.082L77.7242 202.206L76.2204 212.062C78.3485 218.307 78.7031 221.927 73.7564 221.968C71.4986 221.986 68.1553 222.014 66.7992 220.585C65.5213 219.239 67.4009 213.04 68.9178 210.604Z" fill="white"/>
<path fill-rule="evenodd" clip-rule="evenodd" d="M78.0004 201.975L76.4645 212.042C76.9889 213.584 77.4068 214.973 77.6619 216.191C77.9195 217.42 78.015 218.492 77.8767 219.378C77.7373 220.272 77.3578 220.987 76.6652 221.475C75.981 221.956 75.0209 222.194 73.7599 222.204L73.7528 222.205C72.628 222.214 71.2144 222.225 69.9105 222.054C68.6153 221.884 67.3675 221.526 66.6294 220.749C66.4295 220.538 66.3052 220.249 66.232 219.922C66.1585 219.594 66.1327 219.211 66.1431 218.795C66.1638 217.963 66.3304 216.968 66.5825 215.947C67.0811 213.93 67.9261 211.769 68.6957 210.517L70.3993 201.843L78.0004 201.975ZM69.007 210.917C68.2948 212.136 67.5126 214.155 67.0416 216.061C66.7939 217.063 66.6354 218.022 66.6158 218.807C66.606 219.199 66.6312 219.541 66.6935 219.819C66.7562 220.099 66.8528 220.297 66.9723 220.423C67.5903 221.074 68.6922 221.417 69.9721 221.585C71.2406 221.752 72.6243 221.741 73.7561 221.732C74.9685 221.722 75.819 221.492 76.3931 221.088C76.9588 220.69 77.2852 220.102 77.4095 219.305C77.5349 218.501 77.4519 217.494 77.199 216.288C76.9544 215.12 76.5542 213.781 76.0461 212.28C75.7629 212.226 75.4654 212.067 75.1813 211.882C74.8654 211.677 74.5283 211.414 74.1978 211.156C74.1627 211.129 74.1276 211.102 74.0927 211.075C73.7235 210.787 73.3649 210.513 73.0321 210.315C72.6916 210.113 72.4203 210.017 72.2186 210.031L72.2084 210.031L72.1982 210.031C71.985 210.028 71.7154 210.094 71.4044 210.204C71.1606 210.29 70.9091 210.397 70.656 210.505C70.5886 210.533 70.521 210.562 70.4535 210.591C70.1406 210.722 69.8234 210.848 69.5486 210.909C69.3782 210.946 69.1829 210.967 69.007 210.917ZM76.0249 211.788L77.4513 202.439L70.7871 202.322L69.1866 210.471C69.2434 210.477 69.3265 210.473 69.4474 210.447C69.6741 210.397 69.9535 210.288 70.2704 210.154C70.3336 210.128 70.3983 210.1 70.4639 210.073C70.7185 209.964 70.9875 209.85 71.2463 209.758C71.5658 209.645 71.8976 209.555 72.1964 209.558C72.5479 209.538 72.9227 209.7 73.2737 209.909C73.6359 210.124 74.0171 210.416 74.3833 210.701C74.4178 210.728 74.4523 210.755 74.4866 210.782C74.8209 211.043 75.1413 211.293 75.439 211.486C75.6682 211.635 75.8636 211.736 76.0249 211.788ZM69.1893 219.387C68.4528 219.169 67.8193 218.87 67.451 218.467L67.8004 218.148C68.0789 218.453 68.6083 218.722 69.3232 218.933C70.0293 219.142 70.8826 219.284 71.7724 219.36C73.5593 219.513 75.4453 219.392 76.5362 219.029L76.6858 219.477C75.5068 219.87 73.5469 219.986 71.7322 219.832C70.821 219.754 69.9345 219.607 69.1893 219.387Z" fill="black"/>
<path d="M44.2523 202.228H31.4837C29.3192 184.494 17.9692 156.592 21.316 148.553C23.9996 142.107 32.6659 133.656 39.5232 132.001V128.454C37.001 128.927 28.3625 129.778 26.2816 127.508C23.6806 124.671 24.7985 104.336 31.2472 92.5128C36.9221 82.1087 39.7596 79.2713 50.6366 76.4339C51.0231 76.3331 51.4245 76.2401 51.8382 76.1569C52.803 73.2095 53.3863 69.0112 53.1379 67.2142C50.9644 65.8366 46.528 61.8399 46.1711 56.8735C45.3952 46.0769 61.4418 40.5453 66.4411 50.2275C67.982 53.2116 68.4584 57.1976 67.8469 61.3007C67.7442 61.9902 68.5268 63.6827 68.3625 64.3746C68.2205 64.9728 67.1348 64.7811 66.9438 65.3204C65.7648 68.6498 63.669 70.5156 60.8104 70.0992C60.6832 71.5431 60.9552 74.2825 61.4213 76.4539C71.4605 79.5191 75.0824 82.1313 80.745 92.5128C87.1937 104.336 88.3116 124.671 85.7105 127.508C83.6297 129.778 74.8764 128.691 72.3542 128.218V132.001C79.2114 133.656 87.8777 142.107 90.5613 148.553C93.9081 156.592 82.5582 184.494 80.3937 202.228H67.625C68.6073 188.75 71.6812 166.524 70.4625 156.592H41.4148C40.1961 166.524 43.27 188.75 44.2523 202.228Z" fill="white"/>
<path fill-rule="evenodd" clip-rule="evenodd" d="M54.2157 46.0945C49.7485 47.5924 46.0289 51.5938 46.4071 56.8559C46.5809 59.2746 47.75 61.4709 49.1585 63.2418C50.5664 65.0119 52.1986 66.3382 53.2646 67.0138L53.3572 67.0725L53.3723 67.1811C53.5012 68.114 53.4132 69.6401 53.1772 71.287C52.9602 72.8015 52.6149 74.4397 52.1835 75.8492C54.9113 75.35 58.124 75.2751 61.1102 76.1149C60.6909 74.0019 60.4524 71.4687 60.575 70.0777L60.597 69.8284L60.8446 69.8645C62.2091 70.0633 63.3814 69.7188 64.3585 68.9298C65.3421 68.1356 66.1405 66.8801 66.721 65.2408C66.7965 65.0276 66.9582 64.9004 67.1181 64.8183C67.2601 64.7453 67.4258 64.6957 67.5666 64.6536C67.5791 64.6498 67.5914 64.6462 67.6035 64.6425C67.764 64.5942 67.8909 64.5525 67.9866 64.4953C68.074 64.443 68.1159 64.3894 68.1326 64.3193C68.1616 64.1973 68.1522 64.0034 68.1043 63.7411C68.0578 63.4858 67.9812 63.1972 67.8998 62.8982C67.8919 62.8694 67.884 62.8404 67.8761 62.8113C67.8031 62.5439 67.7285 62.2707 67.6761 62.0228C67.6193 61.7543 67.5808 61.4829 67.6132 61.2652C68.2194 57.1973 67.7435 53.2642 66.2312 50.3353C63.8008 45.6284 58.6808 44.5973 54.2157 46.0945ZM61.3524 76.6794C66.3648 78.2098 69.7438 79.6185 72.5753 81.9225C75.4073 84.227 77.7107 87.4428 80.5375 92.6254C83.7413 98.4991 85.6278 106.505 86.3865 113.405C86.7656 116.854 86.8621 120.017 86.703 122.49C86.6234 123.727 86.4802 124.786 86.2788 125.619C86.0752 126.46 85.8194 127.039 85.5364 127.348C85.0711 127.855 84.2003 128.202 83.0582 128.41C81.9271 128.616 80.5764 128.678 79.202 128.655C76.4541 128.607 73.6487 128.219 72.3979 127.985L72.1178 127.932V131.873C67.698 134.732 55.1947 138.67 39.7597 131.847V128.169L39.4797 128.221C38.2327 128.455 35.4575 128.784 32.738 128.773C31.3783 128.767 30.0417 128.676 28.921 128.448C27.79 128.218 26.9234 127.858 26.4561 127.348C26.173 127.039 25.9172 126.46 25.7137 125.619C25.5122 124.786 25.369 123.727 25.2895 122.49C25.1303 120.017 25.2268 116.854 25.606 113.405C26.3647 106.505 28.2511 98.4991 31.4549 92.6254C34.2923 87.4235 36.4027 84.1487 39.1445 81.8153C41.8818 79.4857 45.2686 78.0779 50.6964 76.662C51.0785 76.5623 51.4756 76.4704 51.885 76.3881C54.7356 75.8146 58.165 75.7081 61.2867 76.6594C61.2867 76.6594 61.2868 76.6594 61.2867 76.6594L61.3524 76.6794ZM39.2868 131.816V128.736C37.9115 128.969 35.3 129.257 32.736 129.246C31.3607 129.24 29.9899 129.148 28.8268 128.911C27.674 128.677 26.6806 128.293 26.1075 127.667C25.7403 127.267 25.462 126.59 25.254 125.73C25.044 124.861 24.8981 123.773 24.8175 122.52C24.6562 120.013 24.7546 116.822 25.1359 113.354C25.8981 106.421 27.7949 98.3479 31.0398 92.3989C33.8773 87.1967 36.0231 83.8508 38.838 81.4551C41.6574 79.0556 45.1278 77.6259 50.577 76.2044C50.9254 76.1135 51.2856 76.0291 51.6558 75.9522C52.1135 74.5199 52.4821 72.8039 52.7091 71.22C52.9344 69.6473 53.0166 68.2284 52.9172 67.3528C51.8105 66.6348 50.1909 65.2996 48.7883 63.5361C47.346 61.7226 46.1185 59.4374 45.9354 56.8898C45.5376 51.3553 49.4534 47.1926 54.0654 45.6461C58.6795 44.0989 64.0824 45.1431 66.6514 50.1183C68.2207 53.1575 68.6976 57.1966 68.0809 61.3349C68.062 61.4618 68.0828 61.6606 68.1387 61.925C68.1881 62.1585 68.2589 62.4179 68.3327 62.6882C68.3405 62.7167 68.3483 62.7453 68.3561 62.7739C68.4369 63.0707 68.5188 63.3781 68.5696 63.6563C68.619 63.9275 68.6459 64.2046 68.5927 64.4286C68.5383 64.6576 68.3913 64.8044 68.2292 64.9012C68.0754 64.9932 67.8923 65.0494 67.7398 65.0954L67.7137 65.1032C67.5606 65.1492 67.4357 65.1868 67.3342 65.2389C67.2325 65.2912 67.1868 65.3423 67.1668 65.3987C66.5683 67.0888 65.7293 68.4309 64.6556 69.2978C63.6368 70.1204 62.4181 70.5054 61.0291 70.3638C60.9535 71.7946 61.203 74.2508 61.6239 76.2679C66.5784 77.7873 69.9946 79.2129 72.8737 81.5557C75.7781 83.919 78.117 87.2 80.9527 92.3989C84.1976 98.3479 86.0944 106.421 86.8566 113.354C87.2379 116.822 87.3362 120.013 87.1749 122.52C87.0943 123.773 86.9485 124.861 86.7384 125.73C86.5305 126.59 86.2522 127.267 85.885 127.667C85.3099 128.295 84.3062 128.664 83.1429 128.875C81.9687 129.089 80.5834 129.151 79.194 129.127C76.6031 129.083 73.9664 128.739 72.5907 128.5V131.816C76.0301 132.7 79.8697 135.223 83.184 138.307C86.5585 141.446 89.4208 145.197 90.7797 148.461C91.215 149.507 91.4049 150.857 91.4106 152.439C91.4164 154.023 91.2373 155.855 90.9227 157.873C90.2934 161.91 89.1179 166.716 87.773 171.815C87.2786 173.689 86.7615 175.603 86.2398 177.533C83.9192 186.119 81.51 195.034 80.6285 202.256L80.6031 202.464H67.3709L67.3893 202.211C67.6694 198.368 68.12 193.808 68.5924 189.027C68.9484 185.426 69.3167 181.699 69.6337 178.059C70.3628 169.69 70.8209 161.78 70.2526 156.828H41.625C41.0567 161.78 41.5148 169.69 42.2439 178.059C42.5609 181.699 42.9292 185.426 43.2851 189.027C43.7575 193.808 44.2082 198.368 44.4882 202.211L44.5067 202.464H31.2744L31.2491 202.256C30.3676 195.034 27.9583 186.119 25.6377 177.533C25.1161 175.603 24.5989 173.689 24.1046 171.815C22.7597 166.716 21.5842 161.91 20.9549 157.873C20.6402 155.855 20.4611 154.023 20.4669 152.439C20.4727 150.857 20.6626 149.507 21.0979 148.461C22.4568 145.197 25.3191 141.446 28.6935 138.307C32.0079 135.223 35.8475 132.7 39.2868 131.816ZM72.3979 132.255C67.8603 135.205 55.1426 139.192 39.501 132.249C36.1477 133.082 32.3357 135.564 29.0157 138.653C25.6718 141.764 22.8591 145.461 21.5345 148.643C21.133 149.607 20.9455 150.888 20.9398 152.44C20.9342 153.99 21.1096 155.796 21.4222 157.8C22.0474 161.811 23.2171 166.596 24.5619 171.694C25.054 173.56 25.5696 175.468 26.0903 177.394C28.3892 185.9 30.7864 194.769 31.6928 201.991H43.9979C43.7169 198.205 43.277 193.753 42.8157 189.086C42.4597 185.484 42.091 181.754 41.7727 178.1C41.0342 169.622 40.5673 161.557 41.1802 156.563L41.2057 156.355H70.6719L70.6973 156.563C71.3102 161.557 70.8433 169.622 70.1048 178.1C69.7866 181.754 69.4179 185.484 69.0619 189.086C68.6006 193.753 68.1606 198.205 67.8797 201.991H80.1848C81.0912 194.769 83.4883 185.9 85.7873 177.394C86.3079 175.468 86.8236 173.56 87.3157 171.694C88.6604 166.596 89.8302 161.811 90.4554 157.8C90.7679 155.796 90.9434 153.99 90.9377 152.44C90.9321 150.888 90.7445 149.607 90.3431 148.643C89.0185 145.461 86.2058 141.764 82.8619 138.653C79.5489 135.57 75.746 133.093 72.3979 132.255ZM42.9076 93.2221C43.2049 92.4214 43.5611 91.5546 43.7986 91.0004L44.2333 91.1867C43.9979 91.736 43.6448 92.5953 43.3509 93.3867C43.2039 93.7827 43.0727 94.1589 42.9787 94.4695C42.8812 94.7915 42.8337 95.0119 42.8337 95.1133H42.3608C42.3608 94.931 42.4315 94.6449 42.5261 94.3325C42.6241 94.0086 42.759 93.6222 42.9076 93.2221ZM68.7995 93.3867C68.5056 92.5953 68.1525 91.736 67.9171 91.1867L68.3518 91.0004C68.5893 91.5546 68.9455 92.4214 69.2428 93.2221C69.3914 93.6222 69.5262 94.0086 69.6243 94.3325C69.7189 94.6449 69.7896 94.931 69.7896 95.1133H69.3167C69.3167 95.0119 69.2692 94.7915 69.1717 94.4695C69.0776 94.1589 68.9465 93.7827 68.7995 93.3867Z" fill="black"/>
<path d="M44.2523 202.228H31.4837C29.3192 184.494 17.9692 156.592 21.316 148.553C23.9996 142.107 32.6659 133.656 39.5232 132.001C55.2238 139 67.9524 134.917 72.3542 132.001C79.2114 133.656 87.8777 142.107 90.5613 148.553C93.9081 156.592 82.5582 184.494 80.3937 202.228H67.625C68.6073 188.75 71.6812 166.524 70.4625 156.592H41.4148C40.1961 166.524 43.27 188.75 44.2523 202.228Z" fill="#1E1D28"/>
<path d="M63.3687 54.6796C61.3537 54.8628 62.1833 59.9213 62.7939 62.211C59.9905 57.635 56.7798 61.9097 61.0525 65.6286C59.4979 66.0725 51.7543 66.5376 50.241 64.8472C43.0277 57.3171 40.64 49.4785 42.9214 45.4176C45.4664 40.8874 49.0837 47.2593 51.0247 44.2549C58.812 32.2014 61.7863 43.3046 64.305 42.4231C68.8844 40.8203 72.0098 43.7009 72.4678 47.8224C72.9257 51.9438 72.7825 52.8582 68.3343 53.9702C66.4426 54.4431 65.8874 54.4506 63.3687 54.6796Z" fill="#1E1D28"/>
<path d="M34.0469 94.877H77.0819V120.887H34.0469V94.877Z" fill="white"/>
<path fill-rule="evenodd" clip-rule="evenodd" d="M76.6089 95.3499H34.5198V120.414H76.6089V95.3499ZM34.0469 94.877V120.887H77.0819V94.877H34.0469Z" fill="black"/>
<path d="M29.3184 152.572H81.8116V157.774H29.3184V152.572Z" fill="white"/>
<path fill-rule="evenodd" clip-rule="evenodd" d="M81.3387 153.045H29.7913V157.301H81.3387V153.045ZM29.3184 152.572V157.774H81.8116V152.572H29.3184Z" fill="black"/>
<path d="M40.0547 107.126L46.1791 107.662L36.3489 220.022C36.2009 221.713 34.71 222.964 33.0188 222.816L-nan -nanL33.0188 222.816C31.3275 222.668 30.0765 221.177 30.2244 219.486L40.0547 107.126Z" fill="white"/>
<path fill-rule="evenodd" clip-rule="evenodd" d="M45.6668 108.092L40.4846 107.638L30.6955 219.527C30.5703 220.959 31.6289 222.22 33.06 222.345C34.491 222.47 35.7526 221.412 35.8778 219.981L45.6668 108.092ZM40.0547 107.126L30.2244 219.486C30.0765 221.177 31.3275 222.668 33.0188 222.816C34.71 222.964 36.2009 221.713 36.3489 220.022L46.1791 107.662L40.0547 107.126Z" fill="black"/>
<path d="M72.0215 107.126L65.897 107.662L75.7273 220.022C75.8752 221.713 77.3662 222.964 79.0574 222.816L-nan -nanL79.0574 222.816C80.7486 222.668 81.9997 221.177 81.8517 219.486L72.0215 107.126Z" fill="white"/>
<path fill-rule="evenodd" clip-rule="evenodd" d="M66.4094 108.092L71.5916 107.638L81.3806 219.527C81.5058 220.959 80.4472 222.22 79.0162 222.345C77.5852 222.47 76.3236 221.412 76.1984 219.981L66.4094 108.092ZM72.0215 107.126L81.8517 219.486C81.9997 221.177 80.7486 222.668 79.0574 222.816C77.3662 222.964 75.8752 221.713 75.7273 220.022L65.897 107.662L72.0215 107.126Z" fill="black"/>
<path d="M148.023 69.3392C148.023 66.9886 149.929 65.083 152.28 65.083H173.561C175.911 65.083 177.817 66.9886 177.817 69.3392V72.1767H148.023V69.3392Z" fill="#1E1D28"/>
<path fill-rule="evenodd" clip-rule="evenodd" d="M173.561 65.5559H152.28C150.19 65.5559 148.496 67.2498 148.496 69.3392V71.7038H177.344V69.3392C177.344 67.2498 175.65 65.5559 173.561 65.5559ZM152.28 65.083C149.929 65.083 148.023 66.9886 148.023 69.3392V72.1767H177.817V69.3392C177.817 66.9886 175.911 65.083 173.561 65.083H152.28Z" fill="#1E1D28"/>
<path d="M106.665 71.7041H221.798L212.082 157.774H96.9492L106.665 71.7041Z" fill="white"/>
<path fill-rule="evenodd" clip-rule="evenodd" d="M107.088 72.177L97.4785 157.301H211.66L221.269 72.177H107.088ZM106.665 71.7041L96.9492 157.774H212.082L221.798 71.7041H106.665Z" fill="black"/>
<path fill-rule="evenodd" clip-rule="evenodd" d="M115.638 80.2161L112.648 106.699H207.913L210.903 80.2161H115.638ZM115.215 79.7432L112.119 107.172H208.336L211.432 79.7432H115.215Z" fill="black"/>
<path fill-rule="evenodd" clip-rule="evenodd" d="M205.549 118.995L205.87 116.157H129.521L129.201 118.995H205.549ZM128.672 119.468H205.972L206.399 115.685H129.099L128.672 119.468Z" fill="black"/>
<path fill-rule="evenodd" clip-rule="evenodd" d="M165.824 131.764L166.144 128.926H127.629L127.309 131.764H165.824ZM126.779 132.236H166.246L166.673 128.453H127.206L126.779 132.236Z" fill="black"/>
<path fill-rule="evenodd" clip-rule="evenodd" d="M187.104 145.006L187.424 142.168H125.264L124.943 145.006H187.104ZM124.414 145.479H187.527L187.954 141.695H124.841L124.414 145.479Z" fill="black"/>
<path d="M154.172 157.301H164.576V222.563H154.172V157.301Z" fill="#1E1D28"/>
<path fill-rule="evenodd" clip-rule="evenodd" d="M164.103 157.774H154.645V222.09H164.103V157.774ZM154.172 157.301V222.563H164.576V157.301H154.172Z" fill="#1E1D28"/>
<path d="M129.107 218.779C129.107 215.645 131.648 213.104 134.782 213.104H183.965C187.099 213.104 189.64 215.645 189.64 218.779V222.563H129.107V218.779Z" fill="white"/>
<path fill-rule="evenodd" clip-rule="evenodd" d="M183.965 213.577H134.782C131.909 213.577 129.58 215.906 129.58 218.779V222.09H189.167V218.779C189.167 215.906 186.838 213.577 183.965 213.577ZM134.782 213.104C131.648 213.104 129.107 215.645 129.107 218.779V222.563H189.64V218.779C189.64 215.645 187.099 213.104 183.965 213.104H134.782Z" fill="black"/>
<path fill-rule="evenodd" clip-rule="evenodd" d="M122.637 114.922L114.447 121.666L110.514 118.427L110.814 118.062L114.447 121.054L122.336 114.557L122.637 114.922Z" fill="black"/>
<path fill-rule="evenodd" clip-rule="evenodd" d="M121.684 128.64L113.501 134.898L109.574 131.896L109.861 131.52L113.501 134.303L121.397 128.265L121.684 128.64Z" fill="black"/>
<path fill-rule="evenodd" clip-rule="evenodd" d="M120.27 141.878L112.08 148.622L108.146 145.384L108.447 145.018L112.08 148.01L119.969 141.513L120.27 141.878Z" fill="black"/>
<path fill-rule="evenodd" clip-rule="evenodd" d="M23.6458 42.3837C24.9517 42.3837 26.0104 41.325 26.0104 40.0191C26.0104 38.7132 24.9517 37.6546 23.6458 37.6546C22.3399 37.6546 21.2813 38.7132 21.2813 40.0191C21.2813 41.325 22.3399 42.3837 23.6458 42.3837ZM23.6458 42.8566C25.2129 42.8566 26.4833 41.5862 26.4833 40.0191C26.4833 38.452 25.2129 37.1816 23.6458 37.1816C22.0787 37.1816 20.8083 38.452 20.8083 40.0191C20.8083 41.5862 22.0787 42.8566 23.6458 42.8566Z" fill="black"/>
<path fill-rule="evenodd" clip-rule="evenodd" d="M33.1043 36.2357C33.6266 36.2357 34.0501 35.8122 34.0501 35.2898C34.0501 34.7675 33.6266 34.344 33.1043 34.344C32.5819 34.344 32.1585 34.7675 32.1585 35.2898C32.1585 35.8122 32.5819 36.2357 33.1043 36.2357ZM33.1043 36.7086C33.8878 36.7086 34.523 36.0734 34.523 35.2898C34.523 34.5063 33.8878 33.8711 33.1043 33.8711C32.3207 33.8711 31.6855 34.5063 31.6855 35.2898C31.6855 36.0734 32.3207 36.7086 33.1043 36.7086Z" fill="black"/>
<path fill-rule="evenodd" clip-rule="evenodd" d="M93.8611 46.0578L95.8675 48.0642L95.5331 48.3986L93.5267 46.3922L93.8611 46.0578ZM93.5267 52.7933L95.5331 50.7869L95.8675 51.1213L93.8611 53.1277L93.5267 52.7933ZM100.597 46.3922L98.5902 48.3986L98.2558 48.0642L100.262 46.0578L100.597 46.3922ZM100.262 53.1277L98.2558 51.1213L98.5902 50.7869L100.597 52.7933L100.262 53.1277Z" fill="black"/>
<path fill-rule="evenodd" clip-rule="evenodd" d="M135.726 20.8665C114.604 20.8665 95.2641 28.4956 80.3113 41.1488L80.0059 40.7878C95.0408 28.065 114.488 20.3936 135.726 20.3936V20.8665ZM207.915 60.2463C194.49 39.4274 172.305 24.7902 146.573 21.5453L146.632 21.0761C172.508 24.3391 194.814 39.0575 208.312 59.99L207.915 60.2463ZM172.276 184.385C182.526 179.554 191.665 172.754 199.207 164.472L199.556 164.791C191.974 173.118 182.784 179.955 172.477 184.813L172.276 184.385ZM93.7524 181.588C106.162 188.558 120.479 192.533 135.726 192.533C139.4 192.533 143.02 192.303 146.573 191.855L146.632 192.324C143.06 192.774 139.42 193.006 135.726 193.006C120.396 193.006 105.999 189.009 93.5208 182.001L93.7524 181.588Z" fill="black"/>
<path fill-rule="evenodd" clip-rule="evenodd" d="M134.07 38.3645C124.802 38.3645 115.967 40.2158 107.914 43.5685L107.732 43.1319C115.842 39.7556 124.738 37.8916 134.07 37.8916C152.561 37.8916 169.344 45.2113 181.677 57.1108L181.348 57.4511C169.1 45.6333 152.434 38.3645 134.07 38.3645ZM86.7909 57.4511C81.9369 62.1345 77.7768 67.5321 74.4799 73.4747L74.0664 73.2453C77.3862 67.2614 81.5751 61.8264 86.4625 57.1108L86.7909 57.4511ZM101.081 166.054C110.854 171.476 122.101 174.563 134.07 174.563C138.585 174.563 142.997 174.124 147.266 173.286L147.357 173.75C143.058 174.594 138.615 175.036 134.07 175.036C122.018 175.036 110.693 171.927 100.851 166.467L101.081 166.054Z" fill="black"/>
</svg>
