<svg width="33" height="33" viewBox="0 0 33 33" fill="none" xmlns="http://www.w3.org/2000/svg">
<path d="M2.31226 11.3649H1.31226V9.36489C1.313 8.70207 1.57663 8.06662 2.04531 7.59794C2.51399 7.12926 3.14944 6.86563 3.81226 6.86489H20.8123V5.86489H19.8123C19.7134 5.86489 19.6167 5.83557 19.5345 5.78063C19.4522 5.72569 19.3881 5.6476 19.3503 5.55623C19.3125 5.46487 19.3026 5.36433 19.3218 5.26734C19.3411 5.17034 19.3888 5.08125 19.4587 5.01132L22.4587 2.01132C22.5051 1.96489 22.5602 1.92806 22.6209 1.90293C22.6816 1.8778 22.7466 1.86487 22.8123 1.86487C22.8779 1.86487 22.9429 1.8778 23.0036 1.90293C23.0643 1.92806 23.1194 1.96489 23.1658 2.01132L26.1658 5.01132C26.2357 5.08125 26.2834 5.17034 26.3027 5.26734C26.322 5.36433 26.3121 5.46487 26.2742 5.55623C26.2364 5.6476 26.1723 5.72569 26.09 5.78063C26.0078 5.83557 25.9111 5.86489 25.8123 5.86489H24.8123V6.86489H26.8123C27.4751 6.86563 28.1105 7.12926 28.5792 7.59794C29.0479 8.06662 29.3115 8.70207 29.3123 9.36489V19.3649H28.3123V9.36489C28.3118 8.9672 28.1536 8.58594 27.8724 8.30474C27.5912 8.02353 27.2099 7.86535 26.8123 7.86489H24.8123V16.8649H23.8123V5.36489C23.8123 5.23228 23.8649 5.1051 23.9587 5.01133C24.0525 4.91756 24.1796 4.86489 24.3123 4.86489H24.6052L22.8123 3.07195L21.0193 4.86489H21.3123C21.4449 4.86489 21.572 4.91756 21.6658 5.01133C21.7596 5.1051 21.8123 5.23228 21.8123 5.36489V17.3649H20.8123V7.86489H3.81226C3.41457 7.86535 3.03331 8.02353 2.75211 8.30474C2.4709 8.58594 2.31272 8.9672 2.31226 9.36489V11.3649ZM3.81226 26.8649H12.1402L10.9402 30.8649H9.81226V31.8649H20.8123V30.8649H19.6843L19.0412 28.7211L18.0833 29.0086L18.6403 30.8649H11.984L13.184 26.8649H16.8123V25.8649H3.81226C3.41457 25.8644 3.03331 25.7062 2.75211 25.425C2.4709 25.1438 2.31272 24.7626 2.31226 24.3649V23.8649H16.3123V22.8649H2.31226V12.3649H1.31226V24.3649C1.313 25.0277 1.57663 25.6632 2.04531 26.1318C2.51399 26.6005 3.14944 26.8641 3.81226 26.8649ZM18.8123 18.3649V10.3649H16.8123V21.8649H3.81226V20.8649H5.81226V16.8649C5.81226 16.7323 5.86493 16.6051 5.9587 16.5113C6.05247 16.4176 6.17965 16.3649 6.31226 16.3649H9.31226C9.44486 16.3649 9.57204 16.4176 9.66581 16.5113C9.75958 16.6051 9.81226 16.7323 9.81226 16.8649V20.8649H10.8123V13.3649C10.8123 13.2323 10.8649 13.1051 10.9587 13.0113C11.0525 12.9176 11.1796 12.8649 11.3123 12.8649H14.3123C14.4449 12.8649 14.572 12.9176 14.6658 13.0113C14.7596 13.1051 14.8123 13.2323 14.8123 13.3649V20.8649H15.8123V9.86489C15.8123 9.73228 15.8649 9.6051 15.9587 9.51133C16.0525 9.41756 16.1796 9.36489 16.3123 9.36489H19.3123C19.4449 9.36489 19.572 9.41756 19.6658 9.51133C19.7596 9.6051 19.8123 9.73228 19.8123 9.86489V18.3649H18.8123ZM8.81226 17.3649H6.81226V20.8649H8.81226V17.3649ZM13.8123 13.8649H11.8123V20.8649H13.8123V13.8649ZM3.81226 8.86489V9.86489H4.81226V8.86489H3.81226ZM6.81226 8.86489H5.81226V9.86489H6.81226V8.86489ZM7.81226 8.86489V9.86489H8.81226V8.86489H7.81226ZM30.8727 29.3044C31.1531 29.5863 31.311 29.9673 31.3123 30.3649C31.3124 30.5619 31.2738 30.7571 31.1984 30.9391C31.1231 31.1212 31.0126 31.2866 30.8733 31.426C30.734 31.5653 30.5686 31.6758 30.3865 31.7511C30.2044 31.8264 30.0093 31.8651 29.8123 31.8649C29.4152 31.8614 29.0349 31.7038 28.7518 31.4253L26.3585 29.0321C25.0996 29.7747 23.6131 30.0327 22.1776 29.7576C20.7421 29.4825 19.4562 28.6933 18.561 27.5379C17.6658 26.3825 17.2228 24.9403 17.315 23.4816C17.4071 22.0229 18.0282 20.6479 19.0617 19.6143C20.0952 18.5808 21.4702 17.9598 22.9289 17.8676C24.3876 17.7754 25.8299 18.2184 26.9853 19.1136C28.1407 20.0088 28.9299 21.2947 29.205 22.7302C29.48 24.1657 29.2221 25.6522 28.4794 26.9111L30.8727 29.3044ZM28.3123 23.8649C28.3123 22.876 28.019 21.9093 27.4696 21.087C26.9202 20.2648 26.1393 19.6239 25.2257 19.2455C24.312 18.8671 23.3067 18.768 22.3368 18.961C21.3669 19.1539 20.476 19.6301 19.7767 20.3294C19.0775 21.0286 18.6013 21.9195 18.4083 22.8894C18.2154 23.8593 18.3144 24.8647 18.6929 25.7783C19.0713 26.6919 19.7122 27.4728 20.5344 28.0222C21.3567 28.5716 22.3233 28.8649 23.3123 28.8649C24.6379 28.8634 25.9088 28.3361 26.8461 27.3988C27.7835 26.4614 28.3108 25.1905 28.3123 23.8649ZM30.1655 30.0116L27.8913 27.7373C27.6756 27.9919 27.4393 28.2283 27.1847 28.444L29.459 30.7181C29.5049 30.7665 29.5601 30.8052 29.6212 30.8319C29.6823 30.8586 29.7481 30.8728 29.8148 30.8737C29.8815 30.8746 29.9477 30.8621 30.0095 30.8369C30.0713 30.8118 30.1274 30.7746 30.1745 30.7274C30.2217 30.6803 30.2589 30.6241 30.2841 30.5624C30.3092 30.5006 30.3217 30.4344 30.3208 30.3677C30.32 30.301 30.3057 30.2352 30.279 30.1741C30.2523 30.1129 30.2136 30.0578 30.1653 30.0119L30.1655 30.0116ZM27.3123 23.8649C27.3123 24.656 27.0777 25.4294 26.6381 26.0872C26.1986 26.745 25.5739 27.2577 24.843 27.5604C24.1121 27.8632 23.3078 27.9424 22.5319 27.788C21.756 27.6337 21.0432 27.2527 20.4838 26.6933C19.9244 26.1339 19.5435 25.4212 19.3891 24.6452C19.2348 23.8693 19.314 23.0651 19.6167 22.3342C19.9195 21.6033 20.4322 20.9785 21.09 20.539C21.7478 20.0995 22.5211 19.8649 23.3123 19.8649C24.3728 19.8661 25.3895 20.2879 26.1394 21.0378C26.8893 21.7877 27.3111 22.8044 27.3123 23.8649ZM26.3123 23.8649C26.3123 23.2715 26.1363 22.6915 25.8067 22.1982C25.477 21.7048 25.0085 21.3203 24.4603 21.0932C23.9121 20.8662 23.3089 20.8068 22.727 20.9225C22.145 21.0383 21.6105 21.324 21.1909 21.7436C20.7714 22.1631 20.4857 22.6977 20.3699 23.2796C20.2541 23.8616 20.3136 24.4648 20.5406 25.0129C20.7677 25.5611 21.1522 26.0297 21.6455 26.3593C22.1389 26.6889 22.7189 26.8649 23.3123 26.8649C24.1076 26.864 24.8702 26.5477 25.4326 25.9852C25.995 25.4228 26.3114 24.6603 26.3123 23.8649ZM21.3123 23.8649H22.3123C22.3126 23.5998 22.418 23.3456 22.6055 23.1581C22.793 22.9707 23.0471 22.8652 23.3123 22.8649V21.8649C22.782 21.8655 22.2736 22.0764 21.8987 22.4513C21.5238 22.8263 21.3129 23.3346 21.3123 23.8649ZM27.8123 4.86489H28.8123C28.8114 4.06951 28.495 3.30695 27.9326 2.74453C27.3702 2.18212 26.6076 1.86576 25.8123 1.86489V2.86489C26.3425 2.86548 26.8509 3.07639 27.2258 3.45133C27.6008 3.82627 27.8117 4.33464 27.8123 4.86489Z" fill="white"/>
</svg>
