<svg width="48" height="48" viewBox="0 0 48 48" fill="none" xmlns="http://www.w3.org/2000/svg">
<g clip-path="url(#clip0_177_225)">
<path d="M45.665 23.1799H35.575C34.9583 23.1799 34.3667 23.4239 33.9292 23.8585C33.4917 24.2932 33.244 24.8833 33.24 25.4999V36.7099C33.0065 36.7864 32.7943 36.9168 32.6206 37.0905C32.4469 37.2643 32.3165 37.4765 32.24 37.7099H23.335C22.9973 37.7086 22.6737 37.5739 22.4349 37.335C22.1961 37.0962 22.0613 36.7727 22.06 36.4349V33.8599H29.06C29.6789 33.8586 30.272 33.6122 30.7096 33.1746C31.1472 32.737 31.3937 32.1438 31.395 31.5249V12.3149C31.3884 11.6969 31.1376 11.1066 30.6973 10.6729C30.257 10.2392 29.663 9.99727 29.045 9.99994H25.5C25.4246 9.76588 25.2946 9.55313 25.1207 9.37925C24.9468 9.20537 24.7341 9.07535 24.5 8.99994V8.55494C24.4987 7.99753 24.2763 7.4634 23.8817 7.06971C23.4871 6.67603 22.9524 6.45494 22.395 6.45494H14.76V3.27494C14.7587 2.65607 14.5122 2.06292 14.0746 1.62531C13.637 1.18769 13.0439 0.941262 12.425 0.939941H2.335C1.71613 0.941262 1.12298 1.18769 0.685365 1.62531C0.247753 2.06292 0.00132097 2.65607 0 3.27494V22.4999C0.00132097 23.1188 0.247753 23.712 0.685365 24.1496C1.12298 24.5872 1.71613 24.8336 2.335 24.8349H6.88V36.3349C6.65057 36.4137 6.44283 36.5452 6.27349 36.7189C6.10414 36.8926 5.97793 37.1036 5.905 37.3349H2.095C1.54407 37.3362 1.0157 37.5539 0.623801 37.9411C0.231903 38.3284 0.00786901 38.8541 0 39.4049V43.1549C0.00132039 43.7102 0.222467 44.2423 0.61507 44.6349C1.00767 45.0275 1.53978 45.2486 2.095 45.2499H12.67C13.2248 45.2486 13.7563 45.0273 14.1482 44.6346C14.54 44.2418 14.76 43.7097 14.76 43.1549V39.4049C14.76 38.8502 14.54 38.3181 14.1482 37.9253C13.7563 37.5326 13.2248 37.3113 12.67 37.3099H8.86C8.78496 37.0757 8.65507 36.8627 8.48113 36.6888C8.3072 36.5149 8.09425 36.385 7.86 36.3099V24.8099H12.405C13.0234 24.8153 13.6187 24.575 14.0602 24.142C14.5017 23.7089 14.7534 23.1184 14.76 22.4999V7.49994H22.395C22.6804 7.4997 22.9549 7.60993 23.1609 7.80752C23.3668 8.00511 23.4884 8.27475 23.5 8.55994V8.99994C23.2686 9.07287 23.0576 9.19909 22.884 9.36843C22.7103 9.53777 22.5788 9.74551 22.5 9.97494H18.955C18.3361 9.97626 17.743 10.2227 17.3054 10.6603C16.8678 11.0979 16.6213 11.6911 16.62 12.3099V31.5249C16.6213 32.1438 16.8678 32.737 17.3054 33.1746C17.743 33.6122 18.3361 33.8586 18.955 33.8599H21.06V36.4149C21.06 37.0183 21.2997 37.597 21.7263 38.0236C22.153 38.4503 22.7316 38.6899 23.335 38.6899H32.26C32.3361 38.9236 32.4664 39.136 32.6402 39.3098C32.814 39.4835 33.0263 39.6138 33.26 39.6899V44.7249C33.2613 45.3438 33.5078 45.937 33.9454 46.3746C34.383 46.8122 34.9761 47.0586 35.595 47.0599H45.665C46.2839 47.0586 46.877 46.8122 47.3146 46.3746C47.7522 45.937 47.9987 45.3438 48 44.7249V25.4999C47.9947 24.8837 47.7466 24.2944 47.3094 23.86C46.8722 23.4256 46.2813 23.1812 45.665 23.1799ZM7.88 37.5499C7.93791 37.659 7.95851 37.784 7.93863 37.9059C7.91876 38.0278 7.85951 38.1398 7.76995 38.2248C7.68039 38.3098 7.56544 38.3631 7.44271 38.3766C7.31997 38.39 7.19619 38.363 7.09031 38.2994C6.98443 38.2359 6.90228 38.1394 6.85642 38.0248C6.81055 37.9101 6.80351 37.7836 6.83637 37.6646C6.86922 37.5456 6.94017 37.4406 7.03834 37.3657C7.13652 37.2908 7.25652 37.2502 7.38 37.2499C7.48286 37.2492 7.58393 37.2768 7.67213 37.3297C7.76033 37.3827 7.83225 37.4588 7.88 37.5499ZM13.76 39.4049V43.1549C13.76 43.4445 13.6453 43.7223 13.4411 43.9275C13.2368 44.1327 12.9595 44.2486 12.67 44.2499H2.095C1.9512 44.2499 1.80881 44.2216 1.67596 44.1666C1.54311 44.1116 1.4224 44.0309 1.32072 43.9292C1.11537 43.7239 1 43.4454 1 43.1549V39.4049C1.00132 39.1149 1.1171 38.8372 1.32217 38.6321C1.52724 38.427 1.80499 38.3113 2.095 38.3099H5.905C6.00965 38.6188 6.20845 38.8871 6.47347 39.0771C6.73849 39.2672 7.05639 39.3694 7.3825 39.3694C7.70861 39.3694 8.02651 39.2672 8.29153 39.0771C8.55655 38.8871 8.75535 38.6188 8.86 38.3099H12.67C12.9595 38.3113 13.2368 38.4272 13.4411 38.6324C13.6453 38.8376 13.76 39.1154 13.76 39.4049ZM2.335 23.8199C1.98391 23.8187 1.64735 23.6797 1.3977 23.4328C1.14804 23.186 1.00524 22.851 1 22.4999V21.8099H6.88V23.8099L2.335 23.8199ZM13.76 22.4999C13.76 22.854 13.6193 23.1936 13.369 23.4439C13.1186 23.6943 12.7791 23.8349 12.425 23.8349H7.88V21.8349H13.76V22.4999ZM13.76 20.8249H7.88V17.7499H11.13C11.4607 17.7486 11.7773 17.6163 12.0107 17.3821C12.244 17.1478 12.375 16.8306 12.375 16.4999V12.7449C12.3737 12.4152 12.2421 12.0992 12.0089 11.866C11.7757 11.6329 11.4598 11.5013 11.13 11.4999H3.63C3.30021 11.5013 2.9843 11.6329 2.75111 11.866C2.51791 12.0992 2.38632 12.4152 2.385 12.7449V16.4999C2.385 16.8306 2.51601 17.1478 2.74935 17.3821C2.98269 17.6163 3.29935 17.7486 3.63 17.7499H6.88V20.8099H1V3.27494C1.00132 2.92128 1.14239 2.58248 1.39247 2.33241C1.64254 2.08233 1.98134 1.94126 2.335 1.93994H12.425C12.7791 1.93994 13.1186 2.08059 13.369 2.33095C13.6193 2.58131 13.76 2.92088 13.76 3.27494V6.45994H12.375V5.07494C12.3737 4.74561 12.2419 4.43023 12.0086 4.19782C11.7752 3.96542 11.4593 3.83494 11.13 3.83494H3.63C3.30067 3.83494 2.98475 3.96542 2.75142 4.19782C2.51808 4.43023 2.38632 4.74561 2.385 5.07494V8.83994C2.38632 9.16973 2.51791 9.48564 2.75111 9.71883C2.9843 9.95203 3.30021 10.0836 3.63 10.0849H11.13C11.4598 10.0836 11.7757 9.95203 12.0089 9.71883C12.2421 9.48564 12.3737 9.16973 12.375 8.83994V7.45994H13.76V20.8249ZM3.63 16.7499C3.5974 16.7499 3.56513 16.7435 3.53507 16.7308C3.50502 16.7182 3.47778 16.6997 3.45497 16.6764C3.43215 16.6531 3.41421 16.6255 3.40219 16.5952C3.39018 16.5649 3.38433 16.5325 3.385 16.4999V12.7449C3.385 12.68 3.41081 12.6176 3.45676 12.5717C3.50271 12.5258 3.56502 12.4999 3.63 12.4999H11.13C11.195 12.4999 11.2573 12.5258 11.3032 12.5717C11.3492 12.6176 11.375 12.68 11.375 12.7449V16.4999C11.375 16.5649 11.3492 16.6272 11.3032 16.6732C11.2573 16.7191 11.195 16.7449 11.13 16.7449L3.63 16.7499ZM11.375 8.83994C11.375 8.90492 11.3492 8.96724 11.3032 9.01318C11.2573 9.05913 11.195 9.08494 11.13 9.08494H3.63C3.56502 9.08494 3.50271 9.05913 3.45676 9.01318C3.41081 8.96724 3.385 8.90492 3.385 8.83994V5.07494C3.38631 5.01083 3.4127 4.94979 3.4585 4.90492C3.50431 4.86005 3.56588 4.83493 3.63 4.83494H11.13C11.1941 4.83493 11.2557 4.86005 11.3015 4.90492C11.3473 4.94979 11.3737 5.01083 11.375 5.07494V8.83994ZM30.375 31.5249C30.3737 31.8786 30.2326 32.2174 29.9825 32.4675C29.7325 32.7176 29.3937 32.8586 29.04 32.8599H22.04V30.8599H30.38L30.375 31.5249ZM24.26 10.9999C24.1616 11.0513 24.0501 11.0723 23.9398 11.0602C23.8294 11.0482 23.7251 11.0035 23.6402 10.932C23.5552 10.8606 23.4934 10.7654 23.4627 10.6587C23.4319 10.5521 23.4335 10.4386 23.4674 10.3329C23.5012 10.2272 23.5657 10.1339 23.6527 10.0649C23.7397 9.99585 23.8452 9.95427 23.9559 9.94537C24.0666 9.93648 24.1774 9.96069 24.2743 10.0149C24.3711 10.0691 24.4497 10.151 24.5 10.2499C24.5668 10.3814 24.579 10.5338 24.5341 10.6742C24.4892 10.8147 24.3907 10.9317 24.26 10.9999ZM18.955 10.9999H22.525C22.6221 11.3188 22.8191 11.5979 23.0869 11.7963C23.3548 11.9947 23.6792 12.1018 24.0125 12.1018C24.3458 12.1018 24.6702 11.9947 24.9381 11.7963C25.2059 11.5979 25.4029 11.3188 25.5 10.9999H29.07C29.4237 11.0013 29.7625 11.1423 30.0125 11.3924C30.2626 11.6425 30.4037 11.9813 30.405 12.3349V29.8499H22.06V27.2099H22.65C22.898 27.2099 23.1358 27.1114 23.3111 26.9361C23.4865 26.7607 23.585 26.5229 23.585 26.2749V24.7749C23.585 24.527 23.4865 24.2891 23.3111 24.1138C23.1358 23.9384 22.898 23.8399 22.65 23.8399H20.685C20.437 23.8399 20.1992 23.9384 20.0239 24.1138C19.8485 24.2891 19.75 24.527 19.75 24.7749V26.2749C19.75 26.5229 19.8485 26.7607 20.0239 26.9361C20.1992 27.1114 20.437 27.2099 20.685 27.2099H21.06V29.8499H17.62V12.3149C17.6265 11.9648 17.7699 11.6311 18.0194 11.3853C18.2689 11.1395 18.6048 11.0012 18.955 10.9999ZM20.75 26.2099V24.8199H22.585V26.2099H20.75ZM18.955 32.8599C18.6013 32.8586 18.2625 32.7176 18.0125 32.4675C17.7624 32.2174 17.6213 31.8786 17.62 31.5249V30.8499H21.06V32.8499L18.955 32.8599ZM34.24 25.4999C34.24 25.1459 34.3806 24.8063 34.631 24.556C34.8814 24.3056 35.2209 24.1649 35.575 24.1649H45.665C46.0187 24.1663 46.3575 24.3073 46.6075 24.5574C46.8576 24.8075 46.9987 25.1463 47 25.4999V43.0499H34.24V39.6649C34.5489 39.5603 34.8172 39.3615 35.0072 39.0965C35.1972 38.8315 35.2994 38.5135 35.2994 38.1874C35.2994 37.8613 35.1972 37.5434 35.0072 37.2784C34.8172 37.0134 34.5489 36.8146 34.24 36.7099V25.4999ZM33.24 38.4349C33.1982 38.359 33.1745 38.2744 33.1707 38.1878C33.1668 38.1013 33.183 38.0149 33.2178 37.9356C33.2527 37.8562 33.3053 37.7859 33.3717 37.7302C33.4381 37.6744 33.5164 37.6347 33.6005 37.614C33.6847 37.5934 33.7725 37.5924 33.8572 37.6111C33.9418 37.6298 34.021 37.6678 34.0886 37.722C34.1562 37.7762 34.2104 37.8453 34.2471 37.9238C34.2838 38.0024 34.3019 38.0883 34.3 38.1749C34.3006 38.3005 34.2593 38.4227 34.1827 38.5223C34.1061 38.6218 33.9985 38.6929 33.8769 38.7245C33.7553 38.756 33.6267 38.7461 33.5114 38.6964C33.396 38.6467 33.3005 38.56 33.24 38.4499V38.4349ZM47 44.7249C46.9987 45.0786 46.8576 45.4174 46.6075 45.6675C46.3575 45.9176 46.0187 46.0586 45.665 46.0599H35.575C35.2209 46.0599 34.8814 45.9193 34.631 45.6689C34.3806 45.4186 34.24 45.079 34.24 44.7249V44.0499H47V44.7249Z" fill="#0045E6"/>
<path d="M36.87 41.3099H44.37C44.6993 41.3099 45.0152 41.1795 45.2486 40.9471C45.4819 40.7147 45.6137 40.3993 45.615 40.0699V36.3049C45.6137 35.9751 45.4821 35.6592 45.2489 35.426C45.0157 35.1928 44.6998 35.0613 44.37 35.0599H36.87C36.5402 35.0613 36.2243 35.1928 35.9911 35.426C35.7579 35.6592 35.6263 35.9751 35.625 36.3049V40.0699C35.6263 40.3993 35.7581 40.7147 35.9914 40.9471C36.2248 41.1795 36.5407 41.3099 36.87 41.3099ZM36.625 36.3099C36.625 36.245 36.6508 36.1826 36.6968 36.1367C36.7427 36.0907 36.805 36.0649 36.87 36.0649H44.37C44.435 36.0649 44.4973 36.0907 44.5432 36.1367C44.5892 36.1826 44.615 36.245 44.615 36.3099V40.0749C44.615 40.1069 44.6086 40.1385 44.5963 40.168C44.5839 40.1974 44.5658 40.2241 44.5429 40.2464C44.5201 40.2688 44.4931 40.2864 44.4634 40.2981C44.4337 40.3099 44.4019 40.3156 44.37 40.3149H36.87C36.8381 40.3156 36.8063 40.3099 36.7766 40.2981C36.7469 40.2864 36.7199 40.2688 36.6971 40.2464C36.6742 40.2241 36.6561 40.1974 36.6437 40.168C36.6314 40.1385 36.625 40.1069 36.625 40.0749V36.3099Z" fill="#0045E6"/>
<path d="M36.8699 33.5H39.2549C39.4201 33.5 39.5837 33.4671 39.736 33.4033C39.8884 33.3395 40.0265 33.246 40.1424 33.1283C40.2583 33.0105 40.3496 32.8709 40.411 32.7176C40.4723 32.5642 40.5026 32.4001 40.4999 32.235V28.47C40.4986 28.1402 40.367 27.8243 40.1338 27.5911C39.9006 27.3579 39.5847 27.2263 39.2549 27.225H36.8699C36.5401 27.2263 36.2242 27.3579 35.991 27.5911C35.7578 27.8243 35.6262 28.1402 35.6249 28.47V32.235C35.6223 32.4001 35.6525 32.5642 35.7139 32.7176C35.7753 32.8709 35.8665 33.0105 35.9824 33.1283C36.0983 33.246 36.2364 33.3395 36.3888 33.4033C36.5412 33.4671 36.7047 33.5 36.8699 33.5ZM36.6249 28.5C36.6249 28.435 36.6507 28.3727 36.6967 28.3267C36.7426 28.2808 36.8049 28.255 36.8699 28.255H39.2549C39.3199 28.255 39.3822 28.2808 39.4282 28.3267C39.4741 28.3727 39.4999 28.435 39.4999 28.5V32.265C39.4999 32.2969 39.4936 32.3285 39.4812 32.358C39.4688 32.3874 39.4507 32.4141 39.4279 32.4365C39.405 32.4588 39.378 32.4764 39.3483 32.4882C39.3186 32.4999 39.2869 32.5056 39.2549 32.505H36.8699C36.838 32.5056 36.8062 32.4999 36.7765 32.4882C36.7468 32.4764 36.7198 32.4588 36.697 32.4365C36.6742 32.4141 36.656 32.3874 36.6437 32.358C36.6313 32.3285 36.6249 32.2969 36.6249 32.265V28.5Z" fill="#0045E6"/>
<path d="M20.25 14.5H27.75C27.8826 14.5 28.0098 14.4473 28.1036 14.3536C28.1973 14.2598 28.25 14.1326 28.25 14C28.25 13.8674 28.1973 13.7402 28.1036 13.6464C28.0098 13.5527 27.8826 13.5 27.75 13.5H20.25C20.1174 13.5 19.9902 13.5527 19.8964 13.6464C19.8027 13.7402 19.75 13.8674 19.75 14C19.75 14.1326 19.8027 14.2598 19.8964 14.3536C19.9902 14.4473 20.1174 14.5 20.25 14.5Z" fill="#0045E6"/>
<path d="M20.25 16.9399H27.75C27.8826 16.9399 28.0098 16.8873 28.1036 16.7935C28.1973 16.6997 28.25 16.5726 28.25 16.4399C28.25 16.3073 28.1973 16.1802 28.1036 16.0864C28.0098 15.9926 27.8826 15.9399 27.75 15.9399H20.25C20.1174 15.9399 19.9902 15.9926 19.8964 16.0864C19.8027 16.1802 19.75 16.3073 19.75 16.4399C19.75 16.5726 19.8027 16.6997 19.8964 16.7935C19.9902 16.8873 20.1174 16.9399 20.25 16.9399Z" fill="#0045E6"/>
<path d="M20.25 19.375H27.75C27.8826 19.375 28.0098 19.3223 28.1036 19.2286C28.1973 19.1348 28.25 19.0076 28.25 18.875C28.25 18.7424 28.1973 18.6152 28.1036 18.5214C28.0098 18.4277 27.8826 18.375 27.75 18.375H20.25C20.1174 18.375 19.9902 18.4277 19.8964 18.5214C19.8027 18.6152 19.75 18.7424 19.75 18.875C19.75 19.0076 19.8027 19.1348 19.8964 19.2286C19.9902 19.3223 20.1174 19.375 20.25 19.375Z" fill="#0045E6"/>
<path d="M20.25 21.8099H22.875C23.0076 21.8099 23.1348 21.7573 23.2286 21.6635C23.3223 21.5697 23.375 21.4425 23.375 21.3099C23.375 21.1773 23.3223 21.0502 23.2286 20.9564C23.1348 20.8626 23.0076 20.8099 22.875 20.8099H20.25C20.1174 20.8099 19.9902 20.8626 19.8964 20.9564C19.8027 21.0502 19.75 21.1773 19.75 21.3099C19.75 21.4425 19.8027 21.5697 19.8964 21.6635C19.9902 21.7573 20.1174 21.8099 20.25 21.8099Z" fill="#0045E6"/>
<path d="M27.315 23.8199H25.35C25.1021 23.8199 24.8642 23.9185 24.6889 24.0938C24.5135 24.2691 24.415 24.507 24.415 24.7549V26.2549C24.415 26.5029 24.5135 26.7407 24.6889 26.9161C24.8642 27.0914 25.1021 27.1899 25.35 27.1899H27.315C27.563 27.1899 27.8008 27.0914 27.9762 26.9161C28.1515 26.7407 28.25 26.5029 28.25 26.2549V24.7549C28.25 24.507 28.1515 24.2691 27.9762 24.0938C27.8008 23.9185 27.563 23.8199 27.315 23.8199ZM27.25 26.2099H25.415V24.8199H27.25V26.2099Z" fill="#0045E6"/>
<path d="M2.90991 40.0399C2.90991 40.1725 2.96259 40.2997 3.05636 40.3935C3.15013 40.4872 3.2773 40.5399 3.40991 40.5399H11.3549C11.4875 40.5399 11.6147 40.4872 11.7085 40.3935C11.8022 40.2997 11.8549 40.1725 11.8549 40.0399C11.8549 39.9073 11.8022 39.7801 11.7085 39.6864C11.6147 39.5926 11.4875 39.5399 11.3549 39.5399H3.40991C3.2773 39.5399 3.15013 39.5926 3.05636 39.6864C2.96259 39.7801 2.90991 39.9073 2.90991 40.0399Z" fill="#0045E6"/>
<path d="M11.3549 42H3.40991C3.2773 42 3.15013 42.0527 3.05636 42.1464C2.96259 42.2402 2.90991 42.3674 2.90991 42.5C2.90991 42.6326 2.96259 42.7598 3.05636 42.8536C3.15013 42.9473 3.2773 43 3.40991 43H11.3549C11.4875 43 11.6147 42.9473 11.7085 42.8536C11.8022 42.7598 11.8549 42.6326 11.8549 42.5C11.8549 42.3674 11.8022 42.2402 11.7085 42.1464C11.6147 42.0527 11.4875 42 11.3549 42Z" fill="#0045E6"/>
</g>
<defs>
<clipPath id="clip0_177_225">
<rect width="48" height="48" fill="white"/>
</clipPath>
</defs>
</svg>
