<svg width="42" height="42" viewBox="0 0 42 42" fill="none" xmlns="http://www.w3.org/2000/svg">
<g clip-path="url(#clip0_177_751)">
<path d="M27.9545 3.35522H17.2409C16.8959 3.35522 16.6165 3.63471 16.6165 3.97965C16.6165 4.32459 16.896 4.60407 17.2409 4.60407H27.9544C28.2993 4.60407 28.5789 4.32459 28.5789 3.97965C28.5789 3.63471 28.2993 3.35522 27.9545 3.35522Z" fill="#0045E6"/>
<path d="M22.0117 6.01624H17.2406C16.8957 6.01624 16.6162 6.2958 16.6162 6.64066C16.6162 6.9856 16.8958 7.26508 17.2406 7.26508H22.0117C22.3566 7.26508 22.6361 6.9856 22.6361 6.64066C22.6361 6.29572 22.3565 6.01624 22.0117 6.01624Z" fill="#0045E6"/>
<path d="M39.3038 6.12519C38.959 6.12519 38.6794 6.40467 38.6794 6.74961C38.6794 7.09447 38.9589 7.37403 39.3038 7.37403C39.9182 7.37403 40.4179 7.87377 40.4179 8.4881V26.2301H35.8607V7.37395H36.9014C37.2463 7.37395 37.5258 7.09447 37.5258 6.74953C37.5258 6.40467 37.2463 6.12511 36.9014 6.12511H35.8607V1.87614C35.8607 0.841641 35.0191 0 33.9846 0H7.84871C6.81422 0 5.97257 0.841641 5.97257 1.87614V6.12519H2.69592C1.39302 6.12519 0.333008 7.1852 0.333008 8.4881V26.8545V32.6084C0.333008 33.9113 1.39302 34.9713 2.69592 34.9713H6.54138C6.88624 34.9713 7.1658 34.6918 7.1658 34.3469C7.1658 34.002 6.88632 33.7225 6.54138 33.7225H2.69592C2.08159 33.7225 1.58185 33.2227 1.58185 32.6084V27.4788H6.59691H35.2362H40.4178V32.6084C40.4178 33.2227 39.9181 33.7225 39.3038 33.7225H25.4933H16.5065H9.4831C9.13824 33.7225 8.85868 34.002 8.85868 34.3469C8.85868 34.6918 9.13816 34.9713 9.4831 34.9713H15.882V38.2801C14.2002 38.3102 12.841 39.6867 12.841 41.3756C12.841 41.7204 13.1204 42 13.4654 42H28.5344C28.8792 42 29.1588 41.7205 29.1588 41.3756C29.1588 39.6867 27.7995 38.3101 26.1177 38.2801V34.9713H39.3038C40.6067 34.9713 41.6667 33.9113 41.6667 32.6084V26.8545V8.4881C41.6667 7.1852 40.6067 6.12519 39.3038 6.12519ZM5.97257 26.2301H1.58185V8.4881C1.58185 7.87377 2.08159 7.37403 2.69592 7.37403H5.97257V26.2301ZM34.6119 9.12245H13.3405C12.9957 9.12245 12.7161 9.40193 12.7161 9.74687C12.7161 10.0918 12.9956 10.3713 13.3405 10.3713H34.6119V26.2301H7.22134V10.3713H10.0936C10.4384 10.3713 10.718 10.0918 10.718 9.74687C10.718 9.40193 10.4385 9.12245 10.0936 9.12245H7.22134V1.87614C7.22134 1.53021 7.5027 1.24884 7.84863 1.24884H33.9846C34.3305 1.24884 34.6119 1.53021 34.6119 1.87614V9.12245ZM17.1308 34.9712H24.8689V38.2787H17.1308V34.9712ZM27.8014 40.7512H14.1983C14.4549 40.0384 15.1378 39.5275 15.9379 39.5275H16.5065H25.4933H26.0619C26.8619 39.5275 27.5448 40.0384 27.8014 40.7512Z" fill="#0045E6"/>
<path d="M21.3348 28.7136C20.2943 28.7136 19.4478 29.5602 19.4478 30.6007C19.4478 31.6412 20.2943 32.4878 21.3348 32.4878C22.3754 32.4878 23.2219 31.6413 23.2219 30.6007C23.2219 29.5602 22.3754 28.7136 21.3348 28.7136ZM21.3348 31.239C20.983 31.239 20.6966 30.9527 20.6966 30.6007C20.6966 30.2488 20.983 29.9625 21.3348 29.9625C21.6868 29.9625 21.9731 30.2488 21.9731 30.6007C21.9731 30.9527 21.6867 31.239 21.3348 31.239Z" fill="#0045E6"/>
<path d="M14.0573 6.45838L12.0021 2.89864C11.8906 2.70545 11.6845 2.58643 11.4614 2.58643C11.2382 2.58643 11.0322 2.70545 10.9206 2.89864L8.86541 6.45838C8.75385 6.65157 8.75385 6.88962 8.86541 7.08281C8.97697 7.27599 9.18304 7.39502 9.40616 7.39502H13.5167C13.7397 7.39502 13.9459 7.27599 14.0573 7.08281C14.1689 6.88962 14.1689 6.65157 14.0573 6.45838ZM10.4876 6.14625L11.4614 4.45969L12.4352 6.14625H10.4876Z" fill="#0045E6"/>
<path d="M32.772 12.6737H23.7289C23.3841 12.6737 23.1045 12.9532 23.1045 13.2981C23.1045 13.643 23.384 13.9225 23.7289 13.9225H32.772C33.1168 13.9225 33.3964 13.6431 33.3964 13.2981C33.3964 12.9532 33.1168 12.6737 32.772 12.6737Z" fill="#0045E6"/>
<path d="M32.772 15.4198H23.7289C23.3841 15.4198 23.1045 15.6993 23.1045 16.0442C23.1045 16.3892 23.384 16.6686 23.7289 16.6686H32.772C33.1168 16.6686 33.3964 16.3892 33.3964 16.0442C33.3964 15.6993 33.1168 15.4198 32.772 15.4198Z" fill="#0045E6"/>
<path d="M32.772 18.166H23.7289C23.3841 18.166 23.1045 18.4455 23.1045 18.7904C23.1045 19.1353 23.384 19.4149 23.7289 19.4149H32.772C33.1168 19.4149 33.3964 19.1354 33.3964 18.7904C33.3964 18.4455 33.1168 18.166 32.772 18.166Z" fill="#0045E6"/>
<path d="M32.772 20.9121H23.7289C23.3841 20.9121 23.1045 21.1916 23.1045 21.5365C23.1045 21.8814 23.384 22.161 23.7289 22.161H32.772C33.1168 22.161 33.3964 21.8815 33.3964 21.5365C33.3964 21.1916 33.1168 20.9121 32.772 20.9121Z" fill="#0045E6"/>
<path d="M27.9543 23.6583H23.7289C23.3841 23.6583 23.1045 23.9378 23.1045 24.2827C23.1045 24.6276 23.384 24.9072 23.7289 24.9072H27.9543C28.2992 24.9072 28.5788 24.6277 28.5788 24.2827C28.5788 23.9378 28.2993 23.6583 27.9543 23.6583Z" fill="#0045E6"/>
<path d="M20.9166 12.1476H9.40592C9.06106 12.1476 8.78149 12.4271 8.78149 12.772V20.1344V24.2827C8.78149 24.6276 9.06097 24.9071 9.40592 24.9071H20.9166C21.2615 24.9071 21.541 24.6277 21.541 24.2827V20.7549V12.772C21.541 12.4271 21.2615 12.1476 20.9166 12.1476ZM10.0304 13.3964H20.2922V19.9253C20.2223 19.9133 20.1524 19.9028 20.0826 19.895C18.9943 19.773 18.3686 20.2085 17.8656 20.5583C17.488 20.8208 17.1619 21.0476 16.6157 21.0919C15.7322 21.1644 15.1658 20.6947 14.4483 20.1011C13.6496 19.4405 12.7436 18.6925 11.3036 18.7792C10.8718 18.8055 10.4462 18.9047 10.0304 19.075V13.3964ZM20.2923 23.6583H10.0303V20.47C10.4733 20.2025 10.9258 20.0533 11.3793 20.0258C12.3279 19.9679 12.9417 20.4756 13.6523 21.0634C14.4376 21.7129 15.3271 22.4485 16.7167 22.3366C17.5984 22.2651 18.1418 21.8872 18.5785 21.5837C19.0264 21.2723 19.3227 21.0668 19.9438 21.1361C20.0592 21.149 20.1757 21.1707 20.2923 21.201V23.6583Z" fill="#0045E6"/>
<path d="M16.8089 14.7913C15.7554 14.7913 14.8984 15.6482 14.8984 16.7017C14.8984 17.755 15.7554 18.6121 16.8089 18.6121C17.8623 18.6121 18.7193 17.7551 18.7193 16.7017C18.7193 15.6482 17.8623 14.7913 16.8089 14.7913ZM16.8089 17.3634C16.4441 17.3634 16.1472 17.0665 16.1472 16.7017C16.1472 16.3368 16.4441 16.04 16.8089 16.04C17.1737 16.04 17.4705 16.3369 17.4705 16.7017C17.4705 17.0665 17.1737 17.3634 16.8089 17.3634Z" fill="#0045E6"/>
</g>
<defs>
<clipPath id="clip0_177_751">
<rect width="42" height="42" fill="white"/>
</clipPath>
</defs>
</svg>
