<svg width="22" height="22" viewBox="0 0 22 22" fill="none" xmlns="http://www.w3.org/2000/svg">
<path d="M15.4127 8.70866C15.6089 8.70866 15.8032 8.64449 15.96 8.52716L18.4231 6.69383C18.6568 6.51966 18.7916 6.25108 18.7916 5.95866C18.7916 5.66624 18.6568 5.39857 18.4222 5.22349L15.96 3.39016C15.8032 3.27282 15.6089 3.20866 15.4127 3.20866H11.4583V2.75033C11.4583 2.49733 11.2529 2.29199 10.9999 2.29199C10.7469 2.29199 10.5416 2.49733 10.5416 2.75033V3.20866H6.87492C5.70984 3.20866 5.04159 3.87691 5.04159 5.04199V6.87533C5.04159 8.04041 5.70984 8.70866 6.87492 8.70866H10.5416V10.542H6.58709C6.39092 10.542 6.19659 10.6062 6.03984 10.7235L3.57675 12.5568C3.343 12.731 3.20825 12.9996 3.20825 13.292C3.20825 13.5844 3.343 13.8521 3.57767 14.0272L6.03984 15.8605C6.19659 15.9778 6.39092 16.042 6.58709 16.042H10.5416V18.792H8.24992C7.99692 18.792 7.79159 18.9973 7.79159 19.2503C7.79159 19.5033 7.99692 19.7087 8.24992 19.7087H13.7499C14.0029 19.7087 14.2083 19.5033 14.2083 19.2503C14.2083 18.9973 14.0029 18.792 13.7499 18.792H11.4583V16.042H15.1249C16.29 16.042 16.9583 15.3737 16.9583 14.2087V12.3753C16.9583 11.2102 16.29 10.542 15.1249 10.542H11.4583V8.70866H15.4127ZM16.0416 12.3753V14.2087C16.0416 14.8687 15.7849 15.1253 15.1249 15.1253H6.58709L4.124 13.292L6.58709 11.4587H15.1249C15.7849 11.4587 16.0416 11.7153 16.0416 12.3753ZM5.95825 6.87533V5.04199C5.95825 4.38199 6.21492 4.12533 6.87492 4.12533H15.4127L17.8758 5.95866L15.4127 7.79199H6.87492C6.21492 7.79199 5.95825 7.53533 5.95825 6.87533Z" fill="white"/>
</svg>
