<svg width="70" height="70" viewBox="0 0 70 70" fill="none" xmlns="http://www.w3.org/2000/svg">
<path fill-rule="evenodd" clip-rule="evenodd" d="M13.8805 35.792C13.3327 38.6623 10.8071 40.8344 7.7784 40.8344C4.3498 40.8344 1.56616 38.0509 1.56616 34.6223C1.56616 31.1936 4.3498 28.4101 7.7784 28.4101C10.8673 28.4101 13.4327 30.6693 13.9107 33.6241H19.1314V20.2032L15.1936 16.2654C14.4447 16.7308 13.5803 16.9769 12.6985 16.9757C10.0833 16.9757 7.9601 14.8524 7.9601 12.2374C7.9601 9.62214 10.0833 7.49892 12.6985 7.49892C15.3136 7.49892 17.4368 9.62214 17.4368 12.2374C17.4368 13.1526 17.1767 14.0076 16.7266 14.7324L20.0729 18.0787C20.4003 17.7302 20.8145 17.3969 21.3173 17.0881C23.7572 15.5899 28.5157 14.4949 34.0853 14.368V11.5795C31.6832 11.0787 29.8764 8.94764 29.8764 6.39787C29.8764 3.47671 32.2479 1.10498 35.1693 1.10498C38.0905 1.10498 40.4621 3.47671 40.4621 6.39787C40.4621 8.94764 38.6553 11.0787 36.2532 11.5795V14.368C41.8228 14.4949 46.5813 15.5899 49.0212 17.0881C49.4819 17.371 49.868 17.6744 50.1813 17.9913L53.4403 14.7324C52.9748 13.9835 52.7287 13.1191 52.73 12.2374C52.73 9.62214 54.8532 7.49892 57.4683 7.49892C60.0835 7.49892 62.2067 9.62214 62.2067 12.2374C62.2067 14.8524 60.0835 16.9757 57.4683 16.9757C56.5865 16.9769 55.7221 16.7308 54.9733 16.2654L51.2019 20.0368C51.2054 20.091 51.2071 20.1451 51.2071 20.1993V33.6241H56.4278C56.9058 30.6693 59.4712 28.4101 62.5601 28.4101C65.9887 28.4101 68.7723 31.1936 68.7723 34.6223C68.7723 38.0509 65.9887 40.8344 62.5601 40.8344C59.5314 40.8344 57.0058 38.6623 56.458 35.792H51.2071V49.2129L54.9733 52.9791C55.7221 52.5136 56.5865 52.2676 57.4683 52.2688C60.0835 52.2688 62.2067 54.392 62.2067 57.0071C62.2067 59.6223 60.0835 61.7455 57.4683 61.7455C54.8532 61.7455 52.73 59.6223 52.73 57.0071C52.73 56.0918 52.9901 55.2368 53.4403 54.5121L50.2656 51.3374C49.9382 51.6859 49.524 52.0192 49.0212 52.328C46.5813 53.8262 41.8228 54.9213 36.2532 55.0481V57.8366C38.6553 58.3374 40.4621 60.4685 40.4621 63.0183C40.4621 65.9394 38.0905 68.3112 35.1693 68.3112C32.2479 68.3112 29.8764 65.9394 29.8764 63.0183C29.8764 60.4685 31.6832 58.3374 34.0853 57.8366V55.0481C28.5157 54.9213 23.7572 53.8262 21.3173 52.328C20.7715 51.9929 20.3302 51.6287 19.9908 51.2478L16.7266 54.5121C17.192 55.261 17.4381 56.1254 17.4368 57.0071C17.4368 59.6223 15.3136 61.7455 12.6985 61.7455C10.0833 61.7455 7.9601 59.6223 7.9601 57.0071C7.9601 54.392 10.0833 52.2688 12.6985 52.2688C13.6138 52.2688 14.4688 52.5289 15.1936 52.9791L19.1314 49.0413V35.792H13.8805ZM21.2993 32.9717V39.5443C21.2993 39.8056 21.481 40.0302 21.7268 40.2653C22.1459 40.6658 22.7639 41.0273 23.5323 41.3611C26.1554 42.4999 30.3926 43.2199 35.1693 43.2199C39.9459 43.2199 44.1831 42.4999 46.8062 41.3611C47.5746 41.0273 48.1926 40.6658 48.6117 40.2653C48.8575 40.0302 49.0392 39.8056 49.0392 39.5443V32.9717L49.0212 32.9828C46.4245 34.5772 41.2013 35.7152 35.1693 35.7152C29.1372 35.7152 23.914 34.5772 21.3173 32.9828L21.2993 32.9717ZM21.2993 23.2991V29.8718C21.2993 30.133 21.481 30.3577 21.7268 30.5926C22.1459 30.9933 22.7639 31.3548 23.5323 31.6884C26.1554 32.8272 30.3926 33.5473 35.1693 33.5473C39.9459 33.5473 44.1831 32.8272 46.8062 31.6884C47.5746 31.3548 48.1926 30.9933 48.6117 30.5926C48.8575 30.3577 49.0392 30.133 49.0392 29.8718V23.2991L49.0212 23.3101C46.4245 24.9045 41.2013 26.0425 35.1693 26.0425C29.1372 26.0425 23.914 24.9045 21.3173 23.3101L21.2993 23.2991ZM49.0392 20.1993C49.0392 19.9379 48.8575 19.7132 48.6117 19.4783C48.1926 19.0776 47.5746 18.7161 46.8062 18.3825C44.1831 17.2435 39.9459 16.5236 35.1693 16.5236C30.3926 16.5236 26.1554 17.2435 23.5323 18.3825C22.7639 18.7161 22.1459 19.0776 21.7268 19.4783C21.481 19.7132 21.2993 19.9379 21.2993 20.1993C21.2993 20.4605 21.481 20.6851 21.7268 20.9201C22.1459 21.3206 22.7639 21.6821 23.5323 22.0157C26.1554 23.1547 30.3926 23.8746 35.1693 23.8746C39.9459 23.8746 44.1831 23.1547 46.8062 22.0157C47.5746 21.6821 48.1926 21.3206 48.6117 20.9201C48.8575 20.6851 49.0392 20.4605 49.0392 20.1993ZM21.2993 42.6444V49.2169C21.2993 49.4783 21.481 49.7029 21.7268 49.9379C22.1459 50.3385 22.7639 50.7 23.5323 51.0336C26.1554 52.1726 30.3926 52.8925 35.1693 52.8925C39.9459 52.8925 44.1831 52.1726 46.8062 51.0336C47.5746 50.7 48.1926 50.3385 48.6117 49.9379C48.8575 49.7029 49.0392 49.4783 49.0392 49.2169V42.6444L49.0212 42.6553C46.4245 44.2499 41.2013 45.3879 35.1693 45.3879C29.1372 45.3879 23.914 44.2499 21.3173 42.6553L21.2993 42.6444ZM7.7784 30.578C5.54623 30.578 3.7341 32.3901 3.7341 34.6223C3.7341 36.8543 5.54623 38.6665 7.7784 38.6665C10.0104 38.6665 11.8227 36.8543 11.8227 34.6223C11.8227 32.3901 10.0104 30.578 7.7784 30.578ZM33.6717 50.2243C33.0734 50.2243 32.5878 49.7385 32.5878 49.1403C32.5878 48.542 33.0734 48.0564 33.6717 48.0564H36.6668C37.2651 48.0564 37.7507 48.542 37.7507 49.1403C37.7507 49.7385 37.2651 50.2243 36.6668 50.2243H33.6717ZM62.5601 30.578C60.3281 30.578 58.5158 32.3901 58.5158 34.6223C58.5158 36.8543 60.3281 38.6665 62.5601 38.6665C64.7923 38.6665 66.6044 36.8543 66.6044 34.6223C66.6044 32.3901 64.7923 30.578 62.5601 30.578ZM12.6985 9.66686C11.2799 9.66686 10.128 10.8187 10.128 12.2374C10.128 13.656 11.2799 14.8077 12.6985 14.8077C14.1172 14.8077 15.2689 13.656 15.2689 12.2374C15.2689 10.8187 14.1172 9.66686 12.6985 9.66686ZM35.1693 3.27292C33.4445 3.27292 32.0443 4.67314 32.0443 6.39787C32.0443 8.12261 33.4445 9.52282 35.1693 9.52282C36.894 9.52282 38.2942 8.12261 38.2942 6.39787C38.2942 4.67314 36.894 3.27292 35.1693 3.27292ZM57.4683 54.4367C56.0496 54.4367 54.8979 55.5885 54.8979 57.0071C54.8979 58.4258 56.0496 59.5776 57.4683 59.5776C58.8869 59.5776 60.0388 58.4258 60.0388 57.0071C60.0388 55.5885 58.8869 54.4367 57.4683 54.4367ZM35.1693 59.8933C33.4445 59.8933 32.0443 61.2935 32.0443 63.0183C32.0443 64.743 33.4445 66.1432 35.1693 66.1432C36.894 66.1432 38.2942 64.743 38.2942 63.0183C38.2942 61.2935 36.894 59.8933 35.1693 59.8933ZM12.6985 54.4367C11.2799 54.4367 10.128 55.5885 10.128 57.0071C10.128 58.4258 11.2799 59.5776 12.6985 59.5776C14.1172 59.5776 15.2689 58.4258 15.2689 57.0071C15.2689 55.5885 14.1172 54.4367 12.6985 54.4367ZM57.4683 9.66686C56.0496 9.66686 54.8979 10.8187 54.8979 12.2374C54.8979 13.656 56.0496 14.8077 57.4683 14.8077C58.8869 14.8077 60.0388 13.656 60.0388 12.2374C60.0388 10.8187 58.8869 9.66686 57.4683 9.66686ZM33.6717 40.5516C33.0734 40.5516 32.5878 40.0659 32.5878 39.4676C32.5878 38.8694 33.0734 38.3837 33.6717 38.3837H36.6668C37.2651 38.3837 37.7507 38.8694 37.7507 39.4676C37.7507 40.0659 37.2651 40.5516 36.6668 40.5516H33.6717ZM33.6717 30.8789C33.0734 30.8789 32.5878 30.3933 32.5878 29.795C32.5878 29.1968 33.0734 28.711 33.6717 28.711H36.6668C37.2651 28.711 37.7507 29.1968 37.7507 29.795C37.7507 30.3933 37.2651 30.8789 36.6668 30.8789H33.6717Z" fill="url(#paint0_linear_107_5924)"/>
<defs>
<linearGradient id="paint0_linear_107_5924" x1="35.1693" y1="1.10498" x2="35.1693" y2="68.3112" gradientUnits="userSpaceOnUse">
<stop stop-color="white"/>
<stop offset="1" stop-color="#696A6F"/>
</linearGradient>
</defs>
</svg>
