<svg width="48" height="48" viewBox="0 0 48 48" fill="none" xmlns="http://www.w3.org/2000/svg">
<path d="M43.7099 39.195H41.9999V30.6825H40.9124V39.195H33.9074V22.02H40.9124V28.77H41.9999V21.4725C41.9999 21.3273 41.9422 21.188 41.8395 21.0853C41.7368 20.9827 41.5976 20.925 41.4524 20.925H33.3599C33.2147 20.925 33.0754 20.9827 32.9727 21.0853C32.87 21.188 32.8124 21.3273 32.8124 21.4725V39.195H28.5974V26.6175C28.5974 26.4723 28.5397 26.333 28.437 26.2303C28.3343 26.1277 28.1951 26.07 28.0499 26.07H19.9499C19.8777 26.069 19.806 26.0824 19.7392 26.1096C19.6723 26.1368 19.6115 26.1771 19.5605 26.2281C19.5094 26.2791 19.4691 26.3399 19.442 26.4068C19.4148 26.4737 19.4014 26.5453 19.4024 26.6175V39.195H15.1874V31.6425C15.1874 31.4973 15.1297 31.358 15.027 31.2553C14.9243 31.1527 14.7851 31.095 14.6399 31.095H6.53236C6.38716 31.095 6.2479 31.1527 6.14522 31.2553C6.04255 31.358 5.98486 31.4973 5.98486 31.6425V39.195H4.28236C4.13716 39.195 3.9979 39.2527 3.89522 39.3553C3.79255 39.458 3.73486 39.5973 3.73486 39.7425C3.73486 39.8877 3.79255 40.027 3.89522 40.1296C3.9979 40.2323 4.13716 40.29 4.28236 40.29H43.7099C43.8551 40.29 43.9943 40.2323 44.097 40.1296C44.1997 40.027 44.2574 39.8877 44.2574 39.7425C44.2574 39.5973 44.1997 39.458 44.097 39.3553C43.9943 39.2527 43.8551 39.195 43.7099 39.195ZM7.07986 39.195V32.19H14.0924V39.195H7.07986ZM20.4974 39.195V27.195H27.5024V39.195H20.4974Z" fill="black"/>
<path d="M34.8376 14.4075L33.7501 17.7C33.7141 17.8107 33.7143 17.9301 33.7507 18.0407C33.7871 18.1513 33.8579 18.2474 33.9526 18.315C34.0447 18.3838 34.1565 18.421 34.2714 18.421C34.3863 18.421 34.4981 18.3838 34.5901 18.315L37.3951 16.275L40.2001 18.315C40.2933 18.3844 40.4064 18.4219 40.5226 18.4219C40.6388 18.4219 40.7519 18.3844 40.8451 18.315C40.9377 18.2456 41.0062 18.149 41.0412 18.0388C41.0761 17.9285 41.0758 17.8101 41.0401 17.7L39.9751 14.4075L42.7726 12.3675C42.8677 12.3019 42.9389 12.2072 42.9754 12.0976C43.0119 11.988 43.0118 11.8695 42.9751 11.76C42.9389 11.6492 42.8687 11.5526 42.7744 11.4839C42.6802 11.4153 42.5667 11.3781 42.4501 11.3775H39.0001L37.9351 8.08502C37.8997 7.97466 37.8301 7.87839 37.7364 7.8101C37.6427 7.74181 37.5298 7.70502 37.4139 7.70502C37.298 7.70502 37.185 7.74181 37.0914 7.8101C36.9977 7.87839 36.9281 7.97466 36.8926 8.08502L35.8201 11.3775H32.3551C32.2392 11.3773 32.1264 11.4144 32.0332 11.4833C31.94 11.5521 31.8714 11.6492 31.8376 11.76C31.8002 11.8688 31.7989 11.9867 31.8341 12.0962C31.8692 12.2057 31.9389 12.3009 32.0326 12.3675L34.8376 14.4075ZM36.2176 12.4725C36.3329 12.4744 36.4456 12.4389 36.5389 12.3713C36.6322 12.3037 36.7011 12.2076 36.7351 12.0975L37.4101 10.0275L38.0851 12.0975C38.1213 12.2063 38.1906 12.3011 38.2835 12.3684C38.3763 12.4356 38.488 12.4721 38.6026 12.4725H40.7851L39.0001 13.755C38.9071 13.8242 38.8378 13.9204 38.8015 14.0305C38.7653 14.1405 38.7639 14.2591 38.7976 14.37L39.4726 16.44C39.2101 16.2975 37.6201 14.94 37.3876 15.0525C37.1551 14.97 35.5801 16.29 35.3026 16.44L35.9776 14.37C36.0133 14.26 36.0136 14.1415 35.9787 14.0313C35.9437 13.921 35.8752 13.8244 35.7826 13.755L34.0201 12.4725H36.2176Z" fill="black"/>
<path d="M10.59 28.4325C10.7352 28.4325 10.8745 28.3748 10.9772 28.2722C11.0798 28.1695 11.1375 28.0302 11.1375 27.885C11.1375 26.0829 11.8534 24.3545 13.1277 23.0802C14.402 21.8059 16.1304 21.09 17.9325 21.09H24C24.1452 21.09 24.2845 21.0323 24.3872 20.9297C24.4898 20.827 24.5475 20.6877 24.5475 20.5425V18.75C24.5475 17.5565 25.0216 16.4119 25.8655 15.568C26.7094 14.7241 27.854 14.25 29.0475 14.25C29.1927 14.25 29.332 14.1923 29.4347 14.0897C29.5373 13.987 29.595 13.8477 29.595 13.7025C29.595 13.5573 29.5373 13.418 29.4347 13.3154C29.332 13.2127 29.1927 13.155 29.0475 13.155C28.3119 13.152 27.583 13.2947 26.9029 13.5748C26.2227 13.855 25.6048 14.267 25.0846 14.7871C24.5645 15.3073 24.1525 15.9252 23.8723 16.6054C23.5922 17.2855 23.4495 18.0144 23.4525 18.75V19.965H17.9325C16.8941 19.966 15.8661 20.1717 14.9074 20.5705C13.9486 20.9692 13.0779 21.5531 12.345 22.2887C11.6122 23.0244 11.0316 23.8973 10.6365 24.8576C10.2414 25.8179 10.0396 26.8466 10.0425 27.885C10.0425 28.0302 10.1002 28.1695 10.2029 28.2722C10.3055 28.3748 10.4448 28.4325 10.59 28.4325Z" fill="black"/>
<path d="M40.9048 29.1825H42.0223V30.3H40.9048V29.1825Z" fill="black"/>
</svg>
