<svg width="20" height="21" viewBox="0 0 20 21" fill="none" xmlns="http://www.w3.org/2000/svg">
<g clip-path="url(#clip0_71_6918)">
<path d="M10 0.5C4.4861 0.5 0 4.9861 0 10.5C0 16.0139 4.4861 20.5 10 20.5C15.5139 20.5 20 16.0139 20 10.5C20 4.9861 15.5139 0.5 10 0.5ZM10 19.25C5.17517 19.25 1.25001 15.3248 1.25001 10.5C1.25001 5.67517 5.17517 1.75001 10 1.75001C14.8248 1.75001 18.75 5.67517 18.75 10.5C18.75 15.3248 14.8248 19.25 10 19.25Z" fill="black"/>
<path d="M10.625 4.25H9.375V10.7588L13.3081 14.6919L14.1919 13.8081L10.625 10.2412V4.25Z" fill="black"/>
</g>
<defs>
<clipPath id="clip0_71_6918">
<rect width="20" height="20" fill="white" transform="translate(0 0.5)"/>
</clipPath>
</defs>
</svg>
