<svg width="29" height="29" viewBox="0 0 29 29" fill="none" xmlns="http://www.w3.org/2000/svg">
<g clip-path="url(#clip0_49_23145)">
<path d="M19.3018 2.31671H11.9043C11.6661 2.31671 11.4731 2.50969 11.4731 2.74786C11.4731 2.98603 11.6662 3.17901 11.9043 3.17901H19.3017C19.5399 3.17901 19.7329 2.98603 19.7329 2.74786C19.7329 2.50969 19.5399 2.31671 19.3018 2.31671Z" fill="white"/>
<path d="M15.1986 4.15405H11.9043C11.6661 4.15405 11.4731 4.34708 11.4731 4.5852C11.4731 4.82337 11.6662 5.01635 11.9043 5.01635H15.1986C15.4367 5.01635 15.6297 4.82337 15.6297 4.5852C15.6297 4.34703 15.4367 4.15405 15.1986 4.15405Z" fill="white"/>
<path d="M27.1384 4.2293C26.9003 4.2293 26.7073 4.42227 26.7073 4.66045C26.7073 4.89856 26.9002 5.0916 27.1384 5.0916C27.5626 5.0916 27.9076 5.43665 27.9076 5.86083V18.1112H24.761V5.09154H25.4796C25.7177 5.09154 25.9107 4.89856 25.9107 4.66039C25.9107 4.42227 25.7177 4.22924 25.4796 4.22924H24.761V1.29543C24.761 0.581133 24.1799 0 23.4656 0H5.41939C4.7051 0 4.12397 0.581133 4.12397 1.29543V4.2293H1.86151C0.961891 4.2293 0.22998 4.96121 0.22998 5.86083V18.5424V22.5153C0.22998 23.415 0.961891 24.1469 1.86151 24.1469H4.51671C4.75483 24.1469 4.94786 23.9539 4.94786 23.7157C4.94786 23.4776 4.75489 23.2846 4.51671 23.2846H1.86151C1.43733 23.2846 1.09228 22.9395 1.09228 22.5153V18.9735H4.55506H24.3298H27.9076V22.5153C27.9076 22.9395 27.5625 23.2846 27.1384 23.2846H17.6026H11.3974H6.5479C6.30978 23.2846 6.11675 23.4775 6.11675 23.7157C6.11675 23.9538 6.30973 24.1469 6.5479 24.1469H10.9662V26.4315C9.80496 26.4522 8.86643 27.4027 8.86643 28.5689C8.86643 28.807 9.0594 29 9.29758 29H19.7023C19.9405 29 20.1335 28.807 20.1335 28.5689C20.1335 27.4027 19.195 26.4522 18.0337 26.4315V24.1469H27.1384C28.038 24.1469 28.7699 23.415 28.7699 22.5153V18.5424V5.86083C28.7699 4.96121 28.038 4.2293 27.1384 4.2293ZM4.12397 18.1112H1.09228V5.86083C1.09228 5.43665 1.43733 5.0916 1.86151 5.0916H4.12397V18.1112ZM23.8987 6.29883H9.21137C8.97325 6.29883 8.78022 6.49181 8.78022 6.72998C8.78022 6.96816 8.9732 7.16113 9.21137 7.16113H23.8987V18.1112H4.98621V7.16113H6.96942C7.20754 7.16113 7.40057 6.96816 7.40057 6.72998C7.40057 6.49181 7.2076 6.29883 6.96942 6.29883H4.98621V1.29543C4.98621 1.05657 5.18048 0.862297 5.41934 0.862297H23.4656C23.7045 0.862297 23.8987 1.05657 23.8987 1.29543V6.29883ZM11.8285 24.1468H17.1714V26.4305H11.8285V24.1468ZM19.1963 28.1377H9.80366C9.98083 27.6456 10.4524 27.2928 11.0048 27.2928H11.3974H17.6026H17.9951C18.5476 27.2928 19.0191 27.6456 19.1963 28.1377Z" fill="white"/>
<path d="M14.7312 19.826C14.0128 19.826 13.4282 20.4106 13.4282 21.1291C13.4282 21.8475 14.0128 22.432 14.7312 22.432C15.4497 22.432 16.0342 21.8476 16.0342 21.1291C16.0342 20.4106 15.4497 19.826 14.7312 19.826ZM14.7312 21.5697C14.4883 21.5698 14.2905 21.3721 14.2905 21.1291C14.2905 20.886 14.4883 20.6883 14.7312 20.6883C14.9742 20.6883 15.1719 20.8861 15.1719 21.1291C15.1719 21.3721 14.9742 21.5697 14.7312 21.5697Z" fill="white"/>
<path d="M9.70615 4.45938L8.28707 2.00146C8.21004 1.86807 8.06776 1.78589 7.9137 1.78589C7.75964 1.78589 7.61736 1.86807 7.54032 2.00146L6.12125 4.45938C6.04422 4.59277 6.04422 4.75714 6.12125 4.89053C6.19828 5.02392 6.34056 5.10611 6.49463 5.10611H9.33283C9.48684 5.10611 9.62917 5.02392 9.70615 4.89053C9.78318 4.75714 9.78318 4.59277 9.70615 4.45938ZM7.24132 4.24387L7.9137 3.07933L8.58608 4.24387H7.24132Z" fill="white"/>
<path d="M22.6283 8.75085H16.3843C16.1462 8.75085 15.9531 8.94383 15.9531 9.182C15.9531 9.42012 16.1461 9.61315 16.3843 9.61315H22.6283C22.8664 9.61315 23.0594 9.42018 23.0594 9.182C23.0594 8.94383 22.8664 8.75085 22.6283 8.75085Z" fill="white"/>
<path d="M22.6283 10.647H16.3843C16.1462 10.647 15.9531 10.84 15.9531 11.0782C15.9531 11.3164 16.1461 11.5093 16.3843 11.5093H22.6283C22.8664 11.5093 23.0594 11.3164 23.0594 11.0782C23.0594 10.84 22.8664 10.647 22.6283 10.647Z" fill="white"/>
<path d="M22.6283 12.5432H16.3843C16.1462 12.5432 15.9531 12.7361 15.9531 12.9743C15.9531 13.2124 16.1461 13.4054 16.3843 13.4054H22.6283C22.8664 13.4054 23.0594 13.2125 23.0594 12.9743C23.0594 12.7361 22.8664 12.5432 22.6283 12.5432Z" fill="white"/>
<path d="M22.6283 14.4393H16.3843C16.1462 14.4393 15.9531 14.6323 15.9531 14.8705C15.9531 15.1086 16.1461 15.3016 16.3843 15.3016H22.6283C22.8664 15.3016 23.0594 15.1087 23.0594 14.8705C23.0594 14.6323 22.8664 14.4393 22.6283 14.4393Z" fill="white"/>
<path d="M19.3018 16.3355H16.3843C16.1462 16.3355 15.9531 16.5285 15.9531 16.7667C15.9531 17.0048 16.1461 17.1978 16.3843 17.1978H19.3018C19.5399 17.1978 19.733 17.0048 19.733 16.7667C19.733 16.5285 19.54 16.3355 19.3018 16.3355Z" fill="white"/>
<path d="M14.4425 8.38763H6.49462C6.25651 8.38763 6.06348 8.58061 6.06348 8.81878V13.9023V16.7667C6.06348 17.0048 6.25645 17.1978 6.49462 17.1978H14.4425C14.6806 17.1978 14.8736 17.0048 14.8736 16.7667V14.3308V8.81878C14.8736 8.58061 14.6806 8.38763 14.4425 8.38763ZM6.92583 9.24993H14.0113V13.758C13.9631 13.7497 13.9148 13.7424 13.8666 13.7371C13.1152 13.6528 12.6831 13.9535 12.3358 14.1951C12.0751 14.3763 11.8499 14.5329 11.4728 14.5634C10.8628 14.6135 10.4717 14.2892 9.97627 13.8793C9.42476 13.4232 8.79922 12.9068 7.80495 12.9666C7.50679 12.9848 7.21294 13.0533 6.92583 13.1708V9.24993ZM14.0114 16.3355H6.92577V14.1341C7.23163 13.9493 7.54406 13.8464 7.85723 13.8273C8.51216 13.7874 8.93601 14.138 9.42668 14.5438C9.9689 14.9923 10.5831 15.5002 11.5426 15.4229C12.1513 15.3735 12.5265 15.1126 12.8281 14.9031C13.1373 14.6881 13.3419 14.5462 13.7708 14.594C13.8505 14.6029 13.9309 14.6179 14.0114 14.6388V16.3355Z" fill="white"/>
<path d="M11.606 10.213C10.8786 10.213 10.2869 10.8047 10.2869 11.5321C10.2869 12.2594 10.8786 12.8512 11.606 12.8512C12.3333 12.8512 12.9251 12.2595 12.9251 11.5321C12.9251 10.8047 12.3333 10.213 11.606 10.213ZM11.606 11.989C11.3541 11.989 11.1491 11.784 11.1491 11.5321C11.1491 11.2802 11.3541 11.0753 11.606 11.0753C11.8578 11.0753 12.0628 11.2802 12.0628 11.5321C12.0628 11.784 11.8578 11.989 11.606 11.989Z" fill="white"/>
</g>
<defs>
<clipPath id="clip0_49_23145">
<rect width="29" height="29" fill="white"/>
</clipPath>
</defs>
</svg>
