<svg width="51" height="30" viewBox="0 0 51 30" fill="none" xmlns="http://www.w3.org/2000/svg">
<g clip-path="url(#clip0_107_5512)">
<path d="M37.5015 22.0787C36.3377 22.0787 35.391 21.1312 35.391 19.9674C35.391 18.8036 36.3377 17.8569 37.5015 17.8569C38.6655 17.8569 39.6123 18.8034 39.6123 19.9674C39.6123 21.1312 38.6655 22.0787 37.5015 22.0787ZM14.1721 22.0787C13.0083 22.0787 12.0616 21.1312 12.0616 19.9674C12.0616 18.8036 13.0081 17.8569 14.1721 17.8569C15.3359 17.8569 16.2826 18.8034 16.2826 19.9674C16.2826 21.1312 15.3361 22.0787 14.1721 22.0787ZM38.2585 9.36454L42.4769 2.05862C42.593 1.85699 42.6244 1.61754 42.5642 1.39279C42.504 1.16805 42.357 0.976378 42.1557 0.85983C41.954 0.743765 41.7146 0.712404 41.4899 0.772623C41.2651 0.832842 41.0735 0.979726 40.9569 1.18106L36.6858 8.57932C33.4194 7.08885 29.7511 6.25843 25.8368 6.25843C21.9225 6.25843 18.2543 7.08885 14.988 8.57932L10.7168 1.18106C10.6002 0.979726 10.4085 0.832842 10.1838 0.772623C9.95904 0.712404 9.71961 0.743765 9.51797 0.85983C9.31647 0.976269 9.16945 1.16794 9.10922 1.39273C9.04898 1.61752 9.08046 1.85703 9.19673 2.05862L13.4151 9.36454C6.17156 13.3042 1.21743 20.6373 0.492676 29.301H51.181C50.4556 20.6375 45.5015 13.3042 38.2585 9.36435" fill="#3DDB85"/>
</g>
<defs>
<clipPath id="clip0_107_5512">
<rect width="49.9075" height="28.6968" fill="white" transform="translate(0.883301 0.97998)"/>
</clipPath>
</defs>
</svg>
