<svg width="92" height="47" viewBox="0 0 92 47" fill="none" xmlns="http://www.w3.org/2000/svg">
<path d="M12.0462 7.36844C11.6175 6.92985 11.0218 6.66047 10.3586 6.66047C10.046 6.65921 9.73636 6.72129 9.4484 6.84296C9.16044 6.96464 8.90012 7.1434 8.68314 7.36844H8.67176C8.44799 7.59388 8.27093 7.86129 8.15074 8.15531C8.03055 8.44934 7.9696 8.7642 7.97137 9.08184C7.96698 9.72071 8.21612 10.3352 8.66417 10.7907L8.67555 10.8028C8.89344 11.0261 9.1541 11.2033 9.44197 11.3236C9.72984 11.4439 10.039 11.505 10.351 11.5032C11.0142 11.5032 11.6091 11.2376 12.0386 10.8028L12.0432 10.7907C12.4726 10.3597 12.7261 9.75642 12.7261 9.08184C12.7302 8.44219 12.4818 7.82674 12.0348 7.3692H12.0386L12.0462 7.36844ZM10.3586 40.5133C11.0218 40.5133 11.6167 40.2386 12.0462 39.8076L12.0507 39.7955C12.4802 39.366 12.7337 38.7589 12.7337 38.092C12.7337 37.409 12.4719 36.8126 12.0507 36.3755H12.0462C11.6175 35.9331 11.0218 35.6653 10.3586 35.6653C10.0457 35.6634 9.7357 35.7255 9.44761 35.8476C9.15951 35.9697 8.89938 36.1494 8.68314 36.3755H8.67176C8.22466 36.8347 7.97586 37.4511 7.97896 38.092C7.97597 38.729 8.22501 39.3414 8.67176 39.7955L8.68314 39.8076C8.90143 40.0307 9.16207 40.208 9.44978 40.3291C9.73748 40.4501 10.0465 40.5133 10.3586 40.5133ZM23.3221 33.1779C23.6267 33.0971 23.912 32.9559 24.1609 32.7627C24.4099 32.5695 24.6175 32.3283 24.7715 32.0533L24.8155 31.9683C25.0965 31.4283 25.1637 30.8021 25.0037 30.2147C24.8473 29.6107 24.4725 29.075 23.8943 28.7426L23.8609 28.7199C23.3225 28.4162 22.6856 28.3381 22.0898 28.5029C21.4979 28.6531 20.9668 29.0545 20.642 29.6312C20.3263 30.1902 20.2403 30.8501 20.4022 31.4713C20.5658 32.0881 20.9636 32.6168 21.5108 32.9449H21.5146C22.0837 33.2788 22.7265 33.3372 23.3229 33.1726L23.3221 33.1779ZM12.7921 21.1128C12.1676 20.4792 11.3048 20.0808 10.3518 20.0808C9.89752 20.0816 9.44802 20.1733 9.02971 20.3504C8.61141 20.5275 8.23274 20.7864 7.91598 21.112C7.29375 21.7449 6.91131 22.6183 6.91131 23.5896C6.90872 24.5182 7.26927 25.4112 7.91598 26.0777C8.5382 26.7075 9.3987 27.1021 10.3442 27.1021C11.2897 27.1021 12.16 26.7075 12.7845 26.0777C13.432 25.4112 13.7931 24.518 13.7907 23.5888C13.795 22.6626 13.4334 21.7722 12.7845 21.1113L12.7921 21.1128ZM11.4262 16.9864C12.7887 17.2173 14.0421 17.8762 15.0048 18.8675H15.0124C15.1654 19.0237 15.3105 19.1876 15.4472 19.3584L17.8223 17.9599C17.5098 16.9975 17.4829 15.9651 17.7449 14.9877C18.0833 13.6977 18.9058 12.5443 20.1366 11.8211L20.1769 11.7953C20.7536 11.4603 21.3912 11.2433 22.0526 11.1569C22.7139 11.0705 23.3859 11.1165 24.0293 11.2923C24.6827 11.4711 25.2941 11.7779 25.8282 12.1947C26.3622 12.6115 26.8082 13.1301 27.1405 13.7205V13.7242C27.8477 14.9687 27.9903 16.3968 27.6542 17.6822C27.3173 18.9722 26.4932 20.1332 25.2624 20.8525L24.9376 21.0475H24.905C23.8039 21.5803 22.5474 21.6975 21.3667 21.3776C20.4046 21.1134 19.5404 20.5744 18.88 19.8266L16.508 21.2205C16.7899 21.9758 16.9333 22.7758 16.9314 23.582C16.9314 24.4136 16.7812 25.2164 16.508 25.954L18.88 27.3449C19.5577 26.5724 20.4235 26.0549 21.3667 25.7931C22.6339 25.4411 24.0362 25.5905 25.2624 26.3182L25.3413 26.3562V26.36C26.4886 27.0658 27.3176 28.1888 27.6542 29.4931C28.0054 30.8277 27.821 32.2467 27.1405 33.4473L27.098 33.5345H27.0927C26.4142 34.6888 25.3149 35.5352 24.0255 35.896C22.7583 36.2359 21.3545 36.091 20.129 35.3739V35.364C18.9435 34.6666 18.0833 33.5272 17.7373 32.196C17.4749 31.2202 17.5018 30.1891 17.8147 29.2283L15.4396 27.8336C15.3027 28.0017 15.1576 28.163 15.0048 28.3169L14.9972 28.3245C14.0472 29.2958 12.7967 29.9712 11.4187 30.195V32.9874C12.3934 33.1977 13.2847 33.6905 13.9812 34.4041L13.985 34.4117C14.913 35.3511 15.4874 36.6608 15.4874 38.0995C15.4898 39.4761 14.9501 40.7982 13.985 41.7798L13.9812 41.7949C13.0478 42.7313 11.7654 43.3156 10.3518 43.3156C8.94493 43.3156 7.6595 42.7313 6.72768 41.7866H6.72389V41.7714C5.75774 40.7901 5.21713 39.4676 5.21916 38.0904C5.21916 36.651 5.79586 35.342 6.72389 34.4026V34.395H6.72768C7.42046 33.6777 8.31217 33.1843 9.28791 32.9783V30.1859C7.90308 29.9613 6.66242 29.2867 5.7215 28.3154L5.71163 28.3078C4.47121 27.0479 3.77571 25.3508 3.77515 23.5827C3.77515 21.7388 4.51726 20.0709 5.70253 18.8606H5.71239C6.67344 17.8692 7.92575 17.2102 9.28715 16.9795V14.1985C8.31464 13.9817 7.42554 13.4884 6.72692 12.778H6.72313V12.7704C5.75652 11.7863 5.21601 10.4613 5.21841 9.08184C5.21702 7.70282 5.7574 6.37843 6.72313 5.39401L6.73451 5.39022C7.20433 4.90585 7.76653 4.52062 8.38784 4.25734C9.00916 3.99406 9.67697 3.85807 10.3518 3.85742C11.7662 3.85742 13.0478 4.44171 13.9819 5.39022V5.39401H13.9857C14.9137 6.33873 15.4882 7.64996 15.4882 9.08184C15.4893 10.4604 14.9499 11.7844 13.9857 12.7697L13.9819 12.7772C13.2899 13.4784 12.4066 13.98 11.4194 14.1977V16.9788L11.4262 16.9864ZM24.7699 15.1311L24.7502 15.1007C24.4354 14.5623 23.9227 14.1683 23.3214 14.0027C23.0186 13.9194 22.7022 13.8978 22.3909 13.9391C22.0797 13.9805 21.7799 14.0839 21.5093 14.2433H21.5131C20.9425 14.5726 20.5608 15.1121 20.4007 15.7154C20.2372 16.3365 20.3233 16.997 20.6405 17.5555L20.6511 17.5707C20.9797 18.1398 21.5033 18.523 22.0875 18.677C22.6741 18.8455 23.329 18.7741 23.892 18.4403L23.9223 18.4251C24.4763 18.0882 24.8481 17.5555 25.0014 16.9712C25.1584 16.3679 25.0962 15.7085 24.7699 15.1311ZM35.3113 15.9483H37.9619V24.1829L41.7848 19.8805H44.9718L40.3567 24.8659L44.9756 31.1746H41.9403L37.955 25.5306V31.1746H35.3038V15.9407M48.0351 25.5723C48.0351 26.9746 49.0261 29.0128 51.4141 29.0128C52.8915 29.0128 53.8635 28.2297 54.3681 27.203C54.6322 26.7045 54.7536 26.171 54.7946 25.6095C54.8147 25.0633 54.7104 24.5197 54.4895 24.0198C54.0251 22.9521 52.9932 22.0264 51.3951 22.0264C49.2515 22.0264 48.0359 23.7944 48.0359 25.5458V25.5647L48.0351 25.5723ZM57.4231 31.1746H54.7711V29.5485C54.0654 30.8635 52.5872 31.5237 51.0286 31.5237C47.4675 31.5237 45.383 28.7009 45.383 25.5124C45.383 21.9513 47.9122 19.5223 51.0286 19.5223C53.0516 19.5223 54.2854 20.6135 54.7711 21.5203V19.8714H57.4231V31.1746ZM60.4257 21.952H59.0599V19.8729H60.4257V19.2355C60.4257 15.877 62.9351 15.6744 64.8382 15.6524V17.7285C64.1689 17.7285 63.0778 17.7285 63.0778 19.3174V19.8714H64.8382V21.9505H63.0778V31.1746H60.4257V21.952ZM66.648 15.9407H69.2977V24.1754L73.1222 19.8729H76.3092L71.6941 24.8583L76.3175 31.1746H73.2823L69.297 25.5306V31.1746H66.6472L66.648 15.9407ZM79.3801 25.5723C79.3801 26.9746 80.3703 29.0128 82.7591 29.0128C84.2342 29.0128 85.207 28.2297 85.7184 27.203C85.984 26.7045 86.0978 26.171 86.1449 25.6095C86.1631 25.073 86.0637 24.5153 85.8391 24.0198C85.3838 22.9521 84.3442 22.0264 82.7454 22.0264C80.601 22.0264 79.3861 23.7944 79.3861 25.5458V25.5647L79.3801 25.5723ZM88.759 31.1746H86.1077V29.5485C85.3997 30.8635 83.9223 31.5237 82.3652 31.5237C78.8041 31.5237 76.722 28.7009 76.722 25.5124C76.722 21.9513 79.2488 19.5223 82.3652 19.5223C84.3875 19.5223 85.622 20.6135 86.1077 21.5203V19.8714H88.759V31.1746Z" fill="#231F20"/>
</svg>
