<svg width="92" height="46" viewBox="0 0 92 46" fill="none" xmlns="http://www.w3.org/2000/svg">
<path d="M24.2097 23.147C24.1783 19.6825 27.0417 18.0179 27.1707 17.9361C25.5597 15.5793 23.0549 15.2583 22.1613 15.2206C20.031 15.0035 18.0014 16.4761 16.919 16.4761C15.8365 16.4761 14.1688 15.252 12.4004 15.2867C10.075 15.3213 7.93218 16.6366 6.73331 18.7196C4.31983 22.9047 6.11657 29.113 8.47025 32.5145C9.62192 34.1759 10.9907 36.0482 12.7937 35.979C14.5307 35.9097 15.1852 34.8556 17.2808 34.8556C19.3765 34.8556 19.9681 35.979 21.7994 35.9443C23.6654 35.9066 24.8485 34.2452 25.9907 32.5774C27.3092 30.6485 27.8535 28.7794 27.885 28.6819C27.8441 28.6662 24.2475 27.2879 24.2097 23.147Z" fill="black"/>
<path d="M20.7636 12.971C21.7197 11.813 22.3647 10.2013 22.1886 8.59717C20.8106 8.65408 19.1428 9.51533 18.1548 10.674C17.2708 11.6969 16.4854 13.3359 16.7039 14.9097C18.2367 15.0296 19.8075 14.1259 20.7636 12.9717" fill="black"/>
<path d="M36.2889 26.5541L34.6954 31.3589H32.6648L37.8535 16.084H40.2324L45.4432 31.3589H43.3337L41.7007 26.5541H36.2889ZM41.2985 25.0122L39.8037 20.6164C39.4637 19.6185 39.2376 18.7117 39.0107 17.8285H38.9667L38.1965 20.6019L36.7017 25.0197L41.2985 25.0122Z" fill="black"/>
<path d="M46.9866 23.971L46.8955 20.3894H48.6863L48.7774 22.2713H48.8214C49.6363 20.9343 50.9293 20.1413 52.7201 20.1413C55.3729 20.1413 57.3641 22.3851 57.3641 25.7171C57.3641 29.6598 54.9632 31.6077 52.3787 31.6077C50.9278 31.6077 49.6599 30.9718 49.002 29.8867H48.958V35.854H46.985L46.9866 23.971ZM48.9564 26.894C48.9564 27.1975 49.0005 27.4601 49.0475 27.7089C49.4095 29.09 50.6107 30.0438 52.0403 30.0438C54.1482 30.0438 55.379 28.3228 55.379 25.8051C55.379 23.6045 54.2241 21.7272 52.1161 21.7272C50.7503 21.7272 49.4884 22.7031 49.1014 24.1972C49.0179 24.461 48.9724 24.7354 48.9663 25.0121V26.894H48.9564ZM59.4258 23.971L59.3347 20.3894H61.1255L61.2166 22.2713H61.2606C62.0755 20.9343 63.3685 20.1413 65.1593 20.1413C67.8121 20.1413 69.8033 22.3851 69.8033 25.7171C69.8033 29.6598 67.4024 31.6077 64.8179 31.6077C63.367 31.6077 62.0991 30.9718 61.4412 29.8867H61.3972V35.854H59.4242L59.4258 23.971ZM61.3987 26.894C61.3987 27.1975 61.4427 27.4601 61.4897 27.7089C61.8517 29.09 63.0529 30.0438 64.4825 30.0438C66.5905 30.0438 67.8212 28.3228 67.8212 25.8051C67.8212 23.6045 66.6663 21.7272 64.5584 21.7272C63.1925 21.7272 61.9306 22.7031 61.5436 24.1972C61.4601 24.461 61.4146 24.7354 61.4085 25.0121V26.894H61.3987ZM71.8672 15.2705H73.8629V31.3596H71.8672V15.2705ZM77.8709 26.2369C77.915 28.9337 79.639 30.0446 81.6309 30.0446C83.0597 30.0446 83.9187 29.7957 84.6676 29.4785L85.0076 30.9073C84.3057 31.226 83.1105 31.5872 81.3607 31.5872C77.984 31.5872 75.9671 29.3654 75.9671 26.0585C75.9671 22.7516 77.915 20.1428 81.1118 20.1428C84.6934 20.1428 85.6419 23.2919 85.6419 25.3028C85.6419 25.7125 85.5979 26.0267 85.5661 26.2308L77.8709 26.2369ZM83.7176 24.808C83.7404 23.5408 83.1955 21.5679 80.9517 21.5679C78.9348 21.5679 78.0508 23.427 77.8937 24.808H83.7176Z" fill="black"/>
</svg>
