<svg width="26" height="158" viewBox="0 0 26 158" fill="none" xmlns="http://www.w3.org/2000/svg">
<path d="M6.63894 16.5024L16.5413 6.67708C17.0484 6.17393 17.875 6.17715 18.3781 6.68426C18.8813 7.19136 18.8781 8.01794 18.371 8.5211L8.46861 18.3464C8.22408 18.5891 7.89318 18.7246 7.54871 18.7233C7.20423 18.7219 6.8744 18.5838 6.63177 18.3393C6.38914 18.0947 6.25359 17.7638 6.25493 17.4193C6.25628 17.0749 6.39441 16.745 6.63894 16.5024Z" fill="#0045E6"/>
<path d="M5.9239 5.77715C6.18667 5.51642 6.55461 5.37091 6.94939 5.40919L17.5676 6.30938C18.2057 6.36238 18.7043 6.86488 18.7523 7.50338L19.5741 18.1237C19.6265 18.8403 19.0959 19.4673 18.3793 19.5196C17.6673 19.5766 17.0403 19.0368 16.9834 18.3248L16.2445 8.80236L6.72808 7.98913C6.01192 7.93122 5.48629 7.30004 5.54419 6.58389C5.57757 6.26716 5.71645 5.98299 5.9239 5.77715Z" fill="#0045E6"/>
<path d="M6.63894 62.5024L16.5413 52.677C17.0484 52.1739 17.875 52.1771 18.3781 52.6842C18.8813 53.1913 18.8781 54.0179 18.371 54.521L8.46861 64.3464C8.22408 64.589 7.89318 64.7245 7.54871 64.7232C7.20423 64.7219 6.8744 64.5837 6.63177 64.3392C6.38914 64.0947 6.25359 63.7638 6.25493 63.4193C6.25628 63.0748 6.39441 62.745 6.63894 62.5024Z" fill="#0045E6"/>
<path d="M5.9239 51.7771C6.18667 51.5164 6.55461 51.3708 6.94939 51.4091L17.5676 52.3093C18.2057 52.3623 18.7043 52.8648 18.7523 53.5033L19.5741 64.1236C19.6265 64.8402 19.0959 65.4673 18.3793 65.5196C17.6673 65.5765 17.0403 65.0368 16.9834 64.3248L16.2445 54.8023L6.72808 53.9891C6.01192 53.9312 5.48629 53.3 5.54419 52.5838C5.57757 52.2671 5.71645 51.9829 5.9239 51.7771Z" fill="#0045E6"/>
<path d="M6.63894 104.502L16.5413 94.677C17.0484 94.1739 17.875 94.1771 18.3781 94.6842C18.8813 95.1913 18.8781 96.0179 18.371 96.521L8.46861 106.346C8.22408 106.589 7.89318 106.725 7.54871 106.723C7.20423 106.722 6.8744 106.584 6.63177 106.339C6.38914 106.095 6.25359 105.764 6.25493 105.419C6.25628 105.075 6.39441 104.745 6.63894 104.502Z" fill="#0045E6"/>
<path d="M5.9239 93.7771C6.18667 93.5164 6.55461 93.3708 6.94939 93.4091L17.5676 94.3093C18.2057 94.3623 18.7043 94.8648 18.7523 95.5033L19.5741 106.124C19.6265 106.84 19.0959 107.467 18.3793 107.52C17.6673 107.576 17.0403 107.037 16.9834 106.325L16.2445 96.8023L6.72808 95.9891C6.01192 95.9312 5.48629 95.3 5.54419 94.5838C5.57757 94.2671 5.71645 93.9829 5.9239 93.7771Z" fill="#0045E6"/>
<path d="M6.63894 148.502L16.5413 138.677C17.0484 138.174 17.875 138.177 18.3781 138.684C18.8813 139.191 18.8781 140.018 18.371 140.521L8.46861 150.346C8.22408 150.589 7.89318 150.725 7.54871 150.723C7.20423 150.722 6.8744 150.584 6.63177 150.339C6.38914 150.095 6.25359 149.764 6.25493 149.419C6.25628 149.075 6.39441 148.745 6.63894 148.502Z" fill="#0045E6"/>
<path d="M5.9239 137.777C6.18667 137.516 6.55461 137.371 6.94939 137.409L17.5676 138.309C18.2057 138.362 18.7043 138.865 18.7523 139.503L19.5741 150.124C19.6265 150.84 19.0959 151.467 18.3793 151.52C17.6673 151.576 17.0403 151.037 16.9834 150.325L16.2445 140.802L6.72808 139.989C6.01192 139.931 5.48629 139.3 5.54419 138.584C5.57757 138.267 5.71645 137.983 5.9239 137.777Z" fill="#0045E6"/>
</svg>
