<svg width="25" height="25" viewBox="0 0 25 25" fill="none" xmlns="http://www.w3.org/2000/svg">
<path d="M20.0003 5.5V15.5C20.0003 15.776 19.7763 16 19.5003 16C19.2243 16 19.0003 15.776 19.0003 15.5V6.70703L6.85426 18.853C6.75626 18.951 6.62825 18.999 6.50025 18.999C6.37225 18.999 6.24425 18.95 6.14625 18.853C5.95125 18.658 5.95125 18.341 6.14625 18.146L18.2922 6H9.50025C9.22425 6 9.00025 5.776 9.00025 5.5C9.00025 5.224 9.22425 5 9.50025 5H19.5003C19.5653 5 19.6302 5.01306 19.6912 5.03906C19.8142 5.09006 19.9112 5.18706 19.9622 5.31006C19.9872 5.37006 20.0003 5.435 20.0003 5.5Z" fill="white"/>
</svg>
