<svg width="32" height="32" viewBox="0 0 32 32" fill="none" xmlns="http://www.w3.org/2000/svg">
<path d="M27.3332 16C27.3332 16.368 27.0346 16.6667 26.6666 16.6667H6.9426L11.1373 20.8613C11.3973 21.1213 11.3973 21.544 11.1373 21.804C11.0066 21.9347 10.8359 21.9987 10.6653 21.9987C10.4946 21.9987 10.3239 21.9334 10.1933 21.804L4.85992 16.4707C4.79859 16.4094 4.74937 16.3346 4.71604 16.2533C4.64804 16.0906 4.64804 15.9068 4.71604 15.7441C4.74937 15.6615 4.79859 15.588 4.85992 15.5267L10.1933 10.1934C10.4533 9.93337 10.876 9.93337 11.136 10.1934C11.396 10.4534 11.396 10.8761 11.136 11.1361L6.9413 15.3307H26.6666C27.0346 15.3334 27.3332 15.632 27.3332 16Z" fill="white"/>
</svg>
