<svg width="30" height="30" viewBox="0 0 30 30" fill="none" xmlns="http://www.w3.org/2000/svg">
<g clip-path="url(#clip0_49_23200)">
<path d="M20.5406 9.37969C20.4455 9.10474 20.2671 8.86626 20.0302 8.6974C19.7933 8.52854 19.5097 8.43769 19.2188 8.4375H18.75V7.5H19.2188C19.5914 7.49889 19.9484 7.35037 20.2119 7.08689C20.4754 6.82341 20.6239 6.46637 20.625 6.09375V2.34375C20.6239 1.97113 20.4754 1.61409 20.2119 1.35061C19.9484 1.08713 19.5914 0.938613 19.2188 0.9375H2.34375C1.97113 0.938613 1.61409 1.08713 1.35061 1.35061C1.08713 1.61409 0.938613 1.97113 0.9375 2.34375V6.09375C0.938613 6.46637 1.08713 6.82341 1.35061 7.08689C1.61409 7.35037 1.97113 7.49889 2.34375 7.5H2.8125V8.4375H2.34375C1.97113 8.43861 1.61409 8.58713 1.35061 8.85061C1.08713 9.11409 0.938613 9.47113 0.9375 9.84375V13.5938C0.938613 13.9664 1.08713 14.3234 1.35061 14.5869C1.61409 14.8504 1.97113 14.9989 2.34375 15H2.8125V15.9375H2.34375C1.97113 15.9386 1.61409 16.0871 1.35061 16.3506C1.08713 16.6141 0.938613 16.9711 0.9375 17.3438V21.0938C0.938613 21.4664 1.08713 21.8234 1.35061 22.0869C1.61409 22.3504 1.97113 22.4989 2.34375 22.5H11.25V26.25C11.25 28.0969 15.7312 29.0625 20.1562 29.0625C24.5812 29.0625 29.0625 28.0969 29.0625 26.25V12.1875C29.0625 10.3922 24.8391 9.43594 20.5406 9.37969ZM2.34375 6.5625C2.21943 6.5625 2.1002 6.51311 2.01229 6.42521C1.92439 6.3373 1.875 6.21807 1.875 6.09375V2.34375C1.875 2.21943 1.92439 2.1002 2.01229 2.01229C2.1002 1.92439 2.21943 1.875 2.34375 1.875H19.2188C19.3431 1.875 19.4623 1.92439 19.5502 2.01229C19.6381 2.1002 19.6875 2.21943 19.6875 2.34375V6.09375C19.6875 6.21807 19.6381 6.3373 19.5502 6.42521C19.4623 6.51311 19.3431 6.5625 19.2188 6.5625H2.34375ZM17.8125 7.5V8.4375H15.9375V7.5H17.8125ZM15 7.5V8.4375H6.5625V7.5H15ZM5.625 7.5V8.4375H3.75V7.5H5.625ZM11.25 21.5625H2.34375C2.21943 21.5625 2.1002 21.5131 2.01229 21.4252C1.92439 21.3373 1.875 21.2181 1.875 21.0938V17.3438C1.875 17.2194 1.92439 17.1002 2.01229 17.0123C2.1002 16.9244 2.21943 16.875 2.34375 16.875H11.25V21.5625ZM3.75 15.9375V15H5.625V15.9375H3.75ZM11.25 15.9375H6.5625V15H11.25V15.9375ZM11.25 12.1875V14.0625H2.34375C2.21943 14.0625 2.1002 14.0131 2.01229 13.9252C1.92439 13.8373 1.875 13.7181 1.875 13.5938V9.84375C1.875 9.71943 1.92439 9.6002 2.01229 9.51229C2.1002 9.42439 2.21943 9.375 2.34375 9.375H19.2188C19.241 9.37743 19.263 9.38214 19.2844 9.38906C15.1594 9.50625 11.25 10.4625 11.25 12.1875ZM28.125 26.25C28.125 26.8875 25.3125 28.125 20.1562 28.125C15 28.125 12.1875 26.8875 12.1875 26.25V22.8844C13.7297 23.8641 16.95 24.375 20.1562 24.375C23.3625 24.375 26.5828 23.8641 28.125 22.8844V26.25ZM28.125 21.5625C28.125 22.2 25.3125 23.4375 20.1562 23.4375C15 23.4375 12.1875 22.2 12.1875 21.5625V18.1969C13.7297 19.1766 16.95 19.6875 20.1562 19.6875C23.3625 19.6875 26.5828 19.1766 28.125 18.1969V21.5625ZM28.125 16.875C28.125 17.5125 25.3125 18.75 20.1562 18.75C15 18.75 12.1875 17.5125 12.1875 16.875V13.5094C13.7297 14.4891 16.95 15 20.1562 15C23.3625 15 26.5828 14.4891 28.125 13.5094V16.875ZM20.1562 14.0625C15 14.0625 12.1875 12.825 12.1875 12.1875C12.1875 11.55 15 10.3125 20.1562 10.3125C25.3125 10.3125 28.125 11.55 28.125 12.1875C28.125 12.825 25.3125 14.0625 20.1562 14.0625Z" fill="white"/>
<path d="M19.6875 16.4062H20.625V17.3438H19.6875V16.4062Z" fill="white"/>
<path d="M19.6875 21.5625H20.625V22.5H19.6875V21.5625Z" fill="white"/>
<path d="M19.6875 25.7812H20.625V26.7188H19.6875V25.7812Z" fill="white"/>
<path d="M5.15625 10.3125H3.28125C3.15693 10.3125 3.0377 10.3619 2.94979 10.4498C2.86189 10.5377 2.8125 10.6569 2.8125 10.7812V12.6562C2.8125 12.7806 2.86189 12.8998 2.94979 12.9877C3.0377 13.0756 3.15693 13.125 3.28125 13.125H5.15625C5.28057 13.125 5.3998 13.0756 5.48771 12.9877C5.57561 12.8998 5.625 12.7806 5.625 12.6562V10.7812C5.625 10.6569 5.57561 10.5377 5.48771 10.4498C5.3998 10.3619 5.28057 10.3125 5.15625 10.3125ZM4.6875 12.1875H3.75V11.25H4.6875V12.1875Z" fill="white"/>
<path d="M8.90625 10.3125H7.03125C6.90693 10.3125 6.7877 10.3619 6.69979 10.4498C6.61189 10.5377 6.5625 10.6569 6.5625 10.7812V12.6562C6.5625 12.7806 6.61189 12.8998 6.69979 12.9877C6.7877 13.0756 6.90693 13.125 7.03125 13.125H8.90625C9.03057 13.125 9.1498 13.0756 9.23771 12.9877C9.32561 12.8998 9.375 12.7806 9.375 12.6562V10.7812C9.375 10.6569 9.32561 10.5377 9.23771 10.4498C9.1498 10.3619 9.03057 10.3125 8.90625 10.3125ZM8.4375 12.1875H7.5V11.25H8.4375V12.1875Z" fill="white"/>
<path d="M5.15625 2.8125H3.28125C3.15693 2.8125 3.0377 2.86189 2.94979 2.94979C2.86189 3.0377 2.8125 3.15693 2.8125 3.28125V5.15625C2.8125 5.28057 2.86189 5.3998 2.94979 5.48771C3.0377 5.57561 3.15693 5.625 3.28125 5.625H5.15625C5.28057 5.625 5.3998 5.57561 5.48771 5.48771C5.57561 5.3998 5.625 5.28057 5.625 5.15625V3.28125C5.625 3.15693 5.57561 3.0377 5.48771 2.94979C5.3998 2.86189 5.28057 2.8125 5.15625 2.8125ZM4.6875 4.6875H3.75V3.75H4.6875V4.6875Z" fill="white"/>
<path d="M8.90625 2.8125H7.03125C6.90693 2.8125 6.7877 2.86189 6.69979 2.94979C6.61189 3.0377 6.5625 3.15693 6.5625 3.28125V5.15625C6.5625 5.28057 6.61189 5.3998 6.69979 5.48771C6.7877 5.57561 6.90693 5.625 7.03125 5.625H8.90625C9.03057 5.625 9.1498 5.57561 9.23771 5.48771C9.32561 5.3998 9.375 5.28057 9.375 5.15625V3.28125C9.375 3.15693 9.32561 3.0377 9.23771 2.94979C9.1498 2.86189 9.03057 2.8125 8.90625 2.8125ZM8.4375 4.6875H7.5V3.75H8.4375V4.6875Z" fill="white"/>
<path d="M10.3125 2.8125H16.875V3.75H10.3125V2.8125Z" fill="white"/>
<path d="M17.8125 2.8125H18.75V3.75H17.8125V2.8125Z" fill="white"/>
<path d="M10.3125 4.6875H16.875V5.625H10.3125V4.6875Z" fill="white"/>
<path d="M17.8125 4.6875H18.75V5.625H17.8125V4.6875Z" fill="white"/>
<path d="M5.15625 17.8125H3.28125C3.15693 17.8125 3.0377 17.8619 2.94979 17.9498C2.86189 18.0377 2.8125 18.1569 2.8125 18.2812V20.1562C2.8125 20.2806 2.86189 20.3998 2.94979 20.4877C3.0377 20.5756 3.15693 20.625 3.28125 20.625H5.15625C5.28057 20.625 5.3998 20.5756 5.48771 20.4877C5.57561 20.3998 5.625 20.2806 5.625 20.1562V18.2812C5.625 18.1569 5.57561 18.0377 5.48771 17.9498C5.3998 17.8619 5.28057 17.8125 5.15625 17.8125ZM4.6875 19.6875H3.75V18.75H4.6875V19.6875Z" fill="white"/>
<path d="M8.90625 17.8125H7.03125C6.90693 17.8125 6.7877 17.8619 6.69979 17.9498C6.61189 18.0377 6.5625 18.1569 6.5625 18.2812V20.1562C6.5625 20.2806 6.61189 20.3998 6.69979 20.4877C6.7877 20.5756 6.90693 20.625 7.03125 20.625H8.90625C9.03057 20.625 9.1498 20.5756 9.23771 20.4877C9.32561 20.3998 9.375 20.2806 9.375 20.1562V18.2812C9.375 18.1569 9.32561 18.0377 9.23771 17.9498C9.1498 17.8619 9.03057 17.8125 8.90625 17.8125ZM8.4375 19.6875H7.5V18.75H8.4375V19.6875Z" fill="white"/>
</g>
<defs>
<clipPath id="clip0_49_23200">
<rect width="30" height="30" fill="white"/>
</clipPath>
</defs>
</svg>
