<svg width="40" height="41" viewBox="0 0 40 41" fill="none" xmlns="http://www.w3.org/2000/svg">
<path d="M33.8489 30.013C31.5106 32.548 27.9723 33.833 23.3339 33.833L21.6673 33.833L21.6673 29.1347L23.0073 28.8663C25.2906 28.4097 26.8789 27.5113 27.7289 26.193C28.1724 25.4828 28.424 24.6696 28.4589 23.833L23.3339 23.833C22.8919 23.833 22.468 23.6574 22.1554 23.3449C21.8429 23.0323 21.6673 22.6084 21.6673 22.1663L21.6673 10.4997C21.6673 8.66134 23.1623 7.16634 25.0006 7.16634L35.0006 7.16634C35.4426 7.16634 35.8665 7.34194 36.1791 7.6545C36.4917 7.96706 36.6673 8.39098 36.6673 8.83301L36.6673 17.1663L36.6623 22.0313C36.6773 22.2163 36.9939 26.5997 33.8489 30.013ZM6.66725 7.16634L16.6673 7.16634C17.1093 7.16634 17.5332 7.34193 17.8458 7.65449C18.1583 7.96705 18.3339 8.39098 18.3339 8.83301L18.3339 17.1663L18.3289 22.0313C18.3439 22.2163 18.6606 26.5997 15.5156 30.013C13.1773 32.548 9.63892 33.833 5.00059 33.833L3.33392 33.833L3.33392 29.1347L4.67392 28.8663C6.95725 28.4097 8.54558 27.5113 9.39558 26.193C9.8391 25.4828 10.0906 24.6696 10.1256 23.833L5.00059 23.833C4.55856 23.833 4.13463 23.6574 3.82207 23.3448C3.50951 23.0323 3.33392 22.6084 3.33392 22.1663L3.33392 10.4997C3.33392 8.66134 4.82892 7.16634 6.66725 7.16634Z" fill="#101828"/>
</svg>
