<svg width="44" height="44" viewBox="0 0 44 44" fill="none" xmlns="http://www.w3.org/2000/svg">
<path d="M42.4254 27.2027L35.9534 17.4135C35.6999 17.0303 35.3106 16.7681 34.8586 16.6753C34.4057 16.5834 33.9451 16.6719 33.5618 16.9254L30.8496 18.7181C30.4663 18.9716 30.2042 19.3609 30.1114 19.8129C30.0186 20.2658 30.108 20.7264 30.3615 21.1097L30.4217 21.2008C30.2644 21.2532 30.1045 21.3074 29.9456 21.3615C29.5614 21.4913 29.1635 21.6262 28.843 21.7267C28.6213 21.7955 28.4227 21.8006 28.1985 21.7431L25.4416 21.0289C23.239 20.4592 20.562 21.8058 18.9799 22.9221C17.8352 22.5663 16.6914 22.4263 15.4926 22.4976L13.0588 21.6511L13.1319 21.5222C13.6011 20.6946 13.3098 19.6385 12.4822 19.1692L9.654 17.5656C8.82642 17.0964 7.77025 17.3878 7.30103 18.2153L1.51228 28.4238C1.04306 29.2514 1.33439 30.3076 2.16197 30.7768L4.99017 32.3804C5.25228 32.5291 5.54189 32.6047 5.83665 32.6047C5.99134 32.6047 6.14775 32.5841 6.30157 32.5411C6.74673 32.4182 7.11712 32.1303 7.344 31.7299L7.65251 31.1867C8.15525 31.9653 8.80322 32.756 9.58954 33.5492L8.96736 34.7136C8.68892 35.2344 8.63134 35.8342 8.80407 36.4031C8.97681 36.9712 9.35923 37.4378 9.88001 37.7154C10.2117 37.8924 10.5692 37.9767 10.9216 37.9767C11.139 37.9767 11.3547 37.9431 11.5618 37.8813C11.6065 38.6298 12.0302 39.3293 12.734 39.704C13.0657 39.8802 13.4215 39.9644 13.773 39.9644C14.1288 39.9644 14.4794 39.8776 14.7948 39.716C14.9572 40.2669 15.3319 40.755 15.8776 41.0455C16.2084 41.2217 16.5651 41.3059 16.9166 41.3059C17.4468 41.3059 17.9659 41.1142 18.3715 40.7645C18.5408 41.2277 18.8845 41.5989 19.4036 41.8748C19.7345 42.051 20.0911 42.1352 20.4426 42.1352C21.2152 42.1352 21.9628 41.7304 22.3702 41.0188C22.6649 41.207 23.1565 41.5362 23.972 42.1051L24.0485 42.1584C24.6045 42.5451 25.2121 42.7135 25.7896 42.7135C26.6765 42.7135 27.4929 42.3156 27.9424 41.702C28.2217 41.3213 28.3265 40.9071 28.2681 40.5041H28.2981C29.2495 40.5041 30.0874 39.9919 30.5402 39.3044C30.8694 38.8051 30.9811 38.268 30.8866 37.7738H30.8969C31.8817 37.7738 32.7153 37.2565 33.1244 36.5819C33.3968 36.1333 33.4759 35.6512 33.3762 35.1931C34.0353 35.1442 34.6386 34.7901 34.9755 34.3114C35.2702 33.892 35.4198 33.2767 35.1302 32.6537C35.8426 32.4517 36.4992 32.0203 36.9142 31.4454C36.9752 31.3612 37.0285 31.2744 37.0767 31.1876C37.4032 31.503 37.8372 31.6723 38.2781 31.6723C38.6046 31.6723 38.9346 31.5795 39.2268 31.387L41.9373 29.5952C42.7313 29.0701 42.9505 27.9967 42.4254 27.2027ZM6.44681 31.222C6.35571 31.3827 6.20704 31.4978 6.02743 31.5477C5.84782 31.5975 5.66048 31.5743 5.49978 31.4841L2.67157 29.8805C2.33814 29.6914 2.22126 29.2669 2.41032 28.9335L8.19822 18.7249C8.32626 18.4998 8.56173 18.3726 8.80407 18.3726C8.92009 18.3726 9.03783 18.4018 9.14611 18.4628L11.9743 20.0664C12.3077 20.2555 12.4246 20.68 12.2364 21.0135L6.44681 31.222ZM10.3647 36.8062C10.0863 36.6575 9.88259 36.4083 9.78978 36.1032C9.69697 35.7981 9.7279 35.4776 9.87658 35.2L12.135 30.971C12.2837 30.6926 12.5329 30.4889 12.838 30.3961C12.9531 30.3609 13.0709 30.3437 13.1877 30.3437C13.3794 30.3437 13.5684 30.3901 13.7412 30.4829C14.3178 30.7906 14.537 31.509 14.2302 32.0865C14.2293 32.0874 14.2284 32.0891 14.2284 32.0899L11.9709 36.3189C11.6624 36.8956 10.9413 37.1147 10.3647 36.8062ZM13.2178 38.7948C12.6876 38.512 12.4495 37.8546 12.6773 37.2986L12.6893 37.2685C12.832 36.9162 12.8732 36.8217 12.8852 36.7959L15.1394 32.5746C15.1394 32.5738 15.1402 32.5738 15.1402 32.5729C15.1918 32.4853 15.4926 32.0023 15.5235 31.955C15.8578 31.4531 16.5367 31.2821 17.0695 31.5657C17.647 31.8734 17.867 32.5935 17.5594 33.1719L14.9632 38.0454C14.9159 38.1339 14.8764 38.2233 14.8429 38.3144L14.8249 38.3049C14.5155 38.8824 13.7953 39.1024 13.2178 38.7948ZM16.3614 40.1354C15.7839 39.8278 15.5639 39.1076 15.8716 38.5292L18.6061 33.3962C18.8192 32.9957 19.2309 32.7671 19.6554 32.7671C19.8436 32.7671 20.0344 32.8118 20.2114 32.9063C20.4899 33.0542 20.6935 33.3042 20.7872 33.6085C20.88 33.9127 20.8499 34.2341 20.7013 34.5125L17.9667 39.6456C17.6599 40.2239 16.9398 40.4431 16.3614 40.1354ZM20.7906 41.0515C20.4864 41.1443 20.165 41.1142 19.8866 40.9656C19.3641 40.6871 18.9679 40.2291 19.5961 38.781L20.9393 36.2588C21.057 36.0379 21.3406 35.8385 21.6809 35.738C22.0359 35.6331 22.3968 35.6503 22.6469 35.7835C23.2244 36.0912 23.4444 36.8113 23.1367 37.3897L21.4927 40.4766C21.3449 40.7542 21.0957 40.9578 20.7906 41.0515ZM34.1316 33.7193C33.8531 34.1146 33.2077 34.3312 32.6904 34.0218C31.8998 33.5509 31.0894 33.0851 30.3065 32.6356C29.9103 32.4079 29.5142 32.181 29.1188 31.9516C28.8722 31.8089 28.5568 31.8923 28.4142 32.1389C28.2715 32.3856 28.3557 32.701 28.6015 32.8436C28.9985 33.0731 29.3956 33.3017 29.7935 33.5303C30.487 33.9281 31.202 34.3389 31.9024 34.7531C32.5675 35.2705 32.4008 35.7861 32.2427 36.0482C31.8989 36.6154 31.0241 36.9824 30.0719 36.5587L27.1827 34.6681C26.9446 34.5125 26.6249 34.5787 26.4685 34.8176C26.313 35.0556 26.3792 35.3753 26.6181 35.5317L29.5227 37.4318C30.1432 37.9217 29.7995 38.555 29.6783 38.7381C29.3397 39.252 28.4631 39.8054 27.4276 39.2382L25.604 37.9964C25.3685 37.8357 25.048 37.8967 24.8873 38.1322C24.7274 38.3677 24.7876 38.6882 25.0231 38.8489L26.8535 40.095C27.2695 40.4199 27.3563 40.7559 27.1088 41.0928C26.7246 41.6178 25.6229 41.9977 24.6363 41.311L24.5607 41.2586C23.771 40.7078 23.2192 40.3348 22.8566 40.1079L24.0468 37.8727C24.6217 36.7933 24.2118 35.4467 23.1316 34.8717C22.7371 34.662 22.2499 34.5916 21.754 34.6663C21.9027 34.2298 21.9113 33.7588 21.7738 33.3068C21.601 32.7388 21.2177 32.273 20.697 31.9954C20.0301 31.6405 19.2618 31.6611 18.6362 31.9834C18.4729 31.4325 18.0991 30.9444 17.5534 30.6539C16.804 30.2543 15.9283 30.3239 15.2657 30.7734C15.0792 30.2552 14.7131 29.8306 14.2267 29.5711C13.7059 29.2927 13.1061 29.2351 12.5372 29.407C11.9692 29.5797 11.5025 29.9613 11.2249 30.4829L10.0983 32.5927C9.30767 31.766 8.68204 30.9495 8.23431 30.1581L12.5424 22.5612L15.2528 23.5039C15.319 23.5271 15.3877 23.5357 15.4582 23.5314C16.3219 23.4721 17.152 23.5331 17.9762 23.7179C17.4545 24.194 16.9544 24.8007 16.4852 25.5303C16.0924 26.1413 16.0675 26.8856 16.419 27.5215C16.7705 28.1574 17.4099 28.5321 18.1395 28.5244C19.6863 28.5081 20.4245 27.6985 21.2066 26.8417C21.2934 26.7463 21.3819 26.6492 21.4738 26.5513C22.255 26.7962 23.0095 26.6647 23.7254 26.1585L29.1292 29.6699L33.8574 32.6786C34.1496 32.9278 34.4238 33.3034 34.1316 33.7193ZM36.0763 30.843C35.7042 31.3586 34.9815 31.7256 34.3146 31.7488L29.6869 28.8037L23.9772 25.0938C23.7838 24.9683 23.5303 24.9863 23.3567 25.1376C22.7517 25.6661 22.1949 25.771 21.5495 25.4788C21.3518 25.3894 21.1198 25.4332 20.9685 25.5879C20.7795 25.7813 20.6093 25.9678 20.4443 26.1482C19.7113 26.9517 19.2274 27.4837 18.1292 27.4949C18.1257 27.4949 18.1214 27.4949 18.118 27.4949C17.7725 27.4949 17.4898 27.3281 17.3213 27.0239C17.1512 26.7171 17.1624 26.3845 17.3523 26.0898C17.8481 25.3189 18.3732 24.707 18.9138 24.2713C18.9163 24.2688 18.9189 24.267 18.9224 24.2645C20.6222 22.8345 23.3937 21.5643 25.1838 22.0275L27.9406 22.7417C28.3514 22.8482 28.7467 22.8379 29.1515 22.7116C29.4841 22.6076 29.8871 22.471 30.2764 22.3386C30.5239 22.2553 30.7766 22.1693 31.0103 22.092L36.2688 30.0463C36.3608 30.3549 36.2173 30.6479 36.0763 30.843ZM41.3692 28.7349L38.657 30.5276C38.3374 30.739 37.9051 30.6505 37.6937 30.3308L31.2217 20.5417C31.1203 20.3878 31.0851 20.2022 31.122 20.02C31.159 19.837 31.2647 19.6806 31.4185 19.5792L34.1307 17.7865C34.2845 17.6851 34.4693 17.649 34.6524 17.6868C34.8354 17.7238 34.9918 17.8295 35.0932 17.9833L41.5652 27.7724C41.7766 28.0913 41.6881 28.5235 41.3692 28.7349ZM15.478 7.52556H22.7724V8.6797C22.7724 8.86963 22.8763 9.04322 23.0431 9.13345C23.1195 9.1747 23.2038 9.19533 23.288 9.19533C23.3868 9.19533 23.4856 9.16697 23.5707 9.11111L28.8043 5.67361C28.9495 5.57822 29.0372 5.41666 29.0372 5.2422C29.0372 5.06861 28.9495 4.90619 28.8043 4.8108L23.5707 1.3733C23.4126 1.26931 23.2098 1.26072 23.0431 1.35009C22.8763 1.44033 22.7724 1.61392 22.7724 1.80384V2.95798H15.478C15.1935 2.95798 14.9624 3.18916 14.9624 3.47361V7.00994C14.9624 7.29525 15.1927 7.52556 15.478 7.52556ZM15.9936 3.99009H23.288C23.5724 3.99009 23.8036 3.75892 23.8036 3.47447V2.76033L27.5823 5.2422L23.8036 7.72408V7.00994C23.8036 6.72549 23.5724 6.49431 23.288 6.49431H15.9936V3.99009ZM15.1944 13.8463L20.428 17.2838C20.5139 17.3396 20.6119 17.368 20.7107 17.368C20.7949 17.368 20.8792 17.3474 20.9556 17.3061C21.1224 17.2159 21.2263 17.0423 21.2263 16.8524V15.6982H28.5207C28.8052 15.6982 29.0363 15.467 29.0363 15.1826V11.6463C29.0363 11.3618 28.8052 11.1306 28.5207 11.1306H21.2263V9.97736C21.2263 9.78744 21.1224 9.61384 20.9556 9.52361C20.7889 9.43338 20.5861 9.44283 20.428 9.54681L15.1944 12.9843C15.0492 13.0797 14.9615 13.2413 14.9615 13.4157C14.9624 13.5885 15.0492 13.7509 15.1944 13.8463ZM20.1959 10.933V11.6471C20.1959 11.9316 20.4271 12.1628 20.7116 12.1628H28.006V14.6678H20.7116C20.4271 14.6678 20.1959 14.899 20.1959 15.1835V15.8976L16.4173 13.4157L20.1959 10.933Z" fill="black"/>
</svg>
