<svg width="54" height="54" viewBox="0 0 54 54" fill="none" xmlns="http://www.w3.org/2000/svg">
<g clip-path="url(#clip0_107_5632)">
<path d="M18.7474 12.6796C18.5922 13.157 18.745 13.6687 19.1363 13.9834L22.6204 16.7838L21.4477 21.0973C21.3161 21.5816 21.4934 22.0854 21.8997 22.3809C22.3062 22.6758 22.8398 22.6888 23.2599 22.4139L26.9999 19.9657L30.74 22.414C30.9417 22.5459 31.1694 22.6115 31.3967 22.6115C31.6431 22.6115 31.8889 22.5345 32.0999 22.3809C32.5065 22.0857 32.6839 21.5816 32.552 21.0973L31.3793 16.7839L34.8632 13.9836C35.2548 13.6691 35.4076 13.1572 35.2523 12.6796C35.0972 12.2018 34.6727 11.8775 34.1712 11.8532L29.7064 11.6355L28.1198 7.45664C27.9416 6.9872 27.5019 6.68377 26.9998 6.68377C26.4977 6.68377 26.058 6.98709 25.8799 7.45653L24.2931 11.6356L19.8287 11.8532C19.3269 11.8775 18.9025 12.2018 18.7474 12.6796ZM24.6954 13.3054C25.1713 13.2822 25.588 12.9794 25.7568 12.5341L26.9997 9.26089L28.2425 12.5344C28.4117 12.9796 28.8285 13.2822 29.304 13.3054L32.801 13.476L30.0719 15.6694C29.7005 15.968 29.5415 16.4579 29.6665 16.9173L30.585 20.2959L27.6555 18.3781C27.4563 18.2478 27.2279 18.1826 26.9996 18.1826C26.7712 18.1826 26.5427 18.2479 26.3434 18.3782L23.4141 20.2959L24.3326 16.9175C24.4577 16.4578 24.2985 15.9678 23.9271 15.6694L21.1981 13.4761L24.6954 13.3054ZM26.1559 3.9401V0.84375C26.1559 0.377789 26.5337 0 26.9997 0C27.4656 0 27.8434 0.377789 27.8434 0.84375V3.9401C27.8434 4.40606 27.4656 4.78385 26.9997 4.78385C26.5337 4.78385 26.1559 4.40606 26.1559 3.9401ZM31.2943 8.93911C30.9825 8.59285 31.0105 8.05929 31.3567 7.74752L34.8071 4.64062C35.1535 4.32875 35.6869 4.3567 35.9988 4.70306C36.3106 5.04932 36.2826 5.58288 35.9364 5.89465L32.4859 9.00155C32.3246 9.14678 32.1227 9.21828 31.9215 9.21828C31.6908 9.21828 31.4609 9.12421 31.2943 8.93911ZM18.0006 4.70306C18.3123 4.3567 18.8458 4.32875 19.1923 4.64062L22.6428 7.74752C22.989 8.05929 23.017 8.59285 22.7052 8.93911C22.5386 9.1241 22.3086 9.21828 22.0779 9.21828C21.8768 9.21828 21.6749 9.14678 21.5135 9.00155L18.063 5.89465C17.7166 5.58288 17.6888 5.04932 18.0006 4.70306ZM37.8244 13.9834L41.3085 16.7838L40.1358 21.0973C40.0042 21.5816 40.1815 22.0854 40.5879 22.3809C40.994 22.6758 41.5277 22.6886 41.948 22.4139L45.688 19.9657L49.4281 22.414C49.6298 22.5459 49.8575 22.6115 50.0848 22.6115C50.3312 22.6115 50.577 22.5345 50.7881 22.3809C51.1944 22.0859 51.3718 21.5821 51.2401 21.0973L50.0674 16.7839L53.5513 13.9836C53.9428 13.6692 54.0956 13.1573 53.9403 12.6796C53.7852 12.2018 53.3608 11.8775 52.8594 11.8532L48.3946 11.6355L46.808 7.45664C46.6298 6.9872 46.1901 6.68377 45.688 6.68377C45.1858 6.68377 44.7461 6.98709 44.5679 7.45653L42.9814 11.6355L38.5169 11.8531C38.0151 11.8774 37.5906 12.2018 37.4355 12.6796C37.2803 13.1572 37.433 13.6691 37.8244 13.9834ZM43.3834 13.3054C43.8594 13.2822 44.2762 12.9794 44.4452 12.534L45.6879 9.26079L46.9305 12.5339C47.0996 12.9794 47.5164 13.2822 47.9922 13.3053L51.4892 13.4758L48.7604 15.6691C48.3889 15.9675 48.2296 16.4576 48.3547 16.9172L49.2732 20.2958L46.3437 18.378C46.1444 18.2477 45.916 18.1825 45.6877 18.1825C45.4592 18.1825 45.2308 18.2478 45.0316 18.3781L42.1023 20.2958L43.0208 16.9174C43.1458 16.4579 42.9867 15.968 42.6153 15.6693L39.8863 13.4758L43.3834 13.3054ZM0.44793 13.9834L3.93209 16.7838L2.75938 21.0973C2.62776 21.5816 2.80505 22.0854 3.21142 22.3809C3.6179 22.6758 4.15146 22.6888 4.57155 22.4139L8.31157 19.9657L12.0517 22.414C12.2534 22.5459 12.4811 22.6115 12.7084 22.6115C12.9547 22.6115 13.2006 22.5345 13.4116 22.3809C13.818 22.0859 13.9954 21.5821 13.8637 21.0973L12.691 16.7839L16.1749 13.9836C16.5662 13.6694 16.719 13.1576 16.5639 12.679C16.4084 12.2016 15.984 11.8774 15.4829 11.8531L11.0181 11.6354L9.43155 7.45664C9.25341 6.9872 8.81371 6.68377 8.31157 6.68377C7.80933 6.68377 7.36963 6.98709 7.1915 7.45653L5.60493 11.6355L1.14044 11.8531C0.638723 11.8774 0.214317 12.2018 0.0592775 12.679C-0.0962889 13.1569 0.0563244 13.669 0.44793 13.9834ZM6.00698 13.3054C6.48296 13.2822 6.89977 12.9794 7.06873 12.534L8.31147 9.26079L9.5541 12.5339C9.72317 12.9794 10.14 13.2822 10.6158 13.3053L14.1128 13.4758L11.384 15.6691C11.0124 15.9675 10.8532 16.4576 10.9782 16.9172L11.8968 20.2958L8.96727 18.378C8.76794 18.2477 8.5396 18.1825 8.31126 18.1825C8.08281 18.1825 7.85437 18.2478 7.65514 18.3781L4.72585 20.2958L5.64438 16.9174C5.76936 16.4579 5.61031 15.968 5.23885 15.6693L2.50984 13.4758L6.00698 13.3054ZM53.8669 44.8172C53.2732 42.8999 52.0573 41.1785 50.4429 39.9696C49.67 39.3909 48.8283 38.9401 47.9405 38.621C49.1714 37.6549 49.9646 36.1551 49.9646 34.4726C49.9646 31.5652 47.5992 29.2 44.692 29.2C41.7846 29.2 39.4193 31.5652 39.4193 34.4726C39.4193 36.1531 40.2105 37.6514 41.439 38.6176C39.7925 39.2053 38.3339 40.2378 37.2169 41.6291C36.6948 40.8988 36.0926 40.2204 35.4156 39.6082C34.0514 38.3745 32.4505 37.4685 30.7264 36.933C32.5547 35.721 33.7634 33.6457 33.7634 31.2926C33.7634 27.5632 30.7292 24.5291 26.9998 24.5291C23.2704 24.5291 20.2362 27.5632 20.2362 31.2926C20.2362 33.6457 21.4448 35.721 23.2731 36.933C21.5489 37.4684 19.9479 38.3745 18.5838 39.6082C17.9068 40.2204 17.3046 40.8988 16.7826 41.629C15.6657 40.2376 14.2071 39.2051 12.5605 38.6173C13.7889 37.6511 14.5802 36.1528 14.5802 34.4722C14.5802 31.5649 12.2149 29.1997 9.30762 29.1997C6.40027 29.1997 4.03492 31.5649 4.03492 34.4722C4.03492 36.1547 4.82805 37.6546 6.05887 38.6207C5.17103 38.9398 4.32939 39.3906 3.55641 39.9693C1.942 41.1781 0.726051 42.8996 0.132367 44.8167C-0.141957 45.7022 0.0100236 46.6009 0.560254 47.3475C1.11038 48.0937 1.92396 48.5047 2.85104 48.5047H14.5151V50.0274C14.5151 52.218 16.2972 54.0001 18.4878 54.0001H35.5115C37.702 54.0001 39.4842 52.218 39.4843 50.0274V48.5051H51.1483C52.0755 48.5051 52.8891 48.0941 53.4391 47.3479C53.9892 46.6014 54.1412 45.7026 53.8669 44.8172ZM44.692 30.8875C46.6688 30.8875 48.2771 32.4958 48.2771 34.4726C48.2771 36.4495 46.6688 38.0578 44.692 38.0578C42.7151 38.0578 41.1068 36.4495 41.1068 34.4726C41.1068 32.4958 42.7151 30.8875 44.692 30.8875ZM21.9237 31.2926C21.9237 28.4936 24.2009 26.2166 26.9998 26.2166C29.7987 26.2166 32.0759 28.4936 32.0759 31.2926C32.0759 34.0907 29.8002 36.3671 27.0025 36.3686C27.0016 36.3686 27.0005 36.3686 26.9997 36.3686C26.9988 36.3686 26.9979 36.3686 26.9969 36.3686C24.1993 36.367 21.9237 34.0906 21.9237 31.2926ZM9.30762 30.8871C11.2844 30.8871 12.8927 32.4953 12.8927 34.4721C12.8927 36.449 11.2844 38.0573 9.30762 38.0573C7.33072 38.0573 5.72242 36.449 5.72242 34.4721C5.72242 32.4953 7.33072 30.8871 9.30762 30.8871ZM14.6247 46.817H2.85114C2.4628 46.817 2.14914 46.6586 1.91869 46.346C1.68814 46.0334 1.6296 45.6868 1.74446 45.3159C2.77636 41.9836 5.81587 39.7448 9.30762 39.7448C11.9489 39.7448 14.3549 41.021 15.8348 43.1813C15.2497 44.3179 14.84 45.5429 14.6247 46.817ZM37.7968 50.0273C37.7967 51.2873 36.7716 52.3125 35.5115 52.3125H18.4878C17.2278 52.3125 16.2026 51.2873 16.2026 50.0273V47.7067C16.8135 42.2025 21.4461 38.0574 26.9969 38.0561C26.9979 38.0561 26.9988 38.0562 26.9998 38.0562C27.0007 38.0562 27.0017 38.0561 27.0025 38.0561C32.5532 38.0576 37.1858 42.2025 37.7968 47.7067V50.0273ZM52.0808 46.3465C51.8503 46.6591 51.5368 46.8175 51.1483 46.8175H39.3749C39.1595 45.5432 38.7497 44.3182 38.1648 43.1815C39.6448 41.0213 42.0507 39.7453 44.6919 39.7453C48.1836 39.7453 51.2231 41.9842 52.255 45.3164C52.3699 45.6872 52.3112 46.0337 52.0808 46.3465Z" fill="white"/>
</g>
<defs>
<clipPath id="clip0_107_5632">
<rect width="54" height="54" fill="white"/>
</clipPath>
</defs>
</svg>
