<svg width="29" height="31" viewBox="0 0 29 31" fill="none" xmlns="http://www.w3.org/2000/svg">
<g clip-path="url(#clip0_49_23362)">
<path fill-rule="evenodd" clip-rule="evenodd" d="M9.75327 11.3394C10.0003 11.2682 10.1497 11.0025 10.0843 10.7441C10.0185 10.4843 9.75348 10.3298 9.50978 10.4002C9.25866 10.4698 9.1103 10.7366 9.17873 10.9955C9.24339 11.2544 9.50214 11.4085 9.75327 11.3394ZM9.63145 12.294C9.02645 12.294 8.47096 11.8738 8.30733 11.2378C8.09747 10.4278 8.60882 9.60631 9.39175 9.46811C10.4081 5.83326 14.5794 4.31375 17.5724 6.50507C17.7779 6.65527 17.8235 6.9478 17.679 7.15927C17.5382 7.37038 17.2566 7.42051 17.0511 7.27112C14.6068 5.48556 11.1999 6.66414 10.2897 9.62224C11.3687 10.2408 11.1808 11.9103 9.98527 12.2449C9.86738 12.2782 9.74949 12.294 9.63145 12.294ZM25.7037 21.9301L25.6542 21.8664C25.4526 21.6139 25.1215 21.5495 24.8476 21.7099C22.5749 23.0305 19.9552 24.596 18.2269 25.1943C17.7779 25.3492 17.3062 25.4524 16.8153 25.5018C16.4574 26.1889 15.6804 26.5103 14.9318 26.3454C14.1877 26.1814 13.1134 25.8939 12.4586 25.8295C12.2037 25.8046 11.9449 25.8121 11.671 25.8532C11.4236 25.8896 11.1954 25.7121 11.1611 25.4555C11.1231 25.1994 11.298 24.9619 11.5416 24.925C11.8879 24.8729 12.2189 24.8638 12.5461 24.8961C13.3042 24.9711 14.3113 25.2527 15.1145 25.4274C15.8613 25.5899 16.3158 24.9018 16.0201 24.3352C15.9249 24.1527 15.7689 24.0194 15.5825 23.9609L11.6748 22.7371C10.7083 22.434 9.96636 22.8202 9.10637 23.268C8.63074 23.5155 8.13992 23.772 7.57294 23.9321C6.8443 24.138 6.12007 24.3075 5.39269 24.4851V29.1711C7.3841 29.1507 9.40212 29.1158 11.3589 29.4098C12.6086 29.5976 13.9281 30.0841 15.1258 29.9826C16.5793 29.8597 18.1432 28.9229 19.6195 27.9296C21.6625 26.5552 24.0646 24.3908 25.6504 22.834C25.8939 22.5954 25.9168 22.1985 25.7037 21.9301ZM4.49096 23.9686C4.49096 23.8477 4.39205 23.7453 4.27409 23.7453H3.36472C3.24676 23.7453 3.14785 23.8477 3.14785 23.9686V29.8129C3.14785 29.9334 3.24676 30.0362 3.36472 30.0362H4.27409C4.39205 30.0362 4.49096 29.9334 4.49096 29.8129V23.9686ZM26.4 21.3336C26.9136 21.9807 26.8565 22.9389 26.2706 23.5152C24.6611 25.0972 22.1976 27.3107 20.1103 28.7163C18.4213 29.8537 16.6069 30.935 14.7796 30.935C13.5497 30.935 12.4125 30.5159 11.2295 30.3377C9.37277 30.0581 7.29086 30.0834 5.35466 30.1097C5.22913 30.6061 4.79154 30.9737 4.27402 30.9737H3.36472C2.7483 30.9737 2.24605 30.4532 2.24605 29.8128V23.9685C2.24605 23.3282 2.7483 22.8072 3.36472 22.8072H4.27409C4.74593 22.8072 5.14927 23.1116 5.31284 23.5412C5.99434 23.3753 6.68074 23.2128 7.33709 23.0274C7.8165 22.8918 8.26551 22.6567 8.69925 22.4298C9.64672 21.9376 10.6246 21.4281 11.9373 21.8396L15.8412 23.063C16.4851 23.2648 16.9347 23.8448 17.0056 24.5346C17.329 24.4852 17.641 24.4085 17.9416 24.3046C19.5433 23.7494 22.2017 22.1846 24.4025 20.8929C25.0532 20.5115 25.875 20.6704 26.3506 21.2708L26.4 21.3336ZM3.5093 15.7057C3.2696 15.7725 3.12502 16.0294 3.18967 16.2796C3.25636 16.5307 3.50461 16.6758 3.74523 16.6117L5.68577 16.0678L5.80373 16.0002C5.80373 15.999 5.80752 15.997 5.80752 15.9958C5.93879 15.8833 5.99287 15.7368 5.97493 15.5633C5.96274 15.4456 5.88751 15.3469 5.88744 15.3467C5.88744 15.3435 5.88366 15.3412 5.88366 15.338L4.45678 13.8517C4.27794 13.6687 3.99257 13.6687 3.81751 13.8517C3.63868 14.0352 3.63868 14.332 3.81751 14.515L3.96209 14.6672C1.78948 13.8845 0.971382 12.9983 0.971382 12.3575C0.971382 11.5728 2.1966 10.4207 5.63625 9.54154C5.87974 9.4799 6.02432 9.22536 5.9673 8.97394C5.90642 8.72295 5.66287 8.56875 5.41938 8.63082C1.96824 9.51309 0.0695801 10.8365 0.0695801 12.3575C0.0695801 13.6279 1.39749 14.7605 3.84413 15.613L3.5093 15.7057ZM7.38276 12.2414V4.90457L14.4981 1.02447L21.6134 4.90457V12.2414C21.6134 14.5214 20.6241 16.4989 18.8281 17.8093L14.4981 20.9692L10.168 17.8093C8.37206 16.499 7.38276 14.5214 7.38276 12.2414ZM6.48096 12.2414V4.62156C6.48096 4.44684 6.57609 4.28711 6.72452 4.20612L14.2888 0.0797727C14.422 0.00823983 14.578 0.00823983 14.7074 0.0797727L22.2755 4.20612C22.4238 4.28711 22.5152 4.44684 22.5152 4.62156V12.2414C22.5152 14.836 21.3927 17.0855 19.3494 18.5766L14.7568 21.9258C14.6026 22.0397 14.396 22.0388 14.2394 21.9258L9.65058 18.5766C7.60727 17.0855 6.48096 14.836 6.48096 12.2414ZM25.1558 9.10245L25.4868 9.00959C25.7303 8.94279 25.8711 8.68584 25.8065 8.43566C25.7418 8.18584 25.4945 8.0368 25.2547 8.10404L23.2914 8.65746L23.1962 8.71356L23.1544 8.75031L23.0783 8.85663L23.0365 8.95465C23.0365 8.95858 23.0365 8.96178 23.0327 8.96491C23.0327 8.96498 23.0037 9.12973 23.025 9.15186C23.025 9.20942 23.0745 9.32643 23.1088 9.36849C23.1125 9.37162 23.1164 9.37482 23.1164 9.37723C23.1278 9.38909 23.1354 9.40051 23.1468 9.41157C23.1468 9.41354 23.1506 9.41594 23.1506 9.4179L24.5432 10.8635C24.7199 11.0481 25.0087 11.0459 25.1825 10.8635C25.3575 10.6801 25.3575 10.3832 25.1825 10.201L25.034 10.0488C27.2066 10.8311 28.0247 11.7169 28.0247 12.3577C28.0247 13.1423 26.7995 14.2945 23.3637 15.1736C22.8449 15.3065 22.9453 16.0986 23.4702 16.0986C23.5045 16.0986 23.5425 16.0939 23.5767 16.0848C27.0278 15.2025 28.9303 13.8791 28.9303 12.3577C28.9303 11.0872 27.6024 9.95509 25.1558 9.10245ZM19.3684 10.6816C18.8829 10.6816 18.7283 11.3464 19.1325 11.5888C19.4931 11.8051 19.9263 11.4581 19.8212 11.0417C19.7642 10.8247 19.5739 10.6816 19.3684 10.6816ZM20.0533 9.9345C21.1569 10.5989 20.8659 12.3341 19.6082 12.5691C18.6376 16.0147 14.8365 17.5452 11.9487 15.8701C10.9871 15.3122 10.3438 14.5379 9.86738 13.4873C9.76083 13.2537 9.85596 12.9742 10.0805 12.8627C10.305 12.752 10.5751 12.852 10.6817 13.086C11.082 13.962 11.5901 14.5878 12.3863 15.051C14.7384 16.419 17.8522 15.203 18.7102 12.4152C18.6988 12.4101 18.6912 12.4058 18.6836 12.4006C17.5836 11.6994 17.8872 10.1054 19.0146 9.79172C19.3684 9.69378 19.7375 9.74442 20.0533 9.9345ZM14.4105 12.407L12.7021 10.6334C12.527 10.45 12.2417 10.45 12.0628 10.6334C11.8878 10.8164 11.8878 11.1129 12.0628 11.2962L14.1251 13.4367C14.3115 13.6315 14.6212 13.6194 14.791 13.4024L19.9125 6.89643C20.0685 6.69638 20.0419 6.40072 19.8479 6.23713C19.6538 6.07303 19.3685 6.10272 19.2125 6.30313L14.4105 12.407Z" fill="white"/>
</g>
<defs>
<clipPath id="clip0_49_23362">
<rect width="29" height="31" fill="white"/>
</clipPath>
</defs>
</svg>
