<svg width="92" height="47" viewBox="0 0 92 47" fill="none" xmlns="http://www.w3.org/2000/svg">
<path d="M13.7176 8.96094H18.2963V30.1545C15.9477 30.6007 14.223 30.779 12.3495 30.779C6.75929 30.779 3.84546 28.2522 3.84546 23.4057C3.84546 18.7375 6.93762 15.7053 11.7242 15.7053C12.4678 15.7053 13.0324 15.7644 13.7161 15.9428L13.7176 8.96094ZM13.7176 19.6298C13.1826 19.4515 12.7365 19.3923 12.1719 19.3923C9.85297 19.3923 8.51443 20.8189 8.51443 23.3169C8.51443 25.7549 9.79302 27.0927 12.1415 27.0927C12.6691 27.0917 13.1958 27.0522 13.7176 26.9744V19.6298ZM25.5809 16.0331V26.6473C25.5809 30.3048 25.313 32.0576 24.5185 33.5753C23.7749 35.0322 22.7937 35.9541 20.7723 36.9649L16.5206 34.9426C18.5429 33.9911 19.5233 33.1594 20.1478 31.8801C20.8019 30.5719 21.0105 29.0558 21.0105 25.0713V16.0414L25.5809 16.0331ZM21.0022 8.9875H25.5809V13.6921H21.0022V8.9875ZM28.346 17.0734C30.3682 16.1218 32.2918 15.706 34.4119 15.706C36.7604 15.706 38.3069 16.3305 38.9906 17.5499C39.37 18.2329 39.4959 19.126 39.4959 21.0291V30.3404C37.4441 30.6379 34.8573 30.8458 32.955 30.8458C29.1199 30.8458 27.3952 29.5073 27.3952 26.5342C27.3952 23.323 29.6845 21.8296 35.3043 21.3607V20.3499C35.3043 19.5175 34.8869 19.2117 33.7282 19.2117C32.0338 19.2117 30.1314 19.6875 28.3467 20.6094V17.0711L28.346 17.0734ZM35.5114 24.358C32.4784 24.6554 31.4897 25.132 31.4897 26.3203C31.4897 27.2119 32.055 27.6285 33.3109 27.6285C33.9938 27.6285 34.6191 27.5693 35.5114 27.4205V24.358ZM41.7337 16.7471C44.4388 16.0338 46.669 15.7075 48.9287 15.7075C51.2772 15.7075 52.9732 16.2425 53.9839 17.2836C54.9355 18.2647 55.2322 19.3346 55.2322 21.624V30.603H50.6535V21.8008C50.6535 20.0464 50.0586 19.3923 48.4226 19.3923C47.7981 19.3923 47.2335 19.4515 46.3116 19.7186V30.6H41.7253L41.7337 16.7471ZM57.0047 33.0995C58.6104 33.9319 60.216 34.3181 61.9105 34.3181C64.9131 34.3181 66.1917 33.0995 66.1917 30.1856V30.0961C65.3001 30.5415 64.4085 30.7206 63.2187 30.7206C59.1969 30.7206 56.6473 28.0746 56.6473 23.8822C56.6473 18.6783 60.424 15.7356 67.1129 15.7356C69.0752 15.7356 70.8895 15.9435 73.0893 16.3897L71.5216 19.6928C70.3022 19.4553 71.4229 19.6609 70.5025 19.5714V20.0472L70.5617 21.9791L70.592 24.4771C70.6224 25.1016 70.6224 25.7261 70.6527 26.3499V27.5989C70.6527 31.5234 70.3264 33.3658 69.3445 34.8835C67.918 37.1144 65.4496 38.2222 61.9408 38.2222C60.1576 38.2222 58.6111 37.9544 57.0055 37.3299V33.1078L57.0047 33.0995ZM66.1105 19.4227H65.6347C64.7431 19.3923 63.7028 19.6306 62.9887 20.0768C61.8885 20.7013 61.3239 21.8311 61.3239 23.4368C61.3239 25.7261 62.4621 27.0335 64.476 27.0335C65.1005 27.0335 65.6142 26.9144 66.2 26.7361V25.16C66.2 24.6251 66.1697 24.0218 66.1697 23.4057L66.1393 21.2947L66.109 19.7786V19.4219L66.1105 19.4227ZM80.1971 15.6468C84.7757 15.6468 87.5704 18.5303 87.5704 23.1993C87.5704 27.9798 84.6566 30.9892 80.018 30.9892C75.4393 30.9892 72.6143 28.1057 72.6143 23.4671C72.6143 18.6502 75.5281 15.6476 80.1963 15.6476L80.1971 15.6468ZM80.1075 27.3022C81.8619 27.3022 82.903 25.8452 82.903 23.3184C82.903 20.8143 81.8922 19.3346 80.1379 19.3346C78.3167 19.3346 77.2832 20.7916 77.2832 23.3184C77.2832 25.8452 78.3243 27.3022 80.1075 27.3022Z" fill="#092E20"/>
</svg>
