<svg width="92" height="46" viewBox="0 0 92 46" fill="none" xmlns="http://www.w3.org/2000/svg">
<mask id="mask0_107_5460" style="mask-type:luminance" maskUnits="userSpaceOnUse" x="3" y="6" width="26" height="32">
<path d="M28.0776 20.9602L19.8416 29.1991L28.0776 37.4381H18.6663L10.4274 29.1991L18.6663 20.9602H28.0776ZM18.6663 6.8418L3.36963 22.1385L8.07675 26.8456L28.0776 6.8418H18.6663Z" fill="white"/>
</mask>
<g mask="url(#mask0_107_5460)">
<path d="M15.1351 33.906L28.0782 20.96H18.6669L10.4309 29.1989L15.1351 33.906Z" fill="#39CEFD"/>
</g>
<mask id="mask1_107_5460" style="mask-type:luminance" maskUnits="userSpaceOnUse" x="3" y="6" width="26" height="32">
<path d="M28.0776 20.9602L19.8416 29.1991L28.0776 37.4381H18.6663L10.4274 29.1991L18.6663 20.9602H28.0776ZM18.6663 6.8418L3.36963 22.1385L8.07675 26.8456L28.0776 6.8418H18.6663Z" fill="white"/>
</mask>
<g mask="url(#mask1_107_5460)">
<path d="M3.36938 22.1385L18.666 6.8418H28.0773L8.0765 26.8456L3.36938 22.1385Z" fill="#39CEFD"/>
</g>
<mask id="mask2_107_5460" style="mask-type:luminance" maskUnits="userSpaceOnUse" x="3" y="6" width="26" height="32">
<path d="M28.0776 20.9602L19.8416 29.1991L28.0776 37.4381H18.6663L10.4274 29.1991L18.6663 20.9602H28.0776ZM18.6663 6.8418L3.36963 22.1385L8.07675 26.8456L28.0776 6.8418H18.6663Z" fill="white"/>
</mask>
<g mask="url(#mask2_107_5460)">
<path d="M18.6656 37.4352H28.0769L19.8409 29.1992L15.1338 33.9063L18.6656 37.4352Z" fill="#03569B"/>
</g>
<mask id="mask3_107_5460" style="mask-type:luminance" maskUnits="userSpaceOnUse" x="3" y="6" width="26" height="32">
<path d="M28.0776 20.9602L19.8416 29.1991L28.0776 37.4381H18.6663L10.4274 29.1991L18.6663 20.9602H28.0776ZM18.6663 6.8418L3.36963 22.1385L8.07675 26.8456L28.0776 6.8418H18.6663Z" fill="white"/>
</mask>
<g mask="url(#mask3_107_5460)">
<path d="M19.8409 29.1992L15.1338 33.9063L22.1149 31.488L19.8409 29.1992Z" fill="url(#paint0_linear_107_5460)"/>
</g>
<mask id="mask4_107_5460" style="mask-type:luminance" maskUnits="userSpaceOnUse" x="3" y="6" width="26" height="32">
<path d="M28.0776 20.9602L19.8416 29.1991L28.0776 37.4381H18.6663L10.4274 29.1991L18.6663 20.9602H28.0776ZM18.6663 6.8418L3.36963 22.1385L8.07675 26.8456L28.0776 6.8418H18.6663Z" fill="white"/>
</mask>
<g mask="url(#mask4_107_5460)">
<path d="M10.4297 29.1975L15.1369 24.4902L19.8444 29.1975L15.1369 33.9048L10.4297 29.1975Z" fill="#16B9FD"/>
</g>
<path d="M28.0776 20.9602L19.8416 29.1991L28.0776 37.4381H18.6663L10.4274 29.1991L18.6663 20.9602H28.0776ZM18.6663 6.8418L3.36963 22.1385L8.07675 26.8456L28.0776 6.8418H18.6663Z" fill="url(#paint1_radial_107_5460)"/>
<path d="M31.0662 15.0435H39.2917V16.6521H32.7355V21.5192H38.6543V23.1081H32.7355V29.2659H31.0662V15.0435ZM41.282 15.0435H42.9704V29.2666H41.282V15.0435ZM49.1471 29.5846C47.929 29.5846 46.9931 29.2269 46.3395 28.5116C45.7082 27.7917 45.3925 26.7919 45.3925 25.512V19.1357H47.0809V25.254C47.0809 26.2152 47.2994 26.9234 47.7365 27.3787C48.1736 27.834 48.7629 28.0616 49.5045 28.0616C50.0741 28.0616 50.58 27.9094 51.0221 27.6048C51.4774 27.3003 51.8214 26.9032 52.0541 26.4135C52.3055 25.9228 52.4313 25.4063 52.4313 24.864V19.1426H54.1189V29.2727H52.5102V27.796H52.4305C52.1523 28.2994 51.7086 28.7231 51.0995 29.067C50.4905 29.411 49.8414 29.583 49.1524 29.583L49.1471 29.5846Z" fill="#808080"/>
<path d="M60.6176 29.4259C60.2068 29.4259 59.8229 29.3596 59.4657 29.2271C59.1217 29.0945 58.8303 28.9157 58.5916 28.6906C58.3265 28.4392 58.1279 28.1478 57.9959 27.8164C57.8634 27.4856 57.7971 27.0816 57.7971 26.6046V20.6654H56.0291V19.1356H57.7971V16.2749H59.4854V19.1356H61.9485V20.6654H59.4854V26.188C59.4854 26.7445 59.5917 27.155 59.8041 27.4196C60.0556 27.7109 60.4198 27.8566 60.8968 27.8566C61.2813 27.8566 61.6521 27.7441 62.0092 27.519V29.1679C61.8104 29.2604 61.6051 29.3267 61.3931 29.3667C61.1943 29.4071 60.9363 29.4274 60.6191 29.4274L60.6176 29.4259Z" fill="#808080"/>
<path d="M67.7773 29.4259C67.3665 29.4259 66.9825 29.3596 66.6254 29.2271C66.2814 29.0945 65.99 28.9157 65.7512 28.6906C65.4861 28.4392 65.2876 28.1478 65.1556 27.8164C65.023 27.4856 64.9568 27.0816 64.9568 26.6046V20.6654H63.1887V19.1356H64.9568V16.2749H66.6451V19.1356H69.1082V20.6654H66.6451V26.188C66.6451 26.7445 66.7513 27.155 66.9638 27.4196C67.2152 27.7109 67.5795 27.8566 68.0565 27.8566C68.441 27.8566 68.8118 27.7441 69.1689 27.519V29.1679C68.9701 29.2604 68.7647 29.3267 68.5528 29.3667C68.3539 29.4071 68.096 29.4274 67.7788 29.4274L67.7773 29.4259Z" fill="#808080"/>
<path d="M75.2136 29.5847C74.2524 29.5847 73.3848 29.353 72.6109 28.8896C71.8429 28.4262 71.2404 27.7906 70.8034 26.9827C70.3794 26.1617 70.1675 25.241 70.1675 24.2207C70.1675 23.2408 70.366 22.3403 70.7631 21.5193C71.1739 20.6983 71.7501 20.0426 72.4917 19.5525C73.2333 19.0618 74.0941 18.8164 75.074 18.8164C76.067 18.8164 76.9277 19.044 77.6562 19.4993C78.3846 19.9364 78.9411 20.5455 79.3256 21.3266C79.7227 22.1081 79.9212 23.002 79.9212 24.0082C79.9212 24.207 79.901 24.379 79.8605 24.5242H71.8551C71.8955 25.2921 72.081 25.9411 72.4113 26.4713C72.7421 27.0009 73.1595 27.3981 73.6633 27.6626C74.1793 27.9277 74.7155 28.0602 75.272 28.0602C76.5701 28.0602 77.5699 27.4512 78.2716 26.233L79.7019 26.9281C79.2649 27.7491 78.6689 28.3982 77.9142 28.8752C77.1726 29.3517 76.2721 29.59 75.2128 29.59L75.2136 29.5847ZM78.1335 23.1287C78.1072 22.7048 77.9883 22.2811 77.7768 21.8577C77.5644 21.4338 77.2267 21.0761 76.7638 20.7848C76.3085 20.4934 75.7394 20.3477 75.0565 20.3477C74.2623 20.3477 73.5869 20.6057 73.0305 21.1217C72.4877 21.625 72.13 22.2938 71.9575 23.128H78.1358L78.1335 23.1287ZM81.8775 19.1359H83.4861V20.765H83.5658C83.7646 20.2086 84.1486 19.7518 84.7177 19.3946C85.2873 19.0238 85.8832 18.8384 86.5054 18.8384C86.9688 18.8384 87.3659 18.9047 87.6968 19.0372V20.8644C87.2729 20.652 86.7961 20.5457 86.2664 20.5457C85.7757 20.5457 85.3255 20.6849 84.9157 20.9631C84.505 21.2413 84.1762 21.6187 83.9293 22.0952C83.6915 22.5586 83.5726 23.0645 83.5726 23.6129V29.2736H81.8843V19.1435L81.8775 19.1359Z" fill="#808080"/>
<defs>
<linearGradient id="paint0_linear_107_5460" x1="16.5075" y1="34.8147" x2="20.0132" y2="31.309" gradientUnits="userSpaceOnUse">
<stop stop-color="#1A237E" stop-opacity="0.4"/>
<stop offset="1" stop-color="#1A237E" stop-opacity="0"/>
</linearGradient>
<radialGradient id="paint1_radial_107_5460" cx="0" cy="0" r="1" gradientUnits="userSpaceOnUse" gradientTransform="translate(4.06376 8.92715) scale(37.4308 37.4308)">
<stop stop-color="white" stop-opacity="0.1"/>
<stop offset="1" stop-color="white" stop-opacity="0"/>
</radialGradient>
</defs>
</svg>
