<svg width="15" height="15" viewBox="0 0 15 15" fill="none" xmlns="http://www.w3.org/2000/svg">
<g clip-path="url(#clip0_107_6282)">
<path d="M7.23535 1.05664C3.36785 1.05664 0.235352 4.13664 0.235352 7.93531C0.235352 10.9751 2.24085 13.5528 5.0216 14.4616C5.3716 14.5264 5.49993 14.3135 5.49993 14.1309C5.49993 13.9676 5.4941 13.5347 5.49118 12.9613C3.54402 13.3761 3.13335 12.0385 3.13335 12.0385C2.81485 11.2446 2.3546 11.0322 2.3546 11.0322C1.72052 10.6058 2.4036 10.6146 2.4036 10.6146C3.10652 10.6624 3.47577 11.3233 3.47577 11.3233C4.09993 12.3751 5.11435 12.0711 5.51452 11.8956C5.57752 11.4505 5.75777 11.1477 5.95785 10.9756C4.40327 10.8036 2.76935 10.2121 2.76935 7.57656C2.76935 6.82581 3.0406 6.21214 3.48977 5.73089C3.41102 5.55706 3.17477 4.85764 3.55102 3.91031C3.55102 3.91031 4.13727 3.72597 5.47602 4.61556C6.03602 4.46272 6.63102 4.38689 7.22602 4.38339C7.82102 4.38689 8.41602 4.46272 8.97602 4.61556C10.306 3.72597 10.8923 3.91031 10.8923 3.91031C11.2685 4.85764 11.0323 5.55706 10.9623 5.73089C11.4085 6.21214 11.6798 6.82581 11.6798 7.57656C11.6798 10.2191 10.0435 10.8006 8.48602 10.9698C8.73102 11.1763 8.95852 11.5981 8.95852 12.2426C8.95852 13.1631 8.94977 13.9028 8.94977 14.1262C8.94977 14.3065 9.07227 14.5217 9.43102 14.4529C12.2316 13.5499 14.2354 10.9704 14.2354 7.93531C14.2354 4.13664 11.1011 1.05664 7.23535 1.05664Z" fill="#212121"/>
</g>
<defs>
<clipPath id="clip0_107_6282">
<rect width="14" height="14" fill="white" transform="translate(0.235352 0.764648)"/>
</clipPath>
</defs>
</svg>
