<svg width="69" height="69" viewBox="0 0 69 69" fill="none" xmlns="http://www.w3.org/2000/svg">
<g clip-path="url(#clip0_107_5911)">
<path d="M68.2834 10.9418C68.2308 10.7269 68.1244 10.5296 67.9746 10.3692C67.8248 10.2087 67.6368 10.0907 67.4288 10.0265L61.121 8.07785L59.2026 1.64707C59.1394 1.43528 59.0234 1.24379 58.866 1.09125C58.7086 0.938714 58.5152 0.830313 58.3046 0.776599C58.0939 0.722884 57.8732 0.725687 57.6639 0.784734C57.4547 0.843781 57.2639 0.957063 57.1103 1.11355L50.2491 8.1101C43.548 3.90838 35.5695 2.35477 27.8214 3.74285C20.0733 5.13092 13.0922 9.36454 8.19722 15.6437C3.30225 21.9229 0.832499 29.8126 1.25465 37.8221C1.67681 45.8316 4.96163 53.4061 10.4884 59.1142C16.0152 64.8223 23.4011 68.2687 31.2505 68.8021C39.0999 69.3355 46.8691 66.919 53.0899 62.0093C59.3108 57.0995 63.5524 50.0365 65.0134 42.155C66.4743 34.2735 65.0533 26.1193 61.019 19.2333L67.9557 12.1606C68.1091 12.0037 68.22 11.809 68.2774 11.5953C68.3349 11.3817 68.337 11.1565 68.2834 10.9418ZM42.6777 36.0787C42.6823 38.2429 41.9656 40.3445 40.6449 42.0388C39.3242 43.7331 37.4781 44.9195 35.4092 45.4035C33.3404 45.8874 31.1716 45.6402 29.2587 44.7022C27.3458 43.7643 25.8022 42.1914 24.8812 40.2416C23.9602 38.2917 23.7164 36.0806 24.1898 33.9708C24.6632 31.8611 25.8257 29.9781 27.4867 28.6305C29.1476 27.2829 31.2084 26.5509 33.331 26.5544C35.4536 26.5579 37.512 27.2967 39.1687 28.6498L34.708 33.1978C34.0165 32.9114 33.2491 32.8775 32.5359 33.1021C31.8227 33.3268 31.2077 33.796 30.7951 34.4302C30.3825 35.0644 30.1978 35.8246 30.2722 36.5819C30.3466 37.3391 30.6756 38.0469 31.2034 38.585C31.7312 39.1232 32.4253 39.4586 33.168 39.5345C33.9107 39.6104 34.6563 39.422 35.2783 39.0013C35.9004 38.5806 36.3605 37.9535 36.5808 37.2264C36.8011 36.4992 36.768 35.7167 36.487 35.0117L40.9016 30.5097C42.0566 32.1274 42.6785 34.0778 42.6777 36.0787ZM40.9526 26.8279C38.6129 24.8087 35.6025 23.7818 32.542 23.9588C29.4816 24.1359 26.6045 25.5035 24.5038 27.7797C22.4031 30.0558 21.239 33.067 21.2515 36.1924C21.264 39.3178 22.4521 42.3192 24.5709 44.5779C26.6897 46.8365 29.5776 48.1801 32.6394 48.3318C35.7011 48.4835 38.7032 47.4316 41.0268 45.393C43.3503 43.3545 44.8182 40.4846 45.1278 37.3751C45.4373 34.2657 44.565 31.1536 42.6906 28.6805L48.4148 22.8434C51.7766 26.8367 53.4827 32.007 53.172 37.2602C52.8614 42.5133 50.5583 47.4372 46.7501 50.9896C42.942 54.5421 37.9277 56.4445 32.7683 56.2942C27.6089 56.1439 22.7093 53.9527 19.1063 50.1844C15.5033 46.416 13.4797 41.3661 13.4637 36.1035C13.4476 30.8408 15.4405 25.7782 19.0204 21.9871C22.6004 18.196 27.4866 15.9738 32.645 15.7909C37.8034 15.6079 42.8292 17.4785 46.6589 21.0068L40.9526 26.8279ZM57.4065 4.4385L58.6902 8.74182L51.8799 15.6849L50.5969 11.3823L57.4065 4.4385ZM63.053 36.0758C63.0532 42.7546 60.8884 49.2463 56.8953 54.5407C52.9023 59.8352 47.3049 63.6355 40.9742 65.3505C34.6434 67.0655 27.9342 66.599 21.8904 64.0235C15.8466 61.448 10.8071 56.908 7.55604 51.1098C4.30498 45.3116 3.02461 38.5803 3.91414 31.9633C4.80368 25.3463 7.81324 19.2147 12.4746 14.5223C17.1359 9.82987 23.1877 6.8399 29.6882 6.01755C36.1888 5.1952 42.7737 6.58657 48.4184 9.97521L48.2847 10.113C48.1236 10.2773 48.0092 10.4831 47.9538 10.7084C47.8983 10.9337 47.9039 11.1702 47.9699 11.3925L49.8631 17.742L48.4407 19.1916C44.1055 15.1491 38.3948 12.9903 32.5228 13.174C26.6509 13.3577 21.0808 15.8695 16.9968 20.1754C12.9129 24.4812 10.6373 30.2414 10.6538 36.2313C10.6703 42.2213 12.9776 47.9684 17.0852 52.2507C21.1929 56.5331 26.7767 59.0129 32.6496 59.163C38.5225 59.313 44.2212 57.1215 48.534 53.0543C52.8468 48.9871 55.4336 43.365 55.7444 37.3835C56.0551 31.4019 54.0653 25.5327 50.198 21.0237L51.6399 19.5529L57.8708 21.4781C57.9851 21.5129 58.1037 21.5307 58.223 21.5308H58.2359C58.3299 21.5298 58.4234 21.518 58.5148 21.4957C58.5414 21.4891 58.5673 21.4795 58.5939 21.4715C58.6651 21.4496 58.7344 21.4214 58.8009 21.3872C58.8289 21.3725 58.8562 21.3593 58.8835 21.3425C58.9665 21.2924 59.0437 21.2329 59.1135 21.1651L59.125 21.1556L59.1768 21.1021C61.7241 25.6647 63.0601 30.8258 63.053 36.0758ZM58.5342 18.137L57.8808 18.8032L53.6603 17.4994L60.4698 10.5564L64.6897 11.8608L58.5342 18.137Z" fill="url(#paint0_linear_107_5911)"/>
</g>
<defs>
<linearGradient id="paint0_linear_107_5911" x1="34.7652" y1="0.738281" x2="34.7652" y2="68.8748" gradientUnits="userSpaceOnUse">
<stop stop-color="white"/>
<stop offset="1" stop-color="#696A6F"/>
</linearGradient>
<clipPath id="clip0_107_5911">
<rect width="68.3438" height="68.3438" fill="white" transform="translate(0.396973 0.156738)"/>
</clipPath>
</defs>
</svg>
