<svg width="17" height="14" viewBox="0 0 17 14" fill="none" xmlns="http://www.w3.org/2000/svg">
<g clip-path="url(#clip0_71_6927)">
<path d="M4.25 0.0264282L0 4.25284L2.125 5.56095L4.25 4.25284L5.44999 2.13964L4.25 0.0264282Z" fill="#FF2820"/>
<path d="M4.25 4.25287H0V9.74721L2.125 10.9077L4.25 9.74721V4.25287Z" fill="#0084FF"/>
<path d="M0 9.74719V12.5648C0 13.3396 0.6375 13.9736 1.41668 13.9736H4.25L5.44999 11.7302L4.25 9.74719H0Z" fill="#0066DD"/>
<path d="M16.1225 1.52744L13.494 3.59809V3.61932L12.6367 6.87399L13.494 10.1677L16.1108 12.2621C16.4619 12.5551 17.0002 12.309 17.0002 11.852V1.9376C17.0002 1.48056 16.4736 1.23447 16.1225 1.52744Z" fill="#00AD3C"/>
<path d="M13.4938 3.59765V1.41906C13.4938 0.653126 12.8698 0.0264282 12.1072 0.0264282H9.33406H4.25V4.25284H9.45625V7.00001L12.2534 6.69013L13.4938 3.59765Z" fill="#FFBA00"/>
<path d="M9.45625 9.74717H4.25V13.9736H9.33406H12.1072C12.8698 13.9736 13.4938 13.3478 13.4938 12.583V10.1698L12.1061 7.33478L9.45625 7V9.74717Z" fill="#00AD3C"/>
<path d="M9.45703 7.00008L13.4945 10.1699V3.59772L9.45703 7.00008Z" fill="#00831E"/>
</g>
<defs>
<clipPath id="clip0_71_6927">
<rect width="17" height="14" fill="white"/>
</clipPath>
</defs>
</svg>
