<svg width="14" height="15" viewBox="0 0 14 15" fill="none" xmlns="http://www.w3.org/2000/svg">
<path d="M4.02721 9.41825L9.39738 4.08984C9.67239 3.81698 10.1207 3.81873 10.3935 4.09373C10.6664 4.36874 10.6646 4.81701 10.3896 5.08988L5.01946 10.4183C4.88685 10.5499 4.7074 10.6234 4.52058 10.6226C4.33377 10.6219 4.1549 10.547 4.02332 10.4144C3.89174 10.2818 3.81822 10.1023 3.81895 9.91551C3.81968 9.7287 3.89459 9.54983 4.02721 9.41825Z" fill="#0045E6"/>
<path d="M3.63903 3.60178C3.78153 3.46038 3.98107 3.38147 4.19516 3.40223L9.95354 3.89041C10.2996 3.91916 10.57 4.19167 10.596 4.53793L11.0417 10.2975C11.0701 10.6861 10.7824 11.0261 10.3938 11.0545C10.0076 11.0854 9.66759 10.7927 9.63672 10.4065L9.23601 5.24239L4.07514 4.80136C3.68676 4.76996 3.4017 4.42766 3.4331 4.03929C3.45121 3.86752 3.52652 3.71341 3.63903 3.60178Z" fill="#0045E6"/>
</svg>
