<svg width="67" height="69" viewBox="0 0 67 69" fill="none" xmlns="http://www.w3.org/2000/svg">
<g clip-path="url(#clip0_107_5916)">
<path d="M41.7652 24.8599H25.8087C24.7507 24.8599 23.7361 25.2874 22.988 26.0484C22.2398 26.8094 21.8196 27.8415 21.8196 28.9178V32.9757H13.8413C10.3147 32.9757 6.93251 34.4008 4.43882 36.9375C1.94513 39.4742 0.544189 42.9146 0.544189 46.5021C0.544189 53.3735 5.69017 60.0284 14.6258 60.0284L13.5621 61.097C13.3745 61.2862 13.2466 61.5279 13.1947 61.7913C13.1427 62.0548 13.1691 62.328 13.2704 62.5761C13.3716 62.8242 13.5433 63.0361 13.7634 63.1846C13.9835 63.3331 14.242 63.4116 14.5062 63.41C15.2508 63.41 15.2242 63.2342 18.7745 59.6362C18.959 59.4459 19.084 59.2044 19.1337 58.942C19.1834 58.6796 19.1556 58.4081 19.0538 58.1618C18.9208 57.8101 19.0538 57.9995 15.4502 54.3338C15.3263 54.2077 15.1791 54.1077 15.0171 54.0394C14.8551 53.9712 14.6815 53.936 14.5062 53.936C14.3308 53.936 14.1572 53.9712 13.9952 54.0394C13.8332 54.1077 13.686 54.2077 13.5621 54.3338C13.4381 54.4599 13.3397 54.6097 13.2726 54.7744C13.2055 54.9392 13.171 55.1158 13.171 55.2942C13.171 55.4726 13.2055 55.6492 13.2726 55.8139C13.3397 55.9787 13.4381 56.1285 13.5621 56.2546L14.6258 57.3232C7.31242 57.3232 3.20361 52.0479 3.20361 46.5021C3.20361 43.6321 4.32436 40.8797 6.31932 38.8504C8.31427 36.821 11.02 35.681 13.8413 35.681H21.8196V39.7389C21.8196 40.8151 22.2398 41.8472 22.988 42.6082C23.7361 43.3693 24.7507 43.7968 25.8087 43.7968H41.7652C42.8232 43.7968 43.8379 43.3693 44.586 42.6082C45.3341 41.8472 45.7544 40.8151 45.7544 39.7389V28.9178C45.7544 27.8415 45.3341 26.8094 44.586 26.0484C43.8379 25.2874 42.8232 24.8599 41.7652 24.8599ZM43.0949 39.7389C43.0949 40.0976 42.9548 40.4417 42.7055 40.6953C42.4561 40.949 42.1179 41.0915 41.7652 41.0915H25.8087C25.456 41.0915 25.1178 40.949 24.8684 40.6953C24.6191 40.4417 24.479 40.0976 24.479 39.7389V28.9178C24.479 28.559 24.6191 28.215 24.8684 27.9613C25.1178 27.7076 25.456 27.5651 25.8087 27.5651H41.7652C42.1179 27.5651 42.4561 27.7076 42.7055 27.9613C42.9548 28.215 43.0949 28.559 43.0949 28.9178V39.7389Z" fill="url(#paint0_linear_107_5916)"/>
<path d="M41.7643 49.2072H25.8077C24.7498 49.2072 23.7351 49.6348 22.987 50.3958C22.2389 51.1568 21.8186 52.1889 21.8186 53.2651V64.0862C21.8186 65.1625 22.2389 66.1946 22.987 66.9556C23.7351 67.7166 24.7498 68.1441 25.8077 68.1441H41.7643C42.8222 68.1441 43.8369 67.7166 44.585 66.9556C45.3331 66.1946 45.7534 65.1625 45.7534 64.0862V53.2651C45.7534 52.1889 45.3331 51.1568 44.585 50.3958C43.8369 49.6348 42.8222 49.2072 41.7643 49.2072ZM43.094 64.0862C43.094 64.445 42.9539 64.789 42.7045 65.0427C42.4551 65.2964 42.1169 65.4389 41.7643 65.4389H25.8077C25.4551 65.4389 25.1169 65.2964 24.8675 65.0427C24.6181 64.789 24.478 64.445 24.478 64.0862V53.2651C24.478 52.9064 24.6181 52.5623 24.8675 52.3087C25.1169 52.055 25.4551 51.9125 25.8077 51.9125H41.7643C42.1169 51.9125 42.4551 52.055 42.7045 52.3087C42.9539 52.5623 43.094 52.9064 43.094 53.2651V64.0862ZM39.1048 5.92285H33.786C33.4333 5.92285 33.0951 6.06536 32.8458 6.31903C32.5964 6.5727 32.4563 6.91675 32.4563 7.27549C32.4563 7.63423 32.5964 7.97828 32.8458 8.23195C33.0951 8.48562 33.4333 8.62812 33.786 8.62812H39.1048C39.4575 8.62812 39.7957 8.48562 40.0451 8.23195C40.2945 7.97828 40.4346 7.63423 40.4346 7.27549C40.4346 6.91675 40.2945 6.5727 40.0451 6.31903C39.7957 6.06536 39.4575 5.92285 39.1048 5.92285ZM28.4672 8.62812C28.8198 8.62812 29.158 8.48562 29.4074 8.23195C29.6568 7.97828 29.7969 7.63423 29.7969 7.27549C29.7969 6.91675 29.6568 6.5727 29.4074 6.31903C29.158 6.06536 28.8198 5.92285 28.4672 5.92285C28.1145 5.92285 27.7763 6.06536 27.5269 6.31903C27.2775 6.5727 27.1374 6.91675 27.1374 7.27549C27.1374 7.63423 27.2775 7.97828 27.5269 8.23195C27.7763 8.48562 28.1145 8.62812 28.4672 8.62812ZM39.1048 30.2703H33.786C33.4333 30.2703 33.0951 30.4128 32.8458 30.6665C32.5964 30.9202 32.4563 31.2642 32.4563 31.6229C32.4563 31.9817 32.5964 32.3257 32.8458 32.5794C33.0951 32.8331 33.4333 32.9756 33.786 32.9756H39.1048C39.4575 32.9756 39.7957 32.8331 40.0451 32.5794C40.2945 32.3257 40.4346 31.9817 40.4346 31.6229C40.4346 31.2642 40.2945 30.9202 40.0451 30.6665C39.7957 30.4128 39.4575 30.2703 39.1048 30.2703ZM28.4672 32.9756C28.8198 32.9756 29.158 32.8331 29.4074 32.5794C29.6568 32.3257 29.7969 31.9817 29.7969 31.6229C29.7969 31.2642 29.6568 30.9202 29.4074 30.6665C29.158 30.4128 28.8198 30.2703 28.4672 30.2703C28.1145 30.2703 27.7763 30.4128 27.5269 30.6665C27.2775 30.9202 27.1374 31.2642 27.1374 31.6229C27.1374 31.9817 27.2775 32.3257 27.5269 32.5794C27.7763 32.8331 28.1145 32.9756 28.4672 32.9756Z" fill="url(#paint1_linear_107_5916)"/>
<path d="M37.4969 54.6177L32.4572 59.8118L30.0771 57.3229C29.9531 57.1968 29.8059 57.0968 29.6439 57.0285C29.4819 56.9603 29.3083 56.9251 29.133 56.9251C28.9576 56.9251 28.784 56.9603 28.622 57.0285C28.46 57.0968 28.3129 57.1968 28.1889 57.3229C28.0649 57.4491 27.9665 57.5988 27.8995 57.7636C27.8324 57.9283 27.7978 58.105 27.7978 58.2833C27.7978 58.4617 27.8324 58.6383 27.8995 58.8031C27.9665 58.9678 28.0649 59.1176 28.1889 59.2437C31.7791 62.8958 31.7259 63.0175 32.4572 63.0175C33.1886 63.0175 32.9891 63.0175 39.385 56.5384C39.509 56.4123 39.6074 56.2626 39.6745 56.0978C39.7416 55.933 39.7761 55.7564 39.7761 55.578C39.7761 55.3997 39.7416 55.2231 39.6745 55.0583C39.6074 54.8935 39.509 54.7438 39.385 54.6177C39.2611 54.4916 39.1139 54.3915 38.9519 54.3233C38.7899 54.255 38.6163 54.2199 38.4409 54.2199C38.2656 54.2199 38.092 54.255 37.93 54.3233C37.768 54.3915 37.6208 54.4916 37.4969 54.6177ZM67.0297 22.1544C67.0297 18.567 65.6288 15.1265 63.1351 12.5898C60.6414 10.0531 57.2592 8.62803 53.7326 8.62803H45.7544V4.57012C45.7544 3.49389 45.3341 2.46175 44.586 1.70074C43.8379 0.939736 42.8232 0.512207 41.7652 0.512207H25.8087C24.7507 0.512207 23.7361 0.939736 22.9879 1.70074C22.2398 2.46175 21.8196 3.49389 21.8196 4.57012V15.3912C21.8196 16.4674 22.2398 17.4996 22.9879 18.2606C23.7361 19.0216 24.7507 19.4491 25.8087 19.4491H41.7652C42.8232 19.4491 43.8379 19.0216 44.586 18.2606C45.3341 17.4996 45.7544 16.4674 45.7544 15.3912V11.3333H53.7326C56.5539 11.3333 59.2596 12.4734 61.2546 14.5027C63.2495 16.5321 64.3703 19.2845 64.3703 22.1544C64.3703 27.5649 60.3812 32.9755 52.9481 32.9755L54.0119 31.9069C54.1358 31.7808 54.2342 31.6311 54.3013 31.4663C54.3684 31.3015 54.4029 31.1249 54.4029 30.9465C54.4029 30.7682 54.3684 30.5916 54.3013 30.4268C54.2342 30.262 54.1358 30.1123 54.0119 29.9862C53.8879 29.86 53.7407 29.76 53.5787 29.6917C53.4167 29.6235 53.2431 29.5884 53.0678 29.5884C52.8924 29.5884 52.7188 29.6235 52.5568 29.6917C52.3948 29.76 52.2477 29.86 52.1237 29.9862C48.5202 33.6518 48.6531 33.4624 48.5202 33.8141C48.4183 34.0605 48.3905 34.3319 48.4402 34.5943C48.4899 34.8567 48.6149 35.0983 48.7994 35.2885C52.4029 38.9406 52.4029 39.0624 53.0678 39.0624C53.3319 39.0639 53.5905 38.9854 53.8106 38.8369C54.0307 38.6884 54.2023 38.4766 54.3036 38.2284C54.4048 37.9803 54.4312 37.7071 54.3792 37.4437C54.3273 37.1803 54.1994 36.9385 54.0119 36.7493L52.9481 35.6808C61.9103 35.6808 67.0297 29.0123 67.0297 22.1544ZM43.0949 15.3912C43.0949 15.75 42.9548 16.094 42.7055 16.3477C42.4561 16.6013 42.1179 16.7438 41.7652 16.7438H25.8087C25.456 16.7438 25.1178 16.6013 24.8684 16.3477C24.6191 16.094 24.479 15.75 24.479 15.3912V4.57012C24.479 4.21138 24.6191 3.86733 24.8684 3.61366C25.1178 3.35999 25.456 3.21748 25.8087 3.21748H41.7652C42.1179 3.21748 42.4561 3.35999 42.7055 3.61366C42.9548 3.86733 43.0949 4.21138 43.0949 4.57012V15.3912ZM1.8739 11.3333H14.6258L13.5621 12.4019C13.3745 12.5911 13.2466 12.8328 13.1947 13.0962C13.1427 13.3596 13.1691 13.6328 13.2704 13.881C13.3716 14.1291 13.5433 14.3409 13.7634 14.4894C13.9835 14.638 14.242 14.7165 14.5062 14.7149C15.2508 14.7149 15.2242 14.539 18.7745 10.941C18.959 10.7508 19.084 10.5093 19.1337 10.2469C19.1834 9.98448 19.1556 9.71299 19.0538 9.46666C18.9208 9.11498 19.0538 9.30435 15.4502 5.6387C15.3263 5.51258 15.1791 5.41254 15.0171 5.34429C14.8551 5.27603 14.6815 5.2409 14.5062 5.2409C14.152 5.2409 13.8124 5.38399 13.5621 5.6387C13.4381 5.76482 13.3397 5.91454 13.2726 6.07932C13.2055 6.2441 13.171 6.42071 13.171 6.59907C13.171 6.95928 13.3117 7.30474 13.5621 7.55944L14.6258 8.62803H1.8739C1.52124 8.62803 1.18302 8.77054 0.933653 9.02421C0.684284 9.27787 0.544189 9.62192 0.544189 9.98066C0.544189 10.3394 0.684284 10.6835 0.933653 10.9371C1.18302 11.1908 1.52124 11.3333 1.8739 11.3333Z" fill="url(#paint2_linear_107_5916)"/>
<path d="M39.1061 11.3335H28.4684C28.1157 11.3335 27.7775 11.476 27.5281 11.7297C27.2788 11.9833 27.1387 12.3274 27.1387 12.6861C27.1387 13.0449 27.2788 13.3889 27.5281 13.6426C27.7775 13.8963 28.1157 14.0388 28.4684 14.0388H39.1061C39.4587 14.0388 39.7969 13.8963 40.0463 13.6426C40.2957 13.3889 40.4358 13.0449 40.4358 12.6861C40.4358 12.3274 40.2957 11.9833 40.0463 11.7297C39.7969 11.476 39.4587 11.3335 39.1061 11.3335ZM39.1061 35.681H28.4684C28.1157 35.681 27.7775 35.8235 27.5281 36.0771C27.2788 36.3308 27.1387 36.6749 27.1387 37.0336C27.1387 37.3923 27.2788 37.7364 27.5281 37.9901C27.7775 38.2437 28.1157 38.3862 28.4684 38.3862H39.1061C39.4587 38.3862 39.7969 38.2437 40.0463 37.9901C40.2957 37.7364 40.4358 37.3923 40.4358 37.0336C40.4358 36.6749 40.2957 36.3308 40.0463 36.0771C39.7969 35.8235 39.4587 35.681 39.1061 35.681Z" fill="url(#paint3_linear_107_5916)"/>
</g>
<defs>
<linearGradient id="paint0_linear_107_5916" x1="23.1493" y1="24.8599" x2="23.1493" y2="63.41" gradientUnits="userSpaceOnUse">
<stop stop-color="white"/>
<stop offset="1" stop-color="#696A6F"/>
</linearGradient>
<linearGradient id="paint1_linear_107_5916" x1="33.786" y1="5.92285" x2="33.786" y2="68.1441" gradientUnits="userSpaceOnUse">
<stop stop-color="white"/>
<stop offset="1" stop-color="#696A6F"/>
</linearGradient>
<linearGradient id="paint2_linear_107_5916" x1="33.787" y1="0.512207" x2="33.787" y2="63.0175" gradientUnits="userSpaceOnUse">
<stop stop-color="white"/>
<stop offset="1" stop-color="#696A6F"/>
</linearGradient>
<linearGradient id="paint3_linear_107_5916" x1="33.7872" y1="11.3335" x2="33.7872" y2="38.3862" gradientUnits="userSpaceOnUse">
<stop stop-color="white"/>
<stop offset="1" stop-color="#696A6F"/>
</linearGradient>
<clipPath id="clip0_107_5916">
<rect width="66.0656" height="68.3438" fill="white" transform="translate(0.756348 0.156738)"/>
</clipPath>
</defs>
</svg>
