<svg width="44" height="44" viewBox="0 0 44 44" fill="none" xmlns="http://www.w3.org/2000/svg">
<path fill-rule="evenodd" clip-rule="evenodd" d="M2.82324 29.3709V18.0533C2.82324 16.1421 4.38524 14.5801 6.29649 14.5801H12.5926C12.7448 9.50769 16.9055 5.45557 21.9999 5.45557C27.0943 5.45557 31.255 9.50769 31.4067 14.5801H37.7029C39.6141 14.5801 41.1761 16.1421 41.1761 18.0533V33.8672C41.1761 35.7784 39.6141 37.3404 37.7029 37.3404H25.1885L25.5722 39.4685H31.5259C32.2207 39.4685 32.8212 40.0079 32.8212 40.7019L32.8184 42.1809L32.7694 42.6209H11.23L11.1787 42.1126V40.7019C11.1787 40.0075 11.7791 39.4685 12.4739 39.4685H18.4277L18.8113 37.3404H6.29649C4.38524 37.3404 2.82324 35.7784 2.82324 33.8672V29.376H3.6652V32.5949H5.04799L5.47058 31.1323C5.51274 30.9875 5.62595 30.8825 5.76162 30.8449C6.14891 30.7372 6.54308 30.5736 6.89278 30.3752C7.02433 30.3004 7.17878 30.3046 7.30208 30.3724L7.30253 30.3719L8.63628 31.1085L9.54974 30.195L8.81366 28.8613C8.73758 28.7229 8.74766 28.5602 8.82649 28.435C9.00707 28.1312 9.19133 27.6623 9.2862 27.3204C9.32791 27.1696 9.44708 27.0605 9.58916 27.0252L11.0366 26.6072V25.3138L9.57403 24.8912C9.4292 24.849 9.32424 24.7358 9.28666 24.6002C9.17895 24.2133 9.01533 23.8182 8.81733 23.469C8.74262 23.3379 8.74674 23.183 8.81412 23.0597L9.5502 21.7255L8.63674 20.812L7.30299 21.5486C7.16458 21.6247 7.00187 21.6146 6.87674 21.5357C6.57241 21.3552 6.10399 21.1704 5.76208 21.076C5.61083 21.0343 5.5022 20.9152 5.46645 20.7731L5.04845 19.3257H3.6652V22.9937C5.59112 22.5161 7.45837 23.9727 7.45837 25.9605C7.45837 27.9487 5.59066 29.4049 3.6652 28.9273V29.3709H2.82324ZM3.6652 23.8668V28.0532C3.9622 28.1312 4.05478 28.1756 4.40128 28.1756C6.36937 28.1756 7.35983 25.7854 5.96787 24.3934C5.3757 23.8013 4.49249 23.5904 3.6927 23.8586C3.68353 23.8618 3.67437 23.8645 3.6652 23.8668ZM3.6652 33.4368V33.8672C3.6652 35.3137 4.84999 36.4985 6.29649 36.4985H37.7029C39.1494 36.4985 40.3346 35.3137 40.3346 33.8672V18.0533C40.3346 16.6068 39.1494 15.422 37.7029 15.422H31.3953C31.2541 17.8374 30.1885 20.0833 28.4487 21.7204C27.5636 22.5532 26.8885 23.4442 26.4677 24.5007C27.6062 24.5704 28.1544 25.9646 27.3326 26.7869C27.1419 26.9771 26.8949 27.1109 26.6185 27.1599V29.2871C26.6185 30.8954 25.3077 32.2355 23.6701 32.2355H20.3307C18.7082 32.2355 17.3822 30.9096 17.3822 29.2871V27.1599C16.3285 26.9734 15.8945 25.6653 16.6681 24.8917C16.8927 24.6671 17.1966 24.5213 17.533 24.5007C17.1122 23.4442 16.4367 22.5532 15.5521 21.7204C13.8122 20.0833 12.7466 17.8374 12.6055 15.422H6.29649C4.84999 15.422 3.6652 16.6068 3.6652 18.0533V18.4837H5.36287V18.4851C5.54483 18.4851 5.71258 18.6042 5.76574 18.788L6.21262 20.3349C6.5197 20.4334 6.81074 20.554 7.0972 20.7016L8.48503 19.9352C8.64774 19.8321 8.86591 19.8514 9.00799 19.9934L10.3683 21.3538L10.3679 21.3542C10.4967 21.483 10.531 21.6861 10.4389 21.8538L9.65974 23.2646C9.80733 23.551 9.92787 23.8425 10.0264 24.1492L11.5385 24.5855C11.7319 24.6235 11.8776 24.794 11.8776 24.9984V26.9221H11.8762C11.8762 27.104 11.7571 27.2718 11.5733 27.3249L10.0264 27.7718C9.92787 28.0789 9.80687 28.3699 9.65974 28.6564L10.4261 30.0442C10.5292 30.2069 10.51 30.4251 10.3679 30.5667L9.00753 31.9271L9.00708 31.9266C8.87828 32.0554 8.67524 32.0898 8.50795 31.9977L7.0972 31.2189C6.81074 31.3661 6.51924 31.4871 6.21262 31.5856L5.77583 33.0976C5.73778 33.2911 5.56728 33.4368 5.36287 33.4368H3.6652ZM32.2702 25.4577C32.911 25.9334 33.3162 26.5389 33.4431 27.3181C33.5082 27.7168 34.0458 27.8002 34.2305 27.4432C34.9749 26.004 36.1798 24.7578 37.7345 24.1858C37.9527 24.1061 38.0645 23.8645 37.9843 23.6468C37.9045 23.4286 37.663 23.3168 37.4448 23.397C35.9992 23.9287 34.8177 24.9659 33.9771 26.2227C33.7108 25.6552 33.3006 25.1781 32.7698 24.7839C32.5837 24.646 32.3211 24.6849 32.1832 24.871C32.0452 25.0567 32.0842 25.3197 32.2702 25.4577ZM36.3677 25.7231C36.4681 27.1013 35.485 28.3695 34.0917 28.523L34.0793 28.5244C32.7034 28.694 31.3939 27.6673 31.2381 26.2515C31.1446 25.5691 31.3834 24.8564 31.7807 24.3563C32.5952 23.3306 34.0495 23.0776 35.16 23.7674C35.3571 23.8902 35.6161 23.8297 35.7389 23.6326C35.8613 23.4355 35.8012 23.1766 35.6042 23.0537C34.137 22.1417 32.2065 22.4694 31.1235 23.8334C30.5579 24.5452 30.3132 25.3889 30.4039 26.3533C30.5125 27.2897 30.9906 28.0945 31.6749 28.6381C32.3867 29.2037 33.2304 29.4484 34.1943 29.3577C35.1096 29.2513 35.8911 28.7879 36.4305 28.1261C36.9773 27.4547 37.2739 26.5788 37.2074 25.6635C37.1666 25.1117 36.3288 25.1717 36.3677 25.7231ZM25.1248 17.5299C25.6249 17.3539 25.9714 16.8791 25.9714 16.3341C25.9714 15.2089 24.6042 14.641 23.8076 15.4381C23.1453 16.1004 23.4088 17.2224 24.2829 17.5299V18.4012C24.2829 18.9553 25.1248 18.9553 25.1248 18.4012V17.5299ZM25.0047 16.033C24.7375 15.7658 24.2783 15.9555 24.2783 16.3341C24.2783 16.7127 24.738 16.902 25.0047 16.6352C25.1711 16.4689 25.1711 16.1994 25.0047 16.033ZM19.0464 12.6372C19.2082 12.1738 19.0863 11.6642 18.7457 11.3236C17.9492 10.527 16.582 11.0949 16.582 12.2197C16.582 13.2179 17.6842 13.8202 18.5221 13.294L19.6079 14.1602V15.3469C19.6079 15.901 20.4498 15.901 20.4498 15.3469V13.9586H20.4489C20.4489 13.8348 20.3944 13.7124 20.2903 13.6299L19.0464 12.6372ZM18.1508 11.9185C17.8836 11.6513 17.4239 11.8411 17.4239 12.2197C17.4239 12.5982 17.8836 12.788 18.1508 12.5208C18.3167 12.3544 18.3167 12.0849 18.1508 11.9185ZM16.9592 15.4321C16.2556 15.4321 15.9027 16.286 16.3995 16.7833C16.8959 17.2797 17.7507 16.9281 17.7507 16.2237C17.7507 15.7864 17.3964 15.4321 16.9592 15.4321ZM15.8042 15.0687C16.8308 14.042 18.5922 14.7735 18.5922 16.2237C18.5922 16.6032 18.462 16.9529 18.2439 17.2302L20.2899 19.4984C20.3664 19.5745 20.4141 19.6804 20.4141 19.7968V24.3256C20.4141 24.387 20.4008 24.4452 20.3774 24.4979H21.6163C21.5924 24.4452 21.5796 24.387 21.5796 24.3256V11.6875C20.3737 11.3667 19.9525 9.84778 20.8458 8.95403C21.8725 7.92736 23.6339 8.65886 23.6339 10.109C23.6339 10.8575 23.1274 11.4996 22.4216 11.6875V24.3256C22.4216 24.387 22.4083 24.4452 22.3849 24.4979H23.6238C23.5999 24.4452 23.5871 24.387 23.5871 24.3256V21.4775C23.5871 21.3483 23.6453 21.2328 23.737 21.1558L27.1167 17.8489V15.0164C25.91 14.6965 25.4874 13.1767 26.3811 12.2829C27.4073 11.2567 29.1692 11.9873 29.1692 13.4374C29.1692 14.1864 28.6618 14.8294 27.9555 15.0164V18.007C27.9605 18.1216 27.9188 18.238 27.8304 18.3251L24.4291 21.6531V24.3256C24.4291 24.387 24.4158 24.4452 24.3924 24.4979H25.5749C25.5781 24.4851 25.5822 24.4723 25.5864 24.459C26.0429 23.1679 26.8184 22.1022 27.8739 21.1086C31.3912 17.798 31.4856 12.232 28.0604 8.80736C24.7137 5.46061 19.2875 5.46061 15.9412 8.80736C12.5165 12.232 12.6105 17.7985 16.1277 21.1086C17.1833 22.1018 17.9588 23.1679 18.4153 24.459C18.4199 24.4718 18.4235 24.4847 18.4267 24.4979H19.6097C19.5859 24.4452 19.5726 24.387 19.5726 24.3256V19.9577L17.571 17.7384C16.5045 18.1693 15.3266 17.3846 15.3266 16.2237C15.3257 15.7727 15.5085 15.3643 15.8042 15.0687ZM28.0948 12.8778C27.598 12.381 26.7437 12.7344 26.7437 13.4374C26.7437 14.1405 27.5975 14.4944 28.0948 13.9971C28.4037 13.6882 28.4037 13.1872 28.0948 12.8778ZM22.5595 9.5494C22.0622 9.05257 21.2084 9.40594 21.2084 10.109C21.2084 10.8121 22.0622 11.1659 22.5595 10.6687C22.8685 10.3597 22.8685 9.85878 22.5595 9.5494ZM25.3792 30.514H20.8591C20.305 30.514 20.305 29.6721 20.8591 29.6721H25.7408C25.7889 29.4145 25.7766 29.1418 25.7766 28.8792H20.8591C20.305 28.8792 20.305 28.0372 20.8591 28.0372H25.7766V27.1801H18.2232V29.2866C18.2232 30.4444 19.172 31.3936 20.3297 31.3936H23.6692C24.3644 31.394 24.9914 31.0516 25.3792 30.514ZM31.8697 9.93028L33.7649 8.83898C34.2434 8.56353 33.8254 7.83753 33.3473 8.11207L31.4521 9.20336C30.9736 9.47882 31.3912 10.2053 31.8697 9.93028ZM27.9514 5.69207L29.0468 3.79961C29.3236 3.32111 28.5972 2.90036 28.3203 3.37886L27.2249 5.27132C26.9476 5.74982 27.6745 6.17057 27.9514 5.69207ZM12.5692 9.17357L10.6768 8.07815C10.1983 7.80132 9.77753 8.52778 10.256 8.80507L12.1485 9.90048C12.627 10.1773 13.0473 9.4504 12.5692 9.17357ZM16.8075 5.25528L15.7162 3.36053C15.4412 2.88203 14.7147 3.30003 14.9897 3.77807L16.081 5.67328C16.356 6.15132 17.0825 5.73378 16.8075 5.25528ZM22.4376 3.97973C22.4376 4.53203 21.5989 4.53157 21.5993 3.97973L21.6016 1.79303C21.6021 1.24073 22.4404 1.24165 22.4399 1.79303L22.4376 3.97973ZM26.3848 25.3399H17.615C17.1792 25.3399 16.944 25.8734 17.2626 26.1915C17.4294 26.3583 17.5935 26.3386 17.8025 26.3386H26.3848C26.8207 26.3386 27.0553 25.8051 26.7368 25.487C26.6465 25.3963 26.5218 25.3399 26.3848 25.3399ZM31.5259 40.31H12.4739C12.2388 40.31 12.0202 40.475 12.0202 40.7019V41.7789H31.9792V40.7019C31.9792 40.475 31.761 40.31 31.5259 40.31ZM24.3365 37.3404H19.6633L19.2797 39.4685H24.7197L24.3365 37.3404Z" fill="black"/>
</svg>
