<svg width="12" height="12" viewBox="0 0 12 12" fill="none" xmlns="http://www.w3.org/2000/svg">
<g clip-path="url(#clip0_201_588)">
<path d="M10.6282 0.470703H1.60544C1.17322 0.470703 0.82373 0.811926 0.82373 1.2338V10.2938C0.82373 10.7156 1.17322 11.0589 1.60544 11.0589H10.6282C11.0604 11.0589 11.412 10.7156 11.412 10.2958V1.2338C11.412 0.811926 11.0604 0.470703 10.6282 0.470703ZM3.96504 9.49345H2.39335V4.43922H3.96504V9.49345ZM3.1792 3.75057C2.6746 3.75057 2.2672 3.34318 2.2672 2.84065C2.2672 2.33812 2.6746 1.93072 3.1792 1.93072C3.68173 1.93072 4.08913 2.33812 4.08913 2.84065C4.08913 3.34111 3.68173 3.75057 3.1792 3.75057ZM9.84648 9.49345H8.27685V7.03665C8.27685 6.4514 8.26651 5.69658 7.45999 5.69658C6.64312 5.69658 6.51904 6.33559 6.51904 6.99529V9.49345H4.95149V4.43922H6.457V5.12994H6.47768C6.68655 4.73288 7.19942 4.31307 7.96252 4.31307C9.55282 4.31307 9.84648 5.35949 9.84648 6.72024V9.49345Z" fill="#45484F"/>
</g>
<defs>
<clipPath id="clip0_201_588">
<rect width="10.5882" height="10.5882" fill="white" transform="translate(0.82373 0.470703)"/>
</clipPath>
</defs>
</svg>
