<svg width="29" height="31" viewBox="0 0 29 31" fill="none" xmlns="http://www.w3.org/2000/svg">
<g clip-path="url(#clip0_49_21816)">
<path d="M14.8305 3.08817H11.8042C11.5258 3.08817 11.2998 2.86157 11.2998 2.58238C11.2998 2.30319 11.5258 2.0766 11.8042 2.0766H14.8305C15.1089 2.0766 15.3349 2.30319 15.3349 2.58238C15.3349 2.86157 15.1089 3.08817 14.8305 3.08817Z" fill="white"/>
<path d="M18.8654 30.4H7.76898C6.37789 30.4 5.24707 29.265 5.24707 27.8711V20.7901C5.24707 20.511 5.47303 20.2844 5.75145 20.2844C6.02987 20.2844 6.25583 20.511 6.25583 20.7901V27.8711C6.25583 28.7077 6.93473 29.3885 7.76898 29.3885H18.8654C19.6996 29.3885 20.3785 28.7077 20.3785 27.8711V10.6745C20.3785 10.3953 20.6045 10.1687 20.8829 10.1687C21.1613 10.1687 21.3873 10.3953 21.3873 10.6745V27.8711C21.3873 29.265 20.2565 30.4 18.8654 30.4Z" fill="white"/>
<path d="M20.8829 4.09955C20.6045 4.09955 20.3785 3.87296 20.3785 3.59376V2.5822C20.3785 1.74563 19.6996 1.06485 18.8654 1.06485H7.76898C6.93473 1.06485 6.25583 1.74563 6.25583 2.5822V3.59376C6.25583 3.87296 6.02987 4.09955 5.75145 4.09955C5.47303 4.09955 5.24707 3.87296 5.24707 3.59376V2.5822C5.24707 1.18826 6.37789 0.0532837 7.76898 0.0532837H18.8654C20.2565 0.0532837 21.3873 1.18826 21.3873 2.5822V3.59376C21.3873 3.87296 21.1613 4.09955 20.8829 4.09955Z" fill="white"/>
<path d="M12.8139 24.3312H8.7788C8.50038 24.3312 8.27441 24.1046 8.27441 23.8254C8.27441 23.5462 8.50038 23.3196 8.7788 23.3196H12.8139C13.0923 23.3196 13.3182 23.5462 13.3182 23.8254C13.3182 24.1046 13.0923 24.3312 12.8139 24.3312Z" fill="white"/>
<path d="M15.8401 26.3545H8.7788C8.50038 26.3545 8.27441 26.1279 8.27441 25.8487C8.27441 25.5695 8.50038 25.343 8.7788 25.343H15.8401C16.1186 25.343 16.3445 25.5695 16.3445 25.8487C16.3445 26.1279 16.1186 26.3545 15.8401 26.3545Z" fill="white"/>
<path d="M17.8577 22.3079H8.7788C8.50038 22.3079 8.27441 22.0813 8.27441 21.8021C8.27441 21.5229 8.50038 21.2963 8.7788 21.2963H17.8577C18.1361 21.2963 18.3621 21.5229 18.3621 21.8021C18.3621 22.0813 18.1361 22.3079 17.8577 22.3079Z" fill="white"/>
<path d="M7.26605 13.2032C5.87496 13.2032 4.74414 12.0682 4.74414 10.6743C4.74414 9.28036 5.87496 8.14539 7.26605 8.14539C8.65713 8.14539 9.78796 9.28036 9.78796 10.6743C9.78796 12.0682 8.65713 13.2032 7.26605 13.2032ZM7.26605 9.15695C6.4318 9.15695 5.7529 9.83774 5.7529 10.6743C5.7529 11.5109 6.4318 12.1916 7.26605 12.1916C8.1003 12.1916 8.7792 11.5109 8.7792 10.6743C8.7792 9.83774 8.1003 9.15695 7.26605 9.15695Z" fill="white"/>
<path d="M7.26448 19.2731C5.49511 19.2731 3.79736 18.6034 2.48395 17.3896C2.34878 17.2641 2.29228 17.075 2.33667 16.8969C2.72404 15.3179 4.12823 14.2153 5.75134 14.2153H8.77763C10.4007 14.2153 11.8049 15.3179 12.1933 16.8959C12.2377 17.075 12.1802 17.2641 12.046 17.3886C10.7316 18.6034 9.03385 19.2731 7.26448 19.2731ZM3.40394 16.8524C5.58489 18.6743 8.94407 18.6743 11.125 16.8524C10.7619 15.8823 9.83481 15.2268 8.77763 15.2268H5.75134C4.69415 15.2268 3.7671 15.8823 3.40394 16.8524Z" fill="white"/>
<path d="M7.26545 19.2731C3.37263 19.2731 0.204102 16.0967 0.204102 12.1921C0.204102 8.28746 3.37263 5.11115 7.26545 5.11115C11.1583 5.11115 14.3268 8.28746 14.3268 12.1921C14.3268 16.0967 11.1583 19.2731 7.26545 19.2731ZM7.26545 6.12271C3.92745 6.12271 1.21287 8.84483 1.21287 12.1921C1.21287 15.5394 3.92745 18.2615 7.26545 18.2615C10.6034 18.2615 13.318 15.5394 13.318 12.1921C13.318 8.84483 10.6034 6.12271 7.26545 6.12271Z" fill="white"/>
<path d="M2.72606 22.2572C2.44764 22.2572 2.22168 22.0812 2.22168 21.802V21.7009C2.22168 21.4217 2.44764 21.1951 2.72606 21.1951C3.00448 21.1951 3.23044 21.4217 3.23044 21.7009C3.23044 21.98 3.00448 22.2572 2.72606 22.2572Z" fill="white"/>
<path d="M2.72606 24.2803C2.44764 24.2803 2.22168 24.1043 2.22168 23.8251V23.724C2.22168 23.4448 2.44764 23.2182 2.72606 23.2182C3.00448 23.2182 3.23044 23.4448 3.23044 23.724C3.23044 24.0032 3.00448 24.2803 2.72606 24.2803Z" fill="white"/>
<path d="M2.72606 26.3037C2.44764 26.3037 2.22168 26.1277 2.22168 25.8485V25.7474C2.22168 25.4682 2.44764 25.2416 2.72606 25.2416C3.00448 25.2416 3.23044 25.4682 3.23044 25.7474C3.23044 26.0266 3.00448 26.3037 2.72606 26.3037Z" fill="white"/>
<path d="M22.7399 26.3541H21.8926C21.6141 26.3541 21.3882 26.1275 21.3882 25.8483C21.3882 25.5691 21.6141 25.3425 21.8926 25.3425H22.3334L22.5805 24.1944C22.6209 24.0042 22.7672 23.8555 22.9548 23.81C23.4309 23.6947 23.895 23.5004 24.3338 23.2324C24.4962 23.1312 24.705 23.1342 24.8674 23.2374L25.8661 23.8777L26.4845 23.2526L25.8459 22.2592C25.741 22.0964 25.739 21.887 25.8388 21.7221C26.1062 21.2821 26.2999 20.8167 26.4138 20.3393C26.4592 20.1511 26.6065 20.0055 26.7952 19.963L27.9441 19.7071V18.8401L26.7952 18.5842C26.6065 18.5417 26.4592 18.3961 26.4138 18.2079C26.2999 17.7305 26.1052 17.2651 25.8388 16.8251C25.738 16.6602 25.74 16.4518 25.8449 16.289L26.4845 15.2865L25.8671 14.6674L24.8674 15.3088C24.706 15.413 24.4972 15.415 24.3338 15.3138C23.894 15.0458 23.4299 14.8515 22.9548 14.7362C22.7662 14.6907 22.6209 14.541 22.5805 14.3518L22.3334 13.2037H21.8926C21.6141 13.2037 21.3882 12.9771 21.3882 12.6979C21.3882 12.4187 21.6141 12.1921 21.8926 12.1921H22.7399C22.977 12.1921 23.1828 12.359 23.2322 12.5917L23.5015 13.839C23.8708 13.9513 24.2329 14.103 24.5819 14.2921L25.6653 13.5972C25.8651 13.4708 26.1263 13.4971 26.2938 13.666L27.4852 14.8596C27.6526 15.0276 27.6809 15.2896 27.5527 15.4898L26.8597 16.5763C27.0484 16.9273 27.1997 17.2904 27.3116 17.6617L28.5575 17.9388C28.7885 17.9904 28.9529 18.1958 28.9529 18.4325V20.1117C28.9529 20.3484 28.7885 20.5548 28.5575 20.6053L27.3116 20.8825C27.1997 21.2537 27.0484 21.6169 26.8597 21.9669L27.5517 23.0432C27.6809 23.2425 27.6536 23.5055 27.4862 23.6734L26.2948 24.8772C26.1274 25.0461 25.8661 25.0754 25.6653 24.947L24.5819 24.252C24.2319 24.4412 23.8708 24.5929 23.5015 24.7052L23.2322 25.9525C23.1828 26.1872 22.977 26.3541 22.7399 26.3541Z" fill="white"/>
<path d="M22.9547 22.0731C22.7651 22.0731 22.5835 21.9648 22.4977 21.7807C22.3807 21.5278 22.4897 21.2264 22.7419 21.109C23.451 20.7772 23.91 20.057 23.91 19.273C23.91 18.1573 23.0052 17.2499 21.8925 17.2499C21.6191 17.2499 21.3558 17.3035 21.1087 17.4087C20.8535 17.519 20.5569 17.3986 20.4479 17.1407C20.339 16.8837 20.459 16.5873 20.7153 16.4781C21.0865 16.3193 21.4839 16.2383 21.8925 16.2383C23.561 16.2383 24.9188 17.5999 24.9188 19.273C24.9188 20.4495 24.2308 21.5298 23.1676 22.0255C23.098 22.0579 23.0263 22.0731 22.9547 22.0731Z" fill="white"/>
<path d="M24.4153 9.15729H18.3627C17.2501 9.15729 16.3452 8.24991 16.3452 7.13415C16.3452 6.0184 17.2501 5.11102 18.3627 5.11102H24.4153C25.528 5.11102 26.4329 6.0184 26.4329 7.13415C26.4329 8.24991 25.528 9.15729 24.4153 9.15729ZM18.3627 6.12259C17.8059 6.12259 17.354 6.57678 17.354 7.13415C17.354 7.69153 17.8059 8.14572 18.3627 8.14572H24.4153C24.9722 8.14572 25.4241 7.69153 25.4241 7.13415C25.4241 6.57678 24.9722 6.12259 24.4153 6.12259H18.3627Z" fill="white"/>
</g>
<defs>
<clipPath id="clip0_49_21816">
<rect width="28.7498" height="30.347" fill="white" transform="translate(0.204102 0.0533447)"/>
</clipPath>
</defs>
</svg>
