<svg width="29" height="30" viewBox="0 0 29 30" fill="none" xmlns="http://www.w3.org/2000/svg">
<g clip-path="url(#clip0_49_23394)">
<path d="M17.4996 15.2355H11.5004C10.7973 12.7858 10.5161 10.5244 10.7036 8.49869C10.9379 5.29515 12.2034 2.56273 14.5 0.39563C16.6091 2.42139 17.8745 4.87115 18.2495 7.79202C18.5307 10.0062 18.2963 12.5031 17.4996 15.2355Z" stroke="white" stroke-width="0.7" stroke-miterlimit="10" stroke-linecap="round" stroke-linejoin="round"/>
<path d="M11.5004 15.2355C10.1881 15.2355 8.82891 15.424 7.42285 15.8951C7.61033 13.4924 8.5477 10.76 9.95376 9.25244C10.1881 9.01688 10.4224 8.73422 10.7037 8.54578C10.5631 10.5244 10.7974 12.7857 11.5004 15.2355Z" stroke="white" stroke-width="0.7" stroke-miterlimit="10" stroke-linecap="round" stroke-linejoin="round"/>
<path d="M17.4995 15.2355C18.2963 12.456 18.5306 10.0062 18.2494 7.74487C18.6712 8.02754 19.0462 8.35731 19.4211 8.7342C20.546 9.95908 21.2959 11.6551 21.4365 13.5866L21.5771 15.8479C20.2648 15.471 18.9056 15.2355 17.4995 15.2355Z" stroke="white" stroke-width="0.7" stroke-miterlimit="10" stroke-linecap="round" stroke-linejoin="round"/>
<path d="M11.4536 4.91821H17.5465" stroke="white" stroke-width="0.7" stroke-miterlimit="10" stroke-linecap="round" stroke-linejoin="round"/>
<path d="M15.8122 8.78127C15.8122 9.48793 15.2497 10.0533 14.5467 10.0533C13.8437 10.0533 13.2812 9.48793 13.2812 8.78127C13.2812 8.07461 13.8437 7.50928 14.5467 7.50928C15.2029 7.50928 15.8122 8.07461 15.8122 8.78127Z" stroke="white" stroke-width="0.7" stroke-miterlimit="10" stroke-linecap="round" stroke-linejoin="round"/>
<path d="M14.5 18.5332V20.7474" stroke="white" stroke-width="0.7" stroke-miterlimit="10" stroke-linecap="round" stroke-linejoin="round"/>
<path d="M17.0776 16.743V18.4861" stroke="white" stroke-width="0.7" stroke-miterlimit="10" stroke-linecap="round" stroke-linejoin="round"/>
<path d="M11.9692 17.2141V19.4283" stroke="white" stroke-width="0.7" stroke-miterlimit="10" stroke-linecap="round" stroke-linejoin="round"/>
<path d="M20.8272 20.7004H22.327V22.7733H20.8272C20.6866 23.8098 20.2648 24.7049 19.7024 25.5057L20.7803 26.5422L19.3274 28.0026L18.2494 26.9662C17.4527 27.5315 16.5153 27.9555 15.531 28.0968V29.6044H13.4688V28.0968C12.4377 27.9555 11.5472 27.5315 10.7504 26.9662L9.71932 28.0497L8.26639 26.5893L9.34437 25.5529C8.78195 24.752 8.36013 23.8098 8.21952 22.8204H6.71973V20.7476H8.21952" stroke="white" stroke-width="0.7" stroke-miterlimit="10" stroke-linecap="round" stroke-linejoin="round"/>
<path d="M17.3591 21.7371C17.3591 23.3388 16.0936 24.6108 14.5001 24.6108C12.9066 24.6108 11.6411 23.3388 11.6411 21.7371" stroke="white" stroke-width="0.7" stroke-miterlimit="10" stroke-linecap="round" stroke-linejoin="round"/>
<path d="M23.6862 15.3297V4.87108H21.5771L25.0923 1.33777L28.6075 4.87108H26.4984V18.2034" stroke="white" stroke-width="0.7" stroke-miterlimit="10" stroke-linecap="round" stroke-linejoin="round"/>
<path d="M5.31379 17.214V9.15806H7.42288L3.90773 5.62476L0.392578 9.15806H2.50167V20.0878" stroke="white" stroke-width="0.7" stroke-miterlimit="10" stroke-linecap="round" stroke-linejoin="round"/>
</g>
<defs>
<clipPath id="clip0_49_23394">
<rect width="29" height="30" fill="white"/>
</clipPath>
</defs>
</svg>
