<svg width="18" height="18" viewBox="0 0 18 18" fill="none" xmlns="http://www.w3.org/2000/svg">
<path d="M12.4141 16.3141C12.0699 16.3141 11.7234 16.2676 11.3814 16.1738C6.75764 14.9048 3.09688 11.2463 1.82713 6.62557C1.53838 5.57482 1.69659 4.47981 2.27409 3.54381C2.85384 2.60331 3.80714 1.93956 4.88939 1.72356C5.60939 1.57956 6.32114 1.90056 6.68639 2.51631L7.85863 4.4963C8.42788 5.4578 8.14503 6.69605 7.21428 7.31555L6.36613 7.87956C7.15888 9.50706 8.49227 10.8443 10.113 11.6363L10.6847 10.7835C11.3079 9.8543 12.5461 9.57606 13.5069 10.1483L15.4892 11.3303C16.1027 11.6963 16.4199 12.4126 16.2804 13.1116C16.0644 14.1938 15.4006 15.1471 14.4609 15.7268C13.8294 16.1153 13.1266 16.3141 12.4141 16.3141ZM5.23363 2.81256C5.19688 2.81256 5.1594 2.81632 5.1234 2.82382C4.3329 2.98207 3.64815 3.4583 3.23265 4.13405C2.8209 4.80155 2.70763 5.58081 2.91313 6.32706C4.07788 10.5668 7.43712 13.9246 11.6791 15.0886C12.4261 15.2933 13.203 15.1793 13.8698 14.7683C14.5448 14.3521 15.0219 13.6666 15.1772 12.8896C15.2237 12.6563 15.1179 12.4171 14.9124 12.2948L12.9308 11.1128C12.4846 10.8473 11.9086 10.9771 11.6191 11.4083L10.7828 12.6571C10.6328 12.8806 10.3434 12.9661 10.0989 12.8626C7.87667 11.9333 6.06841 10.1213 5.13841 7.8908C5.03491 7.6418 5.1218 7.35531 5.34605 7.20606L6.5919 6.3773C7.0239 6.09005 7.15511 5.5148 6.89036 5.06855L5.71812 3.0893C5.61537 2.9153 5.42938 2.81256 5.23363 2.81256Z" fill="white"/>
</svg>
