<svg width="53" height="60" viewBox="0 0 53 60" fill="none" xmlns="http://www.w3.org/2000/svg">
<g clip-path="url(#clip0_107_5599)">
<path d="M32.5552 34.6428L32.0855 35.4535C31.7588 36.0185 31.9606 36.7465 32.524 37.068L32.9969 37.3387C32.9637 37.4511 32.9332 37.5638 32.9057 37.6761H32.3568C31.702 37.6761 31.1692 38.2058 31.1692 38.8569V39.7868C31.1692 40.4416 31.7021 40.9746 32.3568 40.9746H32.9062C32.9338 41.0863 32.9639 41.1985 32.9975 41.3118L32.5246 41.5825C31.9567 41.9072 31.7595 42.6299 32.0866 43.1952L32.5583 44.0068C32.8891 44.5639 33.6149 44.7582 34.1773 44.4353L34.6532 44.1602C34.734 44.2443 34.8161 44.3268 34.9007 44.4073L34.6245 44.8836C34.2986 45.4474 34.4959 46.1705 35.0605 46.4936L35.8715 46.9621C36.4572 47.2961 37.1823 47.0798 37.4929 46.5291L37.7703 46.0552C37.8824 46.0881 37.9945 46.1182 38.1059 46.1453V46.692C38.1059 47.3432 38.6418 47.8728 39.3003 47.8728H40.235C40.8898 47.8728 41.4227 47.3432 41.4227 46.692V46.1459C41.5354 46.1188 41.6488 46.0883 41.762 46.0552L42.034 46.5248C42.3628 47.0969 43.0889 47.2882 43.6584 46.9615L44.4724 46.4952C45.0347 46.1739 45.2325 45.4535 44.9098 44.8809L44.6336 44.408C44.7181 44.3279 44.8008 44.2456 44.881 44.1616L45.3601 44.4403C45.9328 44.7586 46.6574 44.5607 46.9796 44.0023L47.4538 43.1879C47.7717 42.6238 47.5733 41.9038 47.011 41.5822L46.5362 41.3118C46.5694 41.2 46.5999 41.0876 46.6274 40.9746H47.172C47.8286 40.9746 48.3627 40.4416 48.3627 39.7868V38.8569C48.3627 38.2058 47.8286 37.6761 47.172 37.6761H46.6286C46.6005 37.5622 46.5704 37.4498 46.5374 37.3387L47.0116 37.0682C47.5745 36.7469 47.773 36.0251 47.4501 35.4525L46.9809 34.6432C46.6575 34.0834 45.9298 33.8845 45.3498 34.2095L44.8794 34.4833C44.7986 34.3989 44.7171 34.3182 44.635 34.2406L44.9186 33.7551C45.2316 33.184 45.0386 32.4799 44.4733 32.1487L43.655 31.68C43.0902 31.3629 42.3662 31.5569 42.0336 32.1198L41.7635 32.5903C41.6502 32.5566 41.5368 32.5258 41.4229 32.4981V31.9587C41.4229 31.3058 40.89 30.7742 40.2353 30.7742H39.3004C38.642 30.7742 38.106 31.3056 38.106 31.9587V32.4987C37.9933 32.5265 37.8813 32.5568 37.7697 32.5903L37.4946 32.1182C37.1706 31.5585 36.446 31.3624 35.8677 31.6833L35.0574 32.1518C34.5012 32.4776 34.3052 33.1992 34.625 33.7681L34.8987 34.2402C34.816 34.3188 34.7345 34.3999 34.6543 34.4835L34.1753 34.2073C33.6149 33.8856 32.8891 34.0794 32.5552 34.6428ZM34.4682 35.8191C34.7346 35.9728 35.0721 35.9113 35.2676 35.6762C35.5242 35.3659 35.8017 35.0906 36.0926 34.8575C36.3334 34.6647 36.397 34.3263 36.2428 34.0599L35.7429 33.1988L36.44 32.7962L36.9429 33.6606C37.0973 33.9274 37.4261 34.0407 37.7141 33.9289C38.0792 33.7871 38.4559 33.6843 38.8333 33.6238C39.1371 33.5751 39.3607 33.314 39.3607 33.0079V32.022H40.1685V33.0079C40.1685 33.3142 40.3927 33.5756 40.6965 33.6238C41.0738 33.6838 41.453 33.7867 41.8242 33.9299C42.1122 34.0395 42.441 33.9256 42.5954 33.6573L43.0897 32.7962L43.7929 33.1992L43.2912 34.0583C43.1343 34.3261 43.1992 34.6668 43.4425 34.8596C43.7224 35.0811 44.0011 35.3567 44.2719 35.6793C44.4666 35.9129 44.8055 35.9729 45.07 35.8179L45.9251 35.3199L46.3306 36.0188L45.4676 36.5111C45.1993 36.664 45.0836 36.9878 45.1931 37.2746C45.3291 37.6291 45.432 38.0089 45.4988 38.4036C45.5497 38.704 45.8113 38.9239 46.1174 38.9239H47.1085V39.7273H46.1174C45.8117 39.7273 45.5503 39.9469 45.4988 40.2466C45.4333 40.6328 45.3298 41.0141 45.1919 41.3805C45.0842 41.6668 45.2005 41.9883 45.4676 42.1403L46.3288 42.6313L45.9258 43.3242L45.0701 42.8262C44.8037 42.6702 44.4631 42.7321 44.2676 42.9696C44.0196 43.2715 43.7402 43.5495 43.4364 43.7968C43.1976 43.9908 43.1363 44.3283 43.2913 44.5929L43.7899 45.4467L43.0898 45.8478L42.5948 44.9922C42.441 44.7275 42.1201 44.614 41.8334 44.7181C41.4469 44.86 41.0647 44.9618 40.6971 45.0196C40.3927 45.0681 40.1685 45.3291 40.1685 45.6358V46.6253H39.3607V45.6358C39.3607 45.3294 39.1371 45.0683 38.8327 45.0199C38.4651 44.9611 38.0853 44.8596 37.705 44.7187C37.4183 44.6142 37.0974 44.7263 36.9442 44.9888L36.4401 45.8478L35.7461 45.4469L36.2429 44.5914C36.396 44.3276 36.3354 43.9929 36.0995 43.7989C35.7945 43.548 35.5152 43.2689 35.2689 42.9696C35.074 42.7327 34.7359 42.6715 34.4683 42.8249L33.609 43.3214L33.2078 42.6313L34.0666 42.1398C34.3306 41.9883 34.4475 41.6701 34.3428 41.3851C34.1976 40.9898 34.0978 40.6191 34.0384 40.2518C33.9894 39.9496 33.7273 39.7273 33.4191 39.7273H32.4237V38.9239H33.4191C33.7271 38.9239 33.99 38.7013 34.0384 38.3985C34.0984 38.0272 34.2001 37.6474 34.3416 37.2698C34.4482 36.9843 34.3318 36.6636 34.0666 36.5116L33.2059 36.0188L33.609 35.3229L34.4682 35.8191Z" fill="white"/>
<path d="M39.7697 42.9788C41.7947 42.9788 43.4418 41.339 43.4418 39.3236C43.4418 37.3083 41.7947 35.6685 39.7697 35.6685C37.741 35.6685 36.0908 37.3082 36.0908 39.3236C36.0908 41.339 37.741 42.9788 39.7697 42.9788ZM39.7697 36.9161C41.1026 36.9161 42.1874 37.9961 42.1874 39.3238C42.1874 40.6514 41.1025 41.7314 39.7697 41.7314C38.4331 41.7314 37.3453 40.6514 37.3453 39.3238C37.3453 37.9961 38.4332 36.9161 39.7697 36.9161Z" fill="white"/>
<path d="M3.41144 52.4601H19.5064V58.6928H15.5966C15.2498 58.6928 14.9693 58.9721 14.9693 59.3166C14.9693 59.661 15.2498 59.9403 15.5966 59.9403H37.4072C37.7539 59.9403 38.0344 59.661 38.0344 59.3166C38.0344 58.9721 37.7539 58.6928 37.4072 58.6928H33.4998V52.4601H49.5948C51.4594 52.4601 52.976 50.9519 52.976 49.0982V19.0767C52.976 17.223 51.4594 15.7148 49.5948 15.7148H39.4828C38.5633 13.8491 36.6392 12.5582 34.4131 12.5582H16.6562C14.4301 12.5582 12.506 13.8491 11.5866 15.7148H3.41144C1.54378 15.7148 0.0241699 17.223 0.0241699 19.0767V49.0983C0.0240516 50.9519 1.54378 52.4601 3.41144 52.4601ZM32.2453 58.6915H20.7609V52.4601H32.2453V58.6915ZM16.6562 13.8058H34.413C36.8356 13.8058 38.8067 15.766 38.8067 18.1751C38.8067 20.5841 36.8355 22.5443 34.413 22.5443H16.6562C14.2336 22.5443 12.2626 20.5841 12.2626 18.1751C12.2626 15.766 14.2337 13.8058 16.6562 13.8058ZM16.6562 23.792H34.413C36.9173 23.792 39.0433 22.1613 39.7813 19.9127H48.7604V48.2686H4.24571V19.9127H11.2881C12.0259 22.1613 14.1521 23.792 16.6562 23.792ZM1.27854 19.0767C1.27854 17.9108 2.23538 16.9623 3.41144 16.9623H11.1444C11.0574 17.3534 11.0081 17.7585 11.0081 18.1752C11.0081 18.3406 11.0188 18.5033 11.033 18.6652H3.61847C3.27172 18.6652 2.99122 18.9445 2.99122 19.2889V48.8923C2.99122 49.2368 3.27172 49.5161 3.61847 49.5161H49.3878C49.7345 49.5161 50.015 49.2368 50.015 48.8923V19.2889C50.015 18.9445 49.7345 18.6652 49.3878 18.6652H40.0363C40.0505 18.5033 40.0613 18.3405 40.0613 18.1752C40.0613 17.7585 40.012 17.3534 39.925 16.9623H49.5948C50.7672 16.9623 51.7215 17.9108 51.7215 19.0767V49.0983C51.7215 50.2642 50.7672 51.2127 49.5948 51.2127H3.41144C2.23538 51.2127 1.27854 50.2642 1.27854 49.0983V19.0767Z" fill="white"/>
<path d="M10.6479 31.8393C10.8929 32.0829 11.2899 32.0828 11.5348 31.8393L12.9921 30.3905C13.2371 30.1472 13.2371 29.7521 12.9921 29.5085C12.7471 29.2648 12.3502 29.2648 12.1052 29.5085L11.0914 30.516L10.9879 30.4131C10.7429 30.1694 10.346 30.1698 10.101 30.4127C9.85598 30.6564 9.85598 31.0514 10.101 31.2951L10.6479 31.8393Z" fill="white"/>
<path d="M16.8725 29.788H28.8855C29.2323 29.788 29.5127 29.5087 29.5127 29.1642C29.5127 28.8198 29.2323 28.5405 28.8855 28.5405H16.8725C16.5257 28.5405 16.2452 28.8198 16.2452 29.1642C16.2452 29.5087 16.5259 29.788 16.8725 29.788Z" fill="white"/>
<path d="M16.8725 32.8072H24.5678C24.9145 32.8072 25.195 32.5279 25.195 32.1834C25.195 31.8389 24.9145 31.5596 24.5678 31.5596H16.8725C16.5257 31.5596 16.2452 31.8389 16.2452 32.1834C16.2452 32.5279 16.5259 32.8072 16.8725 32.8072Z" fill="white"/>
<path d="M16.7746 19.3411C17.0197 19.5842 17.4165 19.5844 17.6615 19.3407L19.1181 17.8919C19.3631 17.6482 19.3631 17.2532 19.1181 17.0099C18.8731 16.7662 18.4762 16.7662 18.2311 17.0099L17.218 18.0176L17.1139 17.9141C16.8689 17.6711 16.472 17.6708 16.227 17.9145C15.982 18.1581 15.982 18.5532 16.227 18.7968L16.7746 19.3411Z" fill="white"/>
<path d="M22.9985 17.2892H35.0115C35.3582 17.2892 35.6387 17.0099 35.6387 16.6654C35.6387 16.3209 35.3582 16.0416 35.0115 16.0416H22.9985C22.6517 16.0416 22.3712 16.3209 22.3712 16.6654C22.3712 17.0099 22.6517 17.2892 22.9985 17.2892Z" fill="white"/>
<path d="M22.9985 20.3086H30.6938C31.0405 20.3086 31.321 20.0293 31.321 19.6848C31.321 19.3403 31.0405 19.061 30.6938 19.061H22.9985C22.6517 19.061 22.3712 19.3403 22.3712 19.6848C22.3712 20.0293 22.6517 20.3086 22.9985 20.3086Z" fill="white"/>
<path d="M22.9005 6.84187C23.1455 7.08551 23.5424 7.08551 23.7874 6.84187L25.2447 5.39304C25.4897 5.14975 25.4897 4.75469 25.2447 4.51104C24.9997 4.2674 24.6027 4.2674 24.3577 4.51104L23.344 5.51881L23.2405 5.41587C22.9955 5.17222 22.5986 5.17222 22.3536 5.41587C22.1085 5.65951 22.1085 6.05422 22.3536 6.29787L22.9005 6.84187Z" fill="white"/>
<path d="M29.1244 4.79056H41.138C41.4848 4.79056 41.7653 4.51127 41.7653 4.16679C41.7653 3.82232 41.4848 3.54303 41.138 3.54303H29.1244C28.7777 3.54303 28.4972 3.82232 28.4972 4.16679C28.4972 4.51127 28.7777 4.79056 29.1244 4.79056Z" fill="white"/>
<path d="M29.1244 7.81009H36.8203C37.1671 7.81009 37.4476 7.5308 37.4476 7.18633C37.4476 6.84185 37.1671 6.56256 36.8203 6.56256H29.1244C28.7777 6.56256 28.4972 6.84185 28.4972 7.18633C28.4972 7.5308 28.7777 7.81009 29.1244 7.81009Z" fill="white"/>
<path d="M23.7972 9.55645C25.9496 9.55645 27.7003 7.81551 27.7003 5.67539C27.7003 3.53645 25.9496 1.79645 23.7972 1.79645C21.6466 1.79645 19.8972 3.53645 19.8972 5.67539C19.8971 7.81551 21.6466 9.55645 23.7972 9.55645ZM23.7972 3.04386C25.2576 3.04386 26.4458 4.22433 26.4458 5.67527C26.4458 7.12751 25.2574 8.30892 23.7972 8.30892C22.3382 8.30892 21.1517 7.12751 21.1517 5.67527C21.1516 4.22433 22.3381 3.04386 23.7972 3.04386Z" fill="white"/>
<path d="M11.5452 34.5539C13.6977 34.5539 15.4483 32.8127 15.4483 30.6725C15.4483 28.5338 13.6977 26.7938 11.5452 26.7938C9.3946 26.7938 7.64465 28.5338 7.64465 30.6725C7.64465 32.8127 9.3946 34.5539 11.5452 34.5539ZM11.5452 28.0413C13.0056 28.0413 14.1938 29.2215 14.1938 30.6725C14.1938 32.1249 13.0055 33.3064 11.5452 33.3064C10.0862 33.3064 8.89903 32.1249 8.89903 30.6725C8.89903 29.2215 10.0862 28.0413 11.5452 28.0413Z" fill="white"/>
<path d="M22.7822 11.2934H40.539C43.6531 11.2934 46.1871 8.77375 46.1871 5.67658C46.1871 2.5794 43.6531 0.0597534 40.539 0.0597534H22.7822C19.6681 0.0597534 17.134 2.5794 17.134 5.67658C17.134 8.77375 19.6681 11.2934 22.7822 11.2934ZM22.7822 1.30717H40.539C42.9616 1.30717 44.9327 3.2674 44.9327 5.67646C44.9327 8.08552 42.9616 10.0459 40.539 10.0459H22.7822C20.3596 10.0459 18.3885 8.08564 18.3885 5.67658C18.3885 3.26752 20.3597 1.30717 22.7822 1.30717Z" fill="white"/>
<path d="M17.6712 22.0553C19.8236 22.0553 21.5743 20.3141 21.5743 18.1739C21.5743 16.0352 19.8236 14.2952 17.6712 14.2952C15.5206 14.2952 13.7712 16.0352 13.7712 18.1739C13.7712 20.3141 15.5206 22.0553 17.6712 22.0553ZM17.6712 15.5427C19.1316 15.5427 20.3198 16.7229 20.3198 18.1739C20.3198 19.6263 19.1315 20.8078 17.6712 20.8078C16.2122 20.8078 15.0257 19.6263 15.0257 18.1739C15.0256 16.7229 16.2122 15.5427 17.6712 15.5427Z" fill="white"/>
<path d="M10.5296 36.2906H28.2864C31.4005 36.2906 33.9346 33.771 33.9346 30.674C33.9346 27.5768 31.4005 25.0572 28.2864 25.0572H10.5296C7.41553 25.0572 4.88147 27.5768 4.88147 30.674C4.88147 33.7708 7.41553 36.2906 10.5296 36.2906ZM10.5296 26.3047H28.2864C30.709 26.3047 32.6801 28.265 32.6801 30.674C32.6801 33.0832 30.7089 35.0431 28.2864 35.0431H10.5296C8.10702 35.0431 6.13596 33.0832 6.13596 30.674C6.13596 28.2648 8.10713 26.3047 10.5296 26.3047Z" fill="white"/>
</g>
<defs>
<clipPath id="clip0_107_5599">
<rect width="53" height="60" fill="white"/>
</clipPath>
</defs>
</svg>
