<svg width="92" height="46" viewBox="0 0 92 46" fill="none" xmlns="http://www.w3.org/2000/svg">
<path d="M20.4706 25.4157C21.9271 25.4157 23.1079 24.235 23.1079 22.7784C23.1079 21.3219 21.9271 20.1411 20.4706 20.1411C19.014 20.1411 17.8333 21.3219 17.8333 22.7784C17.8333 24.235 19.014 25.4157 20.4706 25.4157Z" fill="#00D8FF"/>
<path fill-rule="evenodd" clip-rule="evenodd" d="M20.4702 17.4165C24.0112 17.4165 27.3006 17.9246 29.7808 18.7784C32.7691 19.8073 34.6065 21.3666 34.6065 22.7787C34.6065 24.2501 32.6593 25.9068 29.4502 26.97C27.0241 27.7738 23.8315 28.1934 20.4702 28.1934C17.024 28.1934 13.7606 27.7996 11.3072 26.9612C8.20311 25.9002 6.3335 24.2221 6.3335 22.7787C6.3335 21.3781 8.08777 19.8307 11.0341 18.8035C13.5236 17.9356 16.8942 17.4165 20.4697 17.4165H20.4702Z" stroke="#00D8FF" stroke-width="2.80376"/>
<path fill-rule="evenodd" clip-rule="evenodd" d="M15.8033 20.113C17.5723 17.0457 19.6556 14.4499 21.6344 12.7279C24.0184 10.6532 26.2872 9.84066 27.5104 10.546C28.7851 11.2811 29.2474 13.7956 28.5653 17.1066C28.0501 19.6099 26.8182 22.5851 25.139 25.4968C23.4173 28.4822 21.4459 31.1124 19.4941 32.8184C17.0244 34.9774 14.6366 35.7587 13.3862 35.0376C12.1729 34.3384 11.7089 32.0453 12.291 28.9797C12.7828 26.3896 14.017 23.2104 15.8027 20.113L15.8033 20.113Z" stroke="#00D8FF" stroke-width="2.80376"/>
<path fill-rule="evenodd" clip-rule="evenodd" d="M15.8069 25.5048C14.0329 22.4409 12.8251 19.339 12.3209 16.7647C11.7141 13.6631 12.1431 11.2916 13.3652 10.5842C14.6387 9.847 17.048 10.7022 19.5759 12.9468C21.4871 14.6437 23.4497 17.1964 25.1338 20.1054C26.8604 23.0879 28.1545 26.1095 28.6579 28.6525C29.2949 31.8704 28.7793 34.3292 27.5301 35.0524C26.318 35.7541 24.0999 35.0112 21.7347 32.9758C19.7364 31.2563 17.5984 28.5992 15.8069 25.5048V25.5048Z" stroke="#00D8FF" stroke-width="2.80376"/>
<path fill-rule="evenodd" clip-rule="evenodd" d="M49.7453 29.5164L46.5128 24.6326C48.1465 24.4885 49.6186 23.3047 49.6186 21.1421C49.6186 18.9416 48.057 17.5332 45.8663 17.5332H41.0554V29.5072H42.5457V24.7495H44.9337L47.9856 29.5072L49.7453 29.5164ZM45.688 23.4481H42.5465V18.8702H45.688C47.1069 18.8702 48.0759 19.8036 48.0759 21.1505C48.0759 22.4973 47.1062 23.4497 45.688 23.4497V23.4481ZM55.293 29.7311C56.712 29.7311 57.8783 29.2644 58.7403 28.4032L58.0938 27.523C57.4108 28.2233 56.4062 28.6179 55.419 28.6179C53.5523 28.6179 52.4027 27.2536 52.2949 25.6206H59.3139V25.2791C59.3139 22.6764 57.7698 20.6292 55.1481 20.6292C52.6705 20.6292 50.876 22.6582 50.876 25.1714C50.876 27.8826 52.7252 29.7243 55.2922 29.7243L55.293 29.7311ZM57.9868 24.6319H52.2957C52.3678 23.304 53.2821 21.7408 55.1321 21.7408C57.1073 21.7408 57.9686 23.3389 57.9868 24.6319ZM68.2565 29.5156V23.5551C68.2565 21.4547 66.7313 20.6284 64.8995 20.6284C63.4806 20.6284 62.3682 21.0951 61.4348 22.0648L62.0631 22.9982C62.8348 22.1726 63.6794 21.7954 64.7205 21.7954C65.9771 21.7954 66.9112 22.4594 66.9112 23.6265V25.1881C66.2108 24.38 65.2236 24.0028 64.0383 24.0028C62.5662 24.0028 61.0031 24.9187 61.0031 26.8575C61.0031 28.7424 62.5647 29.7303 64.0383 29.7303C65.2053 29.7303 66.1933 29.3175 66.9112 28.5276V29.5141L68.2565 29.5156ZM64.5232 28.7613C63.2666 28.7613 62.3864 27.9722 62.3864 26.8764C62.3864 25.7633 63.2666 24.9733 64.5232 24.9733C65.4747 24.9733 66.3899 25.3323 66.9112 26.0509V27.6846C66.3906 28.4024 65.4747 28.7613 64.5232 28.7613ZM74.7671 29.7311C76.347 29.7311 77.2803 29.0846 77.945 28.2233L77.0474 27.3977C76.4729 28.1695 75.7369 28.5284 74.8468 28.5284C72.9976 28.5284 71.8495 27.092 71.8495 25.1714C71.8495 23.2508 72.9983 21.8326 74.8468 21.8326C75.7445 21.8326 76.4805 22.1741 77.0474 22.9633L77.945 22.1377C77.2811 21.2757 76.347 20.6299 74.7671 20.6299C72.1819 20.6299 70.4404 22.6051 70.4404 25.1722C70.4404 27.7574 72.1819 29.725 74.7671 29.725V29.7311ZM82.0214 29.7311C82.8105 29.7311 83.2962 29.4974 83.6376 29.1749L83.2431 28.1695C83.0632 28.3668 82.7119 28.5284 82.3272 28.5284C81.7353 28.5284 81.4469 28.0617 81.4469 27.4152V22.0292H83.2074V20.8447H81.4469V18.4749H80.1001V20.8447H78.6636V22.0299H80.1001V27.7036C80.1001 28.9966 80.7466 29.7326 82.0214 29.7326V29.7311Z" fill="#00D8FF"/>
</svg>
