<svg width="19" height="19" viewBox="0 0 19 19" fill="none" xmlns="http://www.w3.org/2000/svg">
<path fill-rule="evenodd" clip-rule="evenodd" d="M9.19992 2.7999C5.44294 2.7999 2.39731 5.84553 2.39731 9.60251C2.39731 13.3595 5.44294 16.4051 9.19992 16.4051C12.9569 16.4051 16.0025 13.3595 16.0025 9.60251C16.0025 5.84553 12.9569 2.7999 9.19992 2.7999ZM1.29419 9.60251C1.29419 5.23629 4.8337 1.69678 9.19992 1.69678C13.5661 1.69678 17.1056 5.23629 17.1056 9.60251C17.1056 13.9687 13.5661 17.5082 9.19992 17.5082C4.8337 17.5082 1.29419 13.9687 1.29419 9.60251ZM7.70678 7.00624C7.92218 6.79084 8.27141 6.79084 8.48681 7.00624L10.6931 9.21249C10.9085 9.42789 10.9085 9.77712 10.6931 9.99252L8.48681 12.1988C8.27141 12.4142 7.92218 12.4142 7.70678 12.1988C7.49138 11.9834 7.49138 11.6341 7.70678 11.4187L9.52302 9.60251L7.70678 7.78627C7.49138 7.57087 7.49138 7.22164 7.70678 7.00624Z" fill="#667085"/>
</svg>
