<svg width="34" height="29" viewBox="0 0 34 29" fill="none" xmlns="http://www.w3.org/2000/svg">
<g clip-path="url(#clip0_49_23287)">
<path d="M28.9828 18.5632H4.93828C2.21671 18.5632 0 16.3245 0 13.5758C0 10.9627 2.00371 8.80359 4.54385 8.61238C4.56752 7.13848 5.10394 5.78408 6.07425 4.77227C7.09977 3.68875 8.5355 3.07529 10.0265 3.07529C10.7206 3.07529 11.3754 3.20276 11.9986 3.44178C12.8111 1.40221 14.7596 0.0557861 16.9684 0.0557861C19.1773 0.0557861 21.1258 1.39425 21.9383 3.43381C22.5536 3.1948 23.232 3.06732 23.9104 3.06732C25.3935 3.06732 26.8371 3.68875 27.8626 4.7643C28.8251 5.78408 29.3694 7.13848 29.393 8.60441C31.9332 8.80359 33.9369 10.9627 33.9369 13.5838C33.9211 16.3245 31.7044 18.5632 28.9828 18.5632ZM10.0265 3.84809C8.74849 3.84809 7.50998 4.38189 6.63434 5.30606C5.72715 6.26211 5.26172 7.55277 5.32483 8.9709C5.33271 9.07447 5.29327 9.17804 5.22227 9.25771C5.15128 9.32941 5.04872 9.37722 4.94617 9.37722C2.65058 9.37722 0.780975 11.2654 0.780975 13.5838C0.780975 15.9022 2.65058 17.7904 4.94617 17.7904H28.9986C31.2942 17.7904 33.1638 15.9022 33.1638 13.5838C33.1638 11.2574 31.2942 9.36925 28.9986 9.36925C28.8961 9.36925 28.7935 9.32941 28.7225 9.24974C28.6515 9.17804 28.6121 9.0665 28.62 8.96293C28.6831 7.55276 28.2176 6.25414 27.3104 5.29809C26.4348 4.37392 25.1963 3.84013 23.9183 3.84013C23.2084 3.84013 22.5063 3.99947 21.9067 4.30222C21.8042 4.35002 21.6858 4.35799 21.5912 4.31018C21.4886 4.26238 21.4097 4.17474 21.3703 4.07117C20.755 2.14315 19.0037 0.836556 16.9842 0.836556C14.9647 0.836556 13.2135 2.14315 12.5981 4.07914C12.5666 4.18271 12.4877 4.27035 12.3773 4.31815C12.2747 4.36595 12.1564 4.35799 12.0617 4.31018C11.4227 4.00744 10.7443 3.84809 10.0265 3.84809Z" fill="white"/>
<path d="M17.6548 15.6632H16.2427C16.0534 15.6632 15.8877 15.5198 15.864 15.3286L15.7457 14.5C15.4381 14.4124 15.1462 14.2849 14.8701 14.1335L14.2074 14.6275C14.0576 14.739 13.8446 14.7311 13.7026 14.5876L12.7007 13.5758C12.5666 13.4404 12.5508 13.2253 12.6613 13.0659L13.1504 12.3967C13.0005 12.1179 12.8743 11.8151 12.7875 11.5124L11.9671 11.3929C11.7777 11.369 11.6357 11.2017 11.6357 11.0104V9.60028C11.6357 9.40907 11.7777 9.24177 11.9671 9.21786L12.7875 9.09836C12.8743 8.78764 13.0005 8.49287 13.1504 8.21402L12.6613 7.54479C12.5508 7.39341 12.5587 7.17034 12.7007 7.0349L13.7183 6.03902C13.8524 5.90358 14.0654 5.88764 14.2153 6.00715L14.878 6.50111C15.1541 6.34973 15.4538 6.22226 15.7536 6.13462L15.8719 5.30605C15.8956 5.11484 16.0613 4.97144 16.2506 4.97144H17.6627C17.852 4.97144 18.0176 5.11484 18.0413 5.30605L18.1596 6.13462C18.4673 6.22226 18.7592 6.34973 19.0353 6.50111L19.6979 6.00715C19.8478 5.89561 20.0608 5.90358 20.2028 6.04699L21.1968 7.05083C21.3309 7.18627 21.3466 7.40138 21.2362 7.56072L20.7471 8.22995C20.897 8.5088 21.0232 8.81155 21.11 9.11429L21.9304 9.2338C22.1197 9.2577 22.2617 9.42501 22.2617 9.61622V11.0423C22.2617 11.2335 22.1197 11.4088 21.9304 11.4247L21.0942 11.5363C21.0074 11.847 20.8812 12.1418 20.7313 12.4206L21.2204 13.0898C21.3309 13.2412 21.323 13.4563 21.181 13.5997L20.1949 14.6115C20.0608 14.747 19.8478 14.7629 19.69 14.6514L19.0274 14.1574C18.7513 14.3088 18.4515 14.4363 18.1518 14.5239L18.0334 15.3525C18.0098 15.5198 17.8441 15.6632 17.6548 15.6632ZM16.574 14.8824H17.3156L17.4181 14.1335C17.4418 13.9742 17.5601 13.8467 17.7179 13.8148C18.1202 13.7272 18.4989 13.5679 18.8381 13.3448C18.9722 13.2572 19.1457 13.2651 19.2798 13.3607L19.8873 13.8148L20.4158 13.2811L19.9661 12.6676C19.8715 12.5401 19.8636 12.3648 19.9504 12.2214C20.1712 11.8709 20.329 11.4885 20.4158 11.0901C20.4473 10.9308 20.5814 10.8113 20.7392 10.7874L21.4965 10.6838V9.9349L20.755 9.83133C20.5972 9.80742 20.471 9.68792 20.4395 9.52858C20.3527 9.12226 20.1949 8.73984 19.974 8.39726C19.8873 8.26182 19.8951 8.08655 19.9898 7.95111L20.4395 7.33765L19.9109 6.80385L19.3035 7.25001C19.1773 7.34561 19.0037 7.35358 18.8617 7.26594C18.5146 7.04286 18.136 6.88352 17.7415 6.79589C17.5917 6.76402 17.4654 6.63655 17.4418 6.47721L17.3392 5.7283H16.5977L16.4951 6.47721C16.4715 6.63655 16.3531 6.76402 16.1954 6.79589C15.7931 6.88352 15.4144 7.04286 15.0752 7.26594C14.9411 7.35358 14.7675 7.34561 14.6334 7.25001L14.026 6.79589L13.4896 7.32968L13.9313 7.93517C14.026 8.06265 14.0339 8.23792 13.9471 8.38133C13.7262 8.73188 13.5685 9.11429 13.4817 9.51264C13.4501 9.66402 13.3239 9.79149 13.1661 9.81539L12.4246 9.91896V10.6679L13.1661 10.7714C13.3239 10.7953 13.4501 10.9148 13.4817 11.0742C13.5685 11.4805 13.7262 11.8629 13.9471 12.2055C14.0339 12.3409 14.026 12.5162 13.9313 12.6517L13.4817 13.2651L14.0102 13.7989L14.6176 13.3448C14.7439 13.2492 14.9174 13.2412 15.0594 13.3289C15.4065 13.5519 15.7852 13.7113 16.1796 13.7989C16.3295 13.8308 16.4557 13.9582 16.4794 14.1176L16.574 14.8824Z" fill="white"/>
<path d="M16.9604 12.6039C15.7061 12.6039 14.6885 11.5762 14.6885 10.3094C14.6885 9.04264 15.7061 8.01489 16.9604 8.01489C18.2147 8.01489 19.2323 9.04264 19.2323 10.3094C19.2323 11.5762 18.2147 12.6039 16.9604 12.6039ZM16.9604 8.8116C16.1321 8.8116 15.4616 9.48879 15.4616 10.3253C15.4616 11.1619 16.1321 11.8391 16.9604 11.8391C17.7887 11.8391 18.4592 11.1619 18.4592 10.3253C18.4592 9.48879 17.7887 8.8116 16.9604 8.8116Z" fill="white"/>
<path d="M16.9608 26.6737C16.7478 26.6737 16.5742 26.4984 16.5742 26.2833V18.1729C16.5742 17.9577 16.7478 17.7825 16.9608 17.7825C17.1738 17.7825 17.3473 17.9577 17.3473 18.1729V26.2833C17.3473 26.4984 17.1738 26.6737 16.9608 26.6737Z" fill="white"/>
<path d="M16.9603 28.9442C16.132 28.9442 15.4536 28.259 15.4536 27.4225C15.4536 26.586 16.132 25.8928 16.9603 25.8928C17.7886 25.8928 18.4671 26.578 18.4671 27.4145C18.4671 28.2511 17.7886 28.9442 16.9603 28.9442ZM16.9603 26.6736C16.558 26.6736 16.2188 27.0082 16.2188 27.4225C16.2188 27.8288 16.5501 28.1714 16.9603 28.1714C17.3627 28.1714 17.7019 27.8368 17.7019 27.4225C17.7019 27.0002 17.3627 26.6736 16.9603 26.6736Z" fill="white"/>
<path d="M3.10829 24.5385C2.27998 24.5385 1.60156 23.8534 1.60156 23.0168C1.60156 22.1803 2.27998 21.4951 3.10829 21.4951C3.9366 21.4951 4.61502 22.1803 4.61502 23.0168C4.61502 23.8534 3.9366 24.5385 3.10829 24.5385ZM3.10829 22.2679C2.70597 22.2679 2.36676 22.6025 2.36676 23.0168C2.36676 23.4311 2.69808 23.7657 3.10829 23.7657C3.51061 23.7657 3.84982 23.4311 3.84982 23.0168C3.84193 22.5946 3.5185 22.2679 3.10829 22.2679Z" fill="white"/>
<path d="M6.1454 27.805C5.31709 27.805 4.63867 27.1198 4.63867 26.2833C4.63867 25.4468 5.31709 24.7616 6.1454 24.7616C6.97371 24.7616 7.65213 25.4468 7.65213 26.2833C7.65213 27.1198 6.97371 27.805 6.1454 27.805ZM6.1454 25.5264C5.74308 25.5264 5.40387 25.861 5.40387 26.2753C5.40387 26.6817 5.73519 27.0242 6.1454 27.0242C6.55561 27.0242 6.88693 26.6896 6.88693 26.2753C6.88693 25.869 6.54772 25.5264 6.1454 25.5264Z" fill="white"/>
<path d="M12.6454 26.6737H7.27326C7.06027 26.6737 6.88672 26.4984 6.88672 26.2833C6.88672 26.0682 7.06027 25.8929 7.27326 25.8929H12.6454C12.7953 25.8929 12.9215 25.7734 12.9215 25.6141V18.1729C12.9215 17.9577 13.0951 17.7825 13.3081 17.7825C13.5211 17.7825 13.6946 17.9577 13.6946 18.1729V25.6141C13.6788 26.1957 13.2134 26.6737 12.6454 26.6737Z" fill="white"/>
<path d="M9.89238 23.3992H4.22834C4.01535 23.3992 3.8418 23.224 3.8418 23.0088C3.8418 22.7937 4.01535 22.6185 4.22834 22.6185H9.6715V18.1729C9.6715 17.9577 9.84505 17.7825 10.058 17.7825C10.271 17.7825 10.4446 17.9577 10.4446 18.1729V22.8336C10.4525 23.1443 10.2 23.3992 9.89238 23.3992Z" fill="white"/>
<path d="M30.8129 24.5385C29.9846 24.5385 29.3062 23.8534 29.3062 23.0168C29.3062 22.1803 29.9846 21.4951 30.8129 21.4951C31.6412 21.4951 32.3196 22.1803 32.3196 23.0168C32.3275 23.8534 31.6491 24.5385 30.8129 24.5385ZM30.8129 22.2679C30.4106 22.2679 30.0714 22.6025 30.0714 23.0168C30.0714 23.4311 30.4027 23.7657 30.8129 23.7657C31.2152 23.7657 31.5544 23.4311 31.5544 23.0168C31.5544 22.5946 31.2231 22.2679 30.8129 22.2679Z" fill="white"/>
<path d="M27.7758 27.805C26.9475 27.805 26.269 27.1198 26.269 26.2833C26.269 25.4468 26.9475 24.7616 27.7758 24.7616C28.6041 24.7616 29.2825 25.4468 29.2825 26.2833C29.2825 27.1198 28.6041 27.805 27.7758 27.805ZM27.7758 25.5264C27.3735 25.5264 27.0342 25.861 27.0342 26.2753C27.0342 26.6817 27.3656 27.0242 27.7758 27.0242C28.1781 27.0242 28.5173 26.6896 28.5173 26.2753C28.5173 25.869 28.1781 25.5264 27.7758 25.5264Z" fill="white"/>
<path d="M26.6478 26.6737H21.2757C20.6998 26.6737 20.2344 26.2036 20.2344 25.622V18.1729C20.2344 17.9577 20.4079 17.7825 20.6209 17.7825C20.8339 17.7825 21.0075 17.9577 21.0075 18.1729V25.6141C21.0075 25.7654 21.1258 25.8929 21.2836 25.8929H26.6557C26.8687 25.8929 27.0423 26.0682 27.0423 26.2833C27.0344 26.4984 26.8608 26.6737 26.6478 26.6737Z" fill="white"/>
<path d="M29.6928 23.3992H24.0288C23.7211 23.3992 23.4766 23.1522 23.4766 22.8415V18.1808C23.4766 17.9657 23.6501 17.7904 23.8631 17.7904C24.0761 17.7904 24.2496 17.9657 24.2496 18.1808V22.6264H29.6928C29.9058 22.6264 30.0793 22.8017 30.0793 23.0168C30.0793 23.2239 29.9058 23.3992 29.6928 23.3992Z" fill="white"/>
</g>
<defs>
<clipPath id="clip0_49_23287">
<rect width="34" height="29" fill="white"/>
</clipPath>
</defs>
</svg>
