<svg width="19" height="18" viewBox="0 0 19 18" fill="none" xmlns="http://www.w3.org/2000/svg">
<g clip-path="url(#clip0_65_3315)">
<path d="M17.7805 16.3341L13.6515 12.0398C14.7135 10.7798 15.2956 9.18479 15.2948 7.53694C15.2948 3.6748 12.1526 0.532593 8.29048 0.532593C4.42834 0.532593 1.28613 3.6748 1.28613 7.53694C1.28613 11.3991 4.42834 14.5413 8.29048 14.5413C9.74038 14.5413 11.1221 14.104 12.3034 13.2738L16.4636 17.6007C16.6375 17.7813 16.8714 17.8808 17.122 17.8808C17.3593 17.8808 17.5843 17.7904 17.7552 17.6259C17.9296 17.4578 18.0301 17.2274 18.0349 16.9852C18.0396 16.7431 17.9481 16.5089 17.7805 16.3341ZM8.29048 2.35981C11.1452 2.35981 13.4676 4.68221 13.4676 7.53694C13.4676 10.3917 11.1452 12.7141 8.29048 12.7141C5.43575 12.7141 3.11335 10.3917 3.11335 7.53694C3.11335 4.68221 5.43575 2.35981 8.29048 2.35981Z" fill="#0045E6"/>
</g>
<defs>
<clipPath id="clip0_65_3315">
<rect x="0.987305" y="0.532593" width="17.3482" height="17.3482" fill="white"/>
</clipPath>
</defs>
</svg>
