<svg width="18" height="18" viewBox="0 0 18 18" fill="none" xmlns="http://www.w3.org/2000/svg">
<path d="M15.5626 2.43719C15.0826 1.95719 14.403 1.76894 13.7438 1.93319L3.909 4.39168C2.49375 4.74568 1.86757 5.96445 1.87507 7.01595C1.88257 8.0667 2.52531 9.27719 3.94581 9.61094L7.54273 10.4569L8.38959 14.054C8.72259 15.4737 9.93308 16.1164 10.9838 16.1239C10.9906 16.1239 10.9965 16.1239 11.0018 16.1239C12.0488 16.1239 13.2563 15.4969 13.6081 14.0899L16.0667 4.2552C16.2317 3.5967 16.0426 2.91719 15.5626 2.43719ZM15.3383 4.0737L12.8799 13.9085C12.6084 14.9982 11.6731 15.3844 10.9891 15.3747C10.2864 15.3694 9.37579 14.9764 9.11854 13.8829L8.26728 10.2634L11.5156 7.01519C11.6618 6.86894 11.6618 6.63119 11.5156 6.48494C11.3693 6.33869 11.1315 6.33869 10.9853 6.48494L7.73774 9.73319L4.11756 8.8812C3.02406 8.62395 2.63105 7.71268 2.6258 7.01068C2.62055 6.30868 3.00163 5.39219 4.09138 5.11994L13.9262 2.66145C14.0222 2.63745 14.118 2.6262 14.2133 2.6262C14.517 2.6262 14.8103 2.74545 15.033 2.9682C15.3248 3.2592 15.4388 3.6732 15.3383 4.0737Z" fill="white"/>
</svg>
