<svg width="44" height="46" viewBox="0 0 44 46" fill="none" xmlns="http://www.w3.org/2000/svg">
<g clip-path="url(#clip0_177_379)">
<path d="M22.385 4.60023H17.7534C17.3273 4.60023 16.9814 4.25676 16.9814 3.83356C16.9814 3.41036 17.3273 3.06689 17.7534 3.06689H22.385C22.8111 3.06689 23.1569 3.41036 23.1569 3.83356C23.1569 4.25676 22.8111 4.60023 22.385 4.60023Z" fill="#0045E6"/>
<path d="M28.5601 45.9996H11.5777C9.44868 45.9996 7.71802 44.2792 7.71802 42.1662V31.4329C7.71802 31.0097 8.06384 30.6662 8.48995 30.6662C8.91605 30.6662 9.26188 31.0097 9.26188 31.4329V42.1662C9.26188 43.4343 10.3009 44.4662 11.5777 44.4662H28.5601C29.8369 44.4662 30.8759 43.4343 30.8759 42.1662V16.0996C30.8759 15.6764 31.2217 15.3329 31.6478 15.3329C32.0739 15.3329 32.4198 15.6764 32.4198 16.0996V42.1662C32.4198 44.2792 30.6891 45.9996 28.5601 45.9996Z" fill="#0045E6"/>
<path d="M31.6478 6.13333C31.2217 6.13333 30.8759 5.78987 30.8759 5.36667V3.83333C30.8759 2.56527 29.8369 1.53333 28.5601 1.53333H11.5777C10.3009 1.53333 9.26188 2.56527 9.26188 3.83333V5.36667C9.26188 5.78987 8.91605 6.13333 8.48995 6.13333C8.06384 6.13333 7.71802 5.78987 7.71802 5.36667V3.83333C7.71802 1.7204 9.44868 0 11.5777 0H28.5601C30.6891 0 32.4198 1.7204 32.4198 3.83333V5.36667C32.4198 5.78987 32.0739 6.13333 31.6478 6.13333Z" fill="#0045E6"/>
<path d="M19.2989 36.8004H13.1235C12.6974 36.8004 12.3516 36.457 12.3516 36.0338C12.3516 35.6106 12.6974 35.2671 13.1235 35.2671H19.2989C19.725 35.2671 20.0709 35.6106 20.0709 36.0338C20.0709 36.457 19.725 36.8004 19.2989 36.8004Z" fill="#0045E6"/>
<path d="M23.9305 39.8674H13.1235C12.6974 39.8674 12.3516 39.524 12.3516 39.1008C12.3516 38.6776 12.6974 38.3341 13.1235 38.3341H23.9305C24.3566 38.3341 24.7024 38.6776 24.7024 39.1008C24.7024 39.524 24.3566 39.8674 23.9305 39.8674Z" fill="#0045E6"/>
<path d="M27.0182 33.7335H13.1235C12.6974 33.7335 12.3516 33.3901 12.3516 32.9669C12.3516 32.5437 12.6974 32.2002 13.1235 32.2002H27.0182C27.4443 32.2002 27.7902 32.5437 27.7902 32.9669C27.7902 33.3901 27.4443 33.7335 27.0182 33.7335Z" fill="#0045E6"/>
<path d="M10.8081 19.9327C8.67915 19.9327 6.94849 18.2123 6.94849 16.0993C6.94849 13.9864 8.67915 12.266 10.8081 12.266C12.9371 12.266 14.6678 13.9864 14.6678 16.0993C14.6678 18.2123 12.9371 19.9327 10.8081 19.9327ZM10.8081 13.7993C9.53136 13.7993 8.49235 14.8313 8.49235 16.0993C8.49235 17.3674 9.53136 18.3993 10.8081 18.3993C12.0849 18.3993 13.1239 17.3674 13.1239 16.0993C13.1239 14.8313 12.0849 13.7993 10.8081 13.7993Z" fill="#0045E6"/>
<path d="M10.8055 29.1335C8.09758 29.1335 5.49927 28.1184 3.48916 26.2784C3.28229 26.0883 3.19583 25.8015 3.26376 25.5317C3.8566 23.1381 6.00565 21.4668 8.48972 21.4668H13.1213C15.6054 21.4668 17.7544 23.1381 18.3488 25.5301C18.4167 25.8015 18.3287 26.0883 18.1234 26.2769C16.1118 28.1184 13.5134 29.1335 10.8055 29.1335ZM4.89716 25.4642C8.23499 28.2257 13.376 28.2257 16.7139 25.4642C16.1581 23.9937 14.7393 23.0001 13.1213 23.0001H8.48972C6.87176 23.0001 5.45295 23.9937 4.89716 25.4642Z" fill="#0045E6"/>
<path d="M10.807 29.1333C4.84926 29.1333 0 24.3186 0 18.4C0 12.4813 4.84926 7.66663 10.807 7.66663C16.7648 7.66663 21.614 12.4813 21.614 18.4C21.614 24.3186 16.7648 29.1333 10.807 29.1333ZM10.807 9.19996C5.69839 9.19996 1.54386 13.3262 1.54386 18.4C1.54386 23.4738 5.69839 27.6 10.807 27.6C15.9156 27.6 20.0702 23.4738 20.0702 18.4C20.0702 13.3262 15.9156 9.19996 10.807 9.19996Z" fill="#0045E6"/>
<path d="M3.85958 33.6566C3.43347 33.6566 3.08765 33.3898 3.08765 32.9666V32.8133C3.08765 32.3901 3.43347 32.0466 3.85958 32.0466C4.28568 32.0466 4.63151 32.3901 4.63151 32.8133C4.63151 33.2365 4.28568 33.6566 3.85958 33.6566Z" fill="#0045E6"/>
<path d="M3.85958 36.7233C3.43347 36.7233 3.08765 36.4565 3.08765 36.0333V35.8799C3.08765 35.4567 3.43347 35.1133 3.85958 35.1133C4.28568 35.1133 4.63151 35.4567 4.63151 35.8799C4.63151 36.3031 4.28568 36.7233 3.85958 36.7233Z" fill="#0045E6"/>
<path d="M3.85958 39.7905C3.43347 39.7905 3.08765 39.5237 3.08765 39.1005V38.9472C3.08765 38.524 3.43347 38.1805 3.85958 38.1805C4.28568 38.1805 4.63151 38.524 4.63151 38.9472C4.63151 39.3704 4.28568 39.7905 3.85958 39.7905Z" fill="#0045E6"/>
<path d="M34.4899 39.8667H33.1931C32.767 39.8667 32.4211 39.5232 32.4211 39.1C32.4211 38.6768 32.767 38.3334 33.1931 38.3334H33.8677L34.246 36.593C34.3077 36.3048 34.5316 36.0794 34.8188 36.0104C35.5475 35.8356 36.2576 35.5412 36.9292 35.1348C37.1778 34.9815 37.4974 34.9861 37.7459 35.1425L39.2743 36.1131L40.2207 35.1655L39.2435 33.6598C39.0829 33.4129 39.0798 33.0955 39.2327 32.8456C39.6418 32.1786 39.9382 31.4732 40.1127 30.7495C40.1821 30.4643 40.4075 30.2435 40.6962 30.1791L42.4547 29.7912V28.4771L40.6962 28.0892C40.4075 28.0248 40.1821 27.804 40.1127 27.5188C39.9382 26.795 39.6402 26.0897 39.2327 25.4227C39.0783 25.1728 39.0814 24.8569 39.2419 24.61L40.2207 23.0905L39.2759 22.1521L37.7459 23.1242C37.4989 23.2822 37.1793 23.2852 36.9292 23.1319C36.2561 22.7256 35.5459 22.4312 34.8188 22.2564C34.5301 22.1874 34.3077 21.9604 34.246 21.6737L33.8677 19.9334H33.1931C32.767 19.9334 32.4211 19.5899 32.4211 19.1667C32.4211 18.7435 32.767 18.4 33.1931 18.4H34.4899C34.8527 18.4 35.1677 18.653 35.2433 19.0057L35.6555 20.8963C36.2206 21.0665 36.7748 21.2965 37.309 21.5832L38.9671 20.5298C39.2728 20.3382 39.6727 20.378 39.9289 20.6341L41.7522 22.4434C42.0085 22.698 42.0517 23.0951 41.8557 23.3987L40.795 25.0455C41.0837 25.5776 41.3153 26.128 41.4867 26.6908L43.3934 27.1109C43.7469 27.1891 43.9985 27.5004 43.9985 27.8592V30.4045C43.9985 30.7633 43.7469 31.0761 43.3934 31.1528L41.4867 31.5729C41.3153 32.1356 41.0837 32.6861 40.795 33.2166L41.8541 34.8481C42.0517 35.1502 42.0101 35.5488 41.7538 35.8034L39.9305 37.628C39.6742 37.8841 39.2743 37.9286 38.9671 37.7338L37.309 36.6804C36.7733 36.9672 36.2206 37.1972 35.6555 37.3674L35.2433 39.258C35.1677 39.6137 34.8527 39.8667 34.4899 39.8667Z" fill="#0045E6"/>
<path d="M34.8187 33.3776C34.5285 33.3776 34.2506 33.2135 34.1193 32.9345C33.9403 32.5511 34.107 32.0942 34.493 31.9163C35.5783 31.4134 36.2807 30.3217 36.2807 29.1333C36.2807 27.4421 34.8959 26.0667 33.193 26.0667C32.7746 26.0667 32.3717 26.1479 31.9934 26.3074C31.6028 26.4745 31.149 26.2921 30.9822 25.9011C30.8155 25.5116 30.9992 25.0623 31.3913 24.8967C31.9595 24.656 32.5678 24.5333 33.193 24.5333C35.7466 24.5333 37.8246 26.5972 37.8246 29.1333C37.8246 30.9166 36.7717 32.5542 35.1445 33.3055C35.0379 33.3546 34.9283 33.3776 34.8187 33.3776Z" fill="#0045E6"/>
<path d="M37.0538 13.7998H27.7906C26.0877 13.7998 24.7029 12.4244 24.7029 10.7332C24.7029 9.0419 26.0877 7.6665 27.7906 7.6665H37.0538C38.7566 7.6665 40.1415 9.0419 40.1415 10.7332C40.1415 12.4244 38.7566 13.7998 37.0538 13.7998ZM27.7906 9.19984C26.9384 9.19984 26.2467 9.8883 26.2467 10.7332C26.2467 11.578 26.9384 12.2665 27.7906 12.2665H37.0538C37.906 12.2665 38.5976 11.578 38.5976 10.7332C38.5976 9.8883 37.906 9.19984 37.0538 9.19984H27.7906Z" fill="#0045E6"/>
</g>
<defs>
<clipPath id="clip0_177_379">
<rect width="44" height="46" fill="white"/>
</clipPath>
</defs>
</svg>
