<svg width="46" height="46" viewBox="0 0 46 46" fill="none" xmlns="http://www.w3.org/2000/svg">
<g clip-path="url(#clip0_177_732)">
<path d="M18.8518 14.311H21.4242C21.7963 14.311 22.098 14.0093 22.098 13.6372C22.098 13.2651 21.7963 12.9634 21.4242 12.9634H18.8518C18.4797 12.9634 18.178 13.2651 18.178 13.6372C18.178 14.0093 18.4797 14.311 18.8518 14.311Z" fill="#0045E6"/>
<path d="M33.7057 28.9941H40.1054C43.3557 28.9941 46 26.3498 46 23.0994C46 19.8491 43.3557 17.2048 40.1054 17.2048C39.862 17.2048 39.6082 17.2215 39.351 17.2544C38.9818 17.3015 38.7209 17.6391 38.7681 18.0082C38.8154 18.3774 39.1524 18.6378 39.522 18.5911C39.7255 18.5651 39.9165 18.5524 40.1055 18.5524C42.6128 18.5524 44.6525 20.5922 44.6525 23.0994C44.6525 25.6066 42.6128 27.6464 40.1055 27.6464H5.89612C3.38884 27.6464 1.34909 25.6067 1.34909 23.0994C1.3216 20.4921 3.69915 18.2637 6.38395 18.579C7.93542 18.7487 9.32256 19.7181 10.0029 21.1447C10.1632 21.4807 10.5652 21.6232 10.9012 21.4629C11.2371 21.3027 11.3795 20.9006 11.2193 20.5646C10.4396 18.9297 8.94352 17.759 7.21741 17.3575C7.07834 16.6748 7.007 15.977 7.007 15.2771C7.007 9.55823 11.6598 4.90546 17.3787 4.90546C21.1583 4.85964 24.9201 7.1389 26.6231 10.5725H16.9089C16.0598 10.5725 15.369 11.2633 15.369 12.1124V15.1622C15.369 15.4832 15.468 15.7812 15.6367 16.0282C15.468 16.2752 15.369 16.5734 15.369 16.8943V19.944C15.369 20.2649 15.468 20.5631 15.6367 20.8101C15.468 21.0571 15.369 21.3552 15.369 21.6762V24.7259C15.369 25.575 16.0598 26.2658 16.9089 26.2658H29.0926C29.9417 26.2658 30.6325 25.575 30.6325 24.7259V21.6762C30.6325 21.3552 30.5335 21.0571 30.3648 20.8101C30.5335 20.5631 30.6325 20.265 30.6325 19.944V16.8943C30.6325 16.5733 30.5335 16.2752 30.3648 16.0282C30.5335 15.7812 30.6325 15.4831 30.6325 15.1622V12.1124C30.6325 11.5371 30.3147 11.0351 29.846 10.7708C30.5977 10.4785 31.4016 10.3267 32.2332 10.3267C35.1429 10.3267 37.6765 12.1921 38.5374 14.9685C38.6476 15.324 39.025 15.5225 39.3806 15.4125C39.736 15.3023 39.9347 14.9248 39.8246 14.5694C39.3328 12.9837 38.3265 11.5598 36.9908 10.5602C34.4755 8.61903 30.6828 8.44618 27.9576 10.2288C26.1181 6.26879 21.8278 3.50295 17.3787 3.55793C10.9166 3.55793 5.65939 8.81525 5.65939 15.2772C5.65939 15.9239 5.71257 16.5694 5.81805 17.2053C2.78583 17.1993 -0.074351 19.8701 0.00147472 23.0994C0.00147472 26.3498 2.64576 28.9941 5.89612 28.9941H11.5418V34.668H8.28804C8.01044 33.8911 7.26745 33.3335 6.39635 33.3335C5.28897 33.3335 4.38805 34.2344 4.38805 35.3418C4.38805 36.4492 5.28897 37.3501 6.39635 37.3501C7.26745 37.3501 8.01044 36.7924 8.28804 36.0156H12.2156C12.5877 36.0156 12.8894 35.7139 12.8894 35.3418V28.9941H15.7418V31.5782C15.7418 31.9504 16.0435 32.2521 16.4156 32.2521C16.7877 32.2521 17.0894 31.9504 17.0894 31.5782V28.9941H19.9418V38.5431C19.1649 38.8207 18.6073 39.5637 18.6073 40.4348C18.6073 41.5421 19.5082 42.4431 20.6156 42.4431C21.7229 42.4431 22.6239 41.5421 22.6239 40.4348C22.6239 39.5637 22.0662 38.8206 21.2894 38.5431V28.9941H23.9583V33.4501C23.1814 33.7276 22.6238 34.4707 22.6238 35.3418C22.6238 36.4492 23.5247 37.3501 24.6321 37.3501C25.7395 37.3501 26.6404 36.4492 26.6404 35.3418C26.6404 34.4707 26.0828 33.7277 25.3059 33.4501V28.9941H28.1583V38.5431C27.3814 38.8207 26.8238 39.5637 26.8238 40.4348C26.8238 41.5421 27.7247 42.4431 28.8321 42.4431C29.9394 42.4431 30.8404 41.5421 30.8404 40.4348C30.8404 39.5637 30.2827 38.8206 29.5059 38.5431V28.9941H32.3582V35.3418C32.3582 35.7139 32.6599 36.0156 33.032 36.0156H36.9596C37.2372 36.7925 37.9802 37.3501 38.8513 37.3501C39.9587 37.3501 40.8596 36.4492 40.8596 35.3418C40.8596 34.2344 39.9587 33.3335 38.8513 33.3335C37.9802 33.3335 37.2371 33.8911 36.9596 34.668H33.7057V28.9941ZM16.7167 12.1124C16.7167 12.0064 16.8029 11.9201 16.9089 11.9201H29.0926C29.1986 11.9201 29.2849 12.0064 29.2849 12.1124V15.1622C29.2849 15.2682 29.1986 15.3544 29.0926 15.3544H16.9089C16.8029 15.3544 16.7167 15.2682 16.7167 15.1622V12.1124ZM29.285 16.8943V19.944C29.285 20.05 29.1987 20.1363 29.0927 20.1363H16.9089C16.8029 20.1363 16.7167 20.05 16.7167 19.944V16.8943C16.7167 16.7883 16.8029 16.702 16.9089 16.702H29.0926C29.1987 16.702 29.285 16.7883 29.285 16.8943ZM29.285 24.7259C29.285 24.8319 29.1987 24.9182 29.0927 24.9182H16.9089C16.8029 24.9182 16.7167 24.8319 16.7167 24.7259V21.6762C16.7167 21.5701 16.8029 21.4839 16.9089 21.4839H29.0926C29.1986 21.4839 29.2849 21.5701 29.2849 21.6762L29.285 24.7259ZM6.39644 36.0025C6.03214 36.0025 5.73575 35.7061 5.73575 35.3418C5.73575 34.9775 6.03214 34.6811 6.39644 34.6811C6.76075 34.6811 7.05713 34.9775 7.05713 35.3418C7.05713 35.7061 6.76075 36.0025 6.39644 36.0025ZM20.6155 41.0955C20.2512 41.0955 19.9548 40.7991 19.9548 40.4348C19.9548 40.0705 20.2512 39.7741 20.6155 39.7741C20.9798 39.7741 21.2762 40.0705 21.2762 40.4348C21.2762 40.7991 20.9798 41.0955 20.6155 41.0955ZM24.632 36.0025C24.2677 36.0025 23.9713 35.7061 23.9713 35.3418C23.9713 34.9775 24.2677 34.6811 24.632 34.6811C24.9963 34.6811 25.2927 34.9775 25.2927 35.3418C25.2927 35.7061 24.9963 36.0025 24.632 36.0025ZM28.832 41.0955C28.4677 41.0955 28.1713 40.7991 28.1713 40.4348C28.1713 40.0705 28.4677 39.7741 28.832 39.7741C29.1963 39.7741 29.4927 40.0705 29.4927 40.4348C29.4927 40.7991 29.1963 41.0955 28.832 41.0955ZM38.8511 34.681C39.2154 34.681 39.5118 34.9774 39.5118 35.3417C39.5118 35.706 39.2154 36.0024 38.8511 36.0024C38.4868 36.0024 38.1904 35.706 38.1904 35.3417C38.1904 34.9774 38.4868 34.681 38.8511 34.681Z" fill="#0045E6"/>
<path d="M16.4157 34.0586C16.0436 34.0586 15.7419 34.3603 15.7419 34.7324V39.761H13.1996C12.9219 38.984 12.179 38.4265 11.3079 38.4265C10.2005 38.4265 9.29956 39.3274 9.29956 40.4348C9.29956 41.5422 10.2005 42.4431 11.3079 42.4431C12.179 42.4431 12.922 41.8854 13.1996 41.1086H16.4156C16.7877 41.1086 17.0894 40.8069 17.0894 40.4348V34.7324C17.0895 34.3603 16.7878 34.0586 16.4157 34.0586ZM11.3079 41.0955C10.9436 41.0955 10.6472 40.7991 10.6472 40.4348C10.6472 40.0705 10.9436 39.7741 11.3079 39.7741C11.6722 39.7741 11.9686 40.0705 11.9686 40.4348C11.9686 40.7991 11.6722 41.0955 11.3079 41.0955Z" fill="#0045E6"/>
<path d="M18.8518 19.0932C19.2239 19.0932 19.5256 18.7915 19.5256 18.4194C19.5256 18.0473 19.2239 17.7456 18.8518 17.7456C18.4797 17.7456 18.178 18.0473 18.178 18.4194C18.178 18.7915 18.4797 19.0932 18.8518 19.0932Z" fill="#0045E6"/>
<path d="M18.8518 23.8747C19.2239 23.8747 19.5256 23.573 19.5256 23.2009C19.5256 22.8288 19.2239 22.5271 18.8518 22.5271C18.4797 22.5271 18.178 22.8288 18.178 23.2009C18.178 23.573 18.4797 23.8747 18.8518 23.8747Z" fill="#0045E6"/>
</g>
<defs>
<clipPath id="clip0_177_732">
<rect width="46" height="46" fill="white"/>
</clipPath>
</defs>
</svg>
