<svg width="47" height="47" viewBox="0 0 47 47" fill="none" xmlns="http://www.w3.org/2000/svg">
<g clip-path="url(#clip0_177_547)">
<path d="M31.2979 21.739C31.4256 22.3094 31.49 22.8974 31.49 23.4873C31.49 27.8928 27.9055 31.4773 23.5 31.4773C21.9632 31.4773 20.4752 31.0356 19.1988 30.2194L19.5148 31.2482C19.6093 31.5573 19.4367 31.8839 19.1276 31.9795C19.0701 31.9971 19.0126 32.0058 18.955 32.0058C18.7044 32.0058 18.4733 31.844 18.3963 31.5924L17.6513 29.1693C17.6055 29.021 17.6211 28.8601 17.6933 28.7236C17.7664 28.5861 17.8902 28.4838 18.0384 28.4379L20.4616 27.6929C20.7707 27.5984 21.0973 27.771 21.1929 28.0801C21.2875 28.3892 21.1149 28.7158 20.8058 28.8114L19.7 29.1517C20.8175 29.9025 22.1358 30.3082 23.5 30.3082C27.26 30.3082 30.3199 27.2493 30.3199 23.4883C30.3199 22.9842 30.2643 22.482 30.1561 21.9954C30.0859 21.6805 30.2838 21.3674 30.5997 21.2972C30.9147 21.2251 31.2277 21.424 31.2979 21.739ZM16.6801 23.4873C16.6801 19.7273 19.739 16.6674 23.5 16.6674C24.7501 16.6674 25.9602 17.0087 27.0143 17.6426L25.9222 17.7995C25.6023 17.8454 25.38 18.1418 25.4268 18.4616C25.4687 18.7532 25.7193 18.9638 26.005 18.9638C26.0323 18.9638 26.0606 18.9619 26.0889 18.958L28.5988 18.5972C28.9187 18.5513 29.141 18.2549 29.0942 17.9351L28.7334 15.4252C28.6876 15.1053 28.3911 14.884 28.0713 14.9298C27.7515 14.9756 27.5291 15.2721 27.5759 15.5919L27.7368 16.7123C26.475 15.9225 25.0124 15.4973 23.501 15.4973C19.0955 15.4973 15.511 19.0818 15.511 23.4873C15.511 24.0763 15.5753 24.6652 15.7031 25.2357C15.7635 25.5077 16.0054 25.693 16.2735 25.693C16.3154 25.693 16.3583 25.6881 16.4012 25.6784C16.7162 25.6082 16.9151 25.2952 16.8449 24.9802C16.7357 24.4936 16.6801 23.9915 16.6801 23.4873ZM46.9737 31.5241C46.9737 32.98 45.7889 34.1647 44.3331 34.1647C43.0781 34.1647 42.025 33.2842 41.7578 32.1092H35.4557C35.3933 32.2389 35.3075 32.3608 35.2003 32.468L32.468 35.2003C32.0302 35.6381 31.3603 35.7103 30.8396 35.3729L28.6593 33.9638C28.6144 33.9346 28.5783 33.9326 28.5296 33.956C28.1425 34.1433 27.7407 34.309 27.3361 34.4514C27.2854 34.4689 27.2619 34.4962 27.2502 34.5489L26.7052 37.0861C26.5755 37.6917 26.0509 38.1149 25.4317 38.1149H24.0851V43.7744H35.4869C35.7541 42.5984 36.8063 41.7188 38.0622 41.7188C39.518 41.7188 40.7028 42.9036 40.7028 44.3594C40.7028 45.8153 39.518 47 38.0622 47C36.8072 47 35.7541 46.1195 35.4869 44.9445H23.5C23.1772 44.9445 22.9149 44.6822 22.9149 44.3594V38.1149H21.5683C20.9491 38.1149 20.4245 37.6917 20.2948 37.0861L19.7498 34.5489C19.738 34.4962 19.7146 34.4689 19.6639 34.4514C19.2593 34.31 18.8585 34.1433 18.4704 33.956C18.4226 33.9326 18.3856 33.9346 18.3407 33.9638L16.1604 35.3729C16.1282 35.3933 16.0951 35.4128 16.0619 35.4314V41.7578C17.2379 42.025 18.1174 43.0772 18.1174 44.3331C18.1174 45.7889 16.9327 46.9737 15.4768 46.9737C14.021 46.9737 12.8363 45.7889 12.8363 44.3331C12.8363 43.0781 13.7168 42.025 14.8918 41.7578V35.4557C14.7621 35.3933 14.6402 35.3075 14.532 35.2003L11.7997 32.468C11.3609 32.0302 11.2907 31.3603 11.6271 30.8396L13.0362 28.6593C13.0654 28.6144 13.0674 28.5783 13.044 28.5296C12.8567 28.1425 12.691 27.7407 12.5486 27.3361C12.5311 27.2854 12.5038 27.261 12.4511 27.2502L9.91388 26.7052C9.30834 26.5745 8.88515 26.0509 8.88515 25.4317V24.0851H3.22564V35.4869C4.40162 35.7541 5.28116 36.8063 5.28116 38.0622C5.28116 39.518 4.09641 40.7028 2.64058 40.7028C1.18475 40.7028 0 39.518 0 38.0622C0 36.8072 0.880519 35.7541 2.05552 35.4869V23.5C2.05552 23.1772 2.31782 22.9149 2.64058 22.9149H8.88515V21.5683C8.88515 20.9491 9.30834 20.4245 9.91388 20.2948L12.4511 19.7498C12.5038 19.738 12.5311 19.7146 12.5486 19.6639C12.69 19.2603 12.8567 18.8585 13.044 18.4704C13.0674 18.4226 13.0644 18.3856 13.0362 18.3407L11.6262 16.1604C11.6057 16.1282 11.5862 16.0951 11.5677 16.0619H5.24216C4.97498 17.2369 3.92284 18.1174 2.66691 18.1174C1.21108 18.1174 0.0263278 16.9327 0.0263278 15.4768C0.0263278 14.021 1.21108 12.8363 2.66691 12.8363C3.92187 12.8363 4.97498 13.7168 5.24216 14.8918H11.5443C11.6067 14.7621 11.6925 14.6402 11.7997 14.5329L14.532 11.8007C14.9698 11.3619 15.6397 11.2917 16.1604 11.6281L18.3407 13.0371C18.3856 13.0664 18.4217 13.0683 18.4704 13.0449C18.8585 12.8577 19.2603 12.691 19.6639 12.5496C19.7146 12.532 19.738 12.5047 19.7498 12.4521L20.2948 9.91486C20.4255 9.30932 20.9491 8.88612 21.5683 8.88612H22.9149V3.22564H11.5131C11.2459 4.40064 10.1937 5.28116 8.9378 5.28116C7.48197 5.28116 6.29722 4.09641 6.29722 2.64058C6.29722 1.18475 7.48197 0 8.9378 0C10.1928 0 11.2459 0.880519 11.5131 2.05552H23.5C23.8228 2.05552 24.0851 2.31782 24.0851 2.64058V8.88515H25.4317C26.0518 8.88515 26.5755 9.30834 26.7052 9.91388L27.2502 12.4511C27.2619 12.5038 27.2854 12.5311 27.3361 12.5486C27.7407 12.69 28.1415 12.8567 28.5296 13.044C28.5774 13.0674 28.6144 13.0654 28.6593 13.0362L30.8396 11.6271C30.8718 11.6067 30.9049 11.5872 30.9381 11.5686V5.24216C29.7621 4.97498 28.8826 3.92284 28.8826 2.66691C28.8826 1.21108 30.0673 0.0263278 31.5232 0.0263278C32.979 0.0263278 34.1637 1.21108 34.1637 2.66691C34.1637 3.92187 33.2832 4.97498 32.1082 5.24216V11.5443C32.2379 11.6067 32.3598 11.6925 32.4671 11.7997L35.1993 14.532C35.6371 14.9698 35.7083 15.6397 35.3719 16.1604L33.9619 18.3407C33.9326 18.3856 33.9307 18.4217 33.9541 18.4704C34.1413 18.8575 34.3071 19.2593 34.4494 19.6639C34.467 19.7146 34.4943 19.738 34.547 19.7498L37.0842 20.2948C37.6897 20.4245 38.1129 20.9491 38.1129 21.5683V22.9149H43.7724V11.5131C42.5964 11.2459 41.7169 10.1937 41.7169 8.9378C41.7169 7.48197 42.9016 6.29722 44.3575 6.29722C45.8133 6.29722 47 7.48197 47 8.9378C47 10.1928 46.1195 11.2459 44.9445 11.5131V23.5C44.9445 23.8228 44.6822 24.0851 44.3594 24.0851H38.1149V25.4317C38.1149 26.0509 37.6917 26.5755 37.0861 26.7052L34.5489 27.2502C34.4962 27.2619 34.4689 27.2854 34.4514 27.3361C34.309 27.7407 34.1433 28.1425 33.956 28.5296C33.9326 28.5774 33.9356 28.6144 33.9638 28.6593L35.3729 30.8396C35.3933 30.8718 35.4128 30.9049 35.4314 30.9381H41.7578C42.025 29.7621 43.0772 28.8826 44.3331 28.8826C45.7889 28.8826 46.9737 30.0673 46.9737 31.5241ZM44.3594 10.4092C45.1707 10.4092 45.8299 9.74909 45.8299 8.93878C45.8299 8.12749 45.1697 7.46832 44.3594 7.46832C43.5481 7.46832 42.889 8.12846 42.889 8.93878C42.888 9.74909 43.5481 10.4092 44.3594 10.4092ZM10.4092 2.64058C10.4092 1.82929 9.74909 1.17012 8.93878 1.17012C8.12846 1.17012 7.46832 1.83027 7.46832 2.64058C7.46832 3.45187 8.12846 4.11104 8.93878 4.11104C9.74909 4.11104 10.4092 3.45187 10.4092 2.64058ZM4.13834 15.4759C4.13834 14.6646 3.4782 14.0054 2.66788 14.0054C1.85757 14.0054 1.19743 14.6656 1.19743 15.4759C1.19743 16.2872 1.85757 16.9463 2.66788 16.9463C3.4782 16.9463 4.13834 16.2872 4.13834 15.4759ZM2.64058 36.5908C1.82929 36.5908 1.17012 37.2509 1.17012 38.0612C1.17012 38.8715 1.83027 39.5317 2.64058 39.5317C3.45187 39.5317 4.11104 38.8715 4.11104 38.0612C4.11104 37.2509 3.45187 36.5908 2.64058 36.5908ZM36.5908 44.3594C36.5908 45.1707 37.2509 45.8299 38.0612 45.8299C38.8715 45.8299 39.5317 45.1697 39.5317 44.3594C39.5317 43.5481 38.8715 42.889 38.0612 42.889C37.2509 42.889 36.5908 43.5481 36.5908 44.3594ZM31.5241 4.13834C32.3354 4.13834 32.9946 3.4782 32.9946 2.66788C32.9946 1.8566 32.3344 1.19743 31.5241 1.19743C30.7128 1.19743 30.0537 1.85757 30.0537 2.66788C30.0527 3.4782 30.7128 4.13834 31.5241 4.13834ZM15.4759 42.8617C14.6646 42.8617 14.0054 43.5218 14.0054 44.3321C14.0054 45.1424 14.6656 45.8026 15.4759 45.8026C16.2872 45.8026 16.9463 45.1424 16.9463 44.3321C16.9463 43.5218 16.2872 42.8617 15.4759 42.8617ZM34.3909 31.4754L32.9809 29.2941C32.7284 28.904 32.7001 28.4399 32.902 28.0216C33.0697 27.6734 33.2198 27.3127 33.3466 26.9489C33.5007 26.5111 33.8488 26.204 34.3022 26.1065L36.8394 25.5614C36.9038 25.5477 36.9438 25.498 36.9438 25.4317V21.5683C36.9438 21.502 36.9038 21.4523 36.8394 21.4386L34.3022 20.8935C33.8488 20.796 33.5007 20.4889 33.3466 20.0511C33.2189 19.6873 33.0697 19.3266 32.902 18.9784C32.7001 18.5601 32.7294 18.096 32.9809 17.7059L34.39 15.5256C34.426 15.47 34.4192 15.4066 34.3724 15.3598L31.6402 12.6276C31.5934 12.5808 31.53 12.574 31.4744 12.61L29.2941 14.0191C28.904 14.2716 28.4399 14.2999 28.0206 14.0981C27.6725 13.9303 27.3117 13.7802 26.948 13.6534C26.5101 13.4993 26.203 13.1512 26.1055 12.6978L25.5604 10.1606C25.5467 10.0962 25.497 10.0562 25.4307 10.0562H21.5673C21.501 10.0562 21.4513 10.0962 21.4377 10.1606L20.8926 12.6978C20.7951 13.1512 20.4879 13.5003 20.0501 13.6534C19.6873 13.7802 19.3266 13.9303 18.9775 14.0981C18.5591 14.2999 18.095 14.2706 17.705 14.0191L15.5246 12.61C15.469 12.574 15.4057 12.5808 15.3589 12.6276L12.6266 15.3598C12.5798 15.4066 12.573 15.47 12.6091 15.5256L14.0181 17.7059C14.2706 18.096 14.2989 18.5601 14.0971 18.9784C13.9294 19.3275 13.7792 19.6873 13.6524 20.0511C13.4984 20.4889 13.1502 20.796 12.6968 20.8935L10.1596 21.4386C10.0952 21.4523 10.0553 21.502 10.0553 21.5683V25.4317C10.0553 25.498 10.0952 25.5477 10.1606 25.5614L12.6978 26.1065C13.1512 26.204 13.5003 26.5111 13.6534 26.9489C13.7811 27.3117 13.9303 27.6725 14.0981 28.0206C14.2999 28.4389 14.2706 28.9031 14.0191 29.2931L12.61 31.4734C12.574 31.529 12.5808 31.5924 12.6276 31.6392L15.3598 34.3714C15.4066 34.4182 15.47 34.4251 15.5256 34.389L17.7069 32.979C17.9253 32.8376 18.1672 32.7664 18.41 32.7664C18.6021 32.7664 18.7951 32.8103 18.9794 32.9C19.3275 33.0677 19.6883 33.2179 20.052 33.3446C20.4899 33.4977 20.797 33.8468 20.8945 34.3003L21.4396 36.8375C21.4533 36.9018 21.503 36.9418 21.5693 36.9418H25.4327C25.499 36.9418 25.5487 36.9018 25.5623 36.8375L26.1074 34.3003C26.2049 33.8468 26.5121 33.4987 26.9499 33.3446C27.3136 33.2169 27.6744 33.0677 28.0225 32.9C28.4409 32.6982 28.905 32.7264 29.295 32.979L31.4754 34.388C31.531 34.4241 31.5943 34.4173 31.6411 34.3705L34.3734 31.6382C34.4192 31.5943 34.426 31.531 34.3909 31.4754ZM45.8036 31.5241C45.8036 30.7128 45.1434 30.0537 44.3331 30.0537C43.5228 30.0537 42.8626 30.7138 42.8626 31.5241C42.8626 32.3354 43.5228 32.9946 44.3331 32.9946C45.1434 32.9946 45.8036 32.3344 45.8036 31.5241ZM23.5 19.3656C25.7798 19.3656 27.6344 21.2202 27.6344 23.5C27.6344 25.7798 25.7798 27.6344 23.5 27.6344C21.2202 27.6344 19.3656 25.7798 19.3656 23.5C19.3656 21.2202 21.2202 19.3656 23.5 19.3656ZM23.5 20.5357C21.8657 20.5357 20.5357 21.8657 20.5357 23.5C20.5357 25.1343 21.8657 26.4643 23.5 26.4643C25.1343 26.4643 26.4643 25.1343 26.4643 23.5C26.4643 21.8657 25.1343 20.5357 23.5 20.5357Z" fill="#0045E6"/>
</g>
<defs>
<clipPath id="clip0_177_547">
<rect width="47" height="47" fill="white"/>
</clipPath>
</defs>
</svg>
