<svg width="20" height="19" viewBox="0 0 20 19" fill="none" xmlns="http://www.w3.org/2000/svg">
<path d="M15.9184 11.82C15.6594 12.071 15.5404 12.434 15.5994 12.79L16.4884 17.71C16.5634 18.127 16.3874 18.549 16.0384 18.79C15.6964 19.04 15.2414 19.07 14.8684 18.87L10.4394 16.56C10.2854 16.478 10.1144 16.434 9.93939 16.429H9.66839C9.57439 16.443 9.48239 16.473 9.39839 16.519L4.96839 18.84C4.74939 18.95 4.50139 18.989 4.25839 18.95C3.66639 18.838 3.27139 18.274 3.36839 17.679L4.25839 12.759C4.31739 12.4 4.19839 12.035 3.93939 11.78L0.328388 8.28C0.0263875 7.987 -0.0786125 7.547 0.0593875 7.15C0.193388 6.754 0.535388 6.465 0.948388 6.4L5.91839 5.679C6.29639 5.64 6.62839 5.41 6.79839 5.07L8.98839 0.58C9.04039 0.48 9.10739 0.388 9.18839 0.31L9.27839 0.24C9.32539 0.188 9.37939 0.145 9.43939 0.11L9.54839 0.07L9.71839 0H10.1394C10.5154 0.039 10.8464 0.264 11.0194 0.6L13.2384 5.07C13.3984 5.397 13.7094 5.624 14.0684 5.679L19.0384 6.4C19.4584 6.46 19.8094 6.75 19.9484 7.15C20.0794 7.551 19.9664 7.991 19.6584 8.28L15.9184 11.82Z" fill="#FF7A28"/>
</svg>
