<svg width="34" height="31" viewBox="0 0 34 31" fill="none" xmlns="http://www.w3.org/2000/svg">
<g clip-path="url(#clip0_49_23426)">
<path fill-rule="evenodd" clip-rule="evenodd" d="M31.2203 13.3554C31.2203 13.6331 30.9966 13.8584 30.7206 13.8584H27.9572C27.6813 13.8584 27.4576 13.6331 27.4576 13.3554C27.4576 13.0778 27.6813 12.8525 27.9572 12.8525H30.7206C30.9966 12.8525 31.2203 13.0778 31.2203 13.3554ZM31.2203 9.45336C31.2203 9.73139 30.9966 9.9567 30.7206 9.9567H27.9572C27.6813 9.9567 27.4576 9.73139 27.4576 9.45336C27.4576 9.17532 27.6813 8.95086 27.9572 8.95086H30.7206C30.9966 8.95086 31.2203 9.17532 31.2203 9.45336ZM31.2203 5.55091C31.2203 5.82856 30.9966 6.05387 30.7206 6.05387H27.9572C27.6813 6.05387 27.4576 5.82856 27.4576 5.55091C27.4576 5.27326 27.6813 5.04795 27.9572 5.04795H30.7206C30.9966 5.04795 31.2203 5.27326 31.2203 5.55091ZM32.1496 15.8533C33.019 11.6474 33.0175 7.3428 32.1449 3.05678C32.0365 2.52428 31.583 2.15211 31.0427 2.15211H27.0745C26.4542 2.15211 25.9493 2.65966 25.9493 3.28377V9.36428C25.9493 9.55292 25.8447 9.72504 25.6781 9.81152L23.7034 10.8331L25.6781 11.8546C25.8446 11.9415 25.9493 12.1136 25.9493 12.3023V15.6225C25.9493 16.247 26.4542 16.7554 27.0745 16.7554H31.0481C31.5869 16.7555 32.0399 16.3846 32.1496 15.8533ZM33.1238 2.85466C32.9189 1.84874 32.0631 1.14627 31.0426 1.14627H27.0744C25.9031 1.14627 24.95 2.10489 24.95 3.28384V9.05724L22.3818 10.3855C22.0216 10.5726 22.021 11.0938 22.3818 11.2804L24.95 12.6091V15.6226C24.95 16.8014 25.9031 17.7614 27.0744 17.7614H31.048C32.0654 17.7614 32.9207 17.0605 33.128 16.058C34.0253 11.7179 34.0239 7.27576 33.1238 2.85466ZM16.4683 4.99093C17.2108 4.99093 17.8148 5.59935 17.8148 6.34621C17.8148 7.09392 17.2108 7.7015 16.4683 7.7015C15.7258 7.7015 15.1218 7.09392 15.1218 6.34621C15.1218 5.59943 15.7259 4.99093 16.4683 4.99093ZM16.4683 8.70741C17.7618 8.70741 18.8141 7.64831 18.8141 6.34621C18.8141 5.04496 17.7618 3.98548 16.4683 3.98548C15.1747 3.98548 14.1225 5.04496 14.1225 6.34621C14.1225 7.64831 15.1747 8.70741 16.4683 8.70741ZM10.5605 7.7015C9.8178 7.7015 9.21391 7.09392 9.21391 6.34621C9.21391 5.59935 9.81787 4.99093 10.5605 4.99093C11.303 4.99093 11.9068 5.59935 11.9068 6.34621C11.9068 7.09392 11.303 7.7015 10.5605 7.7015ZM10.5605 3.98548C9.26699 3.98548 8.21448 5.04496 8.21448 6.34621C8.21448 7.64831 9.26699 8.70741 10.5605 8.70741C11.8538 8.70741 12.9063 7.64831 12.9063 6.34621C12.9063 5.04496 11.8538 3.98548 10.5605 3.98548ZM18.4478 17.171L17.5458 22.0351C17.4379 22.6175 17.0125 23.0398 16.4344 23.1415V17.6128C16.4344 17.3352 16.2107 17.1099 15.9346 17.1099H15.8928C15.5637 17.1531 15.4311 17.3349 15.4349 17.6128V23.2837C14.9638 23.3381 14.4968 23.3744 14.0349 23.3916V19.3617C14.0349 19.0832 13.8112 18.8587 13.5352 18.8587H13.4935C13.1801 18.9245 13.0492 19.1059 13.0356 19.3617V23.4022C12.5625 23.3929 12.0955 23.3643 11.6353 23.3153V21.1165C11.6353 20.8389 11.4116 20.6136 11.1357 20.6136H11.0941C10.7864 20.6733 10.6548 20.8557 10.6359 21.1165V23.1752C10.0314 23.0658 9.60155 22.6707 9.48879 22.0625L8.58083 17.1668C8.43408 16.3759 8.9706 15.6399 9.76396 15.5427C12.2519 15.2382 14.7677 15.2439 17.2638 15.547C18.0576 15.6434 18.5947 16.3801 18.4478 17.171ZM19.0111 15.5061C18.6135 14.961 18.0508 14.6297 17.3837 14.5483C14.7967 14.2335 12.1924 14.2319 9.64345 14.5445C8.27942 14.711 7.34645 15.9917 7.59843 17.3512L8.50631 22.247C8.68987 23.2356 9.44431 23.9862 10.4285 24.16C12.4456 24.5157 14.5287 24.4816 16.5871 24.136C17.5813 23.9689 18.3431 23.2175 18.5281 22.2204L19.4301 17.3559C19.5535 16.6909 19.4086 16.0512 19.0111 15.5061ZM24.9577 25.198C24.7623 25.3254 24.5262 25.3153 24.3417 25.1727C22.8916 24.0503 21.6828 22.9377 20.6534 21.779L21.9917 15.9111C23.4001 18.6731 24.4732 21.5972 25.1874 24.622C25.2412 24.8499 25.1533 25.0706 24.9577 25.198ZM13.5143 29.0114C16.1429 29.0114 18.3895 27.2102 18.9776 24.6321L21.2375 14.7229C16.6383 11.8326 10.3907 11.8324 5.79149 14.7229L8.05123 24.6321C8.63915 27.2102 10.8857 29.0114 13.5143 29.0114ZM2.68691 25.1727C2.28726 25.4818 1.72466 25.1156 1.8413 24.622C2.55544 21.5972 3.6287 18.6732 5.03698 15.9111L6.37523 21.779C5.34584 22.9377 4.13701 24.0503 2.68691 25.1727ZM6.62919 9.03106C6.62919 10.0353 7.31299 10.872 8.29212 11.0656C11.609 11.7222 15.1171 11.7108 18.7189 11.0302C19.7084 10.8437 20.3995 10.0058 20.3995 8.9918V3.70996C20.3995 2.69945 19.7105 1.86106 18.724 1.67241C15.1078 0.980424 11.5954 0.967337 8.28543 1.63361C7.31025 1.83022 6.62919 2.66655 6.62919 3.66734V9.03106ZM5.02915 7.34326V5.34917L5.62984 5.00065V7.69262L5.02915 7.34326ZM21.9997 5.34917V7.34326L21.3988 7.69262V5.00065L21.9997 5.34917ZM22.2393 14.2453C24.0031 17.4293 25.3221 20.8415 26.1597 24.3895C26.4939 25.805 24.8738 26.8535 23.7323 25.9701C22.4487 24.9761 21.3452 23.9879 20.3824 22.9676L19.9515 24.8566C19.2544 27.9135 16.6309 30.0173 13.5143 30.0173C10.3977 30.0173 7.77423 27.9136 7.07697 24.8566L6.64615 22.9676C5.68322 23.9878 4.57985 24.976 3.29619 25.9701C2.15541 26.8533 0.534609 25.8057 0.869019 24.3895C1.70649 20.8423 3.0255 17.4292 4.78933 14.2453L4.78994 14.2462C4.82811 14.177 4.88202 14.1166 4.95045 14.0711C6.17845 13.255 7.52468 12.6293 8.95007 12.2061C8.66515 12.1593 8.38146 12.109 8.09921 12.0525C6.64524 11.7651 5.62976 10.5226 5.62976 9.03099V8.8542L4.27958 8.06938C4.12499 7.97991 4.02972 7.81323 4.02972 7.63392V5.05889C4.02972 4.87912 4.12499 4.71336 4.27958 4.62389L5.62976 3.83907V3.66734C5.62976 2.18088 6.64113 0.939097 8.0894 0.647133C11.5263 -0.0443976 15.1673 -0.0317699 18.9107 0.68425C20.3757 0.964429 21.3988 2.20912 21.3988 3.70996V3.83907L22.7492 4.62389C22.9037 4.71336 22.999 4.87912 22.999 5.05889V7.634C22.999 7.81331 22.9037 7.97999 22.7492 8.06945L21.3988 8.85428V8.9918C21.3988 10.4973 20.3726 11.7416 18.9032 12.0192C18.596 12.077 18.2896 12.1297 17.9839 12.1783C19.4442 12.6019 20.8229 13.237 22.0783 14.0711C22.1466 14.1168 22.2006 14.1771 22.2387 14.2462L22.2393 14.2453Z" fill="white"/>
</g>
<defs>
<clipPath id="clip0_49_23426">
<rect width="33" height="30" fill="white" transform="translate(0.812256 0.0776367)"/>
</clipPath>
</defs>
</svg>
