<svg width="31" height="31" viewBox="0 0 31 31" fill="none" xmlns="http://www.w3.org/2000/svg">
<g clip-path="url(#clip0_49_23333)">
<path d="M27.2802 4.7205C27.8955 4.7205 28.3934 4.22263 28.3934 3.60732C28.3934 2.99202 27.8955 2.49414 27.2802 2.49414C26.6649 2.49414 26.167 2.99202 26.167 3.60732C26.167 4.22263 26.6696 4.7205 27.2802 4.7205ZM27.2802 3.28793C27.4587 3.28793 27.6043 3.43353 27.6043 3.61202C27.6043 3.7905 27.4587 3.93611 27.2802 3.93611C27.097 3.93611 26.9561 3.7952 26.9561 3.61202C26.9561 3.42884 27.1017 3.28793 27.2802 3.28793Z" fill="white"/>
<path d="M28.5155 0.69519H5.63189C4.76295 0.69519 4.05371 1.40443 4.05371 2.27337V4.68292H2.48492C1.61598 4.68292 0.906738 5.39216 0.906738 6.2611V26.0494C0.906738 26.9184 1.61598 27.6276 2.48492 27.6276H12.9733V29.9103C12.9733 30.1264 13.1517 30.3049 13.3678 30.3049H20.7796C20.9957 30.3049 21.1742 30.1264 21.1742 29.9103V27.6276H25.3686C26.2375 27.6276 26.9467 26.9184 26.9467 26.0494V23.6399H28.5155C29.3845 23.6399 30.0937 22.9306 30.0937 22.0617V2.27337C30.0937 1.40443 29.3845 0.69519 28.5155 0.69519ZM4.8428 2.27337C4.8428 1.83655 5.19977 1.48428 5.63189 1.48428H28.5155C28.9523 1.48428 29.3046 1.84125 29.3046 2.27337V5.73504H14.3307L12.5693 3.90792C12.4331 3.76701 12.2452 3.68716 12.0526 3.68716H8.17295C7.7784 3.68716 7.45431 4.01125 7.45431 4.4058V5.73504H4.8428V2.27337ZM2.48492 26.8432C2.0481 26.8432 1.69583 26.4863 1.69583 26.0541V6.2611C1.69583 5.82428 2.0528 5.47201 2.48492 5.47201H4.05371V22.0664C4.05371 22.9353 4.76295 23.6446 5.63189 23.6446H14.1992C14.3542 23.9452 14.4246 24.2834 14.3964 24.6309H13.7858C13.3349 24.6309 12.9733 24.9973 12.9733 25.4435V26.8432H2.48492ZM16.6839 18.5813C16.7637 18.4403 16.9093 18.3511 17.0737 18.3511C17.3179 18.3511 17.5152 18.5484 17.5152 18.7926C17.5152 18.9523 17.4307 19.0979 17.2945 19.1778C17.1442 19.267 16.9657 19.2576 16.7825 19.1543C16.759 19.1402 16.7355 19.1214 16.7261 19.0979C16.5758 18.8584 16.6369 18.6705 16.6839 18.5813ZM16.6792 17.6372C16.3926 17.7358 16.1484 17.9284 15.9981 18.2008C15.7726 18.6047 15.8008 19.0979 16.0639 19.5206C16.1484 19.6522 16.2611 19.7602 16.3973 19.84C16.6134 19.9622 16.8483 20.0279 17.0784 20.0279C17.2945 20.0279 17.5058 19.9716 17.6937 19.8635C18.0695 19.6428 18.3043 19.2341 18.3043 18.7973C18.3043 18.2572 17.952 17.8016 17.4683 17.6372V15.6081L20.9581 21.9067C20.9534 21.9114 20.9487 21.9208 20.9346 21.9255C19.6993 22.2449 18.8914 23.4003 18.9572 24.6309H15.1949C15.2654 23.3956 14.4528 22.2402 13.194 21.8879L16.6792 15.6081V17.6372ZM20.3851 29.5158H13.7623L13.7858 25.4153H20.3616C20.3757 25.4153 20.3851 25.4247 20.3851 25.4388V29.5158ZM26.1576 26.0494C26.1576 26.4862 25.8007 26.8385 25.3686 26.8385H21.1742V25.4388C21.1742 24.9879 20.8078 24.6263 20.3616 24.6263H19.751C19.7228 24.2787 19.7979 23.9405 19.9483 23.6399H26.1576V26.0494ZM28.5155 22.8555H20.7139C20.8407 22.785 20.9769 22.724 21.1272 22.6864C21.3761 22.6206 21.5781 22.4469 21.6814 22.212C21.7801 21.9819 21.766 21.7235 21.6439 21.5028L17.6045 14.2272C17.5011 14.0346 17.2992 13.9125 17.0784 13.9125C16.8529 13.9172 16.651 14.0299 16.5429 14.2225L12.4989 21.5028C12.3767 21.7235 12.3673 21.9866 12.466 22.2167C12.5646 22.4516 12.7666 22.6206 13.0155 22.6864C13.1658 22.724 13.2973 22.785 13.4289 22.8555H5.63189C5.19507 22.8555 4.8428 22.4985 4.8428 22.0664V6.52413H7.52007C7.91462 6.52413 8.23871 6.20004 8.23871 5.80549V4.47625H12.0198L13.7811 6.30337C13.9173 6.44428 14.1052 6.52413 14.2978 6.52413H29.3046V22.0617C29.3046 22.4985 28.9523 22.8555 28.5155 22.8555Z" fill="white"/>
<path d="M24.5937 4.7205C25.209 4.7205 25.7068 4.22263 25.7068 3.60732C25.7068 2.99202 25.209 2.49414 24.5937 2.49414C23.9783 2.49414 23.4805 2.99202 23.4805 3.60732C23.4805 4.22263 23.9783 4.7205 24.5937 4.7205ZM24.5937 3.28793C24.7721 3.28793 24.9177 3.43353 24.9177 3.61202C24.9177 3.7905 24.7721 3.93611 24.5937 3.93611C24.4105 3.93611 24.2696 3.7952 24.2696 3.61202C24.2696 3.42884 24.4152 3.28793 24.5937 3.28793Z" fill="white"/>
<path d="M21.9022 4.7205C22.5175 4.7205 23.0154 4.22263 23.0154 3.60732C23.0154 2.99202 22.5175 2.49414 21.9022 2.49414C21.2869 2.49414 20.7891 2.99202 20.7891 3.60732C20.7891 4.22263 21.2869 4.7205 21.9022 4.7205ZM21.9022 3.28793C22.0807 3.28793 22.2263 3.43353 22.2263 3.61202C22.2263 3.7905 22.0807 3.93611 21.9022 3.93611C21.7191 3.93611 21.5782 3.7952 21.5782 3.61202C21.5782 3.42884 21.7238 3.28793 21.9022 3.28793Z" fill="white"/>
<path d="M24.678 9.96232C24.4479 10.1925 24.3022 10.4837 24.2459 10.7937H18.7269V10.1737C18.7269 9.75096 18.3841 9.40808 17.9613 9.40808H16.1812C15.7585 9.40808 15.4156 9.75096 15.4156 10.1737V10.7937H9.90134C9.84967 10.4884 9.70407 10.1972 9.46922 9.95763C8.8727 9.37051 7.85346 9.3799 7.27104 9.96232C6.97513 10.2582 6.81543 10.6481 6.81543 11.0614C6.81543 11.4794 6.97982 11.874 7.27104 12.1605C7.56694 12.4658 7.96149 12.6208 8.37013 12.6208C8.62846 12.6208 8.89149 12.5597 9.14043 12.4329C9.40816 12.2967 9.62891 12.0713 9.76043 11.7941C9.79331 11.7237 9.82149 11.6532 9.84497 11.5828H13.673C11.5922 12.5973 10.0235 14.5043 9.47861 16.8058H8.86801C8.44528 16.8058 8.1024 17.1487 8.1024 17.5714V19.3516C8.1024 19.7743 8.44528 20.1172 8.86801 20.1172H10.6482C11.0709 20.1172 11.4138 19.7743 11.4138 19.3516V17.5714C11.4138 17.1487 11.0709 16.8058 10.6482 16.8058H10.2912C10.9488 14.3258 12.9356 12.3813 15.4297 11.7801V11.9491C15.4297 12.3719 15.7726 12.7147 16.1953 12.7147H17.9754C18.3982 12.7147 18.741 12.3719 18.741 11.9491V11.7801C21.2304 12.3813 23.2172 14.3258 23.8795 16.8058H23.5554C23.1327 16.8058 22.7898 17.1487 22.7898 17.5714V19.3516C22.7898 19.7743 23.1327 20.1172 23.5554 20.1172H25.3356C25.7583 20.1172 26.1012 19.7743 26.1012 19.3516V17.5714C26.1012 17.1487 25.7583 16.8058 25.3356 16.8058H24.6921C24.1425 14.5043 22.5738 12.5926 20.4977 11.5828H24.3351C24.4103 11.7988 24.5324 11.9961 24.6968 12.1605C24.9927 12.4658 25.3872 12.6208 25.7959 12.6208C26.0542 12.6208 26.3172 12.5597 26.5662 12.4329C26.8339 12.2967 27.0547 12.0713 27.1862 11.7941C27.4915 11.1507 27.3835 10.4508 26.8997 9.95763C26.2844 9.3752 25.2651 9.3799 24.678 9.96232ZM9.04179 11.4607C8.98543 11.5734 8.89149 11.672 8.77876 11.7284C8.37013 11.9351 8.01785 11.8035 7.82528 11.6016C7.67967 11.4607 7.59982 11.2681 7.59982 11.0614C7.59982 10.8594 7.67967 10.6669 7.82528 10.5166C7.97088 10.371 8.16346 10.2911 8.37013 10.2911C8.5721 10.2911 8.76937 10.371 8.91028 10.5119C9.15452 10.7655 9.20149 11.1178 9.04179 11.4607ZM10.6388 19.3281L8.8821 19.3516L8.85861 17.5949H10.6153L10.6388 19.3281ZM25.3215 19.3281L23.5648 19.3516L23.5413 17.5949H25.298L25.3215 19.3281ZM16.2094 11.9538L16.2 11.362C16.2094 11.3197 16.2094 11.2775 16.2047 11.2305V11.2258C16.2047 11.2117 16.2141 11.2023 16.2141 11.1882C16.2141 11.1647 16.2047 11.146 16.2 11.1272L16.1859 10.2019H17.9426L17.9566 11.1272C17.9519 11.1507 17.9426 11.1694 17.9426 11.1929C17.9426 11.207 17.9472 11.2164 17.9519 11.2305V11.2352C17.9426 11.2963 17.9472 11.3526 17.9613 11.4043L17.9707 11.9351L16.2094 11.9538ZM26.4535 11.4607C26.3971 11.5734 26.3032 11.672 26.1904 11.7284C25.7818 11.9351 25.4295 11.8035 25.2369 11.6016C25.0913 11.4607 25.0115 11.2681 25.0115 11.0614C25.0115 10.8594 25.0913 10.6669 25.2369 10.5166C25.3826 10.371 25.5751 10.2911 25.7818 10.2911C25.9838 10.2911 26.181 10.371 26.3219 10.5119C26.5662 10.7655 26.6132 11.1178 26.4535 11.4607Z" fill="white"/>
</g>
<defs>
<clipPath id="clip0_49_23333">
<rect width="31" height="31" fill="white"/>
</clipPath>
</defs>
</svg>
