<svg width="54" height="54" viewBox="0 0 54 54" fill="none" xmlns="http://www.w3.org/2000/svg">
<path d="M49.0314 22.3188C50.1294 20.1463 49.6749 17.5676 47.8998 15.9017L45.3796 13.5361C44.8081 12.9999 44.4736 12.4205 44.2949 11.6573L43.5064 8.29205C42.9512 5.92196 40.9453 4.23868 38.5149 4.10357L35.0636 3.91162C34.2812 3.86816 33.6525 3.6393 33.0252 3.16975L30.258 1.09834C28.3091 -0.3605 25.6905 -0.3605 23.742 1.09834L20.9748 3.16975C20.3475 3.6393 19.7187 3.86816 18.9362 3.91162L15.4851 4.10357C13.0548 4.23868 11.0487 5.92185 10.4934 8.29205L9.70507 11.6575C9.5264 12.4204 9.19186 12.9999 8.62043 13.5362L6.10015 15.9017C4.32521 17.5676 3.87054 20.1463 4.96857 22.3188L6.52793 25.4035C6.88156 26.1031 6.99758 26.7619 6.90456 27.54L6.49439 30.9722C6.20551 33.3891 7.5148 35.6569 9.75242 36.6152L12.9298 37.976C13.3089 38.1383 13.6295 38.3358 13.9116 38.5807L9.05643 49.0089C8.92376 49.2939 8.96056 49.6289 9.15167 49.8784C9.34289 50.1278 9.65676 50.2502 9.96663 50.1963L14.7803 49.3551L17.2353 53.5801C17.3869 53.8408 17.6651 53.9999 17.9647 53.9999C17.9774 53.9999 17.9903 53.9996 18.003 53.999C18.3171 53.9847 18.5971 53.7972 18.7298 53.5123L22.9823 44.3782L25.9153 43.4918C26.6653 43.2651 27.3346 43.2651 28.0846 43.4918L31.1602 44.4213L35.3926 53.5123C35.5253 53.7972 35.8053 53.9847 36.1194 53.999C36.1322 53.9996 36.1449 53.9999 36.1577 53.9999C36.4572 53.9999 36.7355 53.8406 36.8871 53.5801L39.3421 49.3551L44.1558 50.1963C44.4651 50.2499 44.7793 50.1278 44.9708 49.8784C45.162 49.6289 45.1987 49.2939 45.066 49.0089L40.1765 38.5067C40.4371 38.2958 40.7298 38.1216 41.07 37.9758L44.2475 36.6151C46.4851 35.6568 47.7944 33.3891 47.5056 30.9721L47.0953 27.5398C47.0022 26.7617 47.1184 26.1029 47.472 25.4035L49.0314 22.3188ZM17.8823 51.3347L15.9439 47.999C15.7663 47.6936 15.4168 47.5312 15.0691 47.5918L11.2686 48.2558L15.0671 40.0974L16.4836 42.2634C17.5027 43.8216 19.1821 44.7106 20.9582 44.7279L17.8823 51.3347ZM39.0533 47.5917C38.7053 47.5311 38.3561 47.6935 38.1786 47.9989L36.2402 51.3346L33.1636 44.7262C34.8945 44.6703 36.5204 43.786 37.5163 42.2633L39.0045 39.9879L42.8539 48.2558L39.0533 47.5917ZM45.966 24.6423C45.4672 25.6291 45.2884 26.6425 45.4197 27.7403L45.83 31.1724C46.0323 32.8653 45.1504 34.3928 43.5831 35.064L40.4057 36.4247C39.3892 36.8599 38.6011 37.5213 37.9959 38.4467L36.104 41.3396C35.1708 42.7663 33.5134 43.3697 31.8816 42.8764L28.5728 41.8766C27.5145 41.5569 26.4856 41.5569 25.4271 41.8766L22.1183 42.8764C20.4864 43.3697 18.829 42.7664 17.8959 41.3396L16.004 38.4467C15.3988 37.5215 14.6105 36.8599 13.5941 36.4248L10.4168 35.064C8.84961 34.3928 7.96757 32.8652 8.16997 31.1724L8.58014 27.7404C8.71145 26.6427 8.53278 25.6293 8.03392 24.6423L6.47456 21.5575C5.70548 20.036 6.01176 18.2989 7.25482 17.1322L9.7751 14.7668C10.5814 14.01 11.0958 13.1189 11.348 12.0424L12.1363 8.67712C12.5253 7.01715 13.8765 5.88336 15.5787 5.78854L19.0298 5.59659C20.1338 5.53531 21.1008 5.18336 21.986 4.5208L24.7531 2.4494C25.4356 1.93851 26.2178 1.68317 26.9999 1.68317C27.7821 1.68317 28.5643 1.93851 29.2467 2.4494L32.0139 4.5208C32.8992 5.18336 33.8662 5.53531 34.9699 5.59659L38.4212 5.78854C40.1234 5.88325 41.4746 7.01704 41.8634 8.67712L42.6519 12.0424C42.9041 13.119 43.4186 14.0101 44.2248 14.7667L46.7451 17.1322C47.9881 18.299 48.2944 20.036 47.5253 21.5575L45.966 24.6423ZM26.9999 8.08238C19.1241 8.08238 12.7165 14.4899 12.7165 22.3658C12.7165 30.2418 19.1241 36.6493 26.9999 36.6493C34.8758 36.6493 41.2834 30.2418 41.2834 22.3658C41.2834 14.4899 34.8758 8.08238 26.9999 8.08238ZM26.9999 34.9617C20.0545 34.9617 14.404 29.3112 14.404 22.3657C14.404 15.4203 20.0545 9.76977 26.9999 9.76977C33.9454 9.76977 39.5959 15.4203 39.5959 22.3657C39.5959 29.3112 33.9454 34.9617 26.9999 34.9617ZM33.1695 15.5194C32.4124 15.5223 31.7024 15.8199 31.1702 16.3572L25.2318 22.3549L22.8284 19.9515C21.7221 18.8454 19.922 18.8453 18.8159 19.9516C17.7098 21.0578 17.7098 22.8577 18.8159 23.964L23.2328 28.3808C23.786 28.9339 24.5126 29.2104 25.2389 29.2104C25.9655 29.2104 26.692 28.9339 27.2452 28.3808C28.9189 26.7069 34.2068 21.3435 35.1922 20.349C36.2909 19.2402 36.285 17.4437 35.1794 16.3441C34.6418 15.8094 33.926 15.5151 33.1695 15.5194ZM33.9937 19.1613C33.0072 20.1569 27.7217 25.518 26.052 27.1876C25.6037 27.6362 24.8744 27.6359 24.4262 27.1876L20.0093 22.7709C19.561 22.3226 19.561 21.5932 20.0093 21.145C20.2334 20.9208 20.5277 20.8088 20.8222 20.8088C21.1167 20.8088 21.411 20.9209 21.6352 21.145L24.6382 24.148C24.7965 24.3062 25.0111 24.3951 25.2348 24.3951H25.2369C25.4615 24.3946 25.6765 24.3046 25.8344 24.1451L32.3694 17.5448C32.5839 17.3282 32.8704 17.2083 33.176 17.207H33.1805C33.486 17.207 33.773 17.3255 33.9896 17.5408C34.4366 17.9853 34.4384 18.7124 33.9937 19.1613Z" fill="white"/>
</svg>
