<svg width="12" height="12" viewBox="0 0 12 12" fill="none" xmlns="http://www.w3.org/2000/svg">
<g clip-path="url(#clip0_201_826)">
<path d="M11.1888 3.50744C11.1888 3.50744 11.0854 2.72898 10.7669 2.38716C10.3637 1.93729 9.91286 1.93508 9.70605 1.90862C8.22536 1.79395 6.00224 1.79395 6.00224 1.79395H5.9981C5.9981 1.79395 3.77499 1.79395 2.29429 1.90862C2.08749 1.93508 1.63666 1.93729 1.2334 2.38716C0.914924 2.72898 0.813591 3.50744 0.813591 3.50744C0.813591 3.50744 0.706055 4.42263 0.706055 5.33561V6.19125C0.706055 7.10423 0.811523 8.01942 0.811523 8.01942C0.811523 8.01942 0.914924 8.79788 1.23133 9.1397C1.63459 9.58957 2.16401 9.57414 2.39976 9.62265C3.24764 9.70866 6.00017 9.73512 6.00017 9.73512C6.00017 9.73512 8.22536 9.73071 9.70605 9.61824C9.91286 9.59178 10.3637 9.58957 10.7669 9.1397C11.0854 8.79788 11.1888 8.01942 11.1888 8.01942C11.1888 8.01942 11.2943 7.10644 11.2943 6.19125V5.33561C11.2943 4.42263 11.1888 3.50744 11.1888 3.50744ZM4.90619 7.22993V4.05655L7.76626 5.64876L4.90619 7.22993Z" fill="#45484F"/>
</g>
<defs>
<clipPath id="clip0_201_826">
<rect width="10.5882" height="10.5882" fill="white" transform="translate(0.706055 0.470703)"/>
</clipPath>
</defs>
</svg>
